<?xml version="1.0" encoding="utf-8"?>
<!-- Generator: Adobe Illustrator 16.0.4, SVG Export Plug-In . SVG Version: 6.00 Build 0)  -->
<!DOCTYPE svg PUBLIC "-//W3C//DTD SVG 1.1//EN" "http://www.w3.org/Graphics/SVG/1.1/DTD/svg11.dtd">
<svg version="1.1" id="Layer_1" xmlns="http://www.w3.org/2000/svg" xmlns:xlink="http://www.w3.org/1999/xlink" x="0px" y="0px"
	 width="720px" height="720px" viewBox="0 0 720 720" enable-background="new 0 0 720 720" xml:space="preserve">
<g>
	<g>
		<polygon fill="#F4F4F4" points="-430.323,-37.613 -430.323,24.846 -235.687,159.795 -235.687,97.562 		"/>
		<polygon fill="#CECECE" points="-235.687,98.912 -139.905,29.934 -139.905,90.83 -235.687,159.809 		"/>
	</g>
	<g>
		<polygon fill="#333333" points="-430.28,-58.422 -430.28,4.037 -235.642,138.985 -235.642,76.753 		"/>
		<g>
			<path fill="#D6D112" d="M-407.233-39.781c0,10.43,11.448,18.879,25.575,18.879c14.128,0,25.578-8.449,25.578-18.879v8.732
				c0,10.426-11.449,18.879-25.578,18.879c-14.125,0-25.575-8.455-25.575-18.879V-39.781z"/>
			<path fill="#FFF931" d="M-356.08-39.781c0,10.43-11.449,18.879-25.579,18.879c-14.125,0-25.574-8.449-25.574-18.879
				c0-10.424,11.448-18.877,25.574-18.877C-367.53-58.658-356.08-50.205-356.08-39.781z"/>
		</g>
		<g>
			<path fill="#D6D112" d="M-359.414-74.324c0,10.426,11.449,18.877,25.575,18.877c14.129,0,25.578-8.451,25.578-18.877v8.732
				c0,10.424-11.449,18.877-25.578,18.877c-14.126,0-25.575-8.453-25.575-18.877V-74.324z"/>
			<ellipse fill="#FFF931" cx="-333.838" cy="-74.325" rx="25.577" ry="18.878"/>
		</g>
		<g>
			<path fill="#D6D112" d="M-358.51-5.988c0,10.43,11.449,18.881,25.576,18.881c14.126,0,25.577-8.451,25.577-18.881v8.73
				c0,10.428-11.451,18.881-25.577,18.881c-14.127,0-25.576-8.453-25.576-18.881V-5.988z"/>
			<ellipse fill="#FFF931" cx="-332.934" cy="-5.988" rx="25.577" ry="18.881"/>
		</g>
		<g>
			<g>
				<path fill="#D6D112" d="M-310.69-40.533c0,10.428,11.449,18.879,25.576,18.879s25.576-8.451,25.576-18.879v8.732
					c0,10.426-11.449,18.877-25.576,18.877S-310.69-21.375-310.69-31.8V-40.533z"/>
				<ellipse fill="#FFF931" cx="-285.112" cy="-40.533" rx="25.576" ry="18.879"/>
			</g>
		</g>
		<g>
			<path fill="#D6D112" d="M-309.854,27.807c0,10.43,11.449,18.879,25.576,18.879s25.578-8.449,25.578-18.879v8.732
				c0,10.426-11.449,18.879-25.578,18.879c-14.125,0-25.576-8.455-25.576-18.879V27.807z"/>
			<path fill="#FFF931" d="M-258.7,27.807c0,10.43-11.449,18.879-25.58,18.879c-14.125,0-25.574-8.449-25.574-18.879
				c0-10.424,11.449-18.877,25.574-18.877C-270.151,8.93-258.7,17.383-258.7,27.807z"/>
		</g>
		<g>
			<path fill="#D6D112" d="M-262.034-6.736c0,10.426,11.449,18.877,25.574,18.877c14.128,0,25.578-8.451,25.578-18.877v8.732
				c0,10.424-11.45,18.877-25.578,18.877c-14.125,0-25.574-8.453-25.574-18.877V-6.736z"/>
			<ellipse fill="#FFF931" cx="-236.458" cy="-6.737" rx="25.576" ry="18.878"/>
		</g>
		<g>
			<path fill="#D6D112" d="M-261.13,61.6c0,10.43,11.449,18.881,25.576,18.881c14.125,0,25.576-8.451,25.576-18.881v8.73
				c0,10.428-11.452,18.88-25.576,18.88c-14.127,0-25.576-8.453-25.576-18.88V61.6z"/>
			<ellipse fill="#FFF931" cx="-235.554" cy="61.6" rx="25.576" ry="18.881"/>
		</g>
		<g>
			<g>
				<path fill="#D6D112" d="M-213.312,27.055c0,10.428,11.449,18.879,25.576,18.879s25.576-8.451,25.576-18.879v8.732
					c0,10.426-11.449,18.877-25.576,18.877s-25.576-8.451-25.576-18.877V27.055z"/>
				<ellipse fill="#FFF931" cx="-187.733" cy="27.055" rx="25.576" ry="18.879"/>
			</g>
		</g>
		<polygon fill="#191919" points="-235.644,78.103 -139.862,9.125 -139.86,70.021 -235.642,139 		"/>
	</g>
	<g>
		<polygon fill="#F4F4F4" points="-430.279,-81.536 -430.279,-19.077 -235.642,115.872 -235.642,53.64 		"/>
		<polygon fill="#F4EE22" points="-334.262,-127.179 -429.905,-58.201 -235.269,76.975 -139.487,7.997 		"/>
		<g>
			<path fill="#D6D112" d="M-407.233-67.894c0,10.43,11.448,18.879,25.575,18.879c14.128,0,25.578-8.449,25.578-18.879v8.732
				c0,10.426-11.449,18.879-25.578,18.879c-14.125,0-25.575-8.455-25.575-18.879V-67.894z"/>
			<path fill="#FFF931" d="M-356.08-67.894c0,10.43-11.449,18.879-25.579,18.879c-14.125,0-25.574-8.449-25.574-18.879
				c0-10.424,11.448-18.877,25.574-18.877C-367.53-86.771-356.08-78.318-356.08-67.894z"/>
		</g>
		<g>
			<path fill="#D6D112" d="M-359.414-102.437c0,10.426,11.449,18.877,25.575,18.877c14.128,0,25.578-8.451,25.578-18.877v8.732
				c0,10.424-11.449,18.877-25.578,18.877c-14.126,0-25.575-8.453-25.575-18.877V-102.437z"/>
			<ellipse fill="#FFF931" cx="-333.837" cy="-102.438" rx="25.577" ry="18.878"/>
		</g>
		<g>
			<path fill="#D6D112" d="M-358.509-34.101c0,10.43,11.449,18.881,25.576,18.881c14.125,0,25.577-8.451,25.577-18.881v8.73
				c0,10.428-11.451,18.881-25.577,18.881c-14.127,0-25.576-8.453-25.576-18.881V-34.101z"/>
			<ellipse fill="#FFF931" cx="-332.933" cy="-34.101" rx="25.577" ry="18.881"/>
		</g>
		<g>
			<g>
				<path fill="#D6D112" d="M-310.69-68.646c0,10.428,11.449,18.879,25.576,18.879s25.576-8.451,25.576-18.879v8.732
					c0,10.426-11.449,18.877-25.576,18.877s-25.576-8.451-25.576-18.877V-68.646z"/>
				<ellipse fill="#FFF931" cx="-285.112" cy="-68.646" rx="25.576" ry="18.879"/>
			</g>
		</g>
		<g>
			<path fill="#D6D112" d="M-309.854-0.306c0,10.43,11.449,18.879,25.576,18.879S-258.7,10.124-258.7-0.306v8.732
				c0,10.426-11.449,18.879-25.578,18.879c-14.125,0-25.576-8.455-25.576-18.879V-0.306z"/>
			<path fill="#FFF931" d="M-258.7-0.306c0,10.43-11.449,18.879-25.58,18.879c-14.125,0-25.574-8.449-25.574-18.879
				c0-10.424,11.449-18.877,25.574-18.877C-270.151-19.183-258.7-10.73-258.7-0.306z"/>
		</g>
		<g>
			<path fill="#D6D112" d="M-262.034-34.849c0,10.426,11.449,18.877,25.574,18.877c14.128,0,25.578-8.451,25.578-18.877v8.732
				c0,10.424-11.45,18.877-25.578,18.877c-14.125,0-25.574-8.453-25.574-18.877V-34.849z"/>
			<ellipse fill="#FFF931" cx="-236.458" cy="-34.85" rx="25.576" ry="18.878"/>
		</g>
		<g>
			<path fill="#D6D112" d="M-261.13,33.487c0,10.43,11.449,18.881,25.576,18.881c14.125,0,25.576-8.451,25.576-18.881v8.73
				c0,10.428-11.452,18.881-25.576,18.881c-14.127,0-25.576-8.453-25.576-18.881V33.487z"/>
			<ellipse fill="#FFF931" cx="-235.554" cy="33.487" rx="25.576" ry="18.881"/>
		</g>
		<g>
			<g>
				<path fill="#D6D112" d="M-213.312-1.058c0,10.428,11.449,18.879,25.576,18.879s25.576-8.451,25.576-18.879v8.732
					c0,10.426-11.449,18.877-25.576,18.877s-25.576-8.451-25.576-18.877V-1.058z"/>
				<ellipse fill="#FFF931" cx="-187.733" cy="-1.058" rx="25.576" ry="18.879"/>
			</g>
		</g>
		<polygon fill="#CECECE" points="-235.644,54.99 -139.862,-13.989 -139.86,46.908 -235.642,115.887 		"/>
	</g>
	<g>
		<polygon fill="#333333" points="-430.322,-100.33 -430.322,-37.871 -235.685,97.078 -235.685,34.846 		"/>
		<polygon fill="#F4EE22" points="-334.68,-160.973 -430.323,-91.995 -235.687,43.181 -139.905,-25.797 		"/>
		<g>
			<path fill="#D6D112" d="M-407.651-101.688c0,10.43,11.448,18.879,25.575,18.879c14.128,0,25.578-8.449,25.578-18.879v8.732
				c0,10.426-11.449,18.879-25.578,18.879c-14.125,0-25.575-8.455-25.575-18.879V-101.688z"/>
			<path fill="#FFF931" d="M-356.498-101.688c0,10.43-11.449,18.879-25.579,18.879c-14.125,0-25.574-8.449-25.574-18.879
				c0-10.424,11.448-18.877,25.574-18.877C-367.948-120.565-356.498-112.112-356.498-101.688z"/>
		</g>
		<g>
			<path fill="#D6D112" d="M-359.832-136.231c0,10.426,11.449,18.877,25.575,18.877c14.128,0,25.578-8.451,25.578-18.877v8.732
				c0,10.424-11.449,18.877-25.578,18.877c-14.126,0-25.575-8.453-25.575-18.877V-136.231z"/>
			<ellipse fill="#FFF931" cx="-334.255" cy="-136.232" rx="25.577" ry="18.878"/>
		</g>
		<g>
			<path fill="#D6D112" d="M-358.927-67.895c0,10.43,11.449,18.881,25.576,18.881c14.125,0,25.577-8.451,25.577-18.881v8.73
				c0,10.428-11.451,18.881-25.577,18.881c-14.127,0-25.576-8.453-25.576-18.881V-67.895z"/>
			<ellipse fill="#FFF931" cx="-333.351" cy="-67.895" rx="25.577" ry="18.881"/>
		</g>
		<g>
			<g>
				<path fill="#D6D112" d="M-311.108-102.44c0,10.428,11.449,18.879,25.576,18.879s25.576-8.451,25.576-18.879v8.732
					c0,10.426-11.449,18.877-25.576,18.877s-25.576-8.451-25.576-18.877V-102.44z"/>
				<ellipse fill="#FFF931" cx="-285.53" cy="-102.44" rx="25.576" ry="18.879"/>
			</g>
		</g>
		<g>
			<path fill="#D6D112" d="M-310.272-34.1c0,10.43,11.449,18.879,25.576,18.879s25.578-8.449,25.578-18.879v8.732
				c0,10.426-11.449,18.879-25.578,18.879c-14.125,0-25.576-8.455-25.576-18.879V-34.1z"/>
			<path fill="#FFF931" d="M-259.118-34.1c0,10.43-11.449,18.879-25.58,18.879c-14.125,0-25.574-8.449-25.574-18.879
				c0-10.424,11.449-18.877,25.574-18.877C-270.569-52.977-259.118-44.524-259.118-34.1z"/>
		</g>
		<g>
			<path fill="#D6D112" d="M-262.452-68.643c0,10.426,11.449,18.877,25.574,18.877c14.128,0,25.578-8.451,25.578-18.877v8.732
				c0,10.424-11.45,18.877-25.578,18.877c-14.125,0-25.574-8.453-25.574-18.877V-68.643z"/>
			<ellipse fill="#FFF931" cx="-236.876" cy="-68.644" rx="25.576" ry="18.878"/>
		</g>
		<g>
			<path fill="#D6D112" d="M-261.548-0.307c0,10.43,11.449,18.881,25.576,18.881c14.125,0,25.576-8.451,25.576-18.881v8.73
				c0,10.428-11.452,18.881-25.576,18.881c-14.127,0-25.576-8.453-25.576-18.881V-0.307z"/>
			<ellipse fill="#FFF931" cx="-235.972" cy="-0.307" rx="25.576" ry="18.881"/>
		</g>
		<g>
			<g>
				<path fill="#D6D112" d="M-213.729-34.852c0,10.428,11.449,18.879,25.576,18.879s25.576-8.451,25.576-18.879v8.732
					c0,10.426-11.449,18.877-25.576,18.877s-25.576-8.451-25.576-18.877V-34.852z"/>
				<ellipse fill="#FFF931" cx="-188.151" cy="-34.852" rx="25.576" ry="18.879"/>
			</g>
		</g>
		<polygon fill="#191919" points="-235.687,36.237 -139.905,-32.742 -139.903,28.155 -235.685,97.133 		"/>
	</g>
	<g>
		<polygon fill="#002776" points="-430.322,-121.442 -430.322,-58.983 -235.685,75.965 -235.685,13.734 		"/>
		<polygon fill="#003384" points="-334.68,-189.085 -430.323,-120.107 -235.687,15.069 -139.905,-53.91 		"/>
		<g>
			<path fill="#002766" d="M-407.651-129.8c0,10.43,11.448,18.879,25.575,18.879c14.128,0,25.578-8.449,25.578-18.879v8.732
				c0,10.426-11.449,18.879-25.578,18.879c-14.125,0-25.575-8.455-25.575-18.879V-129.8z"/>
			<path fill="#003B91" d="M-356.498-129.8c0,10.43-11.449,18.879-25.579,18.879c-14.125,0-25.574-8.449-25.574-18.879
				c0-10.424,11.448-18.877,25.574-18.877C-367.948-148.677-356.498-140.224-356.498-129.8z"/>
		</g>
		<g>
			<path fill="#002766" d="M-359.832-164.343c0,10.425,11.449,18.876,25.575,18.876c14.128,0,25.578-8.451,25.578-18.876v8.732
				c0,10.424-11.449,18.877-25.578,18.877c-14.126,0-25.575-8.453-25.575-18.877V-164.343z"/>
			<ellipse fill="#003B91" cx="-334.255" cy="-164.344" rx="25.577" ry="18.878"/>
		</g>
		<g>
			<path fill="#002766" d="M-358.927-96.007c0,10.43,11.449,18.881,25.576,18.881c14.125,0,25.577-8.451,25.577-18.881v8.73
				c0,10.428-11.451,18.881-25.577,18.881c-14.127,0-25.576-8.453-25.576-18.881V-96.007z"/>
			<ellipse fill="#003B91" cx="-333.351" cy="-96.007" rx="25.577" ry="18.881"/>
		</g>
		<g>
			<g>
				<path fill="#002766" d="M-311.108-130.552c0,10.428,11.449,18.879,25.576,18.879s25.576-8.451,25.576-18.879v8.732
					c0,10.426-11.449,18.877-25.576,18.877s-25.576-8.451-25.576-18.877V-130.552z"/>
				<ellipse fill="#003B91" cx="-285.53" cy="-130.552" rx="25.576" ry="18.879"/>
			</g>
		</g>
		<g>
			<path fill="#002766" d="M-310.272-62.212c0,10.43,11.449,18.879,25.576,18.879s25.578-8.449,25.578-18.879v8.732
				c0,10.426-11.449,18.879-25.578,18.879c-14.125,0-25.576-8.455-25.576-18.879V-62.212z"/>
			<path fill="#003B91" d="M-259.118-62.212c0,10.43-11.449,18.879-25.58,18.879c-14.125,0-25.574-8.449-25.574-18.879
				c0-10.424,11.449-18.877,25.574-18.877C-270.569-81.089-259.118-72.636-259.118-62.212z"/>
		</g>
		<g>
			<path fill="#002766" d="M-262.452-96.755c0,10.426,11.449,18.877,25.574,18.877c14.128,0,25.578-8.451,25.578-18.877v8.732
				c0,10.424-11.45,18.877-25.578,18.877c-14.125,0-25.574-8.453-25.574-18.877V-96.755z"/>
			<ellipse fill="#003B91" cx="-236.876" cy="-96.756" rx="25.576" ry="18.878"/>
		</g>
		<g>
			<path fill="#002766" d="M-261.548-28.419c0,10.43,11.449,18.881,25.576,18.881c14.125,0,25.576-8.451,25.576-18.881v8.73
				c0,10.428-11.452,18.881-25.576,18.881c-14.127,0-25.576-8.453-25.576-18.881V-28.419z"/>
			<ellipse fill="#003B91" cx="-235.972" cy="-28.419" rx="25.576" ry="18.881"/>
		</g>
		<g>
			<g>
				<path fill="#002766" d="M-213.729-62.964c0,10.428,11.449,18.879,25.576,18.879s25.576-8.451,25.576-18.879v8.732
					c0,10.426-11.449,18.877-25.576,18.877s-25.576-8.451-25.576-18.877V-62.964z"/>
				<ellipse fill="#003B91" cx="-188.151" cy="-62.964" rx="25.576" ry="18.879"/>
			</g>
		</g>
		<polygon fill="#002054" points="-235.687,15.125 -139.905,-53.854 -139.903,7.042 -235.685,76.021 		"/>
	</g>
	
		<text transform="matrix(0.7696 0.5297 -0.0201 0.9998 -391.1631 -55)" fill="#FFFFFF" font-family="'AvenirNext-Bold'" font-size="17.438">TRANSACTIONS</text>
</g>
<g>
	<g>
		<polygon fill="#F4F4F4" points="-542.705,361.325 -542.705,423.785 -348.068,558.734 -348.068,496.502 		"/>
		<polygon fill="#CECECE" points="-348.068,497.852 -252.287,428.873 -252.287,489.77 -348.068,558.748 		"/>
	</g>
	<g>
		<polygon fill="#333333" points="-542.662,340.517 -542.662,402.977 -348.023,537.924 -348.023,475.693 		"/>
		<g>
			<path fill="#D6D112" d="M-519.615,359.157c0,10.43,11.448,18.879,25.575,18.879c14.128,0,25.578-8.449,25.578-18.879v8.732
				c0,10.426-11.449,18.88-25.578,18.88c-14.125,0-25.575-8.456-25.575-18.88V359.157z"/>
			<path fill="#FFF931" d="M-468.462,359.157c0,10.43-11.449,18.879-25.579,18.879c-14.125,0-25.574-8.449-25.574-18.879
				c0-10.424,11.448-18.877,25.574-18.877C-479.912,340.28-468.462,348.733-468.462,359.157z"/>
		</g>
		<g>
			<path fill="#D6D112" d="M-471.796,324.614c0,10.426,11.449,18.877,25.575,18.877c14.129,0,25.578-8.451,25.578-18.877v8.732
				c0,10.424-11.449,18.877-25.578,18.877c-14.126,0-25.575-8.453-25.575-18.877V324.614z"/>
			<ellipse fill="#FFF931" cx="-446.22" cy="324.614" rx="25.577" ry="18.877"/>
		</g>
		<g>
			<path fill="#D6D112" d="M-470.892,392.951c0,10.43,11.449,18.881,25.576,18.881c14.126,0,25.577-8.451,25.577-18.881v8.73
				c0,10.428-11.451,18.881-25.577,18.881c-14.127,0-25.576-8.453-25.576-18.881V392.951z"/>
			<ellipse fill="#FFF931" cx="-445.315" cy="392.951" rx="25.577" ry="18.881"/>
		</g>
		<g>
			<g>
				<path fill="#D6D112" d="M-423.072,358.405c0,10.428,11.449,18.879,25.576,18.879s25.576-8.451,25.576-18.879v8.732
					c0,10.426-11.449,18.878-25.576,18.878s-25.576-8.452-25.576-18.878V358.405z"/>
				<ellipse fill="#FFF931" cx="-397.494" cy="358.405" rx="25.576" ry="18.879"/>
			</g>
		</g>
		<g>
			<path fill="#D6D112" d="M-422.236,426.746c0,10.43,11.449,18.879,25.576,18.879s25.578-8.449,25.578-18.879v8.732
				c0,10.426-11.449,18.879-25.578,18.879c-14.125,0-25.576-8.455-25.576-18.879V426.746z"/>
			<path fill="#FFF931" d="M-371.082,426.746c0,10.43-11.449,18.879-25.58,18.879c-14.125,0-25.574-8.449-25.574-18.879
				c0-10.424,11.449-18.877,25.574-18.877C-382.533,407.869-371.082,416.322-371.082,426.746z"/>
		</g>
		<g>
			<path fill="#D6D112" d="M-374.416,392.203c0,10.426,11.449,18.877,25.574,18.877c14.129,0,25.578-8.451,25.578-18.877v8.732
				c0,10.424-11.449,18.877-25.578,18.877c-14.125,0-25.574-8.453-25.574-18.877V392.203z"/>
			<ellipse fill="#FFF931" cx="-348.84" cy="392.202" rx="25.576" ry="18.878"/>
		</g>
		<g>
			<path fill="#D6D112" d="M-373.512,460.539c0,10.43,11.449,18.881,25.576,18.881c14.125,0,25.576-8.451,25.576-18.881v8.73
				c0,10.428-11.451,18.881-25.576,18.881c-14.127,0-25.576-8.453-25.576-18.881V460.539z"/>
			<ellipse fill="#FFF931" cx="-347.936" cy="460.539" rx="25.576" ry="18.881"/>
		</g>
		<g>
			<g>
				<path fill="#D6D112" d="M-325.693,425.994c0,10.428,11.449,18.879,25.576,18.879s25.576-8.451,25.576-18.879v8.732
					c0,10.426-11.449,18.877-25.576,18.877s-25.576-8.451-25.576-18.877V425.994z"/>
				<ellipse fill="#FFF931" cx="-300.115" cy="425.994" rx="25.576" ry="18.879"/>
			</g>
		</g>
		<polygon fill="#191919" points="-348.025,477.043 -252.244,408.064 -252.242,468.961 -348.023,537.939 		"/>
	</g>
	<g>
		<polygon fill="#F4F4F4" points="-542.661,317.403 -542.661,379.862 -348.023,514.811 -348.023,452.58 		"/>
		<polygon fill="#F4EE22" points="-446.645,271.76 -542.287,340.737 -347.65,475.914 -251.869,406.936 		"/>
		<g>
			<path fill="#D6D112" d="M-519.615,331.044c0,10.43,11.448,18.879,25.576,18.879c14.127,0,25.578-8.449,25.578-18.879v8.732
				c0,10.426-11.449,18.879-25.578,18.879c-14.125,0-25.576-8.455-25.576-18.879V331.044z"/>
			<path fill="#FFF931" d="M-468.461,331.044c0,10.43-11.449,18.879-25.58,18.879c-14.125,0-25.574-8.449-25.574-18.879
				c0-10.424,11.448-18.877,25.574-18.877C-479.912,312.167-468.461,320.62-468.461,331.044z"/>
		</g>
		<g>
			<path fill="#D6D112" d="M-471.795,296.502c0,10.426,11.449,18.876,25.574,18.876c14.129,0,25.578-8.45,25.578-18.876v8.732
				c0,10.423-11.449,18.876-25.578,18.876c-14.125,0-25.574-8.453-25.574-18.876V296.502z"/>
			<ellipse fill="#FFF931" cx="-446.219" cy="296.5" rx="25.576" ry="18.877"/>
		</g>
		<g>
			<path fill="#D6D112" d="M-470.891,364.837c0,10.43,11.449,18.881,25.576,18.881c14.125,0,25.576-8.451,25.576-18.881v8.73
				c0,10.428-11.451,18.882-25.576,18.882c-14.127,0-25.576-8.454-25.576-18.882V364.837z"/>
			<ellipse fill="#FFF931" cx="-445.314" cy="364.837" rx="25.576" ry="18.881"/>
		</g>
		<g>
			<g>
				<path fill="#D6D112" d="M-423.072,330.292c0,10.428,11.449,18.879,25.576,18.879s25.576-8.451,25.576-18.879v8.732
					c0,10.426-11.449,18.877-25.576,18.877s-25.576-8.451-25.576-18.877V330.292z"/>
				<ellipse fill="#FFF931" cx="-397.494" cy="330.292" rx="25.576" ry="18.879"/>
			</g>
		</g>
		<g>
			<path fill="#D6D112" d="M-422.236,398.633c0,10.43,11.449,18.879,25.576,18.879s25.578-8.449,25.578-18.879v8.732
				c0,10.426-11.449,18.879-25.578,18.879c-14.125,0-25.576-8.455-25.576-18.879V398.633z"/>
			<path fill="#FFF931" d="M-371.082,398.633c0,10.43-11.449,18.879-25.58,18.879c-14.125,0-25.574-8.449-25.574-18.879
				c0-10.424,11.449-18.878,25.574-18.878C-382.533,379.755-371.082,388.209-371.082,398.633z"/>
		</g>
		<g>
			<path fill="#D6D112" d="M-374.416,364.089c0,10.426,11.449,18.877,25.574,18.877c14.129,0,25.578-8.451,25.578-18.877v8.732
				c0,10.424-11.449,18.878-25.578,18.878c-14.125,0-25.574-8.454-25.574-18.878V364.089z"/>
			<ellipse fill="#FFF931" cx="-348.84" cy="364.088" rx="25.576" ry="18.878"/>
		</g>
		<g>
			<path fill="#D6D112" d="M-373.512,432.426c0,10.43,11.449,18.881,25.576,18.881c14.125,0,25.576-8.451,25.576-18.881v8.73
				c0,10.428-11.451,18.881-25.576,18.881c-14.127,0-25.576-8.453-25.576-18.881V432.426z"/>
			<ellipse fill="#FFF931" cx="-347.936" cy="432.426" rx="25.576" ry="18.881"/>
		</g>
		<g>
			<g>
				<path fill="#D6D112" d="M-325.693,397.881c0,10.428,11.449,18.879,25.576,18.879s25.576-8.451,25.576-18.879v8.732
					c0,10.426-11.449,18.877-25.576,18.877s-25.576-8.451-25.576-18.877V397.881z"/>
				<ellipse fill="#FFF931" cx="-300.115" cy="397.88" rx="25.576" ry="18.879"/>
			</g>
		</g>
		<polygon fill="#CECECE" points="-348.025,453.93 -252.244,384.95 -252.242,445.848 -348.023,514.826 		"/>
	</g>
	<g>
		<polygon fill="#333333" points="-542.704,298.609 -542.704,361.067 -348.066,496.018 -348.066,433.785 		"/>
		<polygon fill="#F4EE22" points="-447.062,237.966 -542.705,306.944 -348.068,442.121 -252.287,373.142 		"/>
		<g>
			<path fill="#D6D112" d="M-520.033,297.251c0,10.43,11.448,18.879,25.576,18.879c14.127,0,25.578-8.449,25.578-18.879v8.732
				c0,10.426-11.449,18.879-25.578,18.879c-14.125,0-25.576-8.455-25.576-18.879V297.251z"/>
			<path fill="#FFF931" d="M-468.879,297.251c0,10.43-11.449,18.879-25.58,18.879c-14.125,0-25.574-8.449-25.574-18.879
				c0-10.424,11.448-18.877,25.574-18.877C-480.33,278.374-468.879,286.827-468.879,297.251z"/>
		</g>
		<g>
			<path fill="#D6D112" d="M-472.213,262.708c0,10.426,11.449,18.877,25.574,18.877c14.129,0,25.578-8.451,25.578-18.877v8.732
				c0,10.424-11.449,18.877-25.578,18.877c-14.125,0-25.574-8.453-25.574-18.877V262.708z"/>
			<ellipse fill="#FFF931" cx="-446.637" cy="262.707" rx="25.576" ry="18.878"/>
		</g>
		<g>
			<path fill="#D6D112" d="M-471.309,331.044c0,10.43,11.449,18.881,25.576,18.881c14.125,0,25.576-8.451,25.576-18.881v8.73
				c0,10.428-11.451,18.881-25.576,18.881c-14.127,0-25.576-8.453-25.576-18.881V331.044z"/>
			<ellipse fill="#FFF931" cx="-445.732" cy="331.044" rx="25.576" ry="18.881"/>
		</g>
		<g>
			<g>
				<path fill="#D6D112" d="M-423.49,296.499c0,10.428,11.449,18.879,25.576,18.879s25.576-8.451,25.576-18.879v8.732
					c0,10.426-11.449,18.877-25.576,18.877s-25.576-8.451-25.576-18.877V296.499z"/>
				<ellipse fill="#FFF931" cx="-397.912" cy="296.499" rx="25.576" ry="18.879"/>
			</g>
		</g>
		<g>
			<path fill="#D6D112" d="M-422.654,364.839c0,10.43,11.449,18.879,25.576,18.879s25.578-8.449,25.578-18.879v8.732
				c0,10.426-11.449,18.88-25.578,18.88c-14.125,0-25.576-8.456-25.576-18.88V364.839z"/>
			<path fill="#FFF931" d="M-371.5,364.839c0,10.43-11.449,18.879-25.58,18.879c-14.125,0-25.574-8.449-25.574-18.879
				c0-10.424,11.449-18.877,25.574-18.877C-382.951,345.962-371.5,354.415-371.5,364.839z"/>
		</g>
		<g>
			<path fill="#D6D112" d="M-374.834,330.296c0,10.426,11.449,18.877,25.574,18.877c14.129,0,25.578-8.451,25.578-18.877v8.732
				c0,10.424-11.449,18.877-25.578,18.877c-14.125,0-25.574-8.453-25.574-18.877V330.296z"/>
			<ellipse fill="#FFF931" cx="-349.258" cy="330.295" rx="25.576" ry="18.878"/>
		</g>
		<g>
			<path fill="#D6D112" d="M-373.93,398.633c0,10.43,11.449,18.881,25.576,18.881c14.125,0,25.576-8.451,25.576-18.881v8.73
				c0,10.428-11.451,18.881-25.576,18.881c-14.127,0-25.576-8.453-25.576-18.881V398.633z"/>
			<ellipse fill="#FFF931" cx="-348.354" cy="398.632" rx="25.576" ry="18.881"/>
		</g>
		<g>
			<g>
				<path fill="#D6D112" d="M-326.111,364.087c0,10.428,11.449,18.879,25.576,18.879s25.576-8.451,25.576-18.879v8.732
					c0,10.426-11.449,18.878-25.576,18.878s-25.576-8.452-25.576-18.878V364.087z"/>
				<ellipse fill="#FFF931" cx="-300.533" cy="364.087" rx="25.576" ry="18.879"/>
			</g>
		</g>
		<polygon fill="#191919" points="-348.068,435.176 -252.287,366.196 -252.285,427.094 -348.066,496.072 		"/>
	</g>
	<g>
		<polygon fill="#002776" points="-542.704,277.497 -542.704,339.956 -348.066,474.904 -348.066,412.674 		"/>
		<polygon fill="#003384" points="-447.062,209.854 -542.705,278.832 -348.068,414.008 -252.287,345.028 		"/>
		<g>
			<path fill="#002766" d="M-520.033,269.139c0,10.43,11.448,18.879,25.576,18.879c14.127,0,25.578-8.449,25.578-18.879v8.732
				c0,10.426-11.449,18.879-25.578,18.879c-14.125,0-25.576-8.455-25.576-18.879V269.139z"/>
			<path fill="#003B91" d="M-468.879,269.139c0,10.43-11.449,18.879-25.58,18.879c-14.125,0-25.574-8.449-25.574-18.879
				c0-10.424,11.448-18.877,25.574-18.877C-480.33,250.262-468.879,258.715-468.879,269.139z"/>
		</g>
		<g>
			<path fill="#002766" d="M-472.213,234.597c0,10.425,11.449,18.876,25.574,18.876c14.129,0,25.578-8.451,25.578-18.876v8.731
				c0,10.424-11.449,18.877-25.578,18.877c-14.125,0-25.574-8.453-25.574-18.877V234.597z"/>
			<ellipse fill="#003B91" cx="-446.637" cy="234.595" rx="25.576" ry="18.877"/>
		</g>
		<g>
			<path fill="#002766" d="M-471.309,302.932c0,10.429,11.449,18.88,25.576,18.88c14.125,0,25.576-8.451,25.576-18.88v8.729
				c0,10.428-11.451,18.881-25.576,18.881c-14.127,0-25.576-8.453-25.576-18.881V302.932z"/>
			<ellipse fill="#003B91" cx="-445.732" cy="302.931" rx="25.576" ry="18.88"/>
		</g>
		<g>
			<g>
				<path fill="#002766" d="M-423.49,268.387c0,10.428,11.449,18.879,25.576,18.879s25.576-8.451,25.576-18.879v8.732
					c0,10.426-11.449,18.877-25.576,18.877s-25.576-8.451-25.576-18.877V268.387z"/>
				<ellipse fill="#003B91" cx="-397.912" cy="268.387" rx="25.576" ry="18.879"/>
			</g>
		</g>
		<g>
			<path fill="#002766" d="M-422.654,336.726c0,10.43,11.449,18.879,25.576,18.879s25.578-8.449,25.578-18.879v8.732
				c0,10.426-11.449,18.879-25.578,18.879c-14.125,0-25.576-8.455-25.576-18.879V336.726z"/>
			<path fill="#003B91" d="M-371.5,336.726c0,10.43-11.449,18.879-25.58,18.879c-14.125,0-25.574-8.449-25.574-18.879
				c0-10.424,11.449-18.877,25.574-18.877C-382.951,317.849-371.5,326.302-371.5,336.726z"/>
		</g>
		<g>
			<path fill="#002766" d="M-374.834,302.184c0,10.425,11.449,18.876,25.574,18.876c14.129,0,25.578-8.451,25.578-18.876v8.731
				c0,10.424-11.449,18.877-25.578,18.877c-14.125,0-25.574-8.453-25.574-18.877V302.184z"/>
			<ellipse fill="#003B91" cx="-349.258" cy="302.182" rx="25.576" ry="18.877"/>
		</g>
		<g>
			<path fill="#002766" d="M-373.93,370.519c0,10.43,11.449,18.882,25.576,18.882c14.125,0,25.576-8.452,25.576-18.882v8.73
				c0,10.429-11.451,18.882-25.576,18.882c-14.127,0-25.576-8.453-25.576-18.882V370.519z"/>
			<ellipse fill="#003B91" cx="-348.354" cy="370.519" rx="25.576" ry="18.881"/>
		</g>
		<g>
			<g>
				<path fill="#002766" d="M-326.111,335.974c0,10.428,11.449,18.879,25.576,18.879s25.576-8.451,25.576-18.879v8.732
					c0,10.426-11.449,18.877-25.576,18.877s-25.576-8.451-25.576-18.877V335.974z"/>
				<ellipse fill="#003B91" cx="-300.533" cy="335.974" rx="25.576" ry="18.879"/>
			</g>
		</g>
		<polygon fill="#002054" points="-348.068,414.064 -252.287,345.085 -252.285,405.982 -348.066,474.961 		"/>
	</g>
	<text transform="matrix(0.7696 0.5297 -0.0201 0.9998 -516.5449 336.939)" enable-background="new    "><tspan x="0" y="0" fill="#FFFFFF" font-family="'AvenirNext-Bold'" font-size="17.438">D A T A </tspan><tspan x="66.49" y="-0.001" fill="#002776" font-family="'AvenirNext-Bold'" font-size="17.438">..</tspan><tspan x="76.953" y="0" fill="#FFFFFF" font-family="'AvenirNext-Bold'" font-size="17.438">S T O R A G E</tspan></text>
</g>
<g>
	<g>
		<polygon fill="#93C900" points="-791.65,-106.007 -791.649,-42.601 -740.746,-9.759 -740.748,-70.656 		"/>
		<polygon fill="#A5D300" points="-650.678,-207.484 -791.65,-106.007 -740.748,-70.656 -599.638,-172.133 		"/>
		<polygon fill="#81BC00" points="-740.748,-70.656 -599.638,-172.133 -599.636,-111.177 -740.746,-9.759 		"/>
	</g>
	<g>
		<path fill="#83B200" d="M-766.776-114.22c0,10.43,11.448,18.879,25.575,18.879c14.129,0,25.578-8.449,25.578-18.879v8.732
			c0,10.426-11.449,18.879-25.578,18.879c-14.125,0-25.575-8.455-25.575-18.879V-114.22z"/>
		<path fill="#B3DD00" d="M-715.623-114.22c0,10.43-11.449,18.879-25.578,18.879c-14.125,0-25.575-8.449-25.575-18.879
			c0-10.424,11.448-18.877,25.575-18.877C-727.072-133.097-715.623-124.644-715.623-114.22z"/>
	</g>
	<g>
		<path fill="#83B200" d="M-718.957-148.765c0,10.43,11.449,18.879,25.576,18.879s25.578-8.449,25.578-18.879v8.732
			c0,10.426-11.449,18.879-25.578,18.879c-14.125,0-25.576-8.455-25.576-18.879V-148.765z"/>
		<path fill="#B3DD00" d="M-667.803-148.765c0,10.43-11.449,18.879-25.58,18.879c-14.125,0-25.574-8.449-25.574-18.879
			c0-10.424,11.449-18.877,25.574-18.877C-679.254-167.642-667.803-159.189-667.803-148.765z"/>
	</g>
	<g>
		<path fill="#83B200" d="M-671.137-183.308c0,10.426,11.449,18.877,25.574,18.877c14.129,0,25.578-8.451,25.578-18.877v8.732
			c0,10.424-11.449,18.877-25.578,18.877c-14.125,0-25.574-8.453-25.574-18.877V-183.308z"/>
		<ellipse fill="#B3DD00" cx="-645.561" cy="-183.309" rx="25.576" ry="18.878"/>
	</g>
</g>
<linearGradient id="SVGID_1_" gradientUnits="userSpaceOnUse" x1="389.3965" y1="507.4756" x2="425.4683" y2="603.7764" gradientTransform="matrix(0.7059 -0.9881 -0.8137 -0.5813 364.3433 1216.2197)">
	<stop  offset="0.075" style="stop-color:#FFFFFF;stop-opacity:0"/>
	<stop  offset="0.6184" style="stop-color:#747474;stop-opacity:0.5874"/>
	<stop  offset="1" style="stop-color:#161616"/>
</linearGradient>
<polygon fill="url(#SVGID_1_)" points="292.189,518.414 222.295,570.048 133.292,507.587 204.07,455.897 "/>
<linearGradient id="SVGID_2_" gradientUnits="userSpaceOnUse" x1="392.04" y1="245.2305" x2="428.1115" y2="341.5304" gradientTransform="matrix(0.7059 -0.9881 -0.8137 -0.5813 364.3433 1216.2197)">
	<stop  offset="0.075" style="stop-color:#FFFFFF;stop-opacity:0"/>
	<stop  offset="0.6184" style="stop-color:#747474;stop-opacity:0.5874"/>
	<stop  offset="1" style="stop-color:#161616"/>
</linearGradient>
<polygon fill="url(#SVGID_2_)" points="507.443,668.244 437.548,719.88 348.546,657.418 419.324,605.729 "/>
<linearGradient id="SVGID_3_" gradientUnits="userSpaceOnUse" x1="583.9922" y1="154.1494" x2="620.064" y2="250.4503" gradientTransform="matrix(0.7059 -0.9881 -0.8137 -0.5813 364.3433 1216.2197)">
	<stop  offset="0.075" style="stop-color:#FFFFFF;stop-opacity:0"/>
	<stop  offset="0.6184" style="stop-color:#747474;stop-opacity:0.5874"/>
	<stop  offset="1" style="stop-color:#161616"/>
</linearGradient>
<polygon fill="url(#SVGID_3_)" points="717.056,531.522 647.16,583.156 558.157,520.695 628.937,469.006 "/>
<linearGradient id="SVGID_4_" gradientUnits="userSpaceOnUse" x1="588.6328" y1="550.8672" x2="624.7043" y2="647.1671" gradientTransform="matrix(0.7059 -0.9881 -0.8137 -0.5813 364.3433 1216.2197)">
	<stop  offset="0.075" style="stop-color:#FFFFFF;stop-opacity:0"/>
	<stop  offset="0.6184" style="stop-color:#747474;stop-opacity:0.5874"/>
	<stop  offset="1" style="stop-color:#161616"/>
</linearGradient>
<polygon fill="url(#SVGID_4_)" points="397.521,296.325 327.627,347.96 238.625,285.498 309.403,233.809 "/>
<linearGradient id="SVGID_5_" gradientUnits="userSpaceOnUse" x1="695.9004" y1="366.2861" x2="731.9719" y2="462.5861" gradientTransform="matrix(0.7059 -0.9881 -0.8137 -0.5813 364.3433 1216.2197)">
	<stop  offset="0.075" style="stop-color:#FFFFFF;stop-opacity:0"/>
	<stop  offset="0.6184" style="stop-color:#747474;stop-opacity:0.5874"/>
	<stop  offset="1" style="stop-color:#161616"/>
</linearGradient>
<polygon fill="url(#SVGID_5_)" points="623.435,297.631 553.54,349.266 464.538,286.804 535.316,235.115 "/>
<g>
	<g>
		<g>
			<g>
				<polygon fill="#AEF721" points="309.413,188.36 273.445,163.388 273.41,163.392 237.442,138.417 202.102,163.861 
					202.105,163.945 166.765,189.389 202.577,214.362 202.769,214.36 238.634,239.333 274.024,213.851 274.024,213.851 				"/>
				<g>
					<path fill="#93D80F" d="M183.52,184.321c0,7.705,8.46,13.95,18.9,13.95c10.439,0,18.9-6.245,18.9-13.95v6.453
						c0,7.704-8.461,13.95-18.9,13.95c-10.438,0-18.9-6.247-18.9-13.95V184.321z"/>
					<path fill="#B8FF2E" d="M221.32,184.321c0,7.705-8.461,13.95-18.9,13.95c-10.438,0-18.9-6.245-18.9-13.95
						s8.46-13.949,18.9-13.949C212.858,170.371,221.32,176.616,221.32,184.321z"/>
				</g>
				<g>
					<path fill="#93D80F" d="M218.855,158.794c0,7.706,8.461,13.949,18.9,13.949c10.438,0,18.9-6.243,18.9-13.949v6.452
						c0,7.703-8.461,13.949-18.9,13.949c-10.439,0-18.9-6.246-18.9-13.949V158.794z"/>
					<ellipse fill="#B8FF2E" cx="237.756" cy="158.794" rx="18.9" ry="13.949"/>
				</g>
				<g>
					<path fill="#93D80F" d="M219.524,209.291c0,7.708,8.462,13.952,18.9,13.952s18.899-6.244,18.899-13.952v6.452
						c0,7.706-8.461,13.952-18.899,13.952s-18.9-6.246-18.9-13.952V209.291z"/>
					<ellipse fill="#B8FF2E" cx="238.425" cy="209.291" rx="18.899" ry="13.952"/>
				</g>
				<g>
					<g>
						<path fill="#93D80F" d="M254.861,183.765c0,7.706,8.459,13.95,18.899,13.95c10.438,0,18.9-6.244,18.9-13.95v6.452
							c0,7.705-8.461,13.949-18.9,13.949c-10.439,0-18.899-6.245-18.899-13.949V183.765z"/>
						<ellipse fill="#B8FF2E" cx="273.761" cy="183.765" rx="18.898" ry="13.951"/>
					</g>
				</g>
			</g>
			<polygon fill="#E84318" points="238.634,239.333 166.765,189.389 166.765,222.898 238.634,272.673 309.413,221.169 
				309.413,188.36 			"/>
			<polygon fill="#490DBC" points="309.413,188.543 309.413,233.996 238.634,285.502 238.634,272.404 238.634,239.517 			"/>
			<polygon fill="#610EE2" points="166.765,189.389 166.765,235.543 238.634,285.502 238.634,239.333 			"/>
		</g>
		
			<text transform="matrix(0.7696 0.5297 -0.0201 0.9998 173.8623 222.4663)" fill="#F2F2F2" font-family="'AvenirNext-Bold'" font-size="12.8859">BLOCK 564</text>
	</g>
	<g>
		<g>
			<g>
				<polygon fill="#8322F4" points="309.403,142.947 273.435,117.974 273.399,117.977 237.432,93.002 202.091,118.449 
					202.095,118.53 166.756,143.976 202.566,168.948 202.76,168.947 238.624,193.92 274.014,168.438 274.014,168.438 				"/>
				<g>
					<path fill="#6C12D6" d="M183.509,138.907c0,7.706,8.461,13.951,18.9,13.951s18.901-6.245,18.901-13.951v6.454
						c0,7.703-8.462,13.95-18.901,13.95c-10.438,0-18.9-6.247-18.9-13.95V138.907z"/>
					<path fill="#9031FF" d="M221.31,138.907c0,7.706-8.462,13.951-18.901,13.951c-10.438,0-18.9-6.245-18.9-13.951
						c0-7.703,8.46-13.949,18.9-13.949C212.848,124.958,221.31,131.204,221.31,138.907z"/>
				</g>
				<g>
					<path fill="#6C12D6" d="M218.846,113.381c0,7.705,8.461,13.95,18.9,13.95c10.438,0,18.9-6.245,18.9-13.95v6.452
						c0,7.702-8.46,13.949-18.9,13.949c-10.439,0-18.9-6.247-18.9-13.949V113.381z"/>
					<ellipse fill="#9031FF" cx="237.746" cy="113.381" rx="18.9" ry="13.95"/>
				</g>
				<g>
					<path fill="#6C12D6" d="M219.515,163.878c0,7.707,8.461,13.952,18.899,13.952c10.439,0,18.899-6.245,18.899-13.952v6.452
						c0,7.704-8.46,13.951-18.899,13.951c-10.438,0-18.899-6.247-18.899-13.951V163.878z"/>
					<ellipse fill="#9031FF" cx="238.414" cy="163.878" rx="18.899" ry="13.952"/>
				</g>
				<g>
					<g>
						<path fill="#6C12D6" d="M254.852,138.351c0,7.706,8.458,13.952,18.898,13.952c10.439,0,18.901-6.246,18.901-13.952v6.454
							c0,7.703-8.462,13.949-18.901,13.949s-18.898-6.246-18.898-13.949V138.351z"/>
						<ellipse fill="#9031FF" cx="273.75" cy="138.352" rx="18.9" ry="13.951"/>
					</g>
				</g>
			</g>
			<polygon fill="#E84318" points="238.624,193.92 166.756,143.976 166.756,177.484 238.624,227.26 309.403,175.754 
				309.403,142.947 			"/>
			<polygon fill="#93D80F" points="309.403,142.947 309.403,188.399 238.624,239.904 238.624,226.808 238.624,193.92 			"/>
			<polygon fill="#A0E51A" points="166.756,143.976 166.756,190.129 238.624,240.088 238.624,193.92 			"/>
		</g>
		
			<text transform="matrix(0.7696 0.5297 -0.0201 0.9998 173.853 177.0547)" fill="#1A1A1A" font-family="'AvenirNext-Bold'" font-size="12.8859">BLOCK 565</text>
	</g>
	<g>
		<g>
			<g>
				<polygon fill="#AEF721" points="309.418,96.948 273.45,71.976 273.415,71.979 237.446,47.005 202.106,72.449 202.111,72.53 
					166.771,97.977 202.581,122.949 202.774,122.947 238.64,147.921 274.029,122.438 274.029,122.438 				"/>
				<g>
					<path fill="#93D80F" d="M183.524,92.908c0,7.706,8.46,13.951,18.899,13.951c10.44,0,18.9-6.245,18.9-13.951v6.452
						c0,7.704-8.459,13.951-18.9,13.951c-10.437,0-18.899-6.247-18.899-13.951V92.908z"/>
					<path fill="#B8FF2E" d="M221.323,92.908c0,7.706-8.459,13.951-18.9,13.951c-10.437,0-18.899-6.245-18.899-13.951
						c0-7.704,8.46-13.948,18.899-13.948C212.864,78.958,221.323,85.204,221.323,92.908z"/>
				</g>
				<g>
					<path fill="#93D80F" d="M218.861,67.382c0,7.706,8.461,13.949,18.899,13.949c10.44,0,18.902-6.243,18.902-13.949v6.452
						c0,7.704-8.461,13.95-18.902,13.95c-10.438,0-18.899-6.246-18.899-13.95V67.382z"/>
					<ellipse fill="#B8FF2E" cx="237.761" cy="67.382" rx="18.901" ry="13.949"/>
				</g>
				<g>
					<path fill="#93D80F" d="M219.528,117.878c0,7.707,8.463,13.953,18.901,13.953c10.438,0,18.9-6.246,18.9-13.953v6.453
						c0,7.706-8.462,13.951-18.9,13.951c-10.438,0-18.901-6.245-18.901-13.951V117.878z"/>
					<ellipse fill="#B8FF2E" cx="238.43" cy="117.878" rx="18.9" ry="13.953"/>
				</g>
				<g>
					<g>
						<path fill="#93D80F" d="M254.866,92.353c0,7.706,8.46,13.95,18.9,13.95c10.439,0,18.9-6.244,18.9-13.95v6.452
							c0,7.705-8.461,13.95-18.9,13.95s-18.9-6.245-18.9-13.95V92.353z"/>
						<ellipse fill="#B8FF2E" cx="273.766" cy="92.353" rx="18.898" ry="13.951"/>
					</g>
				</g>
			</g>
			<polygon fill="#E84318" points="238.64,147.921 166.771,97.977 166.771,131.485 238.64,181.261 309.418,129.755 309.418,96.948 
							"/>
			<polygon fill="#002054" points="309.418,96.948 309.418,142.4 238.64,193.907 238.64,180.809 238.64,147.921 			"/>
			<polygon fill="#002776" points="166.771,97.977 166.771,144.131 238.64,194.09 238.64,147.921 			"/>
		</g>
		
			<text transform="matrix(0.7696 0.5297 -0.0201 0.9998 173.8687 131.0552)" fill="#F2F2F2" font-family="'AvenirNext-Bold'" font-size="12.8859">BLOCK 566</text>
	</g>
	<g>
		<g>
			<g>
				<polygon fill="#F4F4F4" points="309.408,51.535 273.439,26.563 273.405,26.564 237.435,1.59 202.097,27.036 202.1,27.118 
					166.761,52.562 202.571,77.536 202.764,77.533 238.63,102.508 274.019,77.024 274.019,77.024 				"/>
				<g>
					<path fill="#D6D6D6" d="M183.515,47.495c0,7.706,8.46,13.951,18.9,13.951c10.438,0,18.901-6.245,18.901-13.951v6.454
						c0,7.703-8.463,13.95-18.901,13.95s-18.9-6.25-18.9-13.95V47.495z"/>
					<path fill="#FFFFFF" d="M221.316,47.495c0,7.706-8.463,13.951-18.901,13.951s-18.9-6.245-18.9-13.951
						c0-7.703,8.46-13.949,18.9-13.949C212.853,33.544,221.316,39.792,221.316,47.495z"/>
				</g>
				<g>
					<path fill="#D6D6D6" d="M218.851,21.969c0,7.704,8.461,13.949,18.9,13.949c10.439,0,18.901-6.245,18.901-13.949v6.452
						c0,7.702-8.461,13.948-18.901,13.948c-10.438,0-18.9-6.246-18.9-13.948V21.969z"/>
					<ellipse fill="#FFFFFF" cx="237.751" cy="21.968" rx="18.901" ry="13.95"/>
				</g>
				<g>
					<path fill="#D6D6D6" d="M219.52,72.466c0,7.707,8.461,13.952,18.9,13.952c10.438,0,18.9-6.245,18.9-13.952v6.451
						c0,7.705-8.461,13.952-18.9,13.952c-10.439,0-18.9-6.247-18.9-13.952V72.466z"/>
					<ellipse fill="#FFFFFF" cx="238.419" cy="72.466" rx="18.9" ry="13.952"/>
				</g>
				<g>
					<g>
						<path fill="#D6D6D6" d="M254.856,46.938c0,7.706,8.459,13.951,18.898,13.951s18.9-6.245,18.9-13.951v6.455
							c0,7.702-8.461,13.949-18.9,13.949c-10.438,0-18.898-6.247-18.898-13.949V46.938z"/>
						<ellipse fill="#FFFFFF" cx="273.755" cy="46.938" rx="18.899" ry="13.951"/>
					</g>
				</g>
			</g>
			<polygon fill="#E84318" points="238.63,102.508 166.761,52.562 166.761,86.071 238.63,135.848 309.408,84.342 309.408,51.535 			
				"/>
			<polygon fill="#D6D6D6" points="309.408,51.535 309.408,96.987 238.63,148.492 238.63,135.395 238.63,102.508 			"/>
			<polygon fill="#E2E2E2" points="166.761,52.562 166.761,98.718 238.63,148.676 238.63,102.508 			"/>
		</g>
		
			<text transform="matrix(0.7696 0.5297 -0.0201 0.9998 173.8574 85.6416)" fill="#1A1A1A" font-family="'AvenirNext-Bold'" font-size="12.8859">BLOCK 567</text>
	</g>
</g>
<g>
	<g>
		<g>
			<g>
				<polygon fill="#AEF721" points="204.07,410.445 168.102,385.472 168.067,385.476 132.099,360.501 96.758,385.945 
					96.762,386.028 61.422,411.474 97.233,436.445 97.426,436.444 133.292,461.419 168.681,435.936 168.681,435.936 				"/>
				<g>
					<path fill="#93D80F" d="M78.177,406.406c0,7.705,8.46,13.95,18.899,13.95c10.439,0,18.9-6.245,18.9-13.95v6.45
						c0,7.705-8.461,13.951-18.9,13.951c-10.438,0-18.899-6.247-18.899-13.951V406.406z"/>
					<path fill="#B8FF2E" d="M115.976,406.406c0,7.705-8.461,13.95-18.9,13.95c-10.438,0-18.899-6.245-18.899-13.95
						s8.46-13.95,18.899-13.95C107.515,392.455,115.976,398.701,115.976,406.406z"/>
				</g>
				<g>
					<path fill="#93D80F" d="M113.513,380.879c0,7.706,8.461,13.949,18.899,13.949c10.439,0,18.901-6.243,18.901-13.949v6.452
						c0,7.702-8.461,13.948-18.901,13.948c-10.438,0-18.899-6.246-18.899-13.948V380.879z"/>
					<ellipse fill="#B8FF2E" cx="132.413" cy="380.878" rx="18.9" ry="13.95"/>
				</g>
				<g>
					<path fill="#93D80F" d="M114.181,431.376c0,7.707,8.46,13.951,18.9,13.951c10.438,0,18.9-6.244,18.9-13.951v6.452
						c0,7.705-8.461,13.951-18.9,13.951c-10.44,0-18.9-6.246-18.9-13.951V431.376z"/>
					<ellipse fill="#B8FF2E" cx="133.082" cy="431.375" rx="18.9" ry="13.952"/>
				</g>
				<g>
					<g>
						<path fill="#93D80F" d="M149.518,405.85c0,7.706,8.459,13.95,18.899,13.95c10.439,0,18.9-6.244,18.9-13.95v6.452
							c0,7.703-8.461,13.948-18.9,13.948c-10.438,0-18.899-6.245-18.899-13.948V405.85z"/>
						<ellipse fill="#B8FF2E" cx="168.417" cy="405.85" rx="18.899" ry="13.95"/>
					</g>
				</g>
			</g>
			<polygon fill="#E84318" points="133.292,461.419 61.422,411.474 61.422,444.982 133.292,494.758 204.07,443.253 204.07,410.445 
							"/>
			<polygon fill="#490DBC" points="204.07,410.445 204.07,455.897 133.292,507.587 133.292,494.306 133.292,461.419 			"/>
			<polygon fill="#610EE2" points="61.422,411.474 61.422,457.628 133.292,507.587 133.292,461.419 			"/>
		</g>
		
			<text transform="matrix(0.7696 0.5297 -0.0201 0.9998 68.519 444.5508)" fill="#F2F2F2" font-family="'AvenirNext-Bold'" font-size="12.8859">BLOCK 564</text>
	</g>
	<g>
		<g>
			<g>
				<polygon fill="#8322F4" points="204.06,365.031 168.091,340.059 168.057,340.061 132.089,315.087 96.748,340.532 
					96.751,340.615 61.412,366.06 97.223,391.031 97.417,391.031 133.282,416.004 168.671,390.521 168.671,390.521 				"/>
				<g>
					<path fill="#6C12D6" d="M78.167,360.992c0,7.705,8.46,13.95,18.899,13.95c10.438,0,18.9-6.245,18.9-13.95v6.451
						c0,7.704-8.461,13.951-18.9,13.951s-18.899-6.248-18.899-13.951V360.992z"/>
					<path fill="#9031FF" d="M115.966,360.992c0,7.705-8.461,13.95-18.9,13.95s-18.899-6.245-18.899-13.95
						c0-7.704,8.46-13.95,18.899-13.95C107.504,347.042,115.966,353.288,115.966,360.992z"/>
				</g>
				<g>
					<path fill="#6C12D6" d="M113.502,335.465c0,7.705,8.461,13.95,18.899,13.95c10.439,0,18.901-6.246,18.901-13.95v6.453
						c0,7.702-8.461,13.949-18.901,13.949c-10.438,0-18.899-6.247-18.899-13.949V335.465z"/>
					<ellipse fill="#9031FF" cx="132.403" cy="335.466" rx="18.9" ry="13.95"/>
				</g>
				<g>
					<path fill="#6C12D6" d="M114.171,385.961c0,7.709,8.461,13.954,18.9,13.954c10.438,0,18.9-6.245,18.9-13.954v6.453
						c0,7.705-8.462,13.95-18.9,13.95c-10.439,0-18.9-6.245-18.9-13.95V385.961z"/>
					<ellipse fill="#9031FF" cx="133.071" cy="385.963" rx="18.9" ry="13.952"/>
				</g>
				<g>
					<g>
						<path fill="#6C12D6" d="M149.509,360.437c0,7.704,8.459,13.949,18.898,13.949c10.439,0,18.9-6.245,18.9-13.949v6.452
							c0,7.702-8.461,13.95-18.9,13.95c-10.438,0-18.898-6.248-18.898-13.95V360.437z"/>
						<ellipse fill="#9031FF" cx="168.407" cy="360.436" rx="18.899" ry="13.95"/>
					</g>
				</g>
			</g>
			<polygon fill="#E84318" points="133.282,416.004 61.412,366.06 61.412,399.567 133.282,449.346 204.06,397.839 204.06,365.031 
							"/>
			<polygon fill="#93D80F" points="204.06,365.031 204.06,410.484 133.282,461.989 133.282,448.893 133.282,416.004 			"/>
			<polygon fill="#A0E51A" points="61.412,366.06 61.412,412.214 133.282,462.172 133.282,416.004 			"/>
		</g>
		
			<text transform="matrix(0.7696 0.5297 -0.0201 0.9998 68.5098 399.1387)" fill="#1A1A1A" font-family="'AvenirNext-Bold'" font-size="12.8859">BLOCK 565</text>
	</g>
	<g>
		<g>
			<g>
				<polygon fill="#AEF721" points="204.076,319.032 168.107,294.061 168.071,294.063 132.104,269.088 96.763,294.533 
					96.767,294.614 61.428,320.062 97.239,345.033 97.432,345.032 133.297,370.005 168.687,344.522 168.687,344.522 				"/>
				<g>
					<path fill="#93D80F" d="M78.182,314.992c0,7.706,8.461,13.951,18.9,13.951c10.438,0,18.899-6.245,18.899-13.951v6.453
						c0,7.703-8.461,13.951-18.899,13.951s-18.9-6.248-18.9-13.951V314.992z"/>
					<path fill="#B8FF2E" d="M115.981,314.992c0,7.706-8.461,13.951-18.899,13.951s-18.9-6.245-18.9-13.951
						c0-7.703,8.461-13.949,18.9-13.949C107.52,301.042,115.981,307.289,115.981,314.992z"/>
				</g>
				<g>
					<path fill="#93D80F" d="M113.518,289.465c0,7.707,8.461,13.951,18.899,13.951c10.439,0,18.902-6.244,18.902-13.951v6.454
						c0,7.702-8.461,13.949-18.902,13.949c-10.437,0-18.899-6.247-18.899-13.949V289.465z"/>
					<ellipse fill="#B8FF2E" cx="132.418" cy="289.466" rx="18.901" ry="13.95"/>
				</g>
				<g>
					<path fill="#93D80F" d="M114.186,339.964c0,7.706,8.462,13.952,18.901,13.952c10.439,0,18.9-6.246,18.9-13.952v6.451
						c0,7.706-8.462,13.952-18.9,13.952s-18.901-6.246-18.901-13.952V339.964z"/>
					<ellipse fill="#B8FF2E" cx="133.086" cy="339.963" rx="18.9" ry="13.952"/>
				</g>
				<g>
					<g>
						<path fill="#93D80F" d="M149.523,314.438c0,7.705,8.459,13.949,18.899,13.949s18.901-6.244,18.901-13.949v6.452
							c0,7.704-8.461,13.949-18.901,13.949c-10.438,0-18.899-6.245-18.899-13.949V314.438z"/>
						<ellipse fill="#B8FF2E" cx="168.422" cy="314.436" rx="18.899" ry="13.95"/>
					</g>
				</g>
			</g>
			<polygon fill="#E84318" points="133.297,370.005 61.428,320.062 61.428,353.569 133.297,403.346 204.076,351.84 204.076,319.032 
							"/>
			<polygon fill="#002054" points="204.076,319.032 204.076,364.484 133.297,415.991 133.297,402.893 133.297,370.005 			"/>
			<polygon fill="#002776" points="61.428,320.062 61.428,366.216 133.297,416.175 133.297,370.005 			"/>
		</g>
		
			<text transform="matrix(0.7696 0.5297 -0.0201 0.9998 68.5244 353.1387)" fill="#F2F2F2" font-family="'AvenirNext-Bold'" font-size="12.8859">BLOCK 566</text>
	</g>
	<g>
		<g>
			<g>
				<polygon fill="#F4F4F4" points="204.065,273.621 168.096,248.646 168.061,248.649 132.093,223.674 96.753,249.121 
					96.756,249.202 61.417,274.646 97.229,299.621 97.421,299.619 133.287,324.593 168.676,299.109 168.676,299.109 				"/>
				<g>
					<path fill="#D6D6D6" d="M78.172,269.58c0,7.706,8.46,13.95,18.899,13.95s18.9-6.244,18.9-13.95v6.452
						c0,7.703-8.461,13.95-18.9,13.95c-10.438,0-18.899-6.248-18.899-13.95V269.58z"/>
					<path fill="#FFFFFF" d="M115.971,269.58c0,7.706-8.461,13.95-18.9,13.95c-10.438,0-18.899-6.244-18.899-13.95
						c0-7.704,8.46-13.95,18.899-13.95C107.51,255.628,115.971,261.875,115.971,269.58z"/>
				</g>
				<g>
					<path fill="#D6D6D6" d="M113.508,244.053c0,7.705,8.461,13.949,18.899,13.949c10.439,0,18.901-6.245,18.901-13.949v6.453
						c0,7.702-8.461,13.948-18.901,13.948c-10.438,0-18.899-6.246-18.899-13.948V244.053z"/>
					<ellipse fill="#FFFFFF" cx="132.408" cy="244.053" rx="18.9" ry="13.95"/>
				</g>
				<g>
					<path fill="#D6D6D6" d="M114.176,294.549c0,7.708,8.462,13.954,18.9,13.954c10.439,0,18.901-6.245,18.901-13.954v6.452
						c0,7.706-8.461,13.953-18.901,13.953c-10.438,0-18.9-6.247-18.9-13.953V294.549z"/>
					<ellipse fill="#FFFFFF" cx="133.076" cy="294.55" rx="18.901" ry="13.952"/>
				</g>
				<g>
					<g>
						<path fill="#D6D6D6" d="M149.513,269.023c0,7.706,8.459,13.95,18.899,13.95c10.439,0,18.9-6.245,18.9-13.95v6.452
							c0,7.704-8.461,13.95-18.9,13.95c-10.438,0-18.899-6.246-18.899-13.95V269.023z"/>
						<ellipse fill="#FFFFFF" cx="168.412" cy="269.022" rx="18.899" ry="13.951"/>
					</g>
				</g>
			</g>
			<polygon fill="#E84318" points="133.287,324.593 61.417,274.646 61.417,308.156 133.287,357.933 204.065,306.427 
				204.065,273.621 			"/>
			<polygon fill="#D6D6D6" points="204.065,273.621 204.065,319.071 133.287,370.576 133.287,357.481 133.287,324.593 			"/>
			<polygon fill="#E2E2E2" points="61.417,274.646 61.417,320.803 133.287,370.761 133.287,324.593 			"/>
		</g>
		
			<text transform="matrix(0.7696 0.5297 -0.0201 0.9998 68.5151 307.7256)" fill="#1A1A1A" font-family="'AvenirNext-Bold'" font-size="12.8859">BLOCK 567</text>
	</g>
</g>
<g>
	<g>
		<g>
			<g>
				<polygon fill="#AEF721" points="535.323,189.659 499.354,164.686 499.32,164.689 463.352,139.714 428.011,165.158 
					428.015,165.242 392.675,190.687 428.485,215.659 428.679,215.658 464.544,240.631 499.934,215.149 499.934,215.149 				"/>
				<g>
					<path fill="#93D80F" d="M409.43,185.618c0,7.706,8.46,13.951,18.898,13.951c10.44,0,18.901-6.245,18.901-13.951v6.452
						c0,7.705-8.461,13.951-18.901,13.951c-10.438,0-18.898-6.247-18.898-13.951V185.618z"/>
					<path fill="#B8FF2E" d="M447.229,185.618c0,7.706-8.461,13.951-18.901,13.951c-10.438,0-18.898-6.245-18.898-13.951
						c0-7.703,8.46-13.949,18.898-13.949C438.769,171.668,447.229,177.915,447.229,185.618z"/>
				</g>
				<g>
					<path fill="#93D80F" d="M444.765,160.093c0,7.705,8.462,13.949,18.9,13.949c10.438,0,18.901-6.244,18.901-13.949v6.451
						c0,7.703-8.462,13.949-18.901,13.949c-10.438,0-18.9-6.247-18.9-13.949V160.093z"/>
					<ellipse fill="#B8FF2E" cx="463.666" cy="160.092" rx="18.9" ry="13.95"/>
				</g>
				<g>
					<path fill="#93D80F" d="M445.434,210.589c0,7.708,8.462,13.951,18.899,13.951c10.441,0,18.901-6.244,18.901-13.951v6.452
						c0,7.706-8.46,13.952-18.901,13.952c-10.438,0-18.899-6.246-18.899-13.952V210.589z"/>
					<ellipse fill="#B8FF2E" cx="464.333" cy="210.589" rx="18.901" ry="13.952"/>
				</g>
				<g>
					<g>
						<path fill="#93D80F" d="M480.77,185.063c0,7.705,8.462,13.95,18.9,13.95s18.899-6.245,18.899-13.95v6.452
							c0,7.703-8.461,13.949-18.899,13.949c-10.438,0-18.9-6.246-18.9-13.949V185.063z"/>
						<ellipse fill="#B8FF2E" cx="499.67" cy="185.063" rx="18.898" ry="13.95"/>
					</g>
				</g>
			</g>
			<polygon fill="#E84318" points="464.544,240.631 392.675,190.687 392.675,224.195 464.544,273.972 535.323,222.467 
				535.323,189.659 			"/>
			<polygon fill="#490DBC" points="535.323,189.659 535.323,235.11 464.544,286.8 464.544,273.519 464.544,240.631 			"/>
			<polygon fill="#610EE2" points="392.675,190.687 392.675,236.842 464.544,286.8 464.544,240.631 			"/>
		</g>
		
			<text transform="matrix(0.7696 0.5297 -0.0201 0.9998 399.7705 223.7637)" fill="#F2F2F2" font-family="'AvenirNext-Bold'" font-size="12.8859">BLOCK 564</text>
	</g>
	<g>
		<g>
			<g>
				<polygon fill="#8322F4" points="535.313,144.246 499.345,119.272 499.31,119.275 463.342,94.301 428,119.747 428.004,119.828 
					392.666,145.274 428.476,170.247 428.671,170.245 464.534,195.219 499.924,169.734 499.924,169.734 				"/>
				<g>
					<path fill="#6C12D6" d="M409.419,140.205c0,7.706,8.46,13.951,18.9,13.951c10.438,0,18.9-6.245,18.9-13.951v6.453
						c0,7.704-8.462,13.95-18.9,13.95s-18.9-6.249-18.9-13.95V140.205z"/>
					<path fill="#9031FF" d="M447.22,140.205c0,7.706-8.462,13.951-18.9,13.951s-18.9-6.245-18.9-13.951
						c0-7.703,8.46-13.949,18.9-13.949C438.758,126.256,447.22,132.502,447.22,140.205z"/>
				</g>
				<g>
					<path fill="#6C12D6" d="M444.755,114.679c0,7.705,8.461,13.95,18.899,13.95c10.44,0,18.902-6.245,18.902-13.95v6.453
						c0,7.703-8.461,13.949-18.902,13.949c-10.438,0-18.899-6.247-18.899-13.949V114.679z"/>
					<ellipse fill="#9031FF" cx="463.656" cy="114.68" rx="18.9" ry="13.949"/>
				</g>
				<g>
					<path fill="#6C12D6" d="M445.426,165.176c0,7.707,8.458,13.953,18.897,13.953s18.9-6.246,18.9-13.953v6.453
						c0,7.704-8.461,13.95-18.9,13.95s-18.897-6.247-18.897-13.95V165.176z"/>
					<ellipse fill="#9031FF" cx="464.323" cy="165.177" rx="18.9" ry="13.952"/>
				</g>
				<g>
					<g>
						<path fill="#6C12D6" d="M480.762,139.649c0,7.707,8.458,13.951,18.898,13.951c10.438,0,18.898-6.244,18.898-13.951v6.453
							c0,7.703-8.46,13.949-18.898,13.949c-10.439,0-18.898-6.246-18.898-13.949V139.649z"/>
						<ellipse fill="#9031FF" cx="499.66" cy="139.65" rx="18.898" ry="13.951"/>
					</g>
				</g>
			</g>
			<polygon fill="#E84318" points="464.534,195.219 392.666,145.274 392.666,178.783 464.534,228.559 535.313,177.052 
				535.313,144.246 			"/>
			<polygon fill="#93D80F" points="535.313,144.246 535.313,189.698 464.534,241.204 464.534,228.107 464.534,195.219 			"/>
			<polygon fill="#A0E51A" points="392.666,145.274 392.666,191.429 464.534,241.386 464.534,195.219 			"/>
		</g>
		
			<text transform="matrix(0.7696 0.5297 -0.0201 0.9998 399.7617 178.3516)" fill="#1A1A1A" font-family="'AvenirNext-Bold'" font-size="12.8859">BLOCK 565</text>
	</g>
	<g>
		<g>
			<g>
				<polygon fill="#AEF721" points="535.328,98.247 499.358,73.274 499.324,73.277 463.355,48.302 428.017,73.747 428.02,73.829 
					392.68,99.274 428.49,124.247 428.684,124.246 464.55,149.218 499.939,123.735 499.939,123.735 				"/>
				<g>
					<path fill="#93D80F" d="M409.434,94.206c0,7.706,8.461,13.951,18.9,13.951c10.438,0,18.899-6.246,18.899-13.951v6.452
						c0,7.705-8.461,13.951-18.899,13.951s-18.9-6.247-18.9-13.951V94.206z"/>
					<path fill="#B8FF2E" d="M447.233,94.206c0,7.706-8.461,13.951-18.899,13.951s-18.9-6.246-18.9-13.951
						c0-7.703,8.461-13.949,18.9-13.949C438.772,80.256,447.233,86.503,447.233,94.206z"/>
				</g>
				<g>
					<path fill="#93D80F" d="M444.771,68.68c0,7.707,8.461,13.95,18.899,13.95s18.902-6.243,18.902-13.95v6.453
						c0,7.703-8.462,13.949-18.902,13.949c-10.437,0-18.899-6.246-18.899-13.949V68.68z"/>
					<ellipse fill="#B8FF2E" cx="463.671" cy="68.679" rx="18.901" ry="13.95"/>
				</g>
				<g>
					<path fill="#93D80F" d="M445.438,119.177c0,7.706,8.463,13.951,18.901,13.951c10.439,0,18.899-6.245,18.899-13.951v6.452
						c0,7.706-8.46,13.951-18.899,13.951c-10.438,0-18.901-6.245-18.901-13.951V119.177z"/>
					<ellipse fill="#B8FF2E" cx="464.339" cy="119.177" rx="18.899" ry="13.951"/>
				</g>
				<g>
					<g>
						<path fill="#93D80F" d="M480.775,93.651c0,7.706,8.461,13.95,18.899,13.95c10.44,0,18.9-6.244,18.9-13.95v6.453
							c0,7.704-8.46,13.949-18.9,13.949c-10.438,0-18.899-6.245-18.899-13.949V93.651z"/>
						<ellipse fill="#B8FF2E" cx="499.675" cy="93.651" rx="18.899" ry="13.95"/>
					</g>
				</g>
			</g>
			<polygon fill="#E84318" points="464.55,149.218 392.68,99.274 392.68,132.784 464.55,182.56 535.328,131.053 535.328,98.247 			
				"/>
			<polygon fill="#002054" points="535.328,98.247 535.328,143.697 464.55,195.205 464.55,182.106 464.55,149.218 			"/>
			<polygon fill="#002776" points="392.68,99.274 392.68,145.429 464.55,195.388 464.55,149.218 			"/>
		</g>
		
			<text transform="matrix(0.7696 0.5297 -0.0201 0.9998 399.7773 132.3525)" fill="#F2F2F2" font-family="'AvenirNext-Bold'" font-size="12.8859">BLOCK 566</text>
	</g>
	<g>
		<g>
			<g>
				<polygon fill="#F4F4F4" points="535.318,52.833 499.35,27.86 499.314,27.863 463.346,2.888 428.006,28.334 428.01,28.416 
					392.669,53.86 428.482,78.835 428.674,78.832 464.539,103.806 499.929,78.323 499.929,78.323 				"/>
				<g>
					<path fill="#D6D6D6" d="M409.424,48.793c0,7.706,8.461,13.951,18.9,13.951c10.437,0,18.9-6.245,18.9-13.951v6.452
						c0,7.705-8.464,13.95-18.9,13.95c-10.439,0-18.9-6.247-18.9-13.95V48.793z"/>
					<path fill="#FFFFFF" d="M447.225,48.793c0,7.706-8.464,13.951-18.9,13.951c-10.439,0-18.9-6.245-18.9-13.951
						c0-7.704,8.461-13.949,18.9-13.949C438.761,34.842,447.225,41.089,447.225,48.793z"/>
				</g>
				<g>
					<path fill="#D6D6D6" d="M444.761,23.267c0,7.705,8.461,13.95,18.899,13.95c10.439,0,18.901-6.245,18.901-13.95v6.453
						c0,7.703-8.461,13.949-18.901,13.949c-10.436,0-18.899-6.247-18.899-13.949V23.267z"/>
					<ellipse fill="#FFFFFF" cx="463.661" cy="23.267" rx="18.9" ry="13.95"/>
				</g>
				<g>
					<path fill="#D6D6D6" d="M445.427,73.764c0,7.706,8.464,13.951,18.902,13.951s18.899-6.245,18.899-13.951v6.451
						c0,7.705-8.461,13.952-18.899,13.952s-18.902-6.247-18.902-13.952V73.764z"/>
					<ellipse fill="#FFFFFF" cx="464.329" cy="73.764" rx="18.899" ry="13.952"/>
				</g>
				<g>
					<g>
						<path fill="#D6D6D6" d="M480.766,48.236c0,7.707,8.46,13.951,18.898,13.951c10.44,0,18.901-6.245,18.901-13.951v6.454
							c0,7.703-8.461,13.949-18.901,13.949c-10.438,0-18.898-6.247-18.898-13.949V48.236z"/>
						<ellipse fill="#FFFFFF" cx="499.664" cy="48.237" rx="18.9" ry="13.951"/>
					</g>
				</g>
			</g>
			<polygon fill="#E84318" points="464.539,103.806 392.669,53.86 392.669,87.369 464.539,137.146 535.318,85.64 535.318,52.833 			
				"/>
			<polygon fill="#D6D6D6" points="535.318,52.833 535.318,98.285 464.539,149.79 464.539,136.694 464.539,103.806 			"/>
			<polygon fill="#E2E2E2" points="392.669,53.86 392.669,100.016 464.539,149.974 464.539,103.806 			"/>
		</g>
		
			<text transform="matrix(0.7696 0.5297 -0.0201 0.9998 399.7676 86.939)" fill="#1A1A1A" font-family="'AvenirNext-Bold'" font-size="12.8859">BLOCK 567</text>
	</g>
</g>
<g>
	<g>
		<g>
			<g>
				<polygon fill="#AEF721" points="419.323,560.282 383.354,535.311 383.32,535.313 347.352,510.339 312.012,535.785 
					312.015,535.867 276.676,561.311 312.487,586.283 312.68,586.282 348.545,611.256 383.935,585.772 383.935,585.772 				"/>
				<g>
					<path fill="#93D80F" d="M293.43,556.244c0,7.704,8.46,13.95,18.899,13.95c10.438,0,18.899-6.246,18.899-13.95v6.451
						c0,7.705-8.46,13.95-18.899,13.95c-10.438,0-18.899-6.248-18.899-13.95V556.244z"/>
					<path fill="#B8FF2E" d="M331.229,556.244c0,7.704-8.46,13.95-18.899,13.95c-10.438,0-18.899-6.246-18.899-13.95
						c0-7.705,8.46-13.95,18.899-13.95C322.768,542.294,331.229,548.539,331.229,556.244z"/>
				</g>
				<g>
					<path fill="#93D80F" d="M328.766,530.716c0,7.707,8.462,13.95,18.899,13.95c10.44,0,18.902-6.243,18.902-13.95v6.453
						c0,7.704-8.462,13.95-18.902,13.95c-10.437,0-18.899-6.246-18.899-13.95V530.716z"/>
					<ellipse fill="#B8FF2E" cx="347.667" cy="530.716" rx="18.9" ry="13.95"/>
				</g>
				<g>
					<path fill="#93D80F" d="M329.435,581.214c0,7.707,8.459,13.951,18.899,13.951s18.9-6.244,18.9-13.951v6.452
						c0,7.706-8.461,13.952-18.9,13.952s-18.899-6.246-18.899-13.952V581.214z"/>
					<ellipse fill="#B8FF2E" cx="348.334" cy="581.213" rx="18.9" ry="13.952"/>
				</g>
				<g>
					<g>
						<path fill="#93D80F" d="M364.771,555.688c0,7.707,8.461,13.95,18.899,13.95s18.899-6.243,18.899-13.95v6.453
							c0,7.702-8.461,13.948-18.899,13.948s-18.899-6.246-18.899-13.948V555.688z"/>
						<ellipse fill="#B8FF2E" cx="383.67" cy="555.688" rx="18.899" ry="13.95"/>
					</g>
				</g>
			</g>
			<polygon fill="#E84318" points="348.545,611.256 276.676,561.311 276.676,594.82 348.545,644.596 419.323,593.092 
				419.323,560.282 			"/>
			<polygon fill="#490DBC" points="419.323,560.282 419.323,605.733 348.545,657.425 348.545,644.144 348.545,611.256 			"/>
			<polygon fill="#610EE2" points="276.676,561.311 276.676,607.467 348.545,657.425 348.545,611.256 			"/>
		</g>
		
			<text transform="matrix(0.7696 0.5297 -0.0201 0.9998 283.772 594.3887)" fill="#F2F2F2" font-family="'AvenirNext-Bold'" font-size="12.8859">BLOCK 564</text>
	</g>
	<g>
		<g>
			<g>
				<polygon fill="#8322F4" points="419.314,514.87 383.345,489.896 383.309,489.9 347.342,464.925 312.001,490.37 312.005,490.453 
					276.665,515.898 312.477,540.871 312.67,540.87 348.533,565.843 383.924,540.361 383.924,540.361 				"/>
				<g>
					<path fill="#6C12D6" d="M293.42,510.829c0,7.707,8.46,13.952,18.899,13.952c10.438,0,18.9-6.245,18.9-13.952v6.453
						c0,7.704-8.462,13.949-18.9,13.949c-10.439,0-18.899-6.246-18.899-13.949V510.829z"/>
					<path fill="#9031FF" d="M331.22,510.829c0,7.707-8.462,13.952-18.9,13.952c-10.439,0-18.899-6.245-18.899-13.952
						c0-7.703,8.459-13.949,18.899-13.949C322.758,496.88,331.22,503.126,331.22,510.829z"/>
				</g>
				<g>
					<path fill="#6C12D6" d="M328.757,485.304c0,7.704,8.461,13.95,18.898,13.95c10.44,0,18.901-6.246,18.901-13.95v6.452
						c0,7.702-8.461,13.95-18.901,13.95c-10.438,0-18.898-6.248-18.898-13.95V485.304z"/>
					<ellipse fill="#9031FF" cx="347.656" cy="485.304" rx="18.9" ry="13.95"/>
				</g>
				<g>
					<path fill="#6C12D6" d="M329.424,535.801c0,7.707,8.46,13.952,18.899,13.952c10.439,0,18.901-6.245,18.901-13.952v6.451
						c0,7.705-8.462,13.951-18.901,13.951c-10.439,0-18.899-6.246-18.899-13.951V535.801z"/>
					<ellipse fill="#9031FF" cx="348.323" cy="535.8" rx="18.901" ry="13.953"/>
				</g>
				<g>
					<g>
						<path fill="#6C12D6" d="M364.762,510.272c0,7.707,8.459,13.952,18.897,13.952c10.439,0,18.901-6.245,18.901-13.952v6.454
							c0,7.703-8.462,13.948-18.901,13.948c-10.438,0-18.897-6.245-18.897-13.948V510.272z"/>
						<ellipse fill="#9031FF" cx="383.659" cy="510.274" rx="18.9" ry="13.951"/>
					</g>
				</g>
			</g>
			<polygon fill="#E84318" points="348.533,565.843 276.665,515.898 276.665,549.406 348.533,599.184 419.314,547.677 
				419.314,514.87 			"/>
			<polygon fill="#93D80F" points="419.314,514.87 419.314,560.322 348.533,611.826 348.533,598.731 348.533,565.843 			"/>
			<polygon fill="#A0E51A" points="276.665,515.898 276.665,562.052 348.533,612.01 348.533,565.843 			"/>
		</g>
		
			<text transform="matrix(0.7696 0.5297 -0.0201 0.9998 283.7622 548.9756)" fill="#1A1A1A" font-family="'AvenirNext-Bold'" font-size="12.8859">BLOCK 565</text>
	</g>
	<g>
		<g>
			<g>
				<polygon fill="#AEF721" points="419.329,468.871 383.359,443.899 383.324,443.901 347.356,418.928 312.017,444.372 
					312.02,444.454 276.681,469.899 312.491,494.871 312.685,494.87 348.551,519.843 383.939,494.36 383.939,494.36 				"/>
				<g>
					<path fill="#93D80F" d="M293.435,464.831c0,7.706,8.461,13.95,18.9,13.95s18.9-6.244,18.9-13.95v6.452
						c0,7.703-8.461,13.95-18.9,13.95c-10.438,0-18.9-6.247-18.9-13.95V464.831z"/>
					<path fill="#B8FF2E" d="M331.234,464.831c0,7.706-8.461,13.95-18.9,13.95c-10.438,0-18.9-6.244-18.9-13.95
						c0-7.704,8.461-13.949,18.9-13.949C322.773,450.881,331.234,457.127,331.234,464.831z"/>
				</g>
				<g>
					<path fill="#93D80F" d="M328.771,439.303c0,7.707,8.461,13.95,18.899,13.95c10.439,0,18.9-6.243,18.9-13.95v6.454
						c0,7.703-8.46,13.95-18.9,13.95c-10.438,0-18.899-6.247-18.899-13.95V439.303z"/>
					<ellipse fill="#B8FF2E" cx="347.671" cy="439.303" rx="18.9" ry="13.95"/>
				</g>
				<g>
					<path fill="#93D80F" d="M329.439,489.802c0,7.706,8.462,13.951,18.901,13.951c10.438,0,18.898-6.245,18.898-13.951v6.452
						c0,7.706-8.46,13.952-18.898,13.952c-10.439,0-18.901-6.246-18.901-13.952V489.802z"/>
					<ellipse fill="#B8FF2E" cx="348.34" cy="489.801" rx="18.898" ry="13.952"/>
				</g>
				<g>
					<g>
						<path fill="#93D80F" d="M364.774,464.274c0,7.707,8.462,13.951,18.9,13.951c10.44,0,18.9-6.244,18.9-13.951v6.454
							c0,7.702-8.46,13.947-18.9,13.947c-10.438,0-18.9-6.245-18.9-13.947V464.274z"/>
						<ellipse fill="#B8FF2E" cx="383.675" cy="464.275" rx="18.899" ry="13.95"/>
					</g>
				</g>
			</g>
			<polygon fill="#E84318" points="348.551,519.843 276.681,469.899 276.681,503.408 348.551,553.185 419.329,501.678 
				419.329,468.871 			"/>
			<polygon fill="#002054" points="419.329,468.871 419.329,514.322 348.551,565.828 348.551,552.731 348.551,519.843 			"/>
			<polygon fill="#002776" points="276.681,469.899 276.681,516.054 348.551,566.012 348.551,519.843 			"/>
		</g>
		
			<text transform="matrix(0.7696 0.5297 -0.0201 0.9998 283.7778 502.9766)" fill="#F2F2F2" font-family="'AvenirNext-Bold'" font-size="12.8859">BLOCK 566</text>
	</g>
	<g>
		<g>
			<g>
				<polygon fill="#F4F4F4" points="419.318,423.457 383.35,398.483 383.315,398.487 347.346,373.513 312.007,398.958 
					312.01,399.039 276.67,424.484 312.481,449.458 312.675,449.456 348.539,474.431 383.929,448.948 383.929,448.948 				"/>
				<g>
					<path fill="#D6D6D6" d="M293.425,419.417c0,7.706,8.461,13.952,18.899,13.952c10.439,0,18.901-6.246,18.901-13.952v6.453
						c0,7.703-8.462,13.948-18.901,13.948c-10.438,0-18.899-6.246-18.899-13.948V419.417z"/>
					<path fill="#FFFFFF" d="M331.225,419.417c0,7.706-8.462,13.952-18.901,13.952c-10.438,0-18.899-6.246-18.899-13.952
						c0-7.703,8.461-13.949,18.899-13.949C322.763,405.467,331.225,411.714,331.225,419.417z"/>
				</g>
				<g>
					<path fill="#6C12D6" d="M328.76,393.892c0,7.704,8.462,13.948,18.9,13.948c10.439,0,18.901-6.244,18.901-13.948v6.452
						c0,7.702-8.462,13.949-18.901,13.949c-10.438,0-18.9-6.247-18.9-13.949V393.892z"/>
					<ellipse fill="#9031FF" cx="347.661" cy="393.89" rx="18.9" ry="13.95"/>
				</g>
				<g>
					<path fill="#D6D6D6" d="M329.429,444.389c0,7.706,8.462,13.95,18.899,13.95c10.439,0,18.9-6.244,18.9-13.95v6.45
						c0,7.705-8.461,13.952-18.9,13.952c-10.437,0-18.899-6.247-18.899-13.952V444.389z"/>
					<ellipse fill="#FFFFFF" cx="348.328" cy="444.387" rx="18.9" ry="13.952"/>
				</g>
				<g>
					<g>
						<path fill="#D6D6D6" d="M364.765,418.86c0,7.707,8.462,13.951,18.9,13.951c10.439,0,18.899-6.244,18.899-13.951v6.454
							c0,7.702-8.46,13.949-18.899,13.949c-10.438,0-18.9-6.247-18.9-13.949V418.86z"/>
						<ellipse fill="#FFFFFF" cx="383.665" cy="418.861" rx="18.898" ry="13.951"/>
					</g>
				</g>
			</g>
			<polygon fill="#E84318" points="348.539,474.431 276.67,424.484 276.67,457.993 348.539,507.771 419.318,456.265 
				419.318,423.457 			"/>
			<polygon fill="#D6D6D6" points="419.318,423.457 419.318,468.909 348.539,520.415 348.539,507.318 348.539,474.431 			"/>
			<polygon fill="#E2E2E2" points="276.67,424.484 276.67,470.641 348.539,520.598 348.539,474.431 			"/>
		</g>
		
			<text transform="matrix(0.7696 0.5297 -0.0201 0.9998 283.7676 457.5635)" fill="#1A1A1A" font-family="'AvenirNext-Bold'" font-size="12.8859">BLOCK 567</text>
	</g>
</g>
<g>
	<g>
		<g>
			<polygon fill="#E03220" points="419.318,342.512 383.35,317.539 383.315,317.542 347.346,292.568 312.007,318.012 
				312.01,318.095 276.67,343.54 312.481,368.512 312.675,368.511 348.539,393.486 383.929,368.002 383.929,368.002 			"/>
			<g>
				<path fill="#991D17" d="M293.425,338.471c0,7.708,8.461,13.951,18.899,13.951c10.439,0,18.901-6.244,18.901-13.951v6.452
					c0,7.704-8.462,13.95-18.901,13.95c-10.438,0-18.899-6.246-18.899-13.95V338.471z"/>
				<path fill="#E5403C" d="M331.225,338.471c0,7.708-8.462,13.951-18.901,13.951c-10.438,0-18.899-6.244-18.899-13.951
					c0-7.703,8.461-13.95,18.899-13.95C322.763,324.521,331.225,330.768,331.225,338.471z"/>
			</g>
			<g>
				<path fill="#991D17" d="M328.76,312.945c0,7.707,8.462,13.95,18.9,13.95c10.439,0,18.901-6.243,18.901-13.95v6.453
					c0,7.703-8.462,13.949-18.901,13.949c-10.438,0-18.9-6.247-18.9-13.949V312.945z"/>
				<ellipse fill="#E5403C" cx="347.661" cy="312.945" rx="18.9" ry="13.95"/>
			</g>
			<g>
				<path fill="#991D17" d="M329.429,363.442c0,7.706,8.462,13.951,18.899,13.951c10.439,0,18.9-6.245,18.9-13.951v6.453
					c0,7.704-8.461,13.951-18.9,13.951c-10.437,0-18.899-6.247-18.899-13.951V363.442z"/>
				<ellipse fill="#E5403C" cx="348.328" cy="363.442" rx="18.9" ry="13.952"/>
			</g>
			<g>
				<g>
					<path fill="#991D17" d="M364.765,337.916c0,7.705,8.462,13.95,18.9,13.95c10.439,0,18.899-6.245,18.899-13.95v6.452
						c0,7.706-8.46,13.951-18.899,13.951c-10.438,0-18.9-6.246-18.9-13.951V337.916z"/>
					<ellipse fill="#E5403C" cx="383.665" cy="337.915" rx="18.898" ry="13.951"/>
				</g>
			</g>
		</g>
		<polygon fill="#E84318" points="348.539,393.486 276.67,343.54 276.67,377.05 348.539,426.824 419.318,375.317 419.318,342.512 		
			"/>
		<polygon fill="#AF2719" points="419.318,342.512 419.318,387.964 348.539,439.47 348.539,426.372 348.539,393.486 		"/>
		<polygon fill="#E0391E" points="276.67,343.54 276.67,389.694 348.539,439.653 348.539,393.486 		"/>
	</g>
	
		<text transform="matrix(0.7696 0.5297 -0.0201 0.9998 283.7676 376.6172)" fill="#F2F2F2" font-family="'AvenirNext-Bold'" font-size="12.8859">BLOCK 568</text>
</g>
<g>
	<g>
		<path fill="none" stroke="#151400" stroke-width="8" stroke-miterlimit="10" d="M348.551,343.54
			c-0.016-1.685-0.062-3.351-0.137-4.999"/>
		<path fill="none" stroke="#151400" stroke-width="8" stroke-miterlimit="10" stroke-dasharray="10.1904,10.1904" d="
			M347.562,328.387c-15-121.474-194.8-130.234-211.318-64.757"/>
		<path fill="none" stroke="#151400" stroke-width="8" stroke-miterlimit="10" d="M135.322,268.633
			c-0.193,1.622-0.292,3.285-0.292,4.988"/>
	</g>
</g>
<path fill="none" stroke="#999999" stroke-width="2" stroke-miterlimit="10" d="M373.337,336.966"/>
<g>
	<g>
		<path fill="none" stroke="#151400" stroke-width="8" stroke-miterlimit="10" d="M348.551,343.54c0.025-1.671,0.046-3.337,0.062-5"
			/>
		<path fill="none" stroke="#151400" stroke-width="8" stroke-miterlimit="10" stroke-dasharray="10.0358,10.0358" d="
			M348.648,328.504c-0.428-192.59-65.451-326.508-102.705-287.76"/>
		<path fill="none" stroke="#151400" stroke-width="8" stroke-miterlimit="10" d="M242.741,44.602
			c-0.927,1.277-1.833,2.674-2.717,4.192"/>
	</g>
</g>
<g>
	<g>
		<g>
			<g>
				<polygon fill="#AEF721" points="628.935,423.549 592.966,398.577 592.932,398.58 556.963,373.604 521.622,399.05 
					521.627,399.133 486.287,424.577 522.098,449.549 522.291,449.549 558.156,474.522 593.546,449.04 593.546,449.04 				"/>
				<g>
					<path fill="#93D80F" d="M503.041,419.51c0,7.706,8.46,13.951,18.898,13.951c10.441,0,18.901-6.245,18.901-13.951v6.451
						c0,7.705-8.46,13.951-18.901,13.951c-10.438,0-18.898-6.246-18.898-13.951V419.51z"/>
					<path fill="#B8FF2E" d="M540.841,419.51c0,7.706-8.46,13.951-18.901,13.951c-10.438,0-18.898-6.245-18.898-13.951
						c0-7.703,8.46-13.95,18.898-13.95C532.381,405.56,540.841,411.807,540.841,419.51z"/>
				</g>
				<g>
					<path fill="#93D80F" d="M538.377,393.985c0,7.705,8.462,13.947,18.899,13.947c10.439,0,18.902-6.242,18.902-13.947v6.45
						c0,7.703-8.462,13.949-18.902,13.949c-10.438,0-18.899-6.246-18.899-13.949V393.985z"/>
					<ellipse fill="#B8FF2E" cx="557.277" cy="393.983" rx="18.901" ry="13.949"/>
				</g>
				<g>
					<path fill="#93D80F" d="M539.045,444.479c0,7.709,8.462,13.952,18.9,13.952c10.44,0,18.9-6.243,18.9-13.952v6.453
						c0,7.705-8.46,13.952-18.9,13.952c-10.438,0-18.9-6.247-18.9-13.952V444.479z"/>
					<ellipse fill="#B8FF2E" cx="557.945" cy="444.48" rx="18.9" ry="13.952"/>
				</g>
				<g>
					<g>
						<path fill="#93D80F" d="M574.382,418.954c0,7.706,8.462,13.951,18.899,13.951c10.441,0,18.899-6.245,18.899-13.951v6.452
							c0,7.705-8.458,13.949-18.899,13.949c-10.437,0-18.899-6.244-18.899-13.949V418.954z"/>
						<ellipse fill="#B8FF2E" cx="593.281" cy="418.955" rx="18.899" ry="13.951"/>
					</g>
				</g>
			</g>
			<polygon fill="#E84318" points="558.156,474.522 486.287,424.577 486.287,458.086 558.156,507.863 628.935,456.358 
				628.935,423.549 			"/>
			<polygon fill="#490DBC" points="628.935,423.733 628.935,469.186 558.156,520.692 558.156,507.594 558.156,474.707 			"/>
			<polygon fill="#610EE2" points="486.287,424.577 486.287,470.733 558.156,520.692 558.156,474.522 			"/>
		</g>
		
			<text transform="matrix(0.7696 0.5297 -0.0201 0.9998 493.3848 457.6562)" fill="#F2F2F2" font-family="'AvenirNext-Bold'" font-size="12.8859">BLOCK 564</text>
	</g>
	<g>
		<g>
			<g>
				<polygon fill="#8322F4" points="628.926,378.137 592.956,353.163 592.922,353.166 556.953,328.191 521.611,353.637 
					521.616,353.72 486.278,379.165 522.088,404.138 522.282,404.138 558.146,429.109 593.536,403.626 593.536,403.626 				"/>
				<g>
					<path fill="#6C12D6" d="M503.031,374.097c0,7.706,8.459,13.951,18.9,13.951c10.438,0,18.899-6.245,18.899-13.951v6.452
						c0,7.702-8.462,13.951-18.899,13.951c-10.439,0-18.9-6.249-18.9-13.951V374.097z"/>
					<path fill="#9031FF" d="M540.831,374.097c0,7.706-8.462,13.951-18.899,13.951c-10.439,0-18.9-6.245-18.9-13.951
						c0-7.703,8.459-13.95,18.9-13.95C532.369,360.147,540.831,366.394,540.831,374.097z"/>
				</g>
				<g>
					<path fill="#6C12D6" d="M538.367,348.57c0,7.705,8.461,13.95,18.9,13.95s18.901-6.246,18.901-13.95v6.452
						c0,7.704-8.461,13.951-18.901,13.951c-10.439,0-18.9-6.247-18.9-13.951V348.57z"/>
					<ellipse fill="#9031FF" cx="557.268" cy="348.571" rx="18.901" ry="13.95"/>
				</g>
				<g>
					<path fill="#6C12D6" d="M539.037,399.066c0,7.708,8.459,13.955,18.898,13.955c10.438,0,18.899-6.247,18.899-13.955v6.454
						c0,7.703-8.461,13.95-18.899,13.95c-10.439,0-18.898-6.247-18.898-13.95V399.066z"/>
					<ellipse fill="#9031FF" cx="557.936" cy="399.068" rx="18.899" ry="13.953"/>
				</g>
				<g>
					<g>
						<path fill="#6C12D6" d="M574.374,373.541c0,7.707,8.458,13.951,18.897,13.951s18.899-6.244,18.899-13.951v6.452
							c0,7.704-8.46,13.949-18.899,13.949c-10.438,0-18.897-6.245-18.897-13.949V373.541z"/>
						<ellipse fill="#9031FF" cx="593.271" cy="373.541" rx="18.899" ry="13.951"/>
					</g>
				</g>
			</g>
			<polygon fill="#E84318" points="558.146,429.109 486.278,379.165 486.278,412.674 558.146,462.45 628.926,410.942 
				628.926,378.137 			"/>
			<polygon fill="#93D80F" points="628.926,378.137 628.926,423.589 558.146,475.094 558.146,461.999 558.146,429.109 			"/>
			<polygon fill="#A0E51A" points="486.278,379.165 486.278,425.319 558.146,475.277 558.146,429.109 			"/>
		</g>
		
			<text transform="matrix(0.7696 0.5297 -0.0201 0.9998 493.374 412.2441)" fill="#1A1A1A" font-family="'AvenirNext-Bold'" font-size="12.8859">BLOCK 565</text>
	</g>
	<g>
		<g>
			<g>
				<polygon fill="#AEF721" points="628.94,332.139 592.971,307.164 592.936,307.167 556.968,282.193 521.629,307.638 
					521.631,307.719 486.292,333.165 522.103,358.138 522.296,358.137 558.162,383.111 593.551,357.627 593.551,357.627 				"/>
				<g>
					<path fill="#93D80F" d="M503.047,328.097c0,7.706,8.46,13.951,18.898,13.951c10.439,0,18.9-6.245,18.9-13.951v6.453
						c0,7.703-8.461,13.95-18.9,13.95c-10.438,0-18.898-6.247-18.898-13.95V328.097z"/>
					<path fill="#B8FF2E" d="M540.846,328.097c0,7.706-8.461,13.951-18.9,13.951c-10.438,0-18.898-6.245-18.898-13.951
						c0-7.704,8.46-13.948,18.898-13.948C532.385,314.146,540.846,320.393,540.846,328.097z"/>
				</g>
				<g>
					<path fill="#93D80F" d="M538.382,302.57c0,7.707,8.461,13.952,18.9,13.952c10.438,0,18.901-6.245,18.901-13.952v6.454
						c0,7.703-8.461,13.949-18.901,13.949c-10.438,0-18.9-6.246-18.9-13.949V302.57z"/>
					<ellipse fill="#B8FF2E" cx="557.283" cy="302.571" rx="18.9" ry="13.951"/>
				</g>
				<g>
					<path fill="#93D80F" d="M539.051,353.068c0,7.707,8.462,13.952,18.9,13.952c10.439,0,18.899-6.245,18.899-13.952v6.452
						c0,7.705-8.46,13.951-18.899,13.951c-10.438,0-18.9-6.246-18.9-13.951V353.068z"/>
					<ellipse fill="#B8FF2E" cx="557.951" cy="353.068" rx="18.899" ry="13.952"/>
				</g>
				<g>
					<g>
						<path fill="#93D80F" d="M574.386,327.542c0,7.707,8.462,13.949,18.901,13.949s18.899-6.243,18.899-13.949v6.452
							c0,7.703-8.46,13.95-18.899,13.95c-10.438,0-18.901-6.247-18.901-13.95V327.542z"/>
						<ellipse fill="#B8FF2E" cx="593.287" cy="327.541" rx="18.898" ry="13.95"/>
					</g>
				</g>
			</g>
			<polygon fill="#E84318" points="558.162,383.111 486.292,333.165 486.292,366.675 558.162,416.45 628.94,364.945 628.94,332.139 
							"/>
			<polygon fill="#002054" points="628.94,332.139 628.94,377.588 558.162,429.096 558.162,415.999 558.162,383.111 			"/>
			<polygon fill="#002776" points="486.292,333.165 486.292,379.32 558.162,429.279 558.162,383.111 			"/>
		</g>
		
			<text transform="matrix(0.7696 0.5297 -0.0201 0.9998 493.3906 366.2441)" fill="#F2F2F2" font-family="'AvenirNext-Bold'" font-size="12.8859">BLOCK 566</text>
	</g>
	<g>
		<g>
			<g>
				<polygon fill="#F4F4F4" points="628.93,286.725 592.962,261.751 592.927,261.754 556.958,236.779 521.618,262.226 
					521.621,262.307 486.28,287.752 522.094,312.726 522.286,312.723 558.15,337.698 593.54,312.214 593.54,312.214 				"/>
				<g>
					<path fill="#D6D6D6" d="M503.036,282.684c0,7.707,8.46,13.952,18.899,13.952c10.438,0,18.901-6.245,18.901-13.952v6.453
						c0,7.704-8.464,13.95-18.901,13.95c-10.438,0-18.899-6.248-18.899-13.95V282.684z"/>
					<path fill="#FFFFFF" d="M540.837,282.684c0,7.707-8.464,13.952-18.901,13.952c-10.438,0-18.899-6.245-18.899-13.952
						c0-7.703,8.46-13.949,18.899-13.949C532.373,268.733,540.837,274.981,540.837,282.684z"/>
				</g>
				<g>
					<path fill="#D6D6D6" d="M538.372,257.158c0,7.705,8.462,13.95,18.9,13.95s18.9-6.245,18.9-13.95v6.452
						c0,7.702-8.461,13.949-18.9,13.949c-10.437,0-18.9-6.247-18.9-13.949V257.158z"/>
					<ellipse fill="#FFFFFF" cx="557.273" cy="257.157" rx="18.899" ry="13.95"/>
				</g>
				<g>
					<path fill="#D6D6D6" d="M539.039,307.655c0,7.706,8.464,13.953,18.901,13.953c10.44,0,18.899-6.247,18.899-13.953v6.451
						c0,7.705-8.459,13.952-18.899,13.952c-10.438,0-18.901-6.247-18.901-13.952V307.655z"/>
					<ellipse fill="#FFFFFF" cx="557.94" cy="307.656" rx="18.899" ry="13.952"/>
				</g>
				<g>
					<g>
						<path fill="#D6D6D6" d="M574.377,282.129c0,7.706,8.461,13.949,18.899,13.949c10.439,0,18.9-6.243,18.9-13.949v6.452
							c0,7.703-8.461,13.95-18.9,13.95c-10.438,0-18.899-6.247-18.899-13.95V282.129z"/>
						<ellipse fill="#FFFFFF" cx="593.276" cy="282.127" rx="18.899" ry="13.951"/>
					</g>
				</g>
			</g>
			<polygon fill="#E84318" points="558.15,337.698 486.28,287.752 486.28,321.261 558.15,371.037 628.93,319.532 628.93,286.725 			
				"/>
			<polygon fill="#D6D6D6" points="628.93,286.725 628.93,332.175 558.15,383.681 558.15,370.586 558.15,337.698 			"/>
			<polygon fill="#E2E2E2" points="486.28,287.752 486.28,333.906 558.15,383.864 558.15,337.698 			"/>
		</g>
		
			<text transform="matrix(0.7696 0.5297 -0.0201 0.9998 493.3799 320.8311)" fill="#1A1A1A" font-family="'AvenirNext-Bold'" font-size="12.8859">BLOCK 567</text>
	</g>
</g>
<g>
	<g>
		<path fill="none" stroke="#151400" stroke-width="8" stroke-miterlimit="10" d="M348.551,343.54c0-1.675,0.002-3.342,0.006-5"/>
		<path fill="none" stroke="#151400" stroke-width="8" stroke-miterlimit="10" stroke-dasharray="9.9545,9.9545" d="
			M348.606,328.583c2.35-315.466,79.27-309.788,109.137-283.793"/>
		<path fill="none" stroke="#151400" stroke-width="8" stroke-miterlimit="10" d="M461.327,48.234
			c1.191,1.266,2.27,2.548,3.223,3.815"/>
	</g>
</g>
<g>
	<g>
		<path fill="none" stroke="#151400" stroke-width="8" stroke-miterlimit="10" d="M348.551,343.54
			c0.016-1.683,0.062-3.349,0.136-4.998"/>
		<path fill="none" stroke="#151400" stroke-width="8" stroke-miterlimit="10" stroke-dasharray="9.972,9.972" d="M349.505,328.603
			c14.947-124.101,199.459-143.362,212.177-54.448"/>
		<path fill="none" stroke="#151400" stroke-width="8" stroke-miterlimit="10" d="M562.202,279.107
			c0.112,1.632,0.169,3.298,0.169,4.997"/>
	</g>
</g>
<g>
	<g>
		<g>
			<polygon fill="#E03220" points="1148.117,326.76 1058.299,264.399 1058.213,264.406 968.396,202.044 880.15,265.582 
				880.154,265.787 791.908,329.328 881.332,391.686 881.816,391.684 971.375,454.048 1059.746,390.411 1059.746,390.411 			"/>
			<g>
				<path fill="#991D17" d="M833.746,316.669c0,19.248,21.127,34.838,47.195,34.838c26.066,0,47.197-15.591,47.197-34.838v16.112
					c0,19.238-21.131,34.834-47.197,34.834c-26.065,0-47.195-15.596-47.195-34.834V316.669z"/>
				<path fill="#E5403C" d="M928.139,316.669c0,19.248-21.131,34.838-47.197,34.838c-26.065,0-47.195-15.591-47.195-34.838
					c0-19.236,21.127-34.835,47.195-34.835C907.008,281.834,928.139,297.434,928.139,316.669z"/>
			</g>
			<g>
				<path fill="#991D17" d="M921.983,252.926c0,19.245,21.132,34.835,47.194,34.835c26.07,0,47.201-15.59,47.201-34.835v16.114
					c0,19.233-21.131,34.833-47.201,34.833c-26.062,0-47.194-15.6-47.194-34.833V252.926z"/>
				<path fill="#E5403C" d="M969.184,218.091c26.064,0,47.195,15.598,47.195,34.835c0,19.238-21.131,34.835-47.195,34.835
					c-26.068,0-47.2-15.597-47.2-34.835C921.983,233.688,943.115,218.091,969.184,218.091z"/>
			</g>
			<g>
				<path fill="#991D17" d="M923.654,379.025c0,19.244,21.129,34.838,47.194,34.838c26.069,0,47.196-15.594,47.196-34.838v16.113
					c0,19.24-21.127,34.839-47.196,34.839c-26.065,0-47.194-15.599-47.194-34.839V379.025z"/>
				<path fill="#E5403C" d="M970.849,344.186c26.067,0,47.196,15.595,47.196,34.84c0,19.243-21.129,34.838-47.196,34.838
					c-26.062,0-47.194-15.595-47.194-34.838C923.654,359.78,944.787,344.186,970.849,344.186z"/>
			</g>
			<g>
				<g>
					<path fill="#991D17" d="M1011.892,315.282c0,19.241,21.129,34.836,47.195,34.836c26.071,0,47.194-15.595,47.194-34.836v16.112
						c0,19.24-21.123,34.836-47.194,34.836c-26.063,0-47.195-15.596-47.195-34.836V315.282z"/>
					<path fill="#E5403C" d="M1059.087,280.444c26.068,0,47.192,15.6,47.192,34.837c0,19.241-21.124,34.836-47.192,34.836
						c-26.062,0-47.195-15.595-47.195-34.836C1011.892,296.044,1033.025,280.444,1059.087,280.444z"/>
				</g>
			</g>
		</g>
		<polygon fill="#E84318" points="971.375,454.048 791.908,329.328 791.908,413.004 971.375,537.301 1148.117,408.681 
			1148.117,326.76 		"/>
		<polygon fill="#AF2719" points="1148.117,326.76 1148.117,440.259 971.375,568.873 971.375,536.17 971.375,454.048 		"/>
		<polygon fill="#E0391E" points="791.908,329.328 791.908,444.581 971.375,569.336 971.375,454.048 		"/>
	</g>
	
		<text transform="matrix(0.7696 0.5297 -0.0201 0.9998 809.6318 411.9268)" fill="#F2F2F2" font-family="'AvenirNext-Bold'" font-size="32.1778">BLOCK 568</text>
</g>
<polygon fill="#490DBC" points="1241.342,520.008 1241.342,710.932 1093.797,819.105 1093.797,764.094 1093.797,625.953 "/>
<polygon fill="#93D80F" points="1219.324,632.693 1219.324,727.881 1093.797,819.105 1093.797,791.957 1093.797,722.816 "/>
<polygon fill="#002054" points="1219.324,633.609 1391.105,508.359 1391.105,602.578 1219.324,727.879 "/>
<polygon fill="#D6D6D6" points="1219.324,536.033 1391.105,411.834 1391.105,508.311 1219.324,633.609 "/>
<text transform="matrix(0.6331 -0.4613 -0.0484 0.9988 1269.3418 545.9141)" enable-background="new    "><tspan x="0" y="0" fill="#333333" font-family="'AvenirNext-Bold'" font-size="24.1086">S M A R T </tspan><tspan x="-41.094" y="28.931" fill="#333333" font-family="'AvenirNext-Bold'" font-size="24.1086">C O N T R A C T S</tspan></text>
<text transform="matrix(0.6331 -0.4613 -0.0484 0.9988 1255.9395 649.0762)" enable-background="new    "><tspan x="0" y="0" fill="#F2F2F2" font-family="'AvenirNext-Bold'" font-size="24.1086">PARTICIPANT</tspan><tspan x="-14.765" y="28.93" fill="#F2F2F2" font-family="'AvenirNext-Bold'" font-size="24.1086">TRANSACTIONS</tspan></text>
<text transform="matrix(0.6331 -0.4613 -0.0484 0.9988 1109.8076 753.5576)" enable-background="new    "><tspan x="0" y="0" fill="#333333" font-family="'AvenirNext-Bold'" font-size="24.1086">LAST BLOCK</tspan><tspan x="3.736" y="28.931" fill="#333333" font-family="'AvenirNext-Bold'" font-size="24.1086">REFERENCE</tspan></text>
<text transform="matrix(0.6331 -0.4613 -0.0484 0.9988 1128.3291 646.5176)" enable-background="new    "><tspan x="0" y="0" fill="#F2F2F2" font-family="'AvenirNext-Bold'" font-size="24.1086">BLOCK </tspan><tspan x="10.68" y="28.931" fill="#F2F2F2" font-family="'AvenirNext-Bold'" font-size="24.1086">DATA</tspan></text>
</svg>
