<?xml version="1.0" encoding="utf-8"?>
<!-- Generator: Adobe Illustrator 16.0.4, SVG Export Plug-In . SVG Version: 6.00 Build 0)  -->
<!DOCTYPE svg PUBLIC "-//W3C//DTD SVG 1.1//EN" "http://www.w3.org/Graphics/SVG/1.1/DTD/svg11.dtd">
<svg version="1.1" id="Layer_1" xmlns="http://www.w3.org/2000/svg" xmlns:xlink="http://www.w3.org/1999/xlink" x="0px" y="0px"
	 width="720px" height="720px" viewBox="0 0 720 720" enable-background="new 0 0 720 720" xml:space="preserve">
<g>
	<g>
		<polygon fill="#F4F4F4" points="-430.323,-37.613 -430.323,24.846 -235.687,159.795 -235.687,97.562 		"/>
		<polygon fill="#CECECE" points="-235.687,98.912 -139.905,29.934 -139.905,90.83 -235.687,159.809 		"/>
	</g>
	<g>
		<polygon fill="#333333" points="-430.28,-58.422 -430.28,4.037 -235.642,138.985 -235.642,76.753 		"/>
		<g>
			<path fill="#D6D112" d="M-407.233-39.781c0,10.43,11.448,18.879,25.575,18.879c14.128,0,25.578-8.449,25.578-18.879v8.732
				c0,10.426-11.449,18.879-25.578,18.879c-14.125,0-25.575-8.455-25.575-18.879V-39.781z"/>
			<path fill="#FFF931" d="M-356.08-39.781c0,10.43-11.449,18.879-25.579,18.879c-14.125,0-25.574-8.449-25.574-18.879
				c0-10.424,11.448-18.877,25.574-18.877C-367.53-58.658-356.08-50.205-356.08-39.781z"/>
		</g>
		<g>
			<path fill="#D6D112" d="M-359.414-74.324c0,10.426,11.449,18.877,25.575,18.877c14.129,0,25.578-8.451,25.578-18.877v8.732
				c0,10.424-11.449,18.877-25.578,18.877c-14.126,0-25.575-8.453-25.575-18.877V-74.324z"/>
			<ellipse fill="#FFF931" cx="-333.838" cy="-74.325" rx="25.577" ry="18.878"/>
		</g>
		<g>
			<path fill="#D6D112" d="M-358.51-5.988c0,10.43,11.449,18.881,25.576,18.881c14.126,0,25.577-8.451,25.577-18.881v8.73
				c0,10.428-11.451,18.881-25.577,18.881c-14.127,0-25.576-8.453-25.576-18.881V-5.988z"/>
			<ellipse fill="#FFF931" cx="-332.934" cy="-5.988" rx="25.577" ry="18.881"/>
		</g>
		<g>
			<g>
				<path fill="#D6D112" d="M-310.69-40.533c0,10.428,11.449,18.879,25.576,18.879s25.576-8.451,25.576-18.879v8.732
					c0,10.426-11.449,18.877-25.576,18.877S-310.69-21.375-310.69-31.8V-40.533z"/>
				<ellipse fill="#FFF931" cx="-285.112" cy="-40.533" rx="25.576" ry="18.879"/>
			</g>
		</g>
		<g>
			<path fill="#D6D112" d="M-309.854,27.807c0,10.43,11.449,18.879,25.576,18.879s25.578-8.449,25.578-18.879v8.732
				c0,10.426-11.449,18.879-25.578,18.879c-14.125,0-25.576-8.455-25.576-18.879V27.807z"/>
			<path fill="#FFF931" d="M-258.7,27.807c0,10.43-11.449,18.879-25.58,18.879c-14.125,0-25.574-8.449-25.574-18.879
				c0-10.424,11.449-18.877,25.574-18.877C-270.151,8.93-258.7,17.383-258.7,27.807z"/>
		</g>
		<g>
			<path fill="#D6D112" d="M-262.034-6.736c0,10.426,11.449,18.877,25.574,18.877c14.128,0,25.578-8.451,25.578-18.877v8.732
				c0,10.424-11.45,18.877-25.578,18.877c-14.125,0-25.574-8.453-25.574-18.877V-6.736z"/>
			<ellipse fill="#FFF931" cx="-236.458" cy="-6.737" rx="25.576" ry="18.878"/>
		</g>
		<g>
			<path fill="#D6D112" d="M-261.13,61.6c0,10.43,11.449,18.881,25.576,18.881c14.125,0,25.576-8.451,25.576-18.881v8.73
				c0,10.428-11.452,18.88-25.576,18.88c-14.127,0-25.576-8.453-25.576-18.88V61.6z"/>
			<ellipse fill="#FFF931" cx="-235.554" cy="61.6" rx="25.576" ry="18.881"/>
		</g>
		<g>
			<g>
				<path fill="#D6D112" d="M-213.312,27.055c0,10.428,11.449,18.879,25.576,18.879s25.576-8.451,25.576-18.879v8.732
					c0,10.426-11.449,18.877-25.576,18.877s-25.576-8.451-25.576-18.877V27.055z"/>
				<ellipse fill="#FFF931" cx="-187.733" cy="27.055" rx="25.576" ry="18.879"/>
			</g>
		</g>
		<polygon fill="#191919" points="-235.644,78.103 -139.862,9.125 -139.86,70.021 -235.642,139 		"/>
	</g>
	<g>
		<polygon fill="#F4F4F4" points="-430.279,-81.536 -430.279,-19.077 -235.642,115.872 -235.642,53.64 		"/>
		<polygon fill="#F4EE22" points="-334.262,-127.179 -429.905,-58.201 -235.269,76.975 -139.487,7.997 		"/>
		<g>
			<path fill="#D6D112" d="M-407.233-67.894c0,10.43,11.448,18.879,25.575,18.879c14.128,0,25.578-8.449,25.578-18.879v8.732
				c0,10.426-11.449,18.879-25.578,18.879c-14.125,0-25.575-8.455-25.575-18.879V-67.894z"/>
			<path fill="#FFF931" d="M-356.08-67.894c0,10.43-11.449,18.879-25.579,18.879c-14.125,0-25.574-8.449-25.574-18.879
				c0-10.424,11.448-18.877,25.574-18.877C-367.53-86.771-356.08-78.318-356.08-67.894z"/>
		</g>
		<g>
			<path fill="#D6D112" d="M-359.414-102.437c0,10.426,11.449,18.877,25.575,18.877c14.128,0,25.578-8.451,25.578-18.877v8.732
				c0,10.424-11.449,18.877-25.578,18.877c-14.126,0-25.575-8.453-25.575-18.877V-102.437z"/>
			<ellipse fill="#FFF931" cx="-333.837" cy="-102.438" rx="25.577" ry="18.878"/>
		</g>
		<g>
			<path fill="#D6D112" d="M-358.509-34.101c0,10.43,11.449,18.881,25.576,18.881c14.125,0,25.577-8.451,25.577-18.881v8.73
				c0,10.428-11.451,18.881-25.577,18.881c-14.127,0-25.576-8.453-25.576-18.881V-34.101z"/>
			<ellipse fill="#FFF931" cx="-332.933" cy="-34.101" rx="25.577" ry="18.881"/>
		</g>
		<g>
			<g>
				<path fill="#D6D112" d="M-310.69-68.646c0,10.428,11.449,18.879,25.576,18.879s25.576-8.451,25.576-18.879v8.732
					c0,10.426-11.449,18.877-25.576,18.877s-25.576-8.451-25.576-18.877V-68.646z"/>
				<ellipse fill="#FFF931" cx="-285.112" cy="-68.646" rx="25.576" ry="18.879"/>
			</g>
		</g>
		<g>
			<path fill="#D6D112" d="M-309.854-0.306c0,10.43,11.449,18.879,25.576,18.879S-258.7,10.124-258.7-0.306v8.732
				c0,10.426-11.449,18.879-25.578,18.879c-14.125,0-25.576-8.455-25.576-18.879V-0.306z"/>
			<path fill="#FFF931" d="M-258.7-0.306c0,10.43-11.449,18.879-25.58,18.879c-14.125,0-25.574-8.449-25.574-18.879
				c0-10.424,11.449-18.877,25.574-18.877C-270.151-19.183-258.7-10.73-258.7-0.306z"/>
		</g>
		<g>
			<path fill="#D6D112" d="M-262.034-34.849c0,10.426,11.449,18.877,25.574,18.877c14.128,0,25.578-8.451,25.578-18.877v8.732
				c0,10.424-11.45,18.877-25.578,18.877c-14.125,0-25.574-8.453-25.574-18.877V-34.849z"/>
			<ellipse fill="#FFF931" cx="-236.458" cy="-34.85" rx="25.576" ry="18.878"/>
		</g>
		<g>
			<path fill="#D6D112" d="M-261.13,33.487c0,10.43,11.449,18.881,25.576,18.881c14.125,0,25.576-8.451,25.576-18.881v8.73
				c0,10.428-11.452,18.881-25.576,18.881c-14.127,0-25.576-8.453-25.576-18.881V33.487z"/>
			<ellipse fill="#FFF931" cx="-235.554" cy="33.487" rx="25.576" ry="18.881"/>
		</g>
		<g>
			<g>
				<path fill="#D6D112" d="M-213.312-1.058c0,10.428,11.449,18.879,25.576,18.879s25.576-8.451,25.576-18.879v8.732
					c0,10.426-11.449,18.877-25.576,18.877s-25.576-8.451-25.576-18.877V-1.058z"/>
				<ellipse fill="#FFF931" cx="-187.733" cy="-1.058" rx="25.576" ry="18.879"/>
			</g>
		</g>
		<polygon fill="#CECECE" points="-235.644,54.99 -139.862,-13.989 -139.86,46.908 -235.642,115.887 		"/>
	</g>
	<g>
		<polygon fill="#333333" points="-430.322,-100.33 -430.322,-37.871 -235.685,97.078 -235.685,34.846 		"/>
		<polygon fill="#F4EE22" points="-334.68,-160.973 -430.323,-91.995 -235.687,43.181 -139.905,-25.797 		"/>
		<g>
			<path fill="#D6D112" d="M-407.651-101.688c0,10.43,11.448,18.879,25.575,18.879c14.128,0,25.578-8.449,25.578-18.879v8.732
				c0,10.426-11.449,18.879-25.578,18.879c-14.125,0-25.575-8.455-25.575-18.879V-101.688z"/>
			<path fill="#FFF931" d="M-356.498-101.688c0,10.43-11.449,18.879-25.579,18.879c-14.125,0-25.574-8.449-25.574-18.879
				c0-10.424,11.448-18.877,25.574-18.877C-367.948-120.565-356.498-112.112-356.498-101.688z"/>
		</g>
		<g>
			<path fill="#D6D112" d="M-359.832-136.231c0,10.426,11.449,18.877,25.575,18.877c14.128,0,25.578-8.451,25.578-18.877v8.732
				c0,10.424-11.449,18.877-25.578,18.877c-14.126,0-25.575-8.453-25.575-18.877V-136.231z"/>
			<ellipse fill="#FFF931" cx="-334.255" cy="-136.232" rx="25.577" ry="18.878"/>
		</g>
		<g>
			<path fill="#D6D112" d="M-358.927-67.895c0,10.43,11.449,18.881,25.576,18.881c14.125,0,25.577-8.451,25.577-18.881v8.73
				c0,10.428-11.451,18.881-25.577,18.881c-14.127,0-25.576-8.453-25.576-18.881V-67.895z"/>
			<ellipse fill="#FFF931" cx="-333.351" cy="-67.895" rx="25.577" ry="18.881"/>
		</g>
		<g>
			<g>
				<path fill="#D6D112" d="M-311.108-102.44c0,10.428,11.449,18.879,25.576,18.879s25.576-8.451,25.576-18.879v8.732
					c0,10.426-11.449,18.877-25.576,18.877s-25.576-8.451-25.576-18.877V-102.44z"/>
				<ellipse fill="#FFF931" cx="-285.53" cy="-102.44" rx="25.576" ry="18.879"/>
			</g>
		</g>
		<g>
			<path fill="#D6D112" d="M-310.272-34.1c0,10.43,11.449,18.879,25.576,18.879s25.578-8.449,25.578-18.879v8.732
				c0,10.426-11.449,18.879-25.578,18.879c-14.125,0-25.576-8.455-25.576-18.879V-34.1z"/>
			<path fill="#FFF931" d="M-259.118-34.1c0,10.43-11.449,18.879-25.58,18.879c-14.125,0-25.574-8.449-25.574-18.879
				c0-10.424,11.449-18.877,25.574-18.877C-270.569-52.977-259.118-44.524-259.118-34.1z"/>
		</g>
		<g>
			<path fill="#D6D112" d="M-262.452-68.643c0,10.426,11.449,18.877,25.574,18.877c14.128,0,25.578-8.451,25.578-18.877v8.732
				c0,10.424-11.45,18.877-25.578,18.877c-14.125,0-25.574-8.453-25.574-18.877V-68.643z"/>
			<ellipse fill="#FFF931" cx="-236.876" cy="-68.644" rx="25.576" ry="18.878"/>
		</g>
		<g>
			<path fill="#D6D112" d="M-261.548-0.307c0,10.43,11.449,18.881,25.576,18.881c14.125,0,25.576-8.451,25.576-18.881v8.73
				c0,10.428-11.452,18.881-25.576,18.881c-14.127,0-25.576-8.453-25.576-18.881V-0.307z"/>
			<ellipse fill="#FFF931" cx="-235.972" cy="-0.307" rx="25.576" ry="18.881"/>
		</g>
		<g>
			<g>
				<path fill="#D6D112" d="M-213.729-34.852c0,10.428,11.449,18.879,25.576,18.879s25.576-8.451,25.576-18.879v8.732
					c0,10.426-11.449,18.877-25.576,18.877s-25.576-8.451-25.576-18.877V-34.852z"/>
				<ellipse fill="#FFF931" cx="-188.151" cy="-34.852" rx="25.576" ry="18.879"/>
			</g>
		</g>
		<polygon fill="#191919" points="-235.687,36.237 -139.905,-32.742 -139.903,28.155 -235.685,97.133 		"/>
	</g>
	<g>
		<polygon fill="#002776" points="-430.322,-121.442 -430.322,-58.983 -235.685,75.965 -235.685,13.734 		"/>
		<polygon fill="#003384" points="-334.68,-189.085 -430.323,-120.107 -235.687,15.069 -139.905,-53.91 		"/>
		<g>
			<path fill="#002766" d="M-407.651-129.8c0,10.43,11.448,18.879,25.575,18.879c14.128,0,25.578-8.449,25.578-18.879v8.732
				c0,10.426-11.449,18.879-25.578,18.879c-14.125,0-25.575-8.455-25.575-18.879V-129.8z"/>
			<path fill="#003B91" d="M-356.498-129.8c0,10.43-11.449,18.879-25.579,18.879c-14.125,0-25.574-8.449-25.574-18.879
				c0-10.424,11.448-18.877,25.574-18.877C-367.948-148.677-356.498-140.224-356.498-129.8z"/>
		</g>
		<g>
			<path fill="#002766" d="M-359.832-164.343c0,10.425,11.449,18.876,25.575,18.876c14.128,0,25.578-8.451,25.578-18.876v8.732
				c0,10.424-11.449,18.877-25.578,18.877c-14.126,0-25.575-8.453-25.575-18.877V-164.343z"/>
			<ellipse fill="#003B91" cx="-334.255" cy="-164.344" rx="25.577" ry="18.878"/>
		</g>
		<g>
			<path fill="#002766" d="M-358.927-96.007c0,10.43,11.449,18.881,25.576,18.881c14.125,0,25.577-8.451,25.577-18.881v8.73
				c0,10.428-11.451,18.881-25.577,18.881c-14.127,0-25.576-8.453-25.576-18.881V-96.007z"/>
			<ellipse fill="#003B91" cx="-333.351" cy="-96.007" rx="25.577" ry="18.881"/>
		</g>
		<g>
			<g>
				<path fill="#002766" d="M-311.108-130.552c0,10.428,11.449,18.879,25.576,18.879s25.576-8.451,25.576-18.879v8.732
					c0,10.426-11.449,18.877-25.576,18.877s-25.576-8.451-25.576-18.877V-130.552z"/>
				<ellipse fill="#003B91" cx="-285.53" cy="-130.552" rx="25.576" ry="18.879"/>
			</g>
		</g>
		<g>
			<path fill="#002766" d="M-310.272-62.212c0,10.43,11.449,18.879,25.576,18.879s25.578-8.449,25.578-18.879v8.732
				c0,10.426-11.449,18.879-25.578,18.879c-14.125,0-25.576-8.455-25.576-18.879V-62.212z"/>
			<path fill="#003B91" d="M-259.118-62.212c0,10.43-11.449,18.879-25.58,18.879c-14.125,0-25.574-8.449-25.574-18.879
				c0-10.424,11.449-18.877,25.574-18.877C-270.569-81.089-259.118-72.636-259.118-62.212z"/>
		</g>
		<g>
			<path fill="#002766" d="M-262.452-96.755c0,10.426,11.449,18.877,25.574,18.877c14.128,0,25.578-8.451,25.578-18.877v8.732
				c0,10.424-11.45,18.877-25.578,18.877c-14.125,0-25.574-8.453-25.574-18.877V-96.755z"/>
			<ellipse fill="#003B91" cx="-236.876" cy="-96.756" rx="25.576" ry="18.878"/>
		</g>
		<g>
			<path fill="#002766" d="M-261.548-28.419c0,10.43,11.449,18.881,25.576,18.881c14.125,0,25.576-8.451,25.576-18.881v8.73
				c0,10.428-11.452,18.881-25.576,18.881c-14.127,0-25.576-8.453-25.576-18.881V-28.419z"/>
			<ellipse fill="#003B91" cx="-235.972" cy="-28.419" rx="25.576" ry="18.881"/>
		</g>
		<g>
			<g>
				<path fill="#002766" d="M-213.729-62.964c0,10.428,11.449,18.879,25.576,18.879s25.576-8.451,25.576-18.879v8.732
					c0,10.426-11.449,18.877-25.576,18.877s-25.576-8.451-25.576-18.877V-62.964z"/>
				<ellipse fill="#003B91" cx="-188.151" cy="-62.964" rx="25.576" ry="18.879"/>
			</g>
		</g>
		<polygon fill="#002054" points="-235.687,15.125 -139.905,-53.854 -139.903,7.042 -235.685,76.021 		"/>
	</g>
	
		<text transform="matrix(0.7696 0.5297 -0.0201 0.9998 -391.1631 -55)" fill="#FFFFFF" font-family="'AvenirNext-Bold'" font-size="17.438">TRANSACTIONS</text>
</g>
<g>
	<g>
		<polygon fill="#F4F4F4" points="-542.705,361.325 -542.705,423.785 -348.068,558.734 -348.068,496.502 		"/>
		<polygon fill="#CECECE" points="-348.068,497.852 -252.287,428.873 -252.287,489.77 -348.068,558.748 		"/>
	</g>
	<g>
		<polygon fill="#333333" points="-542.662,340.517 -542.662,402.977 -348.023,537.924 -348.023,475.693 		"/>
		<g>
			<path fill="#D6D112" d="M-519.615,359.157c0,10.43,11.448,18.879,25.575,18.879c14.128,0,25.578-8.449,25.578-18.879v8.732
				c0,10.426-11.449,18.88-25.578,18.88c-14.125,0-25.575-8.456-25.575-18.88V359.157z"/>
			<path fill="#FFF931" d="M-468.462,359.157c0,10.43-11.449,18.879-25.579,18.879c-14.125,0-25.574-8.449-25.574-18.879
				c0-10.424,11.448-18.877,25.574-18.877C-479.912,340.28-468.462,348.733-468.462,359.157z"/>
		</g>
		<g>
			<path fill="#D6D112" d="M-471.796,324.614c0,10.426,11.449,18.877,25.575,18.877c14.129,0,25.578-8.451,25.578-18.877v8.732
				c0,10.424-11.449,18.877-25.578,18.877c-14.126,0-25.575-8.453-25.575-18.877V324.614z"/>
			<ellipse fill="#FFF931" cx="-446.22" cy="324.614" rx="25.577" ry="18.877"/>
		</g>
		<g>
			<path fill="#D6D112" d="M-470.892,392.951c0,10.43,11.449,18.881,25.576,18.881c14.126,0,25.577-8.451,25.577-18.881v8.73
				c0,10.428-11.451,18.881-25.577,18.881c-14.127,0-25.576-8.453-25.576-18.881V392.951z"/>
			<ellipse fill="#FFF931" cx="-445.315" cy="392.951" rx="25.577" ry="18.881"/>
		</g>
		<g>
			<g>
				<path fill="#D6D112" d="M-423.072,358.405c0,10.428,11.449,18.879,25.576,18.879s25.576-8.451,25.576-18.879v8.732
					c0,10.426-11.449,18.878-25.576,18.878s-25.576-8.452-25.576-18.878V358.405z"/>
				<ellipse fill="#FFF931" cx="-397.494" cy="358.405" rx="25.576" ry="18.879"/>
			</g>
		</g>
		<g>
			<path fill="#D6D112" d="M-422.236,426.746c0,10.43,11.449,18.879,25.576,18.879s25.578-8.449,25.578-18.879v8.732
				c0,10.426-11.449,18.879-25.578,18.879c-14.125,0-25.576-8.455-25.576-18.879V426.746z"/>
			<path fill="#FFF931" d="M-371.082,426.746c0,10.43-11.449,18.879-25.58,18.879c-14.125,0-25.574-8.449-25.574-18.879
				c0-10.424,11.449-18.877,25.574-18.877C-382.533,407.869-371.082,416.322-371.082,426.746z"/>
		</g>
		<g>
			<path fill="#D6D112" d="M-374.416,392.203c0,10.426,11.449,18.877,25.574,18.877c14.129,0,25.578-8.451,25.578-18.877v8.732
				c0,10.424-11.449,18.877-25.578,18.877c-14.125,0-25.574-8.453-25.574-18.877V392.203z"/>
			<ellipse fill="#FFF931" cx="-348.84" cy="392.202" rx="25.576" ry="18.878"/>
		</g>
		<g>
			<path fill="#D6D112" d="M-373.512,460.539c0,10.43,11.449,18.881,25.576,18.881c14.125,0,25.576-8.451,25.576-18.881v8.73
				c0,10.428-11.451,18.881-25.576,18.881c-14.127,0-25.576-8.453-25.576-18.881V460.539z"/>
			<ellipse fill="#FFF931" cx="-347.936" cy="460.539" rx="25.576" ry="18.881"/>
		</g>
		<g>
			<g>
				<path fill="#D6D112" d="M-325.693,425.994c0,10.428,11.449,18.879,25.576,18.879s25.576-8.451,25.576-18.879v8.732
					c0,10.426-11.449,18.877-25.576,18.877s-25.576-8.451-25.576-18.877V425.994z"/>
				<ellipse fill="#FFF931" cx="-300.115" cy="425.994" rx="25.576" ry="18.879"/>
			</g>
		</g>
		<polygon fill="#191919" points="-348.025,477.043 -252.244,408.064 -252.242,468.961 -348.023,537.939 		"/>
	</g>
	<g>
		<polygon fill="#F4F4F4" points="-542.661,317.403 -542.661,379.862 -348.023,514.811 -348.023,452.58 		"/>
		<polygon fill="#F4EE22" points="-446.645,271.76 -542.287,340.737 -347.65,475.914 -251.869,406.936 		"/>
		<g>
			<path fill="#D6D112" d="M-519.615,331.044c0,10.43,11.448,18.879,25.576,18.879c14.127,0,25.578-8.449,25.578-18.879v8.732
				c0,10.426-11.449,18.879-25.578,18.879c-14.125,0-25.576-8.455-25.576-18.879V331.044z"/>
			<path fill="#FFF931" d="M-468.461,331.044c0,10.43-11.449,18.879-25.58,18.879c-14.125,0-25.574-8.449-25.574-18.879
				c0-10.424,11.448-18.877,25.574-18.877C-479.912,312.167-468.461,320.62-468.461,331.044z"/>
		</g>
		<g>
			<path fill="#D6D112" d="M-471.795,296.502c0,10.426,11.449,18.876,25.574,18.876c14.129,0,25.578-8.45,25.578-18.876v8.732
				c0,10.423-11.449,18.876-25.578,18.876c-14.125,0-25.574-8.453-25.574-18.876V296.502z"/>
			<ellipse fill="#FFF931" cx="-446.219" cy="296.5" rx="25.576" ry="18.877"/>
		</g>
		<g>
			<path fill="#D6D112" d="M-470.891,364.837c0,10.43,11.449,18.881,25.576,18.881c14.125,0,25.576-8.451,25.576-18.881v8.73
				c0,10.428-11.451,18.882-25.576,18.882c-14.127,0-25.576-8.454-25.576-18.882V364.837z"/>
			<ellipse fill="#FFF931" cx="-445.314" cy="364.837" rx="25.576" ry="18.881"/>
		</g>
		<g>
			<g>
				<path fill="#D6D112" d="M-423.072,330.292c0,10.428,11.449,18.879,25.576,18.879s25.576-8.451,25.576-18.879v8.732
					c0,10.426-11.449,18.877-25.576,18.877s-25.576-8.451-25.576-18.877V330.292z"/>
				<ellipse fill="#FFF931" cx="-397.494" cy="330.292" rx="25.576" ry="18.879"/>
			</g>
		</g>
		<g>
			<path fill="#D6D112" d="M-422.236,398.633c0,10.43,11.449,18.879,25.576,18.879s25.578-8.449,25.578-18.879v8.732
				c0,10.426-11.449,18.879-25.578,18.879c-14.125,0-25.576-8.455-25.576-18.879V398.633z"/>
			<path fill="#FFF931" d="M-371.082,398.633c0,10.43-11.449,18.879-25.58,18.879c-14.125,0-25.574-8.449-25.574-18.879
				c0-10.424,11.449-18.878,25.574-18.878C-382.533,379.755-371.082,388.209-371.082,398.633z"/>
		</g>
		<g>
			<path fill="#D6D112" d="M-374.416,364.089c0,10.426,11.449,18.877,25.574,18.877c14.129,0,25.578-8.451,25.578-18.877v8.732
				c0,10.424-11.449,18.878-25.578,18.878c-14.125,0-25.574-8.454-25.574-18.878V364.089z"/>
			<ellipse fill="#FFF931" cx="-348.84" cy="364.088" rx="25.576" ry="18.878"/>
		</g>
		<g>
			<path fill="#D6D112" d="M-373.512,432.426c0,10.43,11.449,18.881,25.576,18.881c14.125,0,25.576-8.451,25.576-18.881v8.73
				c0,10.428-11.451,18.881-25.576,18.881c-14.127,0-25.576-8.453-25.576-18.881V432.426z"/>
			<ellipse fill="#FFF931" cx="-347.936" cy="432.426" rx="25.576" ry="18.881"/>
		</g>
		<g>
			<g>
				<path fill="#D6D112" d="M-325.693,397.881c0,10.428,11.449,18.879,25.576,18.879s25.576-8.451,25.576-18.879v8.732
					c0,10.426-11.449,18.877-25.576,18.877s-25.576-8.451-25.576-18.877V397.881z"/>
				<ellipse fill="#FFF931" cx="-300.115" cy="397.88" rx="25.576" ry="18.879"/>
			</g>
		</g>
		<polygon fill="#CECECE" points="-348.025,453.93 -252.244,384.95 -252.242,445.848 -348.023,514.826 		"/>
	</g>
	<g>
		<polygon fill="#333333" points="-542.704,298.609 -542.704,361.067 -348.066,496.018 -348.066,433.785 		"/>
		<polygon fill="#F4EE22" points="-447.062,237.966 -542.705,306.944 -348.068,442.121 -252.287,373.142 		"/>
		<g>
			<path fill="#D6D112" d="M-520.033,297.251c0,10.43,11.448,18.879,25.576,18.879c14.127,0,25.578-8.449,25.578-18.879v8.732
				c0,10.426-11.449,18.879-25.578,18.879c-14.125,0-25.576-8.455-25.576-18.879V297.251z"/>
			<path fill="#FFF931" d="M-468.879,297.251c0,10.43-11.449,18.879-25.58,18.879c-14.125,0-25.574-8.449-25.574-18.879
				c0-10.424,11.448-18.877,25.574-18.877C-480.33,278.374-468.879,286.827-468.879,297.251z"/>
		</g>
		<g>
			<path fill="#D6D112" d="M-472.213,262.708c0,10.426,11.449,18.877,25.574,18.877c14.129,0,25.578-8.451,25.578-18.877v8.732
				c0,10.424-11.449,18.877-25.578,18.877c-14.125,0-25.574-8.453-25.574-18.877V262.708z"/>
			<ellipse fill="#FFF931" cx="-446.637" cy="262.707" rx="25.576" ry="18.878"/>
		</g>
		<g>
			<path fill="#D6D112" d="M-471.309,331.044c0,10.43,11.449,18.881,25.576,18.881c14.125,0,25.576-8.451,25.576-18.881v8.73
				c0,10.428-11.451,18.881-25.576,18.881c-14.127,0-25.576-8.453-25.576-18.881V331.044z"/>
			<ellipse fill="#FFF931" cx="-445.732" cy="331.044" rx="25.576" ry="18.881"/>
		</g>
		<g>
			<g>
				<path fill="#D6D112" d="M-423.49,296.499c0,10.428,11.449,18.879,25.576,18.879s25.576-8.451,25.576-18.879v8.732
					c0,10.426-11.449,18.877-25.576,18.877s-25.576-8.451-25.576-18.877V296.499z"/>
				<ellipse fill="#FFF931" cx="-397.912" cy="296.499" rx="25.576" ry="18.879"/>
			</g>
		</g>
		<g>
			<path fill="#D6D112" d="M-422.654,364.839c0,10.43,11.449,18.879,25.576,18.879s25.578-8.449,25.578-18.879v8.732
				c0,10.426-11.449,18.88-25.578,18.88c-14.125,0-25.576-8.456-25.576-18.88V364.839z"/>
			<path fill="#FFF931" d="M-371.5,364.839c0,10.43-11.449,18.879-25.58,18.879c-14.125,0-25.574-8.449-25.574-18.879
				c0-10.424,11.449-18.877,25.574-18.877C-382.951,345.962-371.5,354.415-371.5,364.839z"/>
		</g>
		<g>
			<path fill="#D6D112" d="M-374.834,330.296c0,10.426,11.449,18.877,25.574,18.877c14.129,0,25.578-8.451,25.578-18.877v8.732
				c0,10.424-11.449,18.877-25.578,18.877c-14.125,0-25.574-8.453-25.574-18.877V330.296z"/>
			<ellipse fill="#FFF931" cx="-349.258" cy="330.295" rx="25.576" ry="18.878"/>
		</g>
		<g>
			<path fill="#D6D112" d="M-373.93,398.633c0,10.43,11.449,18.881,25.576,18.881c14.125,0,25.576-8.451,25.576-18.881v8.73
				c0,10.428-11.451,18.881-25.576,18.881c-14.127,0-25.576-8.453-25.576-18.881V398.633z"/>
			<ellipse fill="#FFF931" cx="-348.354" cy="398.632" rx="25.576" ry="18.881"/>
		</g>
		<g>
			<g>
				<path fill="#D6D112" d="M-326.111,364.087c0,10.428,11.449,18.879,25.576,18.879s25.576-8.451,25.576-18.879v8.732
					c0,10.426-11.449,18.878-25.576,18.878s-25.576-8.452-25.576-18.878V364.087z"/>
				<ellipse fill="#FFF931" cx="-300.533" cy="364.087" rx="25.576" ry="18.879"/>
			</g>
		</g>
		<polygon fill="#191919" points="-348.068,435.176 -252.287,366.196 -252.285,427.094 -348.066,496.072 		"/>
	</g>
	<g>
		<polygon fill="#002776" points="-542.704,277.497 -542.704,339.956 -348.066,474.904 -348.066,412.674 		"/>
		<polygon fill="#003384" points="-447.062,209.854 -542.705,278.832 -348.068,414.008 -252.287,345.028 		"/>
		<g>
			<path fill="#002766" d="M-520.033,269.139c0,10.43,11.448,18.879,25.576,18.879c14.127,0,25.578-8.449,25.578-18.879v8.732
				c0,10.426-11.449,18.879-25.578,18.879c-14.125,0-25.576-8.455-25.576-18.879V269.139z"/>
			<path fill="#003B91" d="M-468.879,269.139c0,10.43-11.449,18.879-25.58,18.879c-14.125,0-25.574-8.449-25.574-18.879
				c0-10.424,11.448-18.877,25.574-18.877C-480.33,250.262-468.879,258.715-468.879,269.139z"/>
		</g>
		<g>
			<path fill="#002766" d="M-472.213,234.597c0,10.425,11.449,18.876,25.574,18.876c14.129,0,25.578-8.451,25.578-18.876v8.731
				c0,10.424-11.449,18.877-25.578,18.877c-14.125,0-25.574-8.453-25.574-18.877V234.597z"/>
			<ellipse fill="#003B91" cx="-446.637" cy="234.595" rx="25.576" ry="18.877"/>
		</g>
		<g>
			<path fill="#002766" d="M-471.309,302.932c0,10.429,11.449,18.88,25.576,18.88c14.125,0,25.576-8.451,25.576-18.88v8.729
				c0,10.428-11.451,18.881-25.576,18.881c-14.127,0-25.576-8.453-25.576-18.881V302.932z"/>
			<ellipse fill="#003B91" cx="-445.732" cy="302.931" rx="25.576" ry="18.88"/>
		</g>
		<g>
			<g>
				<path fill="#002766" d="M-423.49,268.387c0,10.428,11.449,18.879,25.576,18.879s25.576-8.451,25.576-18.879v8.732
					c0,10.426-11.449,18.877-25.576,18.877s-25.576-8.451-25.576-18.877V268.387z"/>
				<ellipse fill="#003B91" cx="-397.912" cy="268.387" rx="25.576" ry="18.879"/>
			</g>
		</g>
		<g>
			<path fill="#002766" d="M-422.654,336.726c0,10.43,11.449,18.879,25.576,18.879s25.578-8.449,25.578-18.879v8.732
				c0,10.426-11.449,18.879-25.578,18.879c-14.125,0-25.576-8.455-25.576-18.879V336.726z"/>
			<path fill="#003B91" d="M-371.5,336.726c0,10.43-11.449,18.879-25.58,18.879c-14.125,0-25.574-8.449-25.574-18.879
				c0-10.424,11.449-18.877,25.574-18.877C-382.951,317.849-371.5,326.302-371.5,336.726z"/>
		</g>
		<g>
			<path fill="#002766" d="M-374.834,302.184c0,10.425,11.449,18.876,25.574,18.876c14.129,0,25.578-8.451,25.578-18.876v8.731
				c0,10.424-11.449,18.877-25.578,18.877c-14.125,0-25.574-8.453-25.574-18.877V302.184z"/>
			<ellipse fill="#003B91" cx="-349.258" cy="302.182" rx="25.576" ry="18.877"/>
		</g>
		<g>
			<path fill="#002766" d="M-373.93,370.519c0,10.43,11.449,18.882,25.576,18.882c14.125,0,25.576-8.452,25.576-18.882v8.73
				c0,10.429-11.451,18.882-25.576,18.882c-14.127,0-25.576-8.453-25.576-18.882V370.519z"/>
			<ellipse fill="#003B91" cx="-348.354" cy="370.519" rx="25.576" ry="18.881"/>
		</g>
		<g>
			<g>
				<path fill="#002766" d="M-326.111,335.974c0,10.428,11.449,18.879,25.576,18.879s25.576-8.451,25.576-18.879v8.732
					c0,10.426-11.449,18.877-25.576,18.877s-25.576-8.451-25.576-18.877V335.974z"/>
				<ellipse fill="#003B91" cx="-300.533" cy="335.974" rx="25.576" ry="18.879"/>
			</g>
		</g>
		<polygon fill="#002054" points="-348.068,414.064 -252.287,345.085 -252.285,405.982 -348.066,474.961 		"/>
	</g>
	<text transform="matrix(0.7696 0.5297 -0.0201 0.9998 -516.5449 336.939)" enable-background="new    "><tspan x="0" y="0" fill="#FFFFFF" font-family="'AvenirNext-Bold'" font-size="17.438">D A T A </tspan><tspan x="66.49" y="-0.001" fill="#002776" font-family="'AvenirNext-Bold'" font-size="17.438">..</tspan><tspan x="76.953" y="0" fill="#FFFFFF" font-family="'AvenirNext-Bold'" font-size="17.438">S T O R A G E</tspan></text>
</g>
<g>
	<g>
		<polygon fill="#93C900" points="-791.65,-106.007 -791.649,-42.601 -740.746,-9.759 -740.748,-70.656 		"/>
		<polygon fill="#A5D300" points="-650.678,-207.484 -791.65,-106.007 -740.748,-70.656 -599.638,-172.133 		"/>
		<polygon fill="#81BC00" points="-740.748,-70.656 -599.638,-172.133 -599.636,-111.177 -740.746,-9.759 		"/>
	</g>
	<g>
		<path fill="#83B200" d="M-766.776-114.22c0,10.43,11.448,18.879,25.575,18.879c14.129,0,25.578-8.449,25.578-18.879v8.732
			c0,10.426-11.449,18.879-25.578,18.879c-14.125,0-25.575-8.455-25.575-18.879V-114.22z"/>
		<path fill="#B3DD00" d="M-715.623-114.22c0,10.43-11.449,18.879-25.578,18.879c-14.125,0-25.575-8.449-25.575-18.879
			c0-10.424,11.448-18.877,25.575-18.877C-727.072-133.097-715.623-124.644-715.623-114.22z"/>
	</g>
	<g>
		<path fill="#83B200" d="M-718.957-148.765c0,10.43,11.449,18.879,25.576,18.879s25.578-8.449,25.578-18.879v8.732
			c0,10.426-11.449,18.879-25.578,18.879c-14.125,0-25.576-8.455-25.576-18.879V-148.765z"/>
		<path fill="#B3DD00" d="M-667.803-148.765c0,10.43-11.449,18.879-25.58,18.879c-14.125,0-25.574-8.449-25.574-18.879
			c0-10.424,11.449-18.877,25.574-18.877C-679.254-167.642-667.803-159.189-667.803-148.765z"/>
	</g>
	<g>
		<path fill="#83B200" d="M-671.137-183.308c0,10.426,11.449,18.877,25.574,18.877c14.129,0,25.578-8.451,25.578-18.877v8.732
			c0,10.424-11.449,18.877-25.578,18.877c-14.125,0-25.574-8.453-25.574-18.877V-183.308z"/>
		<ellipse fill="#B3DD00" cx="-645.561" cy="-183.309" rx="25.576" ry="18.878"/>
	</g>
</g>
<linearGradient id="SVGID_1_" gradientUnits="userSpaceOnUse" x1="-336.1401" y1="679.3359" x2="-300.0686" y2="775.6359" gradientTransform="matrix(0.7059 -0.9881 -0.8137 -0.5813 364.3433 1216.2197)">
	<stop  offset="0.075" style="stop-color:#FFFFFF;stop-opacity:0"/>
	<stop  offset="0.6184" style="stop-color:#747474;stop-opacity:0.5874"/>
	<stop  offset="1" style="stop-color:#161616"/>
</linearGradient>
<polygon fill="url(#SVGID_1_)" points="-359.811,1135.414 -429.705,1187.048 -518.708,1124.587 -447.93,1072.897 "/>
<linearGradient id="SVGID_2_" gradientUnits="userSpaceOnUse" x1="-333.4971" y1="417.0918" x2="-297.4256" y2="513.3917" gradientTransform="matrix(0.7059 -0.9881 -0.8137 -0.5813 364.3433 1216.2197)">
	<stop  offset="0.075" style="stop-color:#FFFFFF;stop-opacity:0"/>
	<stop  offset="0.6184" style="stop-color:#747474;stop-opacity:0.5874"/>
	<stop  offset="1" style="stop-color:#161616"/>
</linearGradient>
<polygon fill="url(#SVGID_2_)" points="-144.557,1285.244 -214.452,1336.88 -303.454,1274.418 -232.676,1222.729 "/>
<linearGradient id="SVGID_3_" gradientUnits="userSpaceOnUse" x1="-141.5449" y1="326.0112" x2="-105.4727" y2="422.313" gradientTransform="matrix(0.7059 -0.9881 -0.8137 -0.5813 364.3433 1216.2197)">
	<stop  offset="0.075" style="stop-color:#FFFFFF;stop-opacity:0"/>
	<stop  offset="0.6184" style="stop-color:#747474;stop-opacity:0.5874"/>
	<stop  offset="1" style="stop-color:#161616"/>
</linearGradient>
<polygon fill="url(#SVGID_3_)" points="65.056,1148.522 -4.84,1200.156 -93.843,1137.695 -23.063,1086.006 "/>
<linearGradient id="SVGID_4_" gradientUnits="userSpaceOnUse" x1="-136.9038" y1="722.7285" x2="-100.8327" y2="819.0275" gradientTransform="matrix(0.7059 -0.9881 -0.8137 -0.5813 364.3433 1216.2197)">
	<stop  offset="0.075" style="stop-color:#FFFFFF;stop-opacity:0"/>
	<stop  offset="0.6184" style="stop-color:#747474;stop-opacity:0.5874"/>
	<stop  offset="1" style="stop-color:#161616"/>
</linearGradient>
<polygon fill="url(#SVGID_4_)" points="-254.479,913.324 -324.373,964.96 -413.375,902.498 -342.597,850.809 "/>
<linearGradient id="SVGID_5_" gradientUnits="userSpaceOnUse" x1="-29.6372" y1="538.1484" x2="6.4339" y2="634.4474" gradientTransform="matrix(0.7059 -0.9881 -0.8137 -0.5813 364.3433 1216.2197)">
	<stop  offset="0.075" style="stop-color:#FFFFFF;stop-opacity:0"/>
	<stop  offset="0.6184" style="stop-color:#747474;stop-opacity:0.5874"/>
	<stop  offset="1" style="stop-color:#161616"/>
</linearGradient>
<polygon fill="url(#SVGID_5_)" points="-28.565,914.631 -98.46,966.266 -187.462,903.805 -116.684,852.115 "/>
<g>
	<g>
		<g>
			<g>
				<polygon fill="#AEF721" points="-342.587,805.36 -378.555,780.389 -378.59,780.392 -414.558,755.417 -449.898,780.861 
					-449.895,780.945 -485.235,806.389 -449.423,831.361 -449.231,831.359 -413.366,856.334 -377.976,830.852 -377.976,830.852 				
					"/>
				<g>
					<path fill="#93D80F" d="M-468.48,801.32c0,7.705,8.46,13.951,18.9,13.951c10.439,0,18.9-6.246,18.9-13.951v6.453
						c0,7.704-8.461,13.95-18.9,13.95c-10.438,0-18.9-6.247-18.9-13.95V801.32z"/>
					<path fill="#B8FF2E" d="M-430.68,801.32c0,7.705-8.461,13.951-18.9,13.951c-10.438,0-18.9-6.246-18.9-13.951
						s8.46-13.949,18.9-13.949C-439.142,787.371-430.68,793.615-430.68,801.32z"/>
				</g>
				<g>
					<path fill="#93D80F" d="M-433.145,775.795c0,7.705,8.461,13.948,18.9,13.948c10.438,0,18.9-6.243,18.9-13.948v6.451
						c0,7.703-8.461,13.949-18.9,13.949c-10.439,0-18.9-6.246-18.9-13.949V775.795z"/>
					<ellipse fill="#B8FF2E" cx="-414.244" cy="775.794" rx="18.9" ry="13.949"/>
				</g>
				<g>
					<path fill="#93D80F" d="M-432.476,826.291c0,7.708,8.462,13.952,18.9,13.952s18.899-6.244,18.899-13.952v6.452
						c0,7.706-8.461,13.952-18.899,13.952s-18.9-6.246-18.9-13.952V826.291z"/>
					<ellipse fill="#B8FF2E" cx="-413.575" cy="826.292" rx="18.899" ry="13.952"/>
				</g>
				<g>
					<g>
						<path fill="#93D80F" d="M-397.139,800.766c0,7.705,8.459,13.949,18.899,13.949c10.438,0,18.9-6.244,18.9-13.949v6.451
							c0,7.705-8.461,13.949-18.9,13.949c-10.439,0-18.899-6.244-18.899-13.949V800.766z"/>
						<ellipse fill="#B8FF2E" cx="-378.239" cy="800.765" rx="18.898" ry="13.95"/>
					</g>
				</g>
			</g>
			<polygon fill="#E84318" points="-413.366,856.334 -485.235,806.389 -485.235,839.898 -413.366,889.674 -342.587,838.169 
				-342.587,805.36 			"/>
			<polygon fill="#490DBC" points="-342.587,805.543 -342.587,850.996 -413.366,902.502 -413.366,889.404 -413.366,856.517 			"/>
			<polygon fill="#610EE2" points="-485.235,806.389 -485.235,852.543 -413.366,902.502 -413.366,856.334 			"/>
		</g>
		
			<text transform="matrix(0.7696 0.5297 -0.0201 0.9998 -478.1377 839.4668)" fill="#F2F2F2" font-family="'AvenirNext-Bold'" font-size="12.8859">BLOCK 564</text>
	</g>
	<g>
		<g>
			<g>
				<polygon fill="#8322F4" points="-342.597,759.947 -378.565,734.975 -378.601,734.977 -414.568,710.002 -449.909,735.449 
					-449.905,735.529 -485.244,760.976 -449.434,785.947 -449.24,785.947 -413.376,810.92 -377.986,785.438 -377.986,785.438 				
					"/>
				<g>
					<path fill="#6C12D6" d="M-468.491,755.906c0,7.707,8.461,13.951,18.9,13.951s18.901-6.244,18.901-13.951v6.454
						c0,7.703-8.462,13.95-18.901,13.95c-10.438,0-18.9-6.247-18.9-13.95V755.906z"/>
					<path fill="#9031FF" d="M-430.69,755.906c0,7.707-8.462,13.951-18.901,13.951c-10.438,0-18.9-6.244-18.9-13.951
						c0-7.703,8.46-13.949,18.9-13.949C-439.152,741.957-430.69,748.203-430.69,755.906z"/>
				</g>
				<g>
					<path fill="#6C12D6" d="M-433.154,730.381c0,7.705,8.461,13.951,18.9,13.951c10.438,0,18.9-6.246,18.9-13.951v6.453
						c0,7.701-8.46,13.949-18.9,13.949c-10.439,0-18.9-6.248-18.9-13.949V730.381z"/>
					<ellipse fill="#9031FF" cx="-414.254" cy="730.382" rx="18.9" ry="13.95"/>
				</g>
				<g>
					<path fill="#6C12D6" d="M-432.485,780.878c0,7.707,8.461,13.952,18.899,13.952c10.439,0,18.899-6.245,18.899-13.952v6.452
						c0,7.704-8.46,13.951-18.899,13.951c-10.438,0-18.899-6.247-18.899-13.951V780.878z"/>
					<ellipse fill="#9031FF" cx="-413.586" cy="780.878" rx="18.899" ry="13.952"/>
				</g>
				<g>
					<g>
						<path fill="#6C12D6" d="M-397.148,755.352c0,7.705,8.458,13.951,18.898,13.951c10.439,0,18.901-6.246,18.901-13.951v6.453
							c0,7.703-8.462,13.949-18.901,13.949s-18.898-6.246-18.898-13.949V755.352z"/>
						<ellipse fill="#9031FF" cx="-378.25" cy="755.352" rx="18.9" ry="13.951"/>
					</g>
				</g>
			</g>
			<polygon fill="#E84318" points="-413.376,810.92 -485.244,760.976 -485.244,794.484 -413.376,844.26 -342.597,792.754 
				-342.597,759.947 			"/>
			<polygon fill="#93D80F" points="-342.597,759.947 -342.597,805.399 -413.376,856.904 -413.376,843.809 -413.376,810.92 			"/>
			<polygon fill="#A0E51A" points="-485.244,760.976 -485.244,807.129 -413.376,857.088 -413.376,810.92 			"/>
		</g>
		
			<text transform="matrix(0.7696 0.5297 -0.0201 0.9998 -478.147 794.0547)" fill="#1A1A1A" font-family="'AvenirNext-Bold'" font-size="12.8859">BLOCK 565</text>
	</g>
	<g>
		<g>
			<g>
				<polygon fill="#AEF721" points="-342.582,713.948 -378.55,688.977 -378.585,688.979 -414.554,664.005 -449.894,689.449 
					-449.889,689.53 -485.229,714.977 -449.419,739.949 -449.226,739.947 -413.36,764.922 -377.971,739.438 -377.971,739.438 				
					"/>
				<g>
					<path fill="#93D80F" d="M-468.476,709.908c0,7.705,8.46,13.951,18.899,13.951c10.44,0,18.9-6.246,18.9-13.951v6.451
						c0,7.705-8.459,13.951-18.9,13.951c-10.437,0-18.899-6.246-18.899-13.951V709.908z"/>
					<path fill="#B8FF2E" d="M-430.677,709.908c0,7.705-8.459,13.951-18.9,13.951c-10.437,0-18.899-6.246-18.899-13.951
						s8.46-13.949,18.899-13.949C-439.136,695.959-430.677,702.203-430.677,709.908z"/>
				</g>
				<g>
					<path fill="#93D80F" d="M-433.139,684.383c0,7.705,8.461,13.948,18.899,13.948c10.44,0,18.902-6.243,18.902-13.948v6.451
						c0,7.703-8.461,13.949-18.902,13.949c-10.438,0-18.899-6.246-18.899-13.949V684.383z"/>
					<ellipse fill="#B8FF2E" cx="-414.239" cy="684.381" rx="18.901" ry="13.95"/>
				</g>
				<g>
					<path fill="#93D80F" d="M-432.472,734.879c0,7.706,8.463,13.952,18.901,13.952c10.438,0,18.9-6.246,18.9-13.952v6.452
						c0,7.706-8.462,13.95-18.9,13.95c-10.438,0-18.901-6.244-18.901-13.95V734.879z"/>
					<ellipse fill="#B8FF2E" cx="-413.57" cy="734.878" rx="18.9" ry="13.953"/>
				</g>
				<g>
					<g>
						<path fill="#93D80F" d="M-397.134,709.354c0,7.705,8.46,13.949,18.9,13.949c10.439,0,18.9-6.244,18.9-13.949v6.451
							c0,7.705-8.461,13.949-18.9,13.949s-18.9-6.244-18.9-13.949V709.354z"/>
						<ellipse fill="#B8FF2E" cx="-378.234" cy="709.353" rx="18.898" ry="13.95"/>
					</g>
				</g>
			</g>
			<polygon fill="#E84318" points="-413.36,764.922 -485.229,714.977 -485.229,748.485 -413.36,798.262 -342.582,746.755 
				-342.582,713.948 			"/>
			<polygon fill="#002054" points="-342.582,713.948 -342.582,759.4 -413.36,810.906 -413.36,797.809 -413.36,764.922 			"/>
			<polygon fill="#002776" points="-485.229,714.977 -485.229,761.131 -413.36,811.09 -413.36,764.922 			"/>
		</g>
		
			<text transform="matrix(0.7696 0.5297 -0.0201 0.9998 -478.1313 748.0547)" fill="#F2F2F2" font-family="'AvenirNext-Bold'" font-size="12.8859">BLOCK 566</text>
	</g>
	<g>
		<g>
			<g>
				<polygon fill="#F4F4F4" points="-342.592,668.535 -378.561,643.562 -378.595,643.564 -414.565,618.59 -449.903,644.036 
					-449.9,644.117 -485.239,669.562 -449.429,694.535 -449.236,694.533 -413.37,719.508 -377.981,694.024 -377.981,694.024 				"/>
				<g>
					<path fill="#D6D6D6" d="M-468.485,664.494c0,7.707,8.46,13.951,18.9,13.951c10.438,0,18.901-6.244,18.901-13.951v6.454
						c0,7.703-8.463,13.95-18.901,13.95s-18.9-6.25-18.9-13.95V664.494z"/>
					<path fill="#FFFFFF" d="M-430.684,664.494c0,7.707-8.463,13.951-18.901,13.951s-18.9-6.244-18.9-13.951
						c0-7.703,8.46-13.949,18.9-13.949C-439.147,650.544-430.684,656.791-430.684,664.494z"/>
				</g>
				<g>
					<path fill="#D6D6D6" d="M-433.149,638.969c0,7.705,8.461,13.949,18.9,13.949c10.439,0,18.901-6.244,18.901-13.949v6.453
						c0,7.701-8.461,13.947-18.901,13.947c-10.438,0-18.9-6.246-18.9-13.947V638.969z"/>
					<ellipse fill="#FFFFFF" cx="-414.249" cy="638.968" rx="18.901" ry="13.95"/>
				</g>
				<g>
					<path fill="#D6D6D6" d="M-432.48,689.466c0,7.707,8.461,13.952,18.9,13.952c10.438,0,18.9-6.245,18.9-13.952v6.451
						c0,7.705-8.461,13.952-18.9,13.952c-10.439,0-18.9-6.247-18.9-13.952V689.466z"/>
					<ellipse fill="#FFFFFF" cx="-413.581" cy="689.466" rx="18.9" ry="13.952"/>
				</g>
				<g>
					<g>
						<path fill="#D6D6D6" d="M-397.144,663.938c0,7.707,8.459,13.951,18.898,13.951s18.9-6.244,18.9-13.951v6.455
							c0,7.702-8.461,13.949-18.9,13.949c-10.438,0-18.898-6.247-18.898-13.949V663.938z"/>
						<ellipse fill="#FFFFFF" cx="-378.245" cy="663.938" rx="18.899" ry="13.95"/>
					</g>
				</g>
			</g>
			<polygon fill="#E84318" points="-413.37,719.508 -485.239,669.562 -485.239,703.07 -413.37,752.848 -342.592,701.342 
				-342.592,668.535 			"/>
			<polygon fill="#D6D6D6" points="-342.592,668.535 -342.592,713.987 -413.37,765.492 -413.37,752.395 -413.37,719.508 			"/>
			<polygon fill="#E2E2E2" points="-485.239,669.562 -485.239,715.719 -413.37,765.676 -413.37,719.508 			"/>
		</g>
		
			<text transform="matrix(0.7696 0.5297 -0.0201 0.9998 -478.1426 702.6416)" fill="#1A1A1A" font-family="'AvenirNext-Bold'" font-size="12.8859">BLOCK 567</text>
	</g>
</g>
<g>
	<g>
		<g>
			<g>
				<polygon fill="#AEF721" points="-447.93,1027.445 -483.898,1002.472 -483.933,1002.476 -519.901,977.502 -555.242,1002.945 
					-555.238,1003.028 -590.578,1028.474 -554.767,1053.445 -554.574,1053.444 -518.708,1078.419 -483.319,1052.936 
					-483.319,1052.936 				"/>
				<g>
					<path fill="#93D80F" d="M-573.823,1023.406c0,7.705,8.46,13.95,18.899,13.95c10.439,0,18.9-6.245,18.9-13.95v6.45
						c0,7.705-8.461,13.951-18.9,13.951c-10.438,0-18.899-6.247-18.899-13.951V1023.406z"/>
					<path fill="#B8FF2E" d="M-536.024,1023.406c0,7.705-8.461,13.95-18.9,13.95c-10.438,0-18.899-6.245-18.899-13.95
						s8.46-13.95,18.899-13.95C-544.485,1009.455-536.024,1015.701-536.024,1023.406z"/>
				</g>
				<g>
					<path fill="#93D80F" d="M-538.487,997.879c0,7.706,8.461,13.949,18.899,13.949c10.439,0,18.901-6.243,18.901-13.949v6.452
						c0,7.702-8.461,13.948-18.901,13.948c-10.438,0-18.899-6.246-18.899-13.948V997.879z"/>
					<ellipse fill="#B8FF2E" cx="-519.587" cy="997.878" rx="18.9" ry="13.95"/>
				</g>
				<g>
					<path fill="#93D80F" d="M-537.819,1048.376c0,7.707,8.46,13.951,18.9,13.951c10.438,0,18.9-6.244,18.9-13.951v6.452
						c0,7.705-8.461,13.951-18.9,13.951c-10.44,0-18.9-6.246-18.9-13.951V1048.376z"/>
					<ellipse fill="#B8FF2E" cx="-518.918" cy="1048.375" rx="18.9" ry="13.952"/>
				</g>
				<g>
					<g>
						<path fill="#93D80F" d="M-502.482,1022.85c0,7.706,8.459,13.95,18.899,13.95c10.439,0,18.9-6.244,18.9-13.95v6.452
							c0,7.703-8.461,13.948-18.9,13.948c-10.438,0-18.899-6.245-18.899-13.948V1022.85z"/>
						<ellipse fill="#B8FF2E" cx="-483.583" cy="1022.85" rx="18.899" ry="13.95"/>
					</g>
				</g>
			</g>
			<polygon fill="#E84318" points="-518.708,1078.419 -590.578,1028.474 -590.578,1061.982 -518.708,1111.758 -447.93,1060.253 
				-447.93,1027.445 			"/>
			<polygon fill="#490DBC" points="-447.93,1027.445 -447.93,1072.897 -518.708,1124.587 -518.708,1111.306 -518.708,1078.419 			
				"/>
			<polygon fill="#610EE2" points="-590.578,1028.474 -590.578,1074.628 -518.708,1124.587 -518.708,1078.419 			"/>
		</g>
		
			<text transform="matrix(0.7696 0.5297 -0.0201 0.9998 -583.481 1061.5508)" fill="#F2F2F2" font-family="'AvenirNext-Bold'" font-size="12.8859">BLOCK 564</text>
	</g>
	<g>
		<g>
			<g>
				<polygon fill="#8322F4" points="-447.94,982.031 -483.909,957.059 -483.943,957.061 -519.911,932.087 -555.252,957.532 
					-555.249,957.615 -590.588,983.06 -554.777,1008.031 -554.583,1008.031 -518.718,1033.004 -483.329,1007.521 -483.329,1007.521 
									"/>
				<g>
					<path fill="#6C12D6" d="M-573.833,977.992c0,7.705,8.46,13.95,18.899,13.95c10.438,0,18.9-6.245,18.9-13.95v6.451
						c0,7.704-8.461,13.951-18.9,13.951s-18.899-6.248-18.899-13.951V977.992z"/>
					<path fill="#9031FF" d="M-536.034,977.992c0,7.705-8.461,13.95-18.9,13.95s-18.899-6.245-18.899-13.95
						c0-7.704,8.46-13.95,18.899-13.95C-544.496,964.042-536.034,970.288-536.034,977.992z"/>
				</g>
				<g>
					<path fill="#6C12D6" d="M-538.498,952.465c0,7.705,8.461,13.951,18.899,13.951c10.439,0,18.901-6.246,18.901-13.951v6.453
						c0,7.702-8.461,13.949-18.901,13.949c-10.438,0-18.899-6.247-18.899-13.949V952.465z"/>
					<ellipse fill="#9031FF" cx="-519.597" cy="952.466" rx="18.9" ry="13.95"/>
				</g>
				<g>
					<path fill="#6C12D6" d="M-537.829,1002.961c0,7.709,8.461,13.954,18.9,13.954c10.438,0,18.9-6.245,18.9-13.954v6.453
						c0,7.705-8.462,13.95-18.9,13.95c-10.439,0-18.9-6.245-18.9-13.95V1002.961z"/>
					<ellipse fill="#9031FF" cx="-518.929" cy="1002.963" rx="18.9" ry="13.952"/>
				</g>
				<g>
					<g>
						<path fill="#6C12D6" d="M-502.491,977.437c0,7.704,8.459,13.949,18.898,13.949c10.439,0,18.9-6.245,18.9-13.949v6.452
							c0,7.702-8.461,13.95-18.9,13.95c-10.438,0-18.898-6.248-18.898-13.95V977.437z"/>
						<ellipse fill="#9031FF" cx="-483.593" cy="977.436" rx="18.899" ry="13.95"/>
					</g>
				</g>
			</g>
			<polygon fill="#E84318" points="-518.718,1033.004 -590.588,983.06 -590.588,1016.567 -518.718,1066.346 -447.94,1014.839 
				-447.94,982.031 			"/>
			<polygon fill="#93D80F" points="-447.94,982.031 -447.94,1027.484 -518.718,1078.989 -518.718,1065.893 -518.718,1033.004 			"/>
			<polygon fill="#A0E51A" points="-590.588,983.06 -590.588,1029.214 -518.718,1079.172 -518.718,1033.004 			"/>
		</g>
		
			<text transform="matrix(0.7696 0.5297 -0.0201 0.9998 -583.4902 1016.1387)" fill="#1A1A1A" font-family="'AvenirNext-Bold'" font-size="12.8859">BLOCK 565</text>
	</g>
	<g>
		<g>
			<g>
				<polygon fill="#AEF721" points="-447.924,936.032 -483.893,911.061 -483.929,911.062 -519.896,886.088 -555.237,911.533 
					-555.233,911.614 -590.572,937.062 -554.761,962.033 -554.568,962.031 -518.703,987.005 -483.313,961.521 -483.313,961.521 				
					"/>
				<g>
					<path fill="#93D80F" d="M-573.818,931.992c0,7.705,8.461,13.95,18.9,13.95c10.438,0,18.899-6.245,18.899-13.95v6.453
						c0,7.703-8.461,13.951-18.899,13.951s-18.9-6.248-18.9-13.951V931.992z"/>
					<path fill="#B8FF2E" d="M-536.019,931.992c0,7.705-8.461,13.95-18.899,13.95s-18.9-6.245-18.9-13.95
						c0-7.703,8.461-13.949,18.9-13.949C-544.48,918.041-536.019,924.289-536.019,931.992z"/>
				</g>
				<g>
					<path fill="#93D80F" d="M-538.482,906.465c0,7.707,8.461,13.951,18.899,13.951c10.439,0,18.902-6.244,18.902-13.951v6.454
						c0,7.702-8.461,13.949-18.902,13.949c-10.437,0-18.899-6.247-18.899-13.949V906.465z"/>
					<ellipse fill="#B8FF2E" cx="-519.582" cy="906.466" rx="18.901" ry="13.95"/>
				</g>
				<g>
					<path fill="#93D80F" d="M-537.814,956.964c0,7.706,8.462,13.952,18.901,13.952c10.439,0,18.9-6.246,18.9-13.952v6.45
						c0,7.707-8.462,13.953-18.9,13.953s-18.901-6.246-18.901-13.953V956.964z"/>
					<ellipse fill="#B8FF2E" cx="-518.914" cy="956.963" rx="18.9" ry="13.953"/>
				</g>
				<g>
					<g>
						<path fill="#93D80F" d="M-502.477,931.438c0,7.705,8.459,13.949,18.899,13.949s18.901-6.244,18.901-13.949v6.451
							c0,7.705-8.461,13.949-18.901,13.949c-10.438,0-18.899-6.244-18.899-13.949V931.438z"/>
						<ellipse fill="#B8FF2E" cx="-483.578" cy="931.437" rx="18.899" ry="13.95"/>
					</g>
				</g>
			</g>
			<polygon fill="#E84318" points="-518.703,987.005 -590.572,937.062 -590.572,970.568 -518.703,1020.346 -447.924,968.84 
				-447.924,936.032 			"/>
			<polygon fill="#002054" points="-447.924,936.032 -447.924,981.484 -518.703,1032.991 -518.703,1019.893 -518.703,987.005 			"/>
			<polygon fill="#002776" points="-590.572,937.062 -590.572,983.216 -518.703,1033.175 -518.703,987.005 			"/>
		</g>
		
			<text transform="matrix(0.7696 0.5297 -0.0201 0.9998 -583.4756 970.1387)" fill="#F2F2F2" font-family="'AvenirNext-Bold'" font-size="12.8859">BLOCK 566</text>
	</g>
	<g>
		<g>
			<g>
				<polygon fill="#F4F4F4" points="-447.935,890.621 -483.904,865.646 -483.939,865.649 -519.907,840.674 -555.247,866.121 
					-555.244,866.202 -590.583,891.646 -554.771,916.621 -554.579,916.619 -518.713,941.594 -483.324,916.109 -483.324,916.109 				
					"/>
				<g>
					<path fill="#D6D6D6" d="M-573.828,886.58c0,7.705,8.46,13.949,18.899,13.949s18.9-6.244,18.9-13.949v6.451
						c0,7.703-8.461,13.951-18.9,13.951c-10.438,0-18.899-6.248-18.899-13.951V886.58z"/>
					<path fill="#FFFFFF" d="M-536.029,886.58c0,7.705-8.461,13.949-18.9,13.949c-10.438,0-18.899-6.244-18.899-13.949
						s8.46-13.951,18.899-13.951S-536.029,878.875-536.029,886.58z"/>
				</g>
				<g>
					<path fill="#D6D6D6" d="M-538.492,861.053c0,7.705,8.461,13.949,18.899,13.949c10.439,0,18.901-6.244,18.901-13.949v6.453
						c0,7.702-8.461,13.948-18.901,13.948c-10.438,0-18.899-6.246-18.899-13.948V861.053z"/>
					<ellipse fill="#FFFFFF" cx="-519.592" cy="861.053" rx="18.9" ry="13.949"/>
				</g>
				<g>
					<path fill="#D6D6D6" d="M-537.824,911.549c0,7.709,8.462,13.953,18.9,13.953c10.439,0,18.901-6.244,18.901-13.953v6.452
						c0,7.706-8.461,13.952-18.901,13.952c-10.438,0-18.9-6.246-18.9-13.952V911.549z"/>
					<ellipse fill="#FFFFFF" cx="-518.924" cy="911.55" rx="18.901" ry="13.952"/>
				</g>
				<g>
					<g>
						<path fill="#D6D6D6" d="M-502.487,886.023c0,7.705,8.459,13.949,18.899,13.949c10.439,0,18.9-6.244,18.9-13.949v6.451
							c0,7.705-8.461,13.951-18.9,13.951c-10.438,0-18.899-6.246-18.899-13.951V886.023z"/>
						<ellipse fill="#FFFFFF" cx="-483.588" cy="886.022" rx="18.899" ry="13.95"/>
					</g>
				</g>
			</g>
			<polygon fill="#E84318" points="-518.713,941.594 -590.583,891.646 -590.583,925.156 -518.713,974.934 -447.935,923.427 
				-447.935,890.621 			"/>
			<polygon fill="#D6D6D6" points="-447.935,890.621 -447.935,936.07 -518.713,987.576 -518.713,974.48 -518.713,941.594 			"/>
			<polygon fill="#E2E2E2" points="-590.583,891.646 -590.583,937.803 -518.713,987.761 -518.713,941.594 			"/>
		</g>
		
			<text transform="matrix(0.7696 0.5297 -0.0201 0.9998 -583.4849 924.7256)" fill="#1A1A1A" font-family="'AvenirNext-Bold'" font-size="12.8859">BLOCK 567</text>
	</g>
</g>
<g>
	<g>
		<g>
			<g>
				<polygon fill="#AEF721" points="-116.677,806.658 -152.646,781.686 -152.68,781.689 -188.648,756.715 -223.989,782.158 
					-223.985,782.242 -259.325,807.688 -223.515,832.659 -223.321,832.658 -187.456,857.631 -152.066,832.149 -152.066,832.149 				
					"/>
				<g>
					<path fill="#93D80F" d="M-242.57,802.618c0,7.706,8.46,13.951,18.898,13.951c10.44,0,18.901-6.245,18.901-13.951v6.452
						c0,7.705-8.461,13.951-18.901,13.951c-10.438,0-18.898-6.247-18.898-13.951V802.618z"/>
					<path fill="#B8FF2E" d="M-204.771,802.618c0,7.706-8.461,13.951-18.901,13.951c-10.438,0-18.898-6.245-18.898-13.951
						c0-7.703,8.46-13.949,18.898-13.949C-213.231,788.668-204.771,794.915-204.771,802.618z"/>
				</g>
				<g>
					<path fill="#93D80F" d="M-207.235,777.094c0,7.705,8.462,13.948,18.9,13.948c10.438,0,18.901-6.243,18.901-13.948v6.451
						c0,7.702-8.462,13.949-18.901,13.949c-10.438,0-18.9-6.247-18.9-13.949V777.094z"/>
					<ellipse fill="#B8FF2E" cx="-188.334" cy="777.092" rx="18.9" ry="13.95"/>
				</g>
				<g>
					<path fill="#93D80F" d="M-206.566,827.59c0,7.707,8.462,13.951,18.899,13.951c10.441,0,18.901-6.244,18.901-13.951v6.451
						c0,7.706-8.46,13.952-18.901,13.952c-10.438,0-18.899-6.246-18.899-13.952V827.59z"/>
					<ellipse fill="#B8FF2E" cx="-187.667" cy="827.589" rx="18.901" ry="13.952"/>
				</g>
				<g>
					<g>
						<path fill="#93D80F" d="M-171.23,802.063c0,7.704,8.462,13.95,18.9,13.95s18.899-6.246,18.899-13.95v6.452
							c0,7.703-8.461,13.949-18.899,13.949c-10.438,0-18.9-6.246-18.9-13.949V802.063z"/>
						<ellipse fill="#B8FF2E" cx="-152.33" cy="802.063" rx="18.898" ry="13.951"/>
					</g>
				</g>
			</g>
			<polygon fill="#E84318" points="-187.456,857.631 -259.325,807.688 -259.325,841.195 -187.456,890.972 -116.677,839.467 
				-116.677,806.658 			"/>
			<polygon fill="#490DBC" points="-116.677,806.658 -116.677,852.11 -187.456,903.8 -187.456,890.519 -187.456,857.631 			"/>
			<polygon fill="#610EE2" points="-259.325,807.688 -259.325,853.842 -187.456,903.8 -187.456,857.631 			"/>
		</g>
		
			<text transform="matrix(0.7696 0.5297 -0.0201 0.9998 -252.2295 840.7637)" fill="#F2F2F2" font-family="'AvenirNext-Bold'" font-size="12.8859">BLOCK 564</text>
	</g>
	<g>
		<g>
			<g>
				<polygon fill="#8322F4" points="-116.687,761.246 -152.655,736.272 -152.69,736.275 -188.658,711.301 -224,736.746 
					-223.996,736.828 -259.334,762.273 -223.524,787.247 -223.329,787.245 -187.466,812.219 -152.076,786.734 -152.076,786.734 				
					"/>
				<g>
					<path fill="#6C12D6" d="M-242.581,757.205c0,7.706,8.46,13.951,18.9,13.951c10.438,0,18.9-6.245,18.9-13.951v6.453
						c0,7.703-8.462,13.95-18.9,13.95s-18.9-6.249-18.9-13.95V757.205z"/>
					<path fill="#9031FF" d="M-204.78,757.205c0,7.706-8.462,13.951-18.9,13.951s-18.9-6.245-18.9-13.951
						c0-7.703,8.46-13.949,18.9-13.949C-213.242,743.256-204.78,749.502-204.78,757.205z"/>
				</g>
				<g>
					<path fill="#6C12D6" d="M-207.245,731.679c0,7.705,8.461,13.95,18.899,13.95c10.44,0,18.902-6.245,18.902-13.95v6.452
						c0,7.703-8.461,13.949-18.902,13.949c-10.438,0-18.899-6.246-18.899-13.949V731.679z"/>
					<ellipse fill="#9031FF" cx="-188.344" cy="731.68" rx="18.9" ry="13.949"/>
				</g>
				<g>
					<path fill="#6C12D6" d="M-206.574,782.176c0,7.707,8.458,13.953,18.897,13.953s18.9-6.246,18.9-13.953v6.453
						c0,7.703-8.461,13.95-18.9,13.95s-18.897-6.247-18.897-13.95V782.176z"/>
					<ellipse fill="#9031FF" cx="-187.677" cy="782.177" rx="18.9" ry="13.952"/>
				</g>
				<g>
					<g>
						<path fill="#6C12D6" d="M-171.238,756.649c0,7.707,8.458,13.951,18.898,13.951c10.438,0,18.898-6.244,18.898-13.951v6.453
							c0,7.703-8.46,13.949-18.898,13.949c-10.439,0-18.898-6.246-18.898-13.949V756.649z"/>
						<ellipse fill="#9031FF" cx="-152.34" cy="756.65" rx="18.898" ry="13.951"/>
					</g>
				</g>
			</g>
			<polygon fill="#E84318" points="-187.466,812.219 -259.334,762.273 -259.334,795.783 -187.466,845.559 -116.687,794.053 
				-116.687,761.246 			"/>
			<polygon fill="#93D80F" points="-116.687,761.246 -116.687,806.697 -187.466,858.203 -187.466,845.107 -187.466,812.219 			"/>
			<polygon fill="#A0E51A" points="-259.334,762.273 -259.334,808.429 -187.466,858.387 -187.466,812.219 			"/>
		</g>
		
			<text transform="matrix(0.7696 0.5297 -0.0201 0.9998 -252.2383 795.3516)" fill="#1A1A1A" font-family="'AvenirNext-Bold'" font-size="12.8859">BLOCK 565</text>
	</g>
	<g>
		<g>
			<g>
				<polygon fill="#AEF721" points="-116.672,715.246 -152.642,690.273 -152.676,690.277 -188.645,665.302 -223.983,690.747 
					-223.98,690.829 -259.32,716.273 -223.51,741.247 -223.316,741.246 -187.45,766.219 -152.061,740.735 -152.061,740.735 				"/>
				<g>
					<path fill="#93D80F" d="M-242.566,711.206c0,7.706,8.461,13.951,18.9,13.951c10.438,0,18.899-6.245,18.899-13.951v6.452
						c0,7.704-8.461,13.951-18.899,13.951s-18.9-6.247-18.9-13.951V711.206z"/>
					<path fill="#B8FF2E" d="M-204.767,711.206c0,7.706-8.461,13.951-18.899,13.951s-18.9-6.245-18.9-13.951
						c0-7.703,8.461-13.949,18.9-13.949C-213.228,697.256-204.767,703.503-204.767,711.206z"/>
				</g>
				<g>
					<path fill="#93D80F" d="M-207.229,685.68c0,7.707,8.461,13.949,18.899,13.949s18.902-6.242,18.902-13.949v6.453
						c0,7.703-8.462,13.949-18.902,13.949c-10.437,0-18.899-6.246-18.899-13.949V685.68z"/>
					<ellipse fill="#B8FF2E" cx="-188.329" cy="685.679" rx="18.901" ry="13.95"/>
				</g>
				<g>
					<path fill="#93D80F" d="M-206.562,736.178c0,7.705,8.463,13.95,18.901,13.95c10.439,0,18.899-6.245,18.899-13.95v6.451
						c0,7.706-8.46,13.951-18.899,13.951c-10.438,0-18.901-6.245-18.901-13.951V736.178z"/>
					<ellipse fill="#B8FF2E" cx="-187.661" cy="736.176" rx="18.899" ry="13.952"/>
				</g>
				<g>
					<g>
						<path fill="#93D80F" d="M-171.225,710.65c0,7.707,8.461,13.951,18.899,13.951c10.44,0,18.9-6.244,18.9-13.951v6.453
							c0,7.704-8.46,13.949-18.9,13.949c-10.438,0-18.899-6.245-18.899-13.949V710.65z"/>
						<ellipse fill="#B8FF2E" cx="-152.325" cy="710.651" rx="18.899" ry="13.951"/>
					</g>
				</g>
			</g>
			<polygon fill="#E84318" points="-187.45,766.219 -259.32,716.273 -259.32,749.784 -187.45,799.56 -116.672,748.053 
				-116.672,715.246 			"/>
			<polygon fill="#002054" points="-116.672,715.246 -116.672,760.697 -187.45,812.205 -187.45,799.106 -187.45,766.219 			"/>
			<polygon fill="#002776" points="-259.32,716.273 -259.32,762.43 -187.45,812.388 -187.45,766.219 			"/>
		</g>
		
			<text transform="matrix(0.7696 0.5297 -0.0201 0.9998 -252.2227 749.3525)" fill="#F2F2F2" font-family="'AvenirNext-Bold'" font-size="12.8859">BLOCK 566</text>
	</g>
	<g>
		<g>
			<g>
				<polygon fill="#F4F4F4" points="-116.682,669.834 -152.65,644.86 -152.686,644.863 -188.654,619.889 -223.994,645.334 
					-223.99,645.416 -259.331,670.859 -223.518,695.835 -223.326,695.832 -187.461,720.807 -152.071,695.323 -152.071,695.323 				
					"/>
				<g>
					<path fill="#D6D6D6" d="M-242.576,665.793c0,7.706,8.461,13.951,18.9,13.951c10.437,0,18.9-6.245,18.9-13.951v6.452
						c0,7.704-8.464,13.95-18.9,13.95c-10.439,0-18.9-6.246-18.9-13.95V665.793z"/>
					<path fill="#FFFFFF" d="M-204.775,665.793c0,7.706-8.464,13.951-18.9,13.951c-10.439,0-18.9-6.245-18.9-13.951
						c0-7.704,8.461-13.949,18.9-13.949C-213.239,651.842-204.775,658.089-204.775,665.793z"/>
				</g>
				<g>
					<path fill="#D6D6D6" d="M-207.239,640.267c0,7.705,8.461,13.95,18.899,13.95c10.439,0,18.901-6.245,18.901-13.95v6.452
						c0,7.703-8.461,13.949-18.901,13.949c-10.436,0-18.899-6.246-18.899-13.949V640.267z"/>
					<ellipse fill="#FFFFFF" cx="-188.339" cy="640.267" rx="18.9" ry="13.95"/>
				</g>
				<g>
					<path fill="#D6D6D6" d="M-206.573,690.764c0,7.707,8.464,13.951,18.902,13.951s18.899-6.244,18.899-13.951v6.451
						c0,7.705-8.461,13.952-18.899,13.952s-18.902-6.247-18.902-13.952V690.764z"/>
					<ellipse fill="#FFFFFF" cx="-187.671" cy="690.764" rx="18.899" ry="13.951"/>
				</g>
				<g>
					<g>
						<path fill="#D6D6D6" d="M-171.234,665.236c0,7.707,8.46,13.951,18.898,13.951c10.44,0,18.901-6.244,18.901-13.951v6.454
							c0,7.702-8.461,13.949-18.901,13.949c-10.438,0-18.898-6.247-18.898-13.949V665.236z"/>
						<ellipse fill="#FFFFFF" cx="-152.336" cy="665.237" rx="18.9" ry="13.951"/>
					</g>
				</g>
			</g>
			<polygon fill="#E84318" points="-187.461,720.807 -259.331,670.859 -259.331,704.369 -187.461,754.146 -116.682,702.641 
				-116.682,669.834 			"/>
			<polygon fill="#D6D6D6" points="-116.682,669.834 -116.682,715.285 -187.461,766.79 -187.461,753.694 -187.461,720.807 			"/>
			<polygon fill="#E2E2E2" points="-259.331,670.859 -259.331,717.016 -187.461,766.975 -187.461,720.807 			"/>
		</g>
		
			<text transform="matrix(0.7696 0.5297 -0.0201 0.9998 -252.2324 703.9395)" fill="#1A1A1A" font-family="'AvenirNext-Bold'" font-size="12.8859">BLOCK 567</text>
	</g>
</g>
<g>
	<g>
		<g>
			<g>
				<polygon fill="#AEF721" points="-232.677,1177.282 -268.646,1152.311 -268.68,1152.313 -304.648,1127.339 -339.988,1152.785 
					-339.985,1152.867 -375.324,1178.311 -339.513,1203.283 -339.32,1203.282 -303.455,1228.256 -268.065,1202.772 
					-268.065,1202.772 				"/>
				<g>
					<path fill="#93D80F" d="M-358.57,1173.244c0,7.704,8.46,13.95,18.899,13.95c10.438,0,18.899-6.246,18.899-13.95v6.451
						c0,7.705-8.46,13.95-18.899,13.95c-10.438,0-18.899-6.248-18.899-13.95V1173.244z"/>
					<path fill="#B8FF2E" d="M-320.771,1173.244c0,7.704-8.46,13.95-18.899,13.95c-10.438,0-18.899-6.246-18.899-13.95
						c0-7.705,8.46-13.95,18.899-13.95C-329.232,1159.294-320.771,1165.539-320.771,1173.244z"/>
				</g>
				<g>
					<path fill="#93D80F" d="M-323.234,1147.716c0,7.707,8.462,13.95,18.899,13.95c10.44,0,18.902-6.243,18.902-13.95v6.453
						c0,7.704-8.462,13.95-18.902,13.95c-10.437,0-18.899-6.246-18.899-13.95V1147.716z"/>
					<ellipse fill="#B8FF2E" cx="-304.333" cy="1147.716" rx="18.9" ry="13.95"/>
				</g>
				<g>
					<path fill="#93D80F" d="M-322.565,1198.214c0,7.707,8.459,13.951,18.899,13.951s18.9-6.244,18.9-13.951v6.452
						c0,7.706-8.461,13.952-18.9,13.952s-18.899-6.246-18.899-13.952V1198.214z"/>
					<ellipse fill="#B8FF2E" cx="-303.666" cy="1198.213" rx="18.9" ry="13.952"/>
				</g>
				<g>
					<g>
						<path fill="#93D80F" d="M-287.229,1172.688c0,7.707,8.461,13.95,18.899,13.95s18.899-6.243,18.899-13.95v6.453
							c0,7.702-8.461,13.948-18.899,13.948s-18.899-6.246-18.899-13.948V1172.688z"/>
						<ellipse fill="#B8FF2E" cx="-268.33" cy="1172.688" rx="18.899" ry="13.95"/>
					</g>
				</g>
			</g>
			<polygon fill="#E84318" points="-303.455,1228.256 -375.324,1178.311 -375.324,1211.82 -303.455,1261.596 -232.677,1210.092 
				-232.677,1177.282 			"/>
			<polygon fill="#490DBC" points="-232.677,1177.282 -232.677,1222.733 -303.455,1274.425 -303.455,1261.144 -303.455,1228.256 			
				"/>
			<polygon fill="#610EE2" points="-375.324,1178.311 -375.324,1224.467 -303.455,1274.425 -303.455,1228.256 			"/>
		</g>
		
			<text transform="matrix(0.7696 0.5297 -0.0201 0.9998 -368.228 1211.3887)" fill="#F2F2F2" font-family="'AvenirNext-Bold'" font-size="12.8859">BLOCK 564</text>
	</g>
	<g>
		<g>
			<g>
				<polygon fill="#8322F4" points="-232.686,1131.87 -268.655,1106.896 -268.691,1106.9 -304.658,1081.925 -339.999,1107.37 
					-339.995,1107.453 -375.335,1132.898 -339.523,1157.871 -339.33,1157.87 -303.467,1182.843 -268.076,1157.361 
					-268.076,1157.361 				"/>
				<g>
					<path fill="#6C12D6" d="M-358.58,1127.829c0,7.707,8.46,13.952,18.899,13.952c10.438,0,18.9-6.245,18.9-13.952v6.453
						c0,7.704-8.462,13.949-18.9,13.949c-10.439,0-18.899-6.246-18.899-13.949V1127.829z"/>
					<path fill="#9031FF" d="M-320.78,1127.829c0,7.707-8.462,13.952-18.9,13.952c-10.439,0-18.899-6.245-18.899-13.952
						c0-7.703,8.459-13.949,18.899-13.949C-329.242,1113.88-320.78,1120.126-320.78,1127.829z"/>
				</g>
				<g>
					<path fill="#6C12D6" d="M-323.243,1102.304c0,7.704,8.461,13.95,18.898,13.95c10.44,0,18.901-6.246,18.901-13.95v6.452
						c0,7.702-8.461,13.95-18.901,13.95c-10.438,0-18.898-6.248-18.898-13.95V1102.304z"/>
					<ellipse fill="#9031FF" cx="-304.344" cy="1102.304" rx="18.9" ry="13.95"/>
				</g>
				<g>
					<path fill="#6C12D6" d="M-322.576,1152.801c0,7.707,8.46,13.952,18.899,13.952c10.439,0,18.901-6.245,18.901-13.952v6.451
						c0,7.705-8.462,13.951-18.901,13.951c-10.439,0-18.899-6.246-18.899-13.951V1152.801z"/>
					<ellipse fill="#9031FF" cx="-303.677" cy="1152.8" rx="18.901" ry="13.953"/>
				</g>
				<g>
					<g>
						<path fill="#6C12D6" d="M-287.238,1127.272c0,7.707,8.459,13.952,18.897,13.952c10.439,0,18.901-6.245,18.901-13.952v6.454
							c0,7.703-8.462,13.948-18.901,13.948c-10.438,0-18.897-6.245-18.897-13.948V1127.272z"/>
						<ellipse fill="#9031FF" cx="-268.341" cy="1127.274" rx="18.9" ry="13.951"/>
					</g>
				</g>
			</g>
			<polygon fill="#E84318" points="-303.467,1182.843 -375.335,1132.898 -375.335,1166.406 -303.467,1216.184 -232.686,1164.677 
				-232.686,1131.87 			"/>
			<polygon fill="#93D80F" points="-232.686,1131.87 -232.686,1177.322 -303.467,1228.826 -303.467,1215.731 -303.467,1182.843 			
				"/>
			<polygon fill="#A0E51A" points="-375.335,1132.898 -375.335,1179.052 -303.467,1229.01 -303.467,1182.843 			"/>
		</g>
		
			<text transform="matrix(0.7696 0.5297 -0.0201 0.9998 -368.2378 1165.9756)" fill="#1A1A1A" font-family="'AvenirNext-Bold'" font-size="12.8859">BLOCK 565</text>
	</g>
	<g>
		<g>
			<g>
				<polygon fill="#AEF721" points="-232.671,1085.871 -268.641,1060.899 -268.676,1060.901 -304.644,1035.928 -339.983,1061.372 
					-339.98,1061.454 -375.319,1086.899 -339.509,1111.871 -339.315,1111.87 -303.449,1136.843 -268.061,1111.36 -268.061,1111.36 
									"/>
				<g>
					<path fill="#93D80F" d="M-358.565,1081.831c0,7.706,8.461,13.95,18.9,13.95s18.9-6.244,18.9-13.95v6.452
						c0,7.703-8.461,13.95-18.9,13.95c-10.438,0-18.9-6.247-18.9-13.95V1081.831z"/>
					<path fill="#B8FF2E" d="M-320.766,1081.831c0,7.706-8.461,13.95-18.9,13.95c-10.438,0-18.9-6.244-18.9-13.95
						c0-7.704,8.461-13.949,18.9-13.949C-329.227,1067.881-320.766,1074.127-320.766,1081.831z"/>
				</g>
				<g>
					<path fill="#93D80F" d="M-323.229,1056.303c0,7.707,8.461,13.95,18.899,13.95c10.439,0,18.9-6.243,18.9-13.95v6.454
						c0,7.703-8.46,13.95-18.9,13.95c-10.438,0-18.899-6.247-18.899-13.95V1056.303z"/>
					<ellipse fill="#B8FF2E" cx="-304.329" cy="1056.303" rx="18.9" ry="13.95"/>
				</g>
				<g>
					<path fill="#93D80F" d="M-322.561,1106.802c0,7.706,8.462,13.951,18.901,13.951c10.438,0,18.898-6.245,18.898-13.951v6.452
						c0,7.706-8.46,13.952-18.898,13.952c-10.439,0-18.901-6.246-18.901-13.952V1106.802z"/>
					<ellipse fill="#B8FF2E" cx="-303.66" cy="1106.801" rx="18.898" ry="13.952"/>
				</g>
				<g>
					<g>
						<path fill="#93D80F" d="M-287.226,1081.274c0,7.707,8.462,13.951,18.9,13.951c10.44,0,18.9-6.244,18.9-13.951v6.454
							c0,7.702-8.46,13.947-18.9,13.947c-10.438,0-18.9-6.245-18.9-13.947V1081.274z"/>
						<ellipse fill="#B8FF2E" cx="-268.325" cy="1081.275" rx="18.899" ry="13.95"/>
					</g>
				</g>
			</g>
			<polygon fill="#E84318" points="-303.449,1136.843 -375.319,1086.899 -375.319,1120.408 -303.449,1170.185 -232.671,1118.678 
				-232.671,1085.871 			"/>
			<polygon fill="#002054" points="-232.671,1085.871 -232.671,1131.322 -303.449,1182.828 -303.449,1169.731 -303.449,1136.843 			
				"/>
			<polygon fill="#002776" points="-375.319,1086.899 -375.319,1133.054 -303.449,1183.012 -303.449,1136.843 			"/>
		</g>
		
			<text transform="matrix(0.7696 0.5297 -0.0201 0.9998 -368.2222 1119.9766)" fill="#F2F2F2" font-family="'AvenirNext-Bold'" font-size="12.8859">BLOCK 566</text>
	</g>
	<g>
		<g>
			<g>
				<polygon fill="#F4F4F4" points="-232.682,1040.457 -268.65,1015.483 -268.685,1015.487 -304.654,990.513 -339.993,1015.958 
					-339.99,1016.039 -375.33,1041.484 -339.519,1066.458 -339.325,1066.456 -303.461,1091.431 -268.071,1065.948 
					-268.071,1065.948 				"/>
				<g>
					<path fill="#D6D6D6" d="M-358.575,1036.417c0,7.706,8.461,13.952,18.899,13.952c10.439,0,18.901-6.246,18.901-13.952v6.453
						c0,7.703-8.462,13.948-18.901,13.948c-10.438,0-18.899-6.246-18.899-13.948V1036.417z"/>
					<path fill="#FFFFFF" d="M-320.775,1036.417c0,7.706-8.462,13.952-18.901,13.952c-10.438,0-18.899-6.246-18.899-13.952
						c0-7.703,8.461-13.949,18.899-13.949C-329.237,1022.467-320.775,1028.714-320.775,1036.417z"/>
				</g>
				<g>
					<path fill="#6C12D6" d="M-323.24,1010.892c0,7.704,8.462,13.948,18.9,13.948c10.439,0,18.901-6.244,18.901-13.948v6.452
						c0,7.702-8.462,13.949-18.901,13.949c-10.438,0-18.9-6.247-18.9-13.949V1010.892z"/>
					<ellipse fill="#9031FF" cx="-304.339" cy="1010.89" rx="18.9" ry="13.95"/>
				</g>
				<g>
					<path fill="#D6D6D6" d="M-322.571,1061.389c0,7.706,8.462,13.95,18.899,13.95c10.439,0,18.9-6.244,18.9-13.95v6.45
						c0,7.705-8.461,13.952-18.9,13.952c-10.437,0-18.899-6.247-18.899-13.952V1061.389z"/>
					<ellipse fill="#FFFFFF" cx="-303.672" cy="1061.387" rx="18.9" ry="13.952"/>
				</g>
				<g>
					<g>
						<path fill="#D6D6D6" d="M-287.235,1035.86c0,7.707,8.462,13.951,18.9,13.951c10.439,0,18.899-6.244,18.899-13.951v6.454
							c0,7.702-8.46,13.949-18.899,13.949c-10.438,0-18.9-6.247-18.9-13.949V1035.86z"/>
						<ellipse fill="#FFFFFF" cx="-268.335" cy="1035.861" rx="18.898" ry="13.951"/>
					</g>
				</g>
			</g>
			<polygon fill="#E84318" points="-303.461,1091.431 -375.33,1041.484 -375.33,1074.993 -303.461,1124.771 -232.682,1073.265 
				-232.682,1040.457 			"/>
			<polygon fill="#D6D6D6" points="-232.682,1040.457 -232.682,1085.909 -303.461,1137.415 -303.461,1124.318 -303.461,1091.431 			
				"/>
			<polygon fill="#E2E2E2" points="-375.33,1041.484 -375.33,1087.641 -303.461,1137.598 -303.461,1091.431 			"/>
		</g>
		
			<text transform="matrix(0.7696 0.5297 -0.0201 0.9998 -368.2324 1074.5635)" fill="#1A1A1A" font-family="'AvenirNext-Bold'" font-size="12.8859">BLOCK 567</text>
	</g>
</g>
<g>
	<g>
		<g>
			<polygon fill="#E03220" points="-232.682,959.512 -268.65,934.539 -268.685,934.542 -304.654,909.568 -339.993,935.012 
				-339.99,935.095 -375.33,960.54 -339.519,985.512 -339.325,985.511 -303.461,1010.486 -268.071,985.002 -268.071,985.002 			"/>
			<g>
				<path fill="#991D17" d="M-358.575,955.471c0,7.708,8.461,13.951,18.899,13.951c10.439,0,18.901-6.243,18.901-13.951v6.452
					c0,7.704-8.462,13.95-18.901,13.95c-10.438,0-18.899-6.246-18.899-13.95V955.471z"/>
				<path fill="#E5403C" d="M-320.775,955.471c0,7.708-8.462,13.951-18.901,13.951c-10.438,0-18.899-6.243-18.899-13.951
					c0-7.703,8.461-13.949,18.899-13.949C-329.237,941.521-320.775,947.768-320.775,955.471z"/>
			</g>
			<g>
				<path fill="#991D17" d="M-323.24,929.945c0,7.706,8.462,13.949,18.9,13.949c10.439,0,18.901-6.243,18.901-13.949v6.452
					c0,7.702-8.462,13.949-18.901,13.949c-10.438,0-18.9-6.247-18.9-13.949V929.945z"/>
				<ellipse fill="#E5403C" cx="-304.339" cy="929.944" rx="18.9" ry="13.95"/>
			</g>
			<g>
				<path fill="#991D17" d="M-322.571,980.442c0,7.706,8.462,13.951,18.899,13.951c10.439,0,18.9-6.245,18.9-13.951v6.453
					c0,7.704-8.461,13.951-18.9,13.951c-10.437,0-18.899-6.247-18.899-13.951V980.442z"/>
				<ellipse fill="#E5403C" cx="-303.672" cy="980.442" rx="18.9" ry="13.952"/>
			</g>
			<g>
				<g>
					<path fill="#991D17" d="M-287.235,954.916c0,7.705,8.462,13.949,18.9,13.949c10.439,0,18.899-6.244,18.899-13.949v6.451
						c0,7.705-8.46,13.951-18.899,13.951c-10.438,0-18.9-6.246-18.9-13.951V954.916z"/>
					<ellipse fill="#E5403C" cx="-268.335" cy="954.915" rx="18.898" ry="13.95"/>
				</g>
			</g>
		</g>
		<polygon fill="#E84318" points="-303.461,1010.486 -375.33,960.54 -375.33,994.05 -303.461,1043.824 -232.682,992.317 
			-232.682,959.512 		"/>
		<polygon fill="#AF2719" points="-232.682,959.512 -232.682,1004.964 -303.461,1056.47 -303.461,1043.372 -303.461,1010.486 		"/>
		<polygon fill="#E0391E" points="-375.33,960.54 -375.33,1006.694 -303.461,1056.653 -303.461,1010.486 		"/>
	</g>
	
		<text transform="matrix(0.7696 0.5297 -0.0201 0.9998 -368.2324 993.6172)" fill="#F2F2F2" font-family="'AvenirNext-Bold'" font-size="12.8859">BLOCK 568</text>
</g>
<g>
	<g>
		<path fill="none" stroke="#151400" stroke-width="8" stroke-miterlimit="10" d="M-303.449,960.54
			c-0.016-1.686-0.062-3.352-0.137-4.998"/>
		<path fill="none" stroke="#151400" stroke-width="8" stroke-miterlimit="10" stroke-dasharray="10.1904,10.1904" d="
			M-304.438,945.388c-15-121.475-194.8-130.234-211.318-64.757"/>
		<path fill="none" stroke="#151400" stroke-width="8" stroke-miterlimit="10" d="M-516.678,885.633
			c-0.193,1.623-0.292,3.285-0.292,4.988"/>
	</g>
</g>
<path fill="none" stroke="#999999" stroke-width="2" stroke-miterlimit="10" d="M-278.663,953.966"/>
<g>
	<g>
		<path fill="none" stroke="#151400" stroke-width="8" stroke-miterlimit="10" d="M-303.449,960.54c0.025-1.671,0.046-3.337,0.062-5
			"/>
		<path fill="none" stroke="#151400" stroke-width="8" stroke-miterlimit="10" stroke-dasharray="10.0358,10.0358" d="
			M-303.352,945.505c-0.428-192.59-65.451-326.509-102.705-287.761"/>
		<path fill="none" stroke="#151400" stroke-width="8" stroke-miterlimit="10" d="M-409.259,661.602
			c-0.927,1.277-1.833,2.674-2.717,4.192"/>
	</g>
</g>
<g>
	<g>
		<g>
			<g>
				<polygon fill="#AEF721" points="-23.065,1040.549 -59.034,1015.577 -59.068,1015.58 -95.037,990.604 -130.378,1016.05 
					-130.373,1016.133 -165.713,1041.577 -129.902,1066.549 -129.709,1066.549 -93.844,1091.522 -58.454,1066.04 -58.454,1066.04 
									"/>
				<g>
					<path fill="#93D80F" d="M-148.959,1036.51c0,7.706,8.46,13.951,18.898,13.951c10.441,0,18.901-6.245,18.901-13.951v6.451
						c0,7.705-8.46,13.951-18.901,13.951c-10.438,0-18.898-6.246-18.898-13.951V1036.51z"/>
					<path fill="#B8FF2E" d="M-111.159,1036.51c0,7.706-8.46,13.951-18.901,13.951c-10.438,0-18.898-6.245-18.898-13.951
						c0-7.703,8.46-13.95,18.898-13.95C-119.619,1022.56-111.159,1028.807-111.159,1036.51z"/>
				</g>
				<g>
					<path fill="#93D80F" d="M-113.623,1010.985c0,7.705,8.462,13.947,18.899,13.947c10.439,0,18.902-6.242,18.902-13.947v6.45
						c0,7.703-8.462,13.949-18.902,13.949c-10.438,0-18.899-6.246-18.899-13.949V1010.985z"/>
					<ellipse fill="#B8FF2E" cx="-94.723" cy="1010.983" rx="18.901" ry="13.949"/>
				</g>
				<g>
					<path fill="#93D80F" d="M-112.955,1061.479c0,7.709,8.462,13.952,18.9,13.952c10.44,0,18.9-6.243,18.9-13.952v6.453
						c0,7.705-8.46,13.952-18.9,13.952c-10.438,0-18.9-6.247-18.9-13.952V1061.479z"/>
					<ellipse fill="#B8FF2E" cx="-94.055" cy="1061.48" rx="18.9" ry="13.952"/>
				</g>
				<g>
					<g>
						<path fill="#93D80F" d="M-77.618,1035.954c0,7.706,8.462,13.951,18.899,13.951c10.441,0,18.899-6.245,18.899-13.951v6.452
							c0,7.705-8.458,13.949-18.899,13.949c-10.437,0-18.899-6.244-18.899-13.949V1035.954z"/>
						<ellipse fill="#B8FF2E" cx="-58.719" cy="1035.955" rx="18.899" ry="13.951"/>
					</g>
				</g>
			</g>
			<polygon fill="#E84318" points="-93.844,1091.522 -165.713,1041.577 -165.713,1075.086 -93.844,1124.863 -23.065,1073.358 
				-23.065,1040.549 			"/>
			<polygon fill="#490DBC" points="-23.065,1040.733 -23.065,1086.186 -93.844,1137.692 -93.844,1124.594 -93.844,1091.707 			"/>
			<polygon fill="#610EE2" points="-165.713,1041.577 -165.713,1087.733 -93.844,1137.692 -93.844,1091.522 			"/>
		</g>
		
			<text transform="matrix(0.7696 0.5297 -0.0201 0.9998 -158.6152 1074.6562)" fill="#F2F2F2" font-family="'AvenirNext-Bold'" font-size="12.8859">BLOCK 564</text>
	</g>
	<g>
		<g>
			<g>
				<polygon fill="#8322F4" points="-23.074,995.137 -59.044,970.162 -59.078,970.166 -95.047,945.191 -130.389,970.637 
					-130.384,970.721 -165.722,996.165 -129.912,1021.138 -129.718,1021.138 -93.854,1046.109 -58.464,1020.626 -58.464,1020.626 
									"/>
				<g>
					<path fill="#6C12D6" d="M-148.969,991.097c0,7.706,8.459,13.951,18.9,13.951c10.438,0,18.899-6.245,18.899-13.951v6.452
						c0,7.702-8.462,13.951-18.899,13.951c-10.439,0-18.9-6.249-18.9-13.951V991.097z"/>
					<path fill="#9031FF" d="M-111.169,991.097c0,7.706-8.462,13.951-18.899,13.951c-10.439,0-18.9-6.245-18.9-13.951
						c0-7.703,8.459-13.95,18.9-13.95C-119.631,977.146-111.169,983.394-111.169,991.097z"/>
				</g>
				<g>
					<path fill="#6C12D6" d="M-113.633,965.57c0,7.705,8.461,13.95,18.9,13.95s18.901-6.245,18.901-13.95v6.451
						c0,7.704-8.461,13.951-18.901,13.951c-10.439,0-18.9-6.247-18.9-13.951V965.57z"/>
					<ellipse fill="#9031FF" cx="-94.732" cy="965.571" rx="18.901" ry="13.95"/>
				</g>
				<g>
					<path fill="#6C12D6" d="M-112.963,1016.066c0,7.708,8.459,13.955,18.898,13.955c10.438,0,18.899-6.247,18.899-13.955v6.454
						c0,7.703-8.461,13.95-18.899,13.95c-10.439,0-18.898-6.247-18.898-13.95V1016.066z"/>
					<ellipse fill="#9031FF" cx="-94.064" cy="1016.068" rx="18.899" ry="13.953"/>
				</g>
				<g>
					<g>
						<path fill="#6C12D6" d="M-77.626,990.541c0,7.707,8.458,13.951,18.897,13.951s18.899-6.244,18.899-13.951v6.452
							c0,7.704-8.46,13.949-18.899,13.949c-10.438,0-18.897-6.245-18.897-13.949V990.541z"/>
						<ellipse fill="#9031FF" cx="-58.729" cy="990.541" rx="18.899" ry="13.951"/>
					</g>
				</g>
			</g>
			<polygon fill="#E84318" points="-93.854,1046.109 -165.722,996.165 -165.722,1029.674 -93.854,1079.45 -23.074,1027.942 
				-23.074,995.137 			"/>
			<polygon fill="#93D80F" points="-23.074,995.137 -23.074,1040.589 -93.854,1092.094 -93.854,1078.999 -93.854,1046.109 			"/>
			<polygon fill="#A0E51A" points="-165.722,996.165 -165.722,1042.319 -93.854,1092.277 -93.854,1046.109 			"/>
		</g>
		
			<text transform="matrix(0.7696 0.5297 -0.0201 0.9998 -158.626 1029.2441)" fill="#1A1A1A" font-family="'AvenirNext-Bold'" font-size="12.8859">BLOCK 565</text>
	</g>
	<g>
		<g>
			<g>
				<polygon fill="#AEF721" points="-23.06,949.139 -59.029,924.164 -59.064,924.168 -95.032,899.193 -130.371,924.639 
					-130.369,924.719 -165.708,950.164 -129.897,975.139 -129.704,975.137 -93.838,1000.111 -58.449,974.627 -58.449,974.627 				
					"/>
				<g>
					<path fill="#93D80F" d="M-148.953,945.097c0,7.706,8.46,13.95,18.898,13.95c10.439,0,18.9-6.244,18.9-13.95v6.453
						c0,7.703-8.461,13.95-18.9,13.95c-10.438,0-18.898-6.247-18.898-13.95V945.097z"/>
					<path fill="#B8FF2E" d="M-111.154,945.097c0,7.706-8.461,13.95-18.9,13.95c-10.438,0-18.898-6.244-18.898-13.95
						c0-7.704,8.46-13.948,18.898-13.948C-119.615,931.146-111.154,937.393-111.154,945.097z"/>
				</g>
				<g>
					<path fill="#93D80F" d="M-113.618,919.57c0,7.707,8.461,13.951,18.9,13.951c10.438,0,18.901-6.244,18.901-13.951v6.453
						c0,7.703-8.461,13.949-18.901,13.949c-10.438,0-18.9-6.246-18.9-13.949V919.57z"/>
					<ellipse fill="#B8FF2E" cx="-94.717" cy="919.571" rx="18.9" ry="13.95"/>
				</g>
				<g>
					<path fill="#93D80F" d="M-112.949,970.068c0,7.707,8.462,13.952,18.9,13.952c10.439,0,18.899-6.245,18.899-13.952v6.452
						c0,7.705-8.46,13.951-18.899,13.951c-10.438,0-18.9-6.246-18.9-13.951V970.068z"/>
					<ellipse fill="#B8FF2E" cx="-94.049" cy="970.068" rx="18.899" ry="13.953"/>
				</g>
				<g>
					<g>
						<path fill="#93D80F" d="M-77.614,944.543c0,7.706,8.462,13.949,18.901,13.949s18.899-6.243,18.899-13.949v6.451
							c0,7.703-8.46,13.95-18.899,13.95c-10.438,0-18.901-6.247-18.901-13.95V944.543z"/>
						<ellipse fill="#B8FF2E" cx="-58.713" cy="944.542" rx="18.898" ry="13.951"/>
					</g>
				</g>
			</g>
			<polygon fill="#E84318" points="-93.838,1000.111 -165.708,950.164 -165.708,983.675 -93.838,1033.45 -23.06,981.945 
				-23.06,949.139 			"/>
			<polygon fill="#002054" points="-23.06,949.139 -23.06,994.588 -93.838,1046.096 -93.838,1032.999 -93.838,1000.111 			"/>
			<polygon fill="#002776" points="-165.708,950.164 -165.708,996.32 -93.838,1046.279 -93.838,1000.111 			"/>
		</g>
		
			<text transform="matrix(0.7696 0.5297 -0.0201 0.9998 -158.6094 983.2441)" fill="#F2F2F2" font-family="'AvenirNext-Bold'" font-size="12.8859">BLOCK 566</text>
	</g>
	<g>
		<g>
			<g>
				<polygon fill="#F4F4F4" points="-23.07,903.725 -59.038,878.752 -59.073,878.754 -95.042,853.779 -130.382,879.227 
					-130.379,879.307 -165.72,904.752 -129.906,929.726 -129.714,929.723 -93.85,954.698 -58.46,929.214 -58.46,929.214 				"/>
				<g>
					<path fill="#D6D6D6" d="M-148.964,899.684c0,7.707,8.46,13.951,18.899,13.951c10.438,0,18.901-6.244,18.901-13.951v6.453
						c0,7.704-8.464,13.95-18.901,13.95c-10.438,0-18.899-6.247-18.899-13.95V899.684z"/>
					<path fill="#FFFFFF" d="M-111.163,899.684c0,7.707-8.464,13.951-18.901,13.951c-10.438,0-18.899-6.244-18.899-13.951
						c0-7.703,8.46-13.949,18.899-13.949C-119.627,885.733-111.163,891.98-111.163,899.684z"/>
				</g>
				<g>
					<path fill="#D6D6D6" d="M-113.628,874.158c0,7.704,8.462,13.949,18.9,13.949s18.9-6.245,18.9-13.949v6.451
						c0,7.703-8.461,13.949-18.9,13.949c-10.437,0-18.9-6.246-18.9-13.949V874.158z"/>
					<ellipse fill="#FFFFFF" cx="-94.727" cy="874.157" rx="18.899" ry="13.95"/>
				</g>
				<g>
					<path fill="#D6D6D6" d="M-112.961,924.654c0,7.706,8.464,13.953,18.901,13.953c10.44,0,18.899-6.247,18.899-13.953v6.451
						c0,7.705-8.459,13.952-18.899,13.952c-10.438,0-18.901-6.247-18.901-13.952V924.654z"/>
					<ellipse fill="#FFFFFF" cx="-94.06" cy="924.655" rx="18.899" ry="13.952"/>
				</g>
				<g>
					<g>
						<path fill="#D6D6D6" d="M-77.623,899.129c0,7.706,8.461,13.949,18.899,13.949c10.439,0,18.9-6.243,18.9-13.949v6.452
							c0,7.703-8.461,13.95-18.9,13.95c-10.438,0-18.899-6.247-18.899-13.95V899.129z"/>
						<ellipse fill="#FFFFFF" cx="-58.724" cy="899.127" rx="18.899" ry="13.951"/>
					</g>
				</g>
			</g>
			<polygon fill="#E84318" points="-93.85,954.698 -165.72,904.752 -165.72,938.261 -93.85,988.037 -23.07,936.531 -23.07,903.725 
							"/>
			<polygon fill="#D6D6D6" points="-23.07,903.725 -23.07,949.176 -93.85,1000.681 -93.85,987.586 -93.85,954.698 			"/>
			<polygon fill="#E2E2E2" points="-165.72,904.752 -165.72,950.906 -93.85,1000.864 -93.85,954.698 			"/>
		</g>
		
			<text transform="matrix(0.7696 0.5297 -0.0201 0.9998 -158.6201 937.8311)" fill="#1A1A1A" font-family="'AvenirNext-Bold'" font-size="12.8859">BLOCK 567</text>
	</g>
</g>
<g>
	<g>
		<path fill="none" stroke="#151400" stroke-width="8" stroke-miterlimit="10" d="M-303.449,960.54c0-1.676,0.002-3.342,0.006-5"/>
		<path fill="none" stroke="#151400" stroke-width="8" stroke-miterlimit="10" stroke-dasharray="9.9545,9.9545" d="
			M-303.394,945.583c2.35-315.466,79.271-309.788,109.137-283.794"/>
		<path fill="none" stroke="#151400" stroke-width="8" stroke-miterlimit="10" d="M-190.673,665.233
			c1.192,1.266,2.271,2.548,3.223,3.815"/>
	</g>
</g>
<g>
	<g>
		<path fill="none" stroke="#151400" stroke-width="8" stroke-miterlimit="10" d="M-303.449,960.54
			c0.016-1.683,0.062-3.35,0.136-4.998"/>
		<path fill="none" stroke="#151400" stroke-width="8" stroke-miterlimit="10" stroke-dasharray="9.972,9.972" d="M-302.495,945.603
			c14.948-124.1,199.459-143.362,212.177-54.448"/>
		<path fill="none" stroke="#151400" stroke-width="8" stroke-miterlimit="10" d="M-89.797,896.107
			c0.112,1.632,0.168,3.297,0.168,4.996"/>
	</g>
</g>
<g>
	<g>
		<g>
			<polygon fill="#EA2D24" points="406.827,145.311 304.246,74.089 304.147,74.097 201.568,2.873 100.782,75.439 100.786,75.674 
				0,148.244 102.131,219.463 102.685,219.46 204.97,290.687 305.898,218.007 305.898,218.007 			"/>
			<g>
				<path fill="#991D17" d="M47.783,133.787c0,21.982,24.129,39.789,53.902,39.789c29.771,0,53.904-17.807,53.904-39.789v18.402
					c0,21.972-24.134,39.784-53.904,39.784c-29.77,0-53.902-17.812-53.902-39.784V133.787z"/>
				<path fill="#E5403C" d="M155.589,133.787c0,21.982-24.134,39.789-53.904,39.789c-29.77,0-53.902-17.807-53.902-39.789
					c0-21.97,24.129-39.785,53.902-39.785C131.456,94.001,155.589,111.817,155.589,133.787z"/>
			</g>
			<g>
				<path fill="#991D17" d="M148.56,60.985c0,21.98,24.134,39.786,53.901,39.786c29.774,0,53.908-17.806,53.908-39.786v18.404
					c0,21.967-24.134,39.783-53.908,39.783c-29.767,0-53.901-17.816-53.901-39.783V60.985z"/>
				<path fill="#E5403C" d="M202.467,21.2c29.768,0,53.902,17.814,53.902,39.786c0,21.972-24.134,39.786-53.902,39.786
					c-29.773,0-53.907-17.813-53.907-39.786C148.56,39.014,172.694,21.2,202.467,21.2z"/>
			</g>
			<g>
				<path fill="#991D17" d="M150.468,205.003c0,21.979,24.131,39.789,53.901,39.789c29.774,0,53.902-17.81,53.902-39.789v18.403
					c0,21.974-24.128,39.79-53.902,39.79c-29.77,0-53.901-17.815-53.901-39.79V205.003z"/>
				<path fill="#E5403C" d="M204.369,165.213c29.771,0,53.902,17.811,53.902,39.791c0,21.978-24.131,39.789-53.902,39.789
					c-29.765,0-53.901-17.811-53.901-39.789C150.468,183.023,174.604,165.213,204.369,165.213z"/>
			</g>
			<g>
				<g>
					<path fill="#991D17" d="M251.244,132.202c0,21.975,24.131,39.786,53.902,39.786c29.776,0,53.9-17.811,53.9-39.786v18.402
						c0,21.975-24.124,39.787-53.9,39.787c-29.767,0-53.902-17.812-53.902-39.787V132.202z"/>
					<path fill="#E5403C" d="M305.146,92.414c29.773,0,53.898,17.816,53.898,39.788c0,21.975-24.125,39.786-53.898,39.786
						c-29.765,0-53.902-17.811-53.902-39.786C251.244,110.23,275.381,92.414,305.146,92.414z"/>
				</g>
			</g>
		</g>
		<polygon fill="#E84318" points="204.97,290.687 0,148.244 0,243.811 204.97,385.77 406.827,238.873 406.827,145.311 		"/>
		<polygon fill="#931F16" points="406.827,145.311 406.827,274.938 204.97,422.356 204.97,384.479 204.97,290.687 		"/>
		<polygon fill="#CC2E1D" points="0,148.244 0,279.875 204.97,422.356 204.97,290.687 		"/>
	</g>
	
		<text transform="matrix(0.7696 0.5297 -0.0201 0.9998 20.2422 242.582)" fill="#FFFFFF" font-family="'AvenirNext-Bold'" font-size="36.7504">BLOCK 568</text>
</g>
<polygon fill="#490DBC" points="1241.342,520.008 1241.342,710.932 1093.797,819.105 1093.797,764.094 1093.797,625.953 "/>
<polygon fill="#93D80F" points="1219.324,632.693 1219.324,727.881 1093.797,819.105 1093.797,791.957 1093.797,722.816 "/>
<polygon fill="#002054" points="1219.324,633.609 1391.105,508.359 1391.105,602.578 1219.324,727.879 "/>
<polygon fill="#D6D6D6" points="1219.324,536.033 1391.105,411.834 1391.105,508.311 1219.324,633.609 "/>
<text transform="matrix(0.6331 -0.4613 -0.0484 0.9988 1269.3418 545.9141)" enable-background="new    "><tspan x="0" y="0" fill="#333333" font-family="'AvenirNext-Bold'" font-size="24.1086">S M A R T </tspan><tspan x="-41.094" y="28.931" fill="#333333" font-family="'AvenirNext-Bold'" font-size="24.1086">C O N T R A C T S</tspan></text>
<text transform="matrix(0.6331 -0.4613 -0.0484 0.9988 1255.9395 649.0762)" enable-background="new    "><tspan x="0" y="0" fill="#F2F2F2" font-family="'AvenirNext-Bold'" font-size="24.1086">PARTICIPANT</tspan><tspan x="-14.765" y="28.93" fill="#F2F2F2" font-family="'AvenirNext-Bold'" font-size="24.1086">TRANSACTIONS</tspan></text>
<text transform="matrix(0.6331 -0.4613 -0.0484 0.9988 1109.8076 753.5576)" enable-background="new    "><tspan x="0" y="0" fill="#333333" font-family="'AvenirNext-Bold'" font-size="24.1086">LAST BLOCK</tspan><tspan x="3.736" y="28.931" fill="#333333" font-family="'AvenirNext-Bold'" font-size="24.1086">REFERENCE</tspan></text>
<text transform="matrix(0.6331 -0.4613 -0.0484 0.9988 1128.3291 646.5176)" enable-background="new    "><tspan x="0" y="0" fill="#F2F2F2" font-family="'AvenirNext-Bold'" font-size="24.1086">BLOCK </tspan><tspan x="10.68" y="28.931" fill="#F2F2F2" font-family="'AvenirNext-Bold'" font-size="24.1086">DATA</tspan></text>
<linearGradient id="SVGID_6_" gradientUnits="userSpaceOnUse" x1="527.4111" y1="304.873" x2="640.111" y2="605.7474" gradientTransform="matrix(0.7059 -0.9881 -0.8137 -0.5813 364.3433 1216.2197)">
	<stop  offset="0.075" style="stop-color:#FFFFFF;stop-opacity:0"/>
	<stop  offset="0.6184" style="stop-color:#747474;stop-opacity:0.5874"/>
	<stop  offset="1" style="stop-color:#161616"/>
</linearGradient>
<polygon fill="url(#SVGID_6_)" points="687.527,466.77 488.283,614.029 204.97,422.356 406.835,274.937 "/>
<polygon fill="#002776" points="265.428,464.708 265.758,439.169 515.123,611.977 515.123,529.415 269.479,359.188 270.377,327.629 
	225.289,374.105 "/>
<text transform="matrix(0.7696 0.5297 -0.0201 0.9998 273.0068 419.4648)" fill="#FFFFFF" font-family="'AvenirNext-Bold'" font-size="36.7504">TRANSACTIONS</text>
<polygon fill="#81BC00" points="444.287,335.806 444.617,310.267 693.982,483.074 693.982,400.512 448.338,230.285 449.236,198.727 
	404.147,245.203 "/>
<text transform="matrix(0.7696 0.5297 -0.0201 0.9998 467.0664 301.8853)" fill="#FFFFFF" font-family="'AvenirNext-Bold'" font-size="36.7504">BLOCK DATA</text>
<polygon fill="#00A1DE" points="351.357,400.368 351.688,374.829 601.053,547.636 601.053,465.074 355.408,294.848 356.309,263.29 
	311.218,309.766 "/>
<text transform="matrix(0.7696 0.5297 -0.0201 0.9998 377.7197 368.5566)" fill="#FFFFFF" font-family="'AvenirNext-Bold'" font-size="36.7504">CONTRACTS</text>
</svg>
