<?xml version="1.0" encoding="utf-8"?>
<!-- Generator: Adobe Illustrator 16.0.4, SVG Export Plug-In . SVG Version: 6.00 Build 0)  -->
<!DOCTYPE svg PUBLIC "-//W3C//DTD SVG 1.1//EN" "http://www.w3.org/Graphics/SVG/1.1/DTD/svg11.dtd">
<svg version="1.1" id="Layer_1" xmlns="http://www.w3.org/2000/svg" xmlns:xlink="http://www.w3.org/1999/xlink" x="0px" y="0px"
	 width="720px" height="720px" viewBox="0 0 720 720" enable-background="new 0 0 720 720" xml:space="preserve">
<path fill-rule="evenodd" clip-rule="evenodd" fill="#FFFFFF" d="M184.274,392.36c1.506,9.888,2.648,19.845,4.578,29.648
	c9.543,48.484,30.879,91.236,63.23,128.512c10.373,11.953,22.389,21.552,38.266,25.222c-35.358,0-70.715,0-106.074,0
	C184.274,514.615,184.274,453.488,184.274,392.36z"/>
<g>
	<linearGradient id="SVGID_1_" gradientUnits="userSpaceOnUse" x1="360.0137" y1="148.2852" x2="360.0136" y2="579.0009">
		<stop  offset="0" style="stop-color:#00A1DE"/>
		<stop  offset="1" style="stop-color:#002776"/>
	</linearGradient>
	<path fill="url(#SVGID_1_)" d="M184.274,392.36c0-9.588,0-19.176,0-28.766c0.895-5.588,1.681-11.196,2.704-16.761
		c5.551-30.218,18.6-56.299,43.375-75.284c22.878-17.532,48.695-25.955,77.504-19.966c11.913,2.477,23.506,7.1,34.789,11.837
		c13.401,5.626,26.125,5.83,39.508,0.018c10.408-4.52,21.191-8.382,32.105-11.49c38.898-11.082,82.883,3.632,107.041,35.346
		c0.959,1.259,1.838,2.577,2.84,3.983c-1.482,1.043-2.588,1.795-3.668,2.583c-30.42,22.197-46.186,51.58-42.117,89.67
		c3.918,36.688,24.176,61.914,57.398,77.149c0,0.299,0,0.6,0,0.898c-0.633,1.501-1.346,2.973-1.889,4.506
		c-12.184,34.329-30.807,64.781-55.914,91.096c-14.305,14.992-32.053,21.464-52.641,16.467c-8.791-2.134-17.197-5.978-25.641-9.386
		c-18.484-7.464-37.281-8.433-56.212-2.445c-13.342,4.22-26.427,9.256-39.627,13.927c-4.494,0-8.989,0-13.483,0
		c-15.877-3.67-27.893-13.269-38.266-25.222c-32.351-37.275-53.687-80.027-63.23-128.512
		C186.922,412.205,185.78,402.248,184.274,392.36z"/>
	<linearGradient id="SVGID_2_" gradientUnits="userSpaceOnUse" x1="402.4395" y1="144.2573" x2="402.4394" y2="575.599">
		<stop  offset="0" style="stop-color:#00A1DE"/>
		<stop  offset="1" style="stop-color:#002776"/>
	</linearGradient>
	<path fill-rule="evenodd" clip-rule="evenodd" fill="url(#SVGID_2_)" d="M445.861,144.257
		c1.561,40.434-15.213,70.863-50.168,91.094c-9.852,5.703-20.74,8.379-32.223,8.607c-3.358,0.066-4.843-1.13-4.507-4.318
		c0.876-8.296,0.66-16.955,3.06-24.803c11.592-37.924,37.156-61.145,75.926-69.747c0.859-0.19,1.68-0.552,2.52-0.834
		C442.266,144.257,444.064,144.257,445.861,144.257z"/>
</g>
<path fill-rule="evenodd" clip-rule="evenodd" fill="#FFFFFF" d="M303.831,575.742c13.2-4.671,26.285-9.707,39.627-13.927
	c18.931-5.987,37.728-5.019,56.212,2.445c8.443,3.408,16.85,7.252,25.641,9.386c20.588,4.997,38.336-1.475,52.641-16.467
	c25.107-26.314,43.73-56.767,55.914-91.096c0.543-1.533,1.256-3.005,1.889-4.506c0,38.005,0,76.01,0,114.164
	C458.447,575.742,381.139,575.742,303.831,575.742z"/>
</svg>
