<?xml version="1.0" encoding="utf-8"?>
<!-- Generator: Adobe Illustrator 16.0.4, SVG Export Plug-In . SVG Version: 6.00 Build 0)  -->
<!DOCTYPE svg PUBLIC "-//W3C//DTD SVG 1.1//EN" "http://www.w3.org/Graphics/SVG/1.1/DTD/svg11.dtd">
<svg version="1.1" id="Layer_1" xmlns="http://www.w3.org/2000/svg" xmlns:xlink="http://www.w3.org/1999/xlink" x="0px" y="0px"
	 width="720px" height="720px" viewBox="0 0 720 720" enable-background="new 0 0 720 720" xml:space="preserve">
<path d="M477.726,355.98"/>
<linearGradient id="SVGID_1_" gradientUnits="userSpaceOnUse" x1="360.0146" y1="0" x2="360.0146" y2="812.8094">
	<stop  offset="0" style="stop-color:#00A1DE"/>
	<stop  offset="1" style="stop-color:#002776"/>
</linearGradient>
<path fill="url(#SVGID_1_)" d="M566.585,720.701H153.444c-28.335,0-51.388-23.053-51.388-51.387V51.388
	C102.057,23.052,125.109,0,153.444,0h413.141c28.334,0,51.387,23.052,51.387,51.388v617.927
	C617.972,697.648,594.919,720.701,566.585,720.701z M153.444,22.973c-15.668,0-28.415,12.747-28.415,28.415v617.927
	c0,15.668,12.747,28.414,28.415,28.414h413.141c15.668,0,28.414-12.746,28.414-28.414V51.388c0-15.668-12.746-28.415-28.414-28.415
	H153.444z M499.962,343.606c-4.283-1.89-9.285,0.047-11.183,4.333c-22.527,51.048-73.073,84.035-128.768,84.035
	c-54.437,0-103.956-31.517-127.208-80.615c23.252-49.09,72.772-80.606,127.208-80.606c39.469,0,77.373,16.761,103.992,45.994
	c3.145,3.463,8.511,3.71,11.974,0.559c3.464-3.152,3.712-8.512,0.56-11.975c-29.82-32.75-72.289-51.534-116.525-51.534
	c-62.404,0-119.034,36.952-144.28,94.143c-0.959,2.178-0.959,4.669,0,6.849c25.246,57.189,81.876,94.14,144.28,94.14
	c62.404,0,119.035-36.95,144.281-94.14C506.184,350.503,504.238,345.496,499.962,343.606L499.962,343.606z M499.962,343.606
	 M300.864,351.358c0,32.612,26.535,59.149,59.147,59.149c32.614,0,59.142-26.537,59.142-59.149
	c0-32.611-26.527-59.141-59.142-59.141C327.399,292.218,300.864,318.747,300.864,351.358L300.864,351.358z M402.205,351.358
	c0,23.267-18.927,42.196-42.193,42.196c-23.266,0-42.193-18.93-42.193-42.196c0-23.264,18.927-42.193,42.193-42.193
	C383.278,309.165,402.205,328.094,402.205,351.358L402.205,351.358z M402.205,351.358"/>
</svg>
