<?xml version="1.0" encoding="utf-8"?>
<!-- Generator: Adobe Illustrator 16.0.4, SVG Export Plug-In . SVG Version: 6.00 Build 0)  -->
<!DOCTYPE svg PUBLIC "-//W3C//DTD SVG 1.1//EN" "http://www.w3.org/Graphics/SVG/1.1/DTD/svg11.dtd">
<svg version="1.1" id="Layer_1" xmlns="http://www.w3.org/2000/svg" xmlns:xlink="http://www.w3.org/1999/xlink" x="0px" y="0px"
	 width="720px" height="720px" viewBox="0 0 720 720" enable-background="new 0 0 720 720" xml:space="preserve">
<linearGradient id="SVGID_1_" gradientUnits="userSpaceOnUse" x1="360.5254" y1="2" x2="360.5254" y2="813.6816">
	<stop  offset="0" style="stop-color:#00A1DE"/>
	<stop  offset="1" style="stop-color:#002776"/>
</linearGradient>
<path fill="url(#SVGID_1_)" d="M566.809,721.701H154.242c-28.296,0-51.316-23.02-51.316-51.315V53.316
	C102.925,25.021,125.945,2,154.242,2h412.567c28.296,0,51.315,23.021,51.315,51.316v617.069
	C618.124,698.682,595.104,721.701,566.809,721.701z M154.242,24.941c-15.646,0-28.376,12.729-28.376,28.375v617.069
	c0,15.646,12.729,28.375,28.376,28.375h412.567c15.646,0,28.375-12.729,28.375-28.375V53.316c0-15.646-12.729-28.375-28.375-28.375
	H154.242z M397.301,239.988l-10.316-2.832c-1.338-0.439-2.645-0.3-3.911,0.419c-1.276,0.716-2.146,1.806-2.585,3.254
	l-62.095,214.909c-0.439,1.438-0.3,2.805,0.418,4.083c0.718,1.277,1.795,2.135,3.242,2.574l10.326,2.832
	c1.327,0.45,2.633,0.31,3.911-0.418c1.277-0.72,2.136-1.795,2.585-3.246l62.084-214.91c0.45-1.448,0.311-2.804-0.407-4.081
	C399.825,241.296,398.747,240.427,397.301,239.988L397.301,239.988z M397.301,239.988 M304.246,281.942
	c0-1.436-0.549-2.712-1.667-3.832l-8.32-8.321c-1.108-1.106-2.385-1.665-3.831-1.665c-1.438,0-2.714,0.559-3.832,1.665
	l-77.569,77.57c-1.107,1.118-1.667,2.395-1.667,3.831c0,1.449,0.559,2.726,1.667,3.831l77.569,77.573
	c1.118,1.114,2.385,1.665,3.832,1.665c1.446,0,2.723-0.551,3.831-1.665l8.32-8.312c1.118-1.119,1.667-2.396,1.667-3.831
	c0-1.448-0.549-2.726-1.667-3.831l-65.417-65.431l65.417-65.417C303.697,284.667,304.246,283.39,304.246,281.942L304.246,281.942z
	 M304.246,281.942 M510.338,347.359l-77.579-77.57c-1.108-1.106-2.385-1.665-3.822-1.665c-1.447,0-2.725,0.559-3.831,1.665
	l-8.32,8.321c-1.118,1.108-1.666,2.385-1.666,3.832c0,1.448,0.548,2.726,1.666,3.831l65.418,65.417l-65.418,65.431
	c-1.118,1.105-1.666,2.383-1.666,3.831c0,1.435,0.548,2.712,1.666,3.831l8.32,8.312c1.106,1.114,2.384,1.665,3.831,1.665
	c1.438,0,2.714-0.551,3.822-1.665l77.579-77.573c1.107-1.105,1.656-2.382,1.656-3.831
	C511.994,349.744,511.445,348.467,510.338,347.359L510.338,347.359z"/>
<path d="M510.338,347.359"/>
</svg>
