<?xml version="1.0" encoding="utf-8"?>
<!-- Generator: Adobe Illustrator 16.0.4, SVG Export Plug-In . SVG Version: 6.00 Build 0)  -->
<!DOCTYPE svg PUBLIC "-//W3C//DTD SVG 1.1//EN" "http://www.w3.org/Graphics/SVG/1.1/DTD/svg11.dtd">
<svg version="1.1" id="Layer_1" xmlns="http://www.w3.org/2000/svg" xmlns:xlink="http://www.w3.org/1999/xlink" x="0px" y="0px"
	 width="720px" height="720px" viewBox="0 0 720 720" enable-background="new 0 0 720 720" xml:space="preserve">
<g>
	<g>
		<g>
			<polygon fill="#BCBCBC" points="1268.508,561.271 1194.783,506.211 1194.705,506.218 1113.98,562.838 1191.018,619.571 			"/>
			<g>
				<g>
					<path fill="#999999" d="M1151.02,553.926c0,16.989,18.655,30.758,41.671,30.758s41.671-13.769,41.671-30.758v14.226
						c0,16.985-18.655,30.757-41.671,30.757s-41.671-13.771-41.671-30.757V553.926z"/>
					<ellipse fill="#CCCCCC" cx="1192.689" cy="553.926" rx="41.671" ry="30.758"/>
				</g>
			</g>
		</g>
		<polygon fill="#829E0D" points="1268.508,561.271 1191.018,619.571 1113.98,562.838 1113.98,637.466 1191.299,690.257 
			1268.508,626.547 		"/>
		<polygon fill="#9B9B9B" points="1191.299,690.257 1268.508,626.547 1268.508,561.271 1191.018,619.571 		"/>
		<polygon fill="#AFAFAF" points="1113.98,562.838 1113.98,637.466 1191.299,690.257 1191.018,619.571 		"/>
	</g>
	<g>
		<g>
			<polygon fill="#545454" points="1268.285,490.586 1194.558,435.525 1194.479,435.531 1113.754,492.152 1190.795,548.885 			"/>
			<g>
				<g>
					<path fill="#333333" d="M1150.796,483.24c0,16.988,18.655,30.756,41.668,30.756c23.015,0,41.67-13.768,41.67-30.756v14.224
						c0,16.987-18.655,30.757-41.67,30.757c-23.013,0-41.668-13.77-41.668-30.757V483.24z"/>
					<path fill="#666666" d="M1234.134,483.24c0,16.988-18.655,30.756-41.67,30.756c-23.013,0-41.668-13.768-41.668-30.756
						c0-16.987,18.655-30.756,41.668-30.756C1215.479,452.484,1234.134,466.253,1234.134,483.24z"/>
				</g>
			</g>
		</g>
		<polygon fill="#333333" points="1191.072,619.571 1268.508,561.271 1268.285,490.586 1190.795,548.885 		"/>
		<polygon fill="#474747" points="1113.754,492.152 1113.98,562.838 1191.072,619.571 1190.795,548.885 		"/>
	</g>
	<g>
		<g>
			<polygon fill="#BCBCBC" points="1268.2,460.666 1194.473,405.605 1194.395,405.612 1113.67,462.232 1190.71,518.965 			"/>
			<g>
				<g>
					<path fill="#999999" d="M1150.712,453.32c0,16.989,18.655,30.757,41.667,30.757c23.016,0,41.671-13.768,41.671-30.757v14.225
						c0,16.986-18.655,30.756-41.671,30.756c-23.012,0-41.667-13.77-41.667-30.756V453.32z"/>
					<path fill="#CCCCCC" d="M1234.05,453.32c0,16.989-18.655,30.757-41.671,30.757c-23.012,0-41.667-13.768-41.667-30.757
						c0-16.986,18.655-30.756,41.667-30.756C1215.395,422.564,1234.05,436.334,1234.05,453.32z"/>
				</g>
			</g>
		</g>
		<polygon fill="#9B9B9B" points="1190.988,589.652 1268.426,531.352 1268.2,460.666 1190.71,518.965 		"/>
		<polygon fill="#AFAFAF" points="1113.67,462.232 1113.896,532.919 1190.988,589.652 1190.71,518.965 		"/>
	</g>
	<g>
		<g>
			<polygon fill="#545454" points="1268.135,430.307 1194.408,375.246 1194.328,375.254 1113.604,431.873 1190.646,488.605 			"/>
			<g>
				<g>
					<path fill="#333333" d="M1150.646,422.961c0,16.99,18.656,30.757,41.668,30.757c23.016,0,41.671-13.767,41.671-30.757v14.225
						c0,16.986-18.655,30.758-41.671,30.758c-23.012,0-41.668-13.771-41.668-30.758V422.961z"/>
					<path fill="#666666" d="M1233.984,422.961c0,16.99-18.655,30.757-41.67,30.757c-23.013,0-41.67-13.767-41.67-30.757
						c0-16.986,18.657-30.755,41.67-30.755C1215.329,392.206,1233.984,405.975,1233.984,422.961z"/>
				</g>
			</g>
		</g>
		<polygon fill="#333333" points="1190.923,559.293 1268.359,500.993 1268.135,430.307 1190.646,488.605 		"/>
		<polygon fill="#474747" points="1113.604,431.873 1113.831,502.561 1190.923,559.293 1190.646,488.605 		"/>
	</g>
	<g>
		<g>
			<polygon fill="#BCBCBC" points="1268.04,400.271 1194.312,345.21 1194.233,345.217 1113.509,401.838 1190.549,458.57 			"/>
			<g>
				<g>
					<path fill="#999999" d="M1150.551,392.924c0,16.99,18.656,30.758,41.668,30.758c23.016,0,41.671-13.768,41.671-30.758v14.226
						c0,16.987-18.655,30.758-41.671,30.758c-23.012,0-41.668-13.771-41.668-30.758V392.924z"/>
					<path fill="#CCCCCC" d="M1233.89,392.924c0,16.99-18.655,30.758-41.671,30.758c-23.012,0-41.668-13.768-41.668-30.758
						c0-16.986,18.656-30.755,41.668-30.755C1215.233,362.169,1233.89,375.938,1233.89,392.924z"/>
				</g>
			</g>
		</g>
		<polygon fill="#9B9B9B" points="1190.828,529.256 1268.267,470.956 1268.04,400.271 1190.549,458.57 		"/>
		<polygon fill="#AFAFAF" points="1113.509,401.838 1113.734,472.523 1190.828,529.256 1190.549,458.57 		"/>
	</g>
</g>
<g>
	<g>
		<g>
			<polygon fill="#BCBCBC" points="1167.508,642.268 1093.783,587.207 1093.704,587.213 1012.98,643.834 1090.018,700.566 			"/>
			<g>
				<g>
					<path fill="#999999" d="M1050.02,634.922c0,16.989,18.656,30.757,41.671,30.757s41.671-13.768,41.671-30.757v14.225
						c0,16.986-18.656,30.757-41.671,30.757s-41.671-13.771-41.671-30.757V634.922z"/>
					<ellipse fill="#CCCCCC" cx="1091.689" cy="634.922" rx="41.671" ry="30.757"/>
				</g>
			</g>
		</g>
		<polygon fill="#829E0D" points="1167.508,642.268 1090.018,700.566 1012.98,643.834 1012.98,718.461 1090.299,771.253 
			1167.508,707.544 		"/>
		<polygon fill="#9B9B9B" points="1090.299,771.253 1167.508,707.544 1167.508,642.268 1090.018,700.566 		"/>
		<polygon fill="#AFAFAF" points="1012.98,643.834 1012.98,718.461 1090.299,771.253 1090.018,700.566 		"/>
	</g>
	<g>
		<g>
			<polygon fill="#545454" points="1167.285,571.582 1093.558,516.521 1093.479,516.527 1012.754,573.148 1089.795,629.88 			"/>
			<g>
				<g>
					<path fill="#333333" d="M1049.795,564.235c0,16.988,18.657,30.757,41.669,30.757c23.015,0,41.671-13.769,41.671-30.757v14.225
						c0,16.987-18.656,30.757-41.671,30.757c-23.012,0-41.669-13.77-41.669-30.757V564.235z"/>
					<ellipse fill="#666666" cx="1091.465" cy="564.235" rx="41.67" ry="30.757"/>
				</g>
			</g>
		</g>
		<polygon fill="#333333" points="1090.072,700.566 1167.508,642.268 1167.285,571.582 1089.795,629.88 		"/>
		<polygon fill="#474747" points="1012.754,573.148 1012.98,643.834 1090.072,700.566 1089.795,629.88 		"/>
	</g>
	<g>
		<g>
			<polygon fill="#BCBCBC" points="1167.2,541.662 1093.474,486.602 1093.395,486.607 1012.67,543.229 1089.711,599.961 			"/>
			<g>
				<g>
					<path fill="#999999" d="M1049.711,534.316c0,16.988,18.656,30.756,41.668,30.756c23.016,0,41.671-13.768,41.671-30.756v14.225
						c0,16.986-18.655,30.756-41.671,30.756c-23.012,0-41.668-13.77-41.668-30.756V534.316z"/>
					<path fill="#CCCCCC" d="M1133.05,534.316c0,16.988-18.655,30.756-41.671,30.756c-23.012,0-41.668-13.768-41.668-30.756
						c0-16.986,18.656-30.757,41.668-30.757C1114.395,503.561,1133.05,517.33,1133.05,534.316z"/>
				</g>
			</g>
		</g>
		<polygon fill="#9B9B9B" points="1089.988,670.646 1167.426,612.348 1167.2,541.662 1089.711,599.961 		"/>
		<polygon fill="#AFAFAF" points="1012.67,543.229 1012.896,613.914 1089.988,670.646 1089.711,599.961 		"/>
	</g>
	<g>
		<g>
			<polygon fill="#545454" points="1167.135,511.303 1093.407,456.242 1093.329,456.249 1012.604,512.869 1089.645,569.602 			"/>
			<g>
				<g>
					<path fill="#333333" d="M1049.646,503.957c0,16.989,18.654,30.756,41.666,30.756c23.016,0,41.673-13.767,41.673-30.756v14.225
						c0,16.986-18.657,30.756-41.673,30.756c-23.012,0-41.666-13.77-41.666-30.756V503.957z"/>
					<path fill="#666666" d="M1132.985,503.957c0,16.989-18.657,30.756-41.673,30.756c-23.012,0-41.666-13.767-41.666-30.756
						c0-16.986,18.654-30.756,41.666-30.756C1114.328,473.201,1132.985,486.971,1132.985,503.957z"/>
				</g>
			</g>
		</g>
		<polygon fill="#333333" points="1089.922,640.287 1167.359,581.988 1167.135,511.303 1089.645,569.602 		"/>
		<polygon fill="#474747" points="1012.604,512.869 1012.83,583.556 1089.922,640.287 1089.645,569.602 		"/>
	</g>
	<g>
		<g>
			<polygon fill="#BCBCBC" points="1167.039,481.266 1093.312,426.205 1093.234,426.213 1012.509,482.833 1089.55,539.565 			"/>
			<g>
				<g>
					<path fill="#999999" d="M1049.551,473.92c0,16.99,18.656,30.758,41.668,30.758c23.016,0,41.67-13.768,41.67-30.758v14.225
						c0,16.987-18.654,30.758-41.67,30.758c-23.012,0-41.668-13.771-41.668-30.757V473.92z"/>
					<path fill="#CCCCCC" d="M1132.889,473.92c0,16.99-18.654,30.758-41.67,30.758c-23.012,0-41.668-13.768-41.668-30.758
						c0-16.986,18.656-30.754,41.668-30.754C1114.233,443.166,1132.889,456.934,1132.889,473.92z"/>
				</g>
			</g>
		</g>
		<polygon fill="#9B9B9B" points="1089.827,610.252 1167.266,551.952 1167.039,481.266 1089.55,539.565 		"/>
		<polygon fill="#AFAFAF" points="1012.509,482.833 1012.734,553.52 1089.827,610.252 1089.55,539.565 		"/>
	</g>
</g>
<g>
	<g>
		<g>
			<polygon fill="#BCBCBC" points="1063.886,724.835 990.161,669.774 990.082,669.782 909.357,726.402 986.396,783.134 			"/>
			<g>
				<g>
					<path fill="#999999" d="M946.396,717.489c0,16.989,18.655,30.757,41.671,30.757c23.015,0,41.671-13.768,41.671-30.757v14.226
						c0,16.986-18.656,30.756-41.671,30.756c-23.016,0-41.671-13.77-41.671-30.756V717.489z"/>
					<ellipse fill="#CCCCCC" cx="988.067" cy="717.489" rx="41.671" ry="30.757"/>
				</g>
			</g>
		</g>
		<polygon fill="#829E0D" points="1063.886,724.835 986.396,783.134 909.357,726.402 909.357,801.028 986.676,853.82 
			1063.886,790.111 		"/>
		<polygon fill="#9B9B9B" points="986.676,853.82 1063.886,790.111 1063.886,724.835 986.396,783.134 		"/>
		<polygon fill="#AFAFAF" points="909.357,726.402 909.357,801.028 986.676,853.82 986.396,783.134 		"/>
	</g>
	<g>
		<g>
			<polygon fill="#545454" points="1063.662,654.148 989.936,599.089 989.855,599.096 909.132,655.716 986.172,712.448 			"/>
			<g>
				<g>
					<path fill="#333333" d="M946.174,646.804c0,16.989,18.655,30.756,41.668,30.756c23.014,0,41.67-13.767,41.67-30.756v14.226
						c0,16.985-18.655,30.757-41.67,30.757c-23.013,0-41.668-13.771-41.668-30.757V646.804L946.174,646.804z"/>
					<path fill="#666666" d="M1029.512,646.804c0,16.989-18.656,30.756-41.67,30.756c-23.013,0-41.668-13.767-41.668-30.756
						c0-16.986,18.655-30.756,41.668-30.756C1010.855,616.048,1029.512,629.816,1029.512,646.804z"/>
				</g>
			</g>
		</g>
		<polygon fill="#333333" points="986.45,783.134 1063.886,724.835 1063.662,654.148 986.172,712.448 		"/>
		<polygon fill="#474747" points="909.132,655.716 909.357,726.402 986.45,783.134 986.172,712.448 		"/>
	</g>
	<g>
		<g>
			<polygon fill="#BCBCBC" points="1063.578,624.229 989.852,569.169 989.771,569.176 909.047,625.797 986.088,682.529 			"/>
			<g>
				<g>
					<path fill="#999999" d="M946.09,616.884c0,16.989,18.654,30.757,41.668,30.757c23.015,0,41.67-13.768,41.67-30.757v14.226
						c0,16.986-18.655,30.757-41.67,30.757c-23.014,0-41.668-13.771-41.668-30.757V616.884L946.09,616.884z"/>
					<ellipse fill="#CCCCCC" cx="987.759" cy="616.884" rx="41.669" ry="30.757"/>
				</g>
			</g>
		</g>
		<polygon fill="#9B9B9B" points="986.365,753.215 1063.805,694.916 1063.578,624.229 986.088,682.529 		"/>
		<polygon fill="#AFAFAF" points="909.047,625.797 909.273,696.482 986.365,753.215 986.088,682.529 		"/>
	</g>
	<g>
		<g>
			<polygon fill="#545454" points="1063.512,593.871 989.785,538.811 989.707,538.816 908.982,595.438 986.023,652.17 			"/>
			<g>
				<g>
					<path fill="#333333" d="M946.023,586.524c0,16.988,18.655,30.757,41.668,30.757c23.016,0,41.672-13.769,41.672-30.757v14.225
						c0,16.987-18.656,30.758-41.672,30.758c-23.013,0-41.668-13.771-41.668-30.758V586.524L946.023,586.524z"/>
					<ellipse fill="#666666" cx="987.693" cy="586.524" rx="41.67" ry="30.757"/>
				</g>
			</g>
		</g>
		<polygon fill="#333333" points="986.301,722.855 1063.737,664.557 1063.512,593.871 986.023,652.17 		"/>
		<polygon fill="#474747" points="908.982,595.438 909.208,666.124 986.301,722.855 986.023,652.17 		"/>
	</g>
	<g>
		<g>
			<polygon fill="#BCBCBC" points="1063.418,563.834 989.689,508.773 989.611,508.78 908.887,565.4 985.928,622.134 			"/>
			<g>
				<g>
					<path fill="#999999" d="M945.929,556.488c0,16.989,18.655,30.756,41.667,30.756c23.017,0,41.671-13.767,41.671-30.756v14.225
						c0,16.986-18.654,30.757-41.671,30.757c-23.012,0-41.667-13.771-41.667-30.757V556.488L945.929,556.488z"/>
					<path fill="#CCCCCC" d="M1029.267,556.488c0,16.989-18.654,30.756-41.671,30.756c-23.012,0-41.667-13.767-41.667-30.756
						c0-16.986,18.655-30.756,41.667-30.756C1010.611,525.732,1029.267,539.502,1029.267,556.488z"/>
				</g>
			</g>
		</g>
		<polygon fill="#9B9B9B" points="986.205,692.819 1063.645,634.521 1063.418,563.834 985.928,622.134 		"/>
		<polygon fill="#AFAFAF" points="908.887,565.4 909.113,636.087 986.205,692.819 985.928,622.134 		"/>
	</g>
</g>
<linearGradient id="SVGID_1_" gradientUnits="userSpaceOnUse" x1="675.6533" y1="-450.3208" x2="723.3021" y2="-323.1131" gradientTransform="matrix(0.7059 -0.9881 -0.8137 -0.5813 363.7895 1214.9349)">
	<stop  offset="0.075" style="stop-color:#FFFFFF;stop-opacity:0"/>
	<stop  offset="0.6184" style="stop-color:#747474;stop-opacity:0.5874"/>
	<stop  offset="1" style="stop-color:#161616"/>
</linearGradient>
<polygon fill="url(#SVGID_1_)" points="1290.183,788.326 1209.678,848.045 1090.299,771.253 1167.508,707.544 "/>
<linearGradient id="SVGID_2_" gradientUnits="userSpaceOnUse" x1="778.2754" y1="-485.4189" x2="825.9244" y2="-358.2103" gradientTransform="matrix(0.7059 -0.9881 -0.8137 -0.5813 363.7895 1214.9349)">
	<stop  offset="0.075" style="stop-color:#FFFFFF;stop-opacity:0"/>
	<stop  offset="0.6184" style="stop-color:#747474;stop-opacity:0.5874"/>
	<stop  offset="1" style="stop-color:#161616"/>
</linearGradient>
<polygon fill="url(#SVGID_2_)" points="1391.183,707.326 1310.678,767.045 1191.299,690.253 1268.508,626.544 "/>
<g>
	
		<linearGradient id="SVGID_3_" gradientUnits="userSpaceOnUse" x1="1116.0879" y1="332.1123" x2="1178.8375" y2="373.5557" gradientTransform="matrix(0.7059 -0.9881 -0.8137 -0.5813 363.7895 1214.9349)">
		<stop  offset="0.075" style="stop-color:#FFFFFF;stop-opacity:0"/>
		<stop  offset="0.6184" style="stop-color:#747474;stop-opacity:0.5874"/>
		<stop  offset="1" style="stop-color:#161616"/>
	</linearGradient>
	<polygon fill="url(#SVGID_3_)" points="1009.787,-93.597 810.338,-56.065 761.676,-138.859 961.332,-138.243 	"/>
	<polygon fill="#AA0000" points="933,-156.148 933,-130 791,-130 791,-156.148 804.617,-245 919.713,-245 	"/>
	
		<ellipse transform="matrix(0.2353 -0.9719 0.9719 0.2353 815.8015 609.6469)" fill="#303099" cx="795.33" cy="-213.617" rx="14.526" ry="15.011"/>
	
		<rect x="770.753" y="-214.208" transform="matrix(-0.9719 -0.2354 0.2354 -0.9719 1590.4027 -158.0951)" fill="#303099" width="30.025" height="80.479"/>
	
		<ellipse transform="matrix(-0.2387 -0.9711 0.9711 -0.2387 1356.8147 634.459)" fill="#2C2C89" cx="927.109" cy="-214.628" rx="14.527" ry="15.013"/>
	
		<rect x="921.974" y="-215.367" transform="matrix(-0.9711 0.2387 -0.2387 -0.9711 1805.251 -567.4592)" fill="#2C2C89" width="30.024" height="81.898"/>
	<polygon fill="#CC4848" points="933.475,-130 790.855,-130 804.617,-219 919.713,-219 	"/>
	<rect x="805" y="-245" fill="#B74242" width="115" height="26"/>
	<g>
		<g>
			<path fill="#D8D448" d="M810.033-311.285c0,21.255,23.34,38.479,52.13,38.479s52.13-17.224,52.13-38.479v59.08
				c0,21.252-23.34,38.478-52.13,38.478s-52.13-17.226-52.13-38.478V-311.285z"/>
			<path fill="#E5E14C" d="M914.293-311.285c0,21.255-23.34,38.479-52.13,38.479s-52.13-17.224-52.13-38.479
				c0-21.251,23.34-38.475,52.13-38.475S914.293-332.536,914.293-311.285z"/>
		</g>
	</g>
	<g>
		<g>
			<path fill="#C9C128" d="M836.307-315.552c0,10.195,11.195,18.456,25.003,18.456c13.812,0,25.006-8.261,25.006-18.456v8.536
				c0,10.193-11.193,18.456-25.006,18.456c-13.808,0-25.003-8.263-25.003-18.456V-315.552z"/>
			<ellipse fill="#EAEA4B" cx="861.311" cy="-315.552" rx="25.005" ry="18.456"/>
		</g>
	</g>
	<circle fill="#1A1A1A" cx="847.995" cy="-256.17" r="5.221"/>
	<circle fill="#1A1A1A" cx="874.472" cy="-256.619" r="5.22"/>
	<path fill="none" stroke="#000000" stroke-width="3" stroke-miterlimit="10" d="M846.885-239.281
		c8.658,8.259,22.354,7.93,30.62-0.736"/>
</g>
<g>
	
		<linearGradient id="SVGID_4_" gradientUnits="userSpaceOnUse" x1="1236.582" y1="122.998" x2="1299.3308" y2="164.441" gradientTransform="matrix(0.7059 -0.9881 -0.8137 -0.5813 363.7895 1214.9349)">
		<stop  offset="0.075" style="stop-color:#FFFFFF;stop-opacity:0"/>
		<stop  offset="0.6184" style="stop-color:#747474;stop-opacity:0.5874"/>
		<stop  offset="1" style="stop-color:#161616"/>
	</linearGradient>
	<polygon fill="url(#SVGID_4_)" points="1265,-91.095 1065.551,-53.563 1016.889,-136.357 1216.544,-135.741 	"/>
	<polygon fill="#6200A8" points="1189,-153.646 1189,-127 1046,-127 1046,-153.646 1059.829,-242 1174.925,-242 	"/>
	
		<ellipse transform="matrix(0.2353 -0.9719 0.9719 0.2353 1008.5427 859.6041)" fill="#303099" cx="1050.539" cy="-211.114" rx="14.526" ry="15.011"/>
	
		<rect x="1025.962" y="-211.694" transform="matrix(-0.9719 -0.2354 0.2354 -0.9719 2093.0581 -93.0496)" fill="#303099" width="30.025" height="80.478"/>
	
		<ellipse transform="matrix(-0.2387 -0.9711 0.9711 -0.2387 1670.5071 885.4109)" fill="#2C2C89" cx="1182.326" cy="-212.116" rx="14.527" ry="15.013"/>
	
		<rect x="1177.189" y="-212.863" transform="matrix(-0.9711 0.2387 -0.2387 -0.9711 2308.9077 -623.4291)" fill="#2C2C89" width="30.024" height="81.897"/>
	<polygon fill="#9C4ACC" points="1188.688,-127 1046.067,-127 1059.829,-216 1174.925,-216 	"/>
	<rect x="1060" y="-242" fill="#8543B5" width="115" height="26"/>
	<g>
		<g>
			<path fill="#D8D448" d="M1065.246-308.783c0,21.255,23.34,38.479,52.129,38.479c28.791,0,52.131-17.224,52.131-38.479v59.08
				c0,21.251-23.34,38.478-52.131,38.478c-28.789,0-52.129-17.227-52.129-38.478V-308.783z"/>
			<path fill="#E5E14C" d="M1169.506-308.783c0,21.255-23.34,38.479-52.131,38.479c-28.789,0-52.129-17.224-52.129-38.479
				c0-21.25,23.34-38.475,52.129-38.475C1146.166-347.258,1169.506-330.034,1169.506-308.783z"/>
		</g>
	</g>
	<g>
		<g>
			<path fill="#C9C128" d="M1091.52-313.049c0,10.195,11.194,18.456,25.003,18.456c13.812,0,25.004-8.261,25.004-18.456v8.535
				c0,10.193-11.19,18.456-25.004,18.456c-13.809,0-25.003-8.263-25.003-18.456V-313.049z"/>
			<path fill="#EAEA4B" d="M1141.525-313.049c0,10.195-11.19,18.456-25.004,18.456c-13.809,0-25.004-8.261-25.004-18.456
				c0-10.194,11.195-18.456,25.004-18.456C1130.335-331.505,1141.525-323.243,1141.525-313.049z"/>
		</g>
	</g>
	<circle fill="#1A1A1A" cx="1103.207" cy="-253.668" r="5.221"/>
	<circle fill="#1A1A1A" cx="1129.686" cy="-254.117" r="5.22"/>
	<path fill="none" stroke="#000000" stroke-width="3" stroke-miterlimit="10" d="M1102.097-236.779
		c8.659,8.259,22.354,7.93,30.62-0.735"/>
</g>
<g>
	
		<linearGradient id="SVGID_5_" gradientUnits="userSpaceOnUse" x1="1091.7861" y1="149.5957" x2="1154.5356" y2="191.0392" gradientTransform="matrix(0.7059 -0.9881 -0.8137 -0.5813 363.7895 1214.9349)">
		<stop  offset="0.075" style="stop-color:#FFFFFF;stop-opacity:0"/>
		<stop  offset="0.6184" style="stop-color:#747474;stop-opacity:0.5874"/>
		<stop  offset="1" style="stop-color:#161616"/>
	</linearGradient>
	<polygon fill="url(#SVGID_5_)" points="1141.146,36.512 941.697,74.043 893.035,-8.751 1092.691,-8.135 	"/>
	<polygon fill="#00A800" points="1065,-26.041 1065,0 922,0 922,-26.041 935.977,-115 1051.072,-115 	"/>
	
		<ellipse transform="matrix(0.2353 -0.9719 0.9719 0.2353 789.7913 836.8179)" fill="#303099" cx="926.689" cy="-83.5" rx="14.526" ry="15.012"/>
	
		<rect x="902.105" y="-84.095" transform="matrix(-0.9719 -0.2354 0.2354 -0.9719 1818.7852 129.4132)" fill="#303099" width="30.024" height="80.478"/>
	
		<ellipse transform="matrix(-0.2387 -0.9711 0.9711 -0.2387 1393.1887 923.183)" fill="#2C2C89" cx="1058.465" cy="-84.513" rx="14.526" ry="15.012"/>
	
		<rect x="1053.325" y="-85.288" transform="matrix(-0.9711 0.2387 -0.2387 -0.9711 2095.2102 -342.4027)" fill="#2C2C89" width="30.024" height="81.896"/>
	<polygon fill="#4ACC4A" points="1064.833,0 922.215,0 935.977,-89 1051.072,-89 	"/>
	<rect x="936" y="-115" fill="#43B543" width="115" height="26"/>
	<g>
		<g>
			<path fill="#D8D448" d="M941.393-181.177c0,21.256,23.341,38.479,52.129,38.479c28.791,0,52.132-17.224,52.132-38.479v59.08
				c0,21.252-23.341,38.479-52.131,38.479c-28.789,0-52.13-17.227-52.13-38.479V-181.177L941.393-181.177z"/>
			<path fill="#E5E14C" d="M1045.652-181.177c0,21.256-23.34,38.479-52.131,38.479c-28.789,0-52.13-17.224-52.13-38.479
				c0-21.25,23.341-38.474,52.13-38.474C1022.312-219.651,1045.652-202.428,1045.652-181.177z"/>
		</g>
	</g>
	<g>
		<g>
			<path fill="#C9C128" d="M967.665-185.443c0,10.195,11.196,18.456,25.004,18.456c13.812,0,25.004-8.261,25.004-18.456v8.536
				c0,10.193-11.19,18.456-25.004,18.456c-13.808,0-25.004-8.263-25.004-18.456V-185.443z"/>
			<path fill="#EAEA4B" d="M1017.673-185.443c0,10.195-11.19,18.456-25.004,18.456c-13.808,0-25.004-8.261-25.004-18.456
				c0-10.193,11.196-18.456,25.004-18.456C1006.48-203.899,1017.673-195.637,1017.673-185.443z"/>
		</g>
	</g>
	<circle fill="#1A1A1A" cx="979.354" cy="-124.062" r="5.221"/>
	<circle fill="#1A1A1A" cx="1005.831" cy="-123.511" r="5.22"/>
	<path fill="none" stroke="#000000" stroke-width="3" stroke-miterlimit="10" d="M978.244-109.174
		c8.658,8.26,22.354,7.931,30.619-0.734"/>
</g>
<line fill="none" stroke="#000000" stroke-width="2" stroke-miterlimit="10" x1="988.959" y1="-130.82" x2="979.951" y2="-136.437"/>
<line fill="none" stroke="#000000" stroke-width="2" stroke-miterlimit="10" x1="997.238" y1="-130.789" x2="1006.38" y2="-136.09"/>
<g>
	<g>
		<g>
			<g>
				<g>
					<path fill="#D8CF2A" d="M283.082-189.057c0,29.73,32.645,53.818,72.911,53.818c40.274,0,72.919-24.088,72.919-53.818v24.89
						c0,29.724-32.645,53.82-72.919,53.82c-40.268,0-72.911-24.097-72.911-53.82V-189.057z"/>
				</g>
				<g>
					<path fill="#E5E133" d="M428.912-189.057c0,29.73-32.645,53.818-72.919,53.818c-40.268,0-72.911-24.088-72.911-53.818
						c0-29.724,32.645-53.819,72.911-53.819C396.269-242.876,428.912-218.781,428.912-189.057z"/>
				</g>
			</g>
		</g>
	</g>
	<path fill="#F9F56E" d="M419.58-190.481c0,26.044-28.598,47.145-63.878,47.145c-35.274,0-63.871-21.101-63.871-47.145
		c0-26.038,28.597-47.146,63.871-47.146C390.982-237.627,419.58-216.519,419.58-190.481z"/>
	
		<text transform="matrix(0.9899 -0.3333 0.7443 0.6678 355.1177 -162.8618)" fill="#E5E133" font-family="'MyriadPro-Regular'" font-size="93.0489">$</text>
	
		<text transform="matrix(0.9899 -0.3333 0.7443 0.6678 355.1177 -162.8618)" fill="none" stroke="#E5E133" stroke-miterlimit="10" font-family="'MyriadPro-Regular'" font-size="93.0489">$</text>
</g>
<g>
	<g>
		<path fill="#FFF794" d="M293.479-94.739c-7.42,15.123-20.324,27.604-37.269,34.173c-35.789,13.872-76.048-3.896-89.92-39.685
			c-13.873-35.79,3.895-76.048,39.684-89.92c16.721-6.481,34.417-6.056,49.942-0.114l-10.303,21.439
			c-10.013-3.607-21.323-3.758-32.025,0.391c-23.559,9.132-35.255,35.633-26.123,59.192c9.132,23.559,35.633,35.255,59.192,26.123
			c11.183-4.335,19.693-12.583,24.571-22.571L293.479-94.739z"/>
		<polyline fill="#FFF794" points="269.217,-183.643 255.917,-190.285 242.653,-179.245 269.217,-183.643 		"/>
		<path fill="#E5E133" stroke="#E5E133" stroke-miterlimit="10" d="M306.779-88.097c-7.42,15.122-20.324,27.604-37.27,34.172
			c-35.789,13.873-76.048-3.895-89.92-39.684c-13.872-35.79,3.895-76.048,39.685-89.92c16.72-6.481,34.417-6.057,49.942-0.114
			l-10.304,21.439c-10.013-3.607-21.323-3.758-32.025,0.391c-23.559,9.132-35.255,35.633-26.123,59.192
			c9.132,23.559,35.633,35.255,59.192,26.123c11.183-4.335,19.692-12.583,24.57-22.571L306.779-88.097z"/>
	</g>
	<polyline fill="#FFF794" points="91.917,-43.16 79.442,-22 92,-22 	"/>
	
		<rect x="64.498" y="-78.499" transform="matrix(-0.8687 0.4953 -0.4953 -0.8687 202.5699 -182.6896)" fill="#FFF794" width="121.996" height="27.999"/>
	
		<rect x="77.497" y="-78.499" transform="matrix(-0.8687 0.4953 -0.4953 -0.8687 226.8627 -189.1294)" fill="#E5E133" width="121.998" height="27.999"/>
</g>
<g>
	<g>
		<path fill="#FFF794" d="M454.219-181.103c16.565,3.103,34.309,0.222,49.742-9.445c32.599-20.419,42.545-63.378,22.217-95.951
			s-63.232-42.427-95.832-22.008c-15.229,9.54-25.517,24-30.08,40.021l23.354,4.571c3.123-10.197,9.794-19.366,19.543-25.473
			c21.459-13.44,49.702-6.955,63.084,14.488c13.382,21.442,6.835,49.719-14.624,63.16c-10.188,6.381-21.901,8.271-32.829,6.204
			L454.219-181.103z"/>
		<polyline fill="#FFF794" points="397.599,-253.831 400.266,-268.486 417.071,-272.521 397.599,-253.831 		"/>
		<path fill="#E5E133" stroke="#E5E133" stroke-miterlimit="10" d="M451.552-166.447c16.564,3.104,34.31,0.221,49.741-9.446
			c32.6-20.419,42.547-63.378,22.219-95.951c-20.33-32.572-63.233-42.426-95.834-22.007c-15.229,9.539-25.516,23.998-30.079,40.021
			l23.354,4.571c3.124-10.198,9.795-19.367,19.543-25.474c21.459-13.441,49.702-6.954,63.084,14.488
			c13.382,21.442,6.834,49.72-14.625,63.161c-10.186,6.38-21.9,8.27-32.827,6.202L451.552-166.447z"/>
	</g>
	<polyline fill="#FFF794" points="616.527,-311.968 640.987,-309.34 633.396,-299.192 	"/>
	<polygon fill="#FFF794" points="528.861,-260.537 640.887,-309.414 629.737,-335.117 517.711,-286.237 	"/>
	<polygon fill="#E5E133" points="521.056,-250.102 633.081,-298.979 621.932,-324.683 509.904,-275.803 	"/>
</g>
<g>
	<polygon fill="#21A0ED" points="226.529,496.342 258.563,473.382 226.085,450.832 226.052,450.834 193.648,428.336 
		193.717,428.286 161.239,405.737 161.207,405.74 128.729,383.189 96.821,406.165 96.824,406.238 64.914,429.214 64.958,429.244 
		33.078,452.196 33.081,452.271 1.172,475.246 33.508,497.796 66.017,520.343 66.019,520.341 98.439,542.889 98.439,542.889 
		130.862,565.437 162.914,542.462 162.788,542.375 194.821,519.412 194.705,519.333 226.657,496.43 	"/>
	<g>
		<g>
			<path fill="#0F8CD8" d="M16.299,470.672c0,6.956,7.641,12.597,17.065,12.597c9.426,0,17.065-5.641,17.065-12.597v5.825
				c0,6.955-7.641,12.595-17.065,12.595s-17.065-5.64-17.065-12.595V470.672z"/>
			<ellipse fill="#21A6F7" cx="33.366" cy="470.671" rx="17.066" ry="12.597"/>
		</g>
		<g>
			<path fill="#0F8CD8" d="M48.206,447.621c0,6.957,7.641,12.597,17.066,12.597c9.425,0,17.065-5.64,17.065-12.597v5.826
				c0,6.954-7.641,12.595-17.065,12.595c-9.425,0-17.066-5.641-17.066-12.595V447.621z"/>
			<ellipse fill="#21A6F7" cx="65.272" cy="447.621" rx="17.065" ry="12.597"/>
		</g>
		<g>
			<path fill="#0F8CD8" d="M48.811,493.217c0,6.959,7.639,12.597,17.064,12.597c9.425,0,17.066-5.638,17.066-12.597v5.825
				c0,6.957-7.641,12.597-17.066,12.597c-9.426,0-17.064-5.64-17.064-12.597V493.217L48.811,493.217z"/>
			<ellipse fill="#21A6F7" cx="65.876" cy="493.216" rx="17.065" ry="12.597"/>
		</g>
		<g>
			<path fill="#0F8CD8" d="M80.716,470.169c0,6.957,7.642,12.597,17.065,12.597c9.428,0,17.066-5.64,17.066-12.597v5.825
				c0,6.957-7.64,12.597-17.066,12.597c-9.424,0-17.065-5.64-17.065-12.597V470.169z"/>
			<ellipse fill="#21A6F7" cx="97.782" cy="470.17" rx="17.066" ry="12.596"/>
		</g>
		<g>
			<path fill="#0F8CD8" d="M80.043,424.638c0,6.958,7.64,12.597,17.064,12.597s17.065-5.639,17.065-12.597v5.826
				c0,6.956-7.641,12.597-17.065,12.597s-17.064-5.641-17.064-12.597V424.638z"/>
			<ellipse fill="#21A6F7" cx="97.108" cy="424.638" rx="17.065" ry="12.597"/>
		</g>
		<g>
			<path fill="#0F8CD8" d="M111.95,401.589c0,6.957,7.639,12.595,17.064,12.595c9.426,0,17.066-5.638,17.066-12.595v5.826
				c0,6.956-7.64,12.595-17.066,12.595c-9.425,0-17.064-5.639-17.064-12.595V401.589z"/>
			<ellipse fill="#21A6F7" cx="129.014" cy="401.589" rx="17.066" ry="12.594"/>
		</g>
		<g>
			<path fill="#0F8CD8" d="M112.552,447.185c0,6.957,7.64,12.597,17.065,12.597c9.426,0,17.066-5.64,17.066-12.597v5.826
				c0,6.956-7.641,12.596-17.066,12.596c-9.425,0-17.065-5.641-17.065-12.596V447.185z"/>
			<ellipse fill="#21A6F7" cx="129.618" cy="447.185" rx="17.066" ry="12.597"/>
		</g>
		<g>
			<path fill="#0F8CD8" d="M144.459,424.137c0,6.956,7.64,12.596,17.064,12.596c9.427,0,17.066-5.64,17.066-12.596v5.826
				c0,6.956-7.639,12.595-17.066,12.595c-9.425,0-17.064-5.639-17.064-12.595V424.137z"/>
			<ellipse fill="#21A6F7" cx="161.523" cy="424.136" rx="17.064" ry="12.596"/>
		</g>
	</g>
	<g>
		<g>
			<path fill="#0F8CD8" d="M81.146,515.766c0,6.957,7.639,12.597,17.063,12.597c9.426,0,17.067-5.64,17.067-12.597v5.825
				c0,6.955-7.642,12.597-17.067,12.597c-9.425,0-17.063-5.642-17.063-12.597V515.766z"/>
			<ellipse fill="#21A6F7" cx="98.212" cy="515.765" rx="17.066" ry="12.597"/>
		</g>
		<g>
			<path fill="#0F8CD8" d="M113.052,492.716c0,6.956,7.64,12.595,17.065,12.595c9.425,0,17.065-5.639,17.065-12.595v5.827
				c0,6.954-7.64,12.595-17.065,12.595c-9.425,0-17.065-5.641-17.065-12.595V492.716z"/>
			<ellipse fill="#21A6F7" cx="130.117" cy="492.715" rx="17.065" ry="12.595"/>
		</g>
		<g>
			<path fill="#0F8CD8" d="M113.655,538.312c0,6.957,7.641,12.597,17.065,12.597c9.426,0,17.065-5.64,17.065-12.597v5.825
				c0,6.957-7.641,12.598-17.065,12.598s-17.065-5.641-17.065-12.598V538.312z"/>
			<ellipse fill="#21A6F7" cx="130.72" cy="538.311" rx="17.065" ry="12.597"/>
		</g>
		<g>
			<path fill="#0F8CD8" d="M145.562,515.263c0,6.957,7.64,12.597,17.063,12.597c9.426,0,17.065-5.64,17.065-12.597v5.826
				c0,6.956-7.64,12.597-17.065,12.597c-9.424,0-17.063-5.641-17.063-12.597V515.263z"/>
			<ellipse fill="#21A6F7" cx="162.627" cy="515.263" rx="17.065" ry="12.596"/>
		</g>
		<g>
			<path fill="#0F8CD8" d="M144.888,469.732c0,6.958,7.64,12.597,17.065,12.597c9.425,0,17.065-5.639,17.065-12.597v5.828
				c0,6.953-7.641,12.594-17.065,12.594c-9.425,0-17.065-5.641-17.065-12.594V469.732z"/>
			<ellipse fill="#21A6F7" cx="161.953" cy="469.733" rx="17.065" ry="12.596"/>
		</g>
		<g>
			<path fill="#0F8CD8" d="M176.794,446.685c0,6.957,7.639,12.595,17.064,12.595c9.426,0,17.067-5.638,17.067-12.595v5.824
				c0,6.955-7.641,12.596-17.067,12.596c-9.426,0-17.064-5.641-17.064-12.596V446.685z"/>
			<ellipse fill="#21A6F7" cx="193.86" cy="446.684" rx="17.066" ry="12.596"/>
		</g>
		<g>
			<path fill="#0F8CD8" d="M177.397,492.279c0,6.957,7.641,12.597,17.066,12.597c9.426,0,17.065-5.64,17.065-12.597v5.826
				c0,6.957-7.64,12.595-17.065,12.595c-9.425,0-17.066-5.638-17.066-12.595V492.279z"/>
			<ellipse fill="#21A6F7" cx="194.463" cy="492.279" rx="17.065" ry="12.597"/>
		</g>
		<g>
			<path fill="#0F8CD8" d="M209.304,469.231c0,6.957,7.64,12.596,17.064,12.596c9.426,0,17.066-5.639,17.066-12.596v5.825
				c0,6.956-7.641,12.598-17.066,12.598c-9.425,0-17.064-5.642-17.064-12.598V469.231z"/>
			<ellipse fill="#21A6F7" cx="226.37" cy="469.231" rx="17.065" ry="12.596"/>
		</g>
	</g>
	<polygon fill="#0F8CD8" points="258.436,473.391 258.436,489.764 130.862,581.524 130.862,565.437 	"/>
	<polyline fill="#1B97E2" points="130.862,581.524 130.862,565.437 66.086,520.389 66.086,520.389 1.172,475.328 1.03,492.85 
		65.876,537.942 	"/>
</g>
<g>
	<polygon fill="#25E84A" points="296.987,172.17 329.018,149.209 296.541,126.659 296.509,126.661 264.104,104.164 264.174,104.114 
		231.696,81.565 231.663,81.567 199.185,59.019 167.277,81.993 167.279,82.066 135.371,105.042 135.415,105.073 103.534,128.025 
		103.538,128.099 71.627,151.073 103.963,173.625 136.474,196.171 136.476,196.169 168.895,218.716 168.895,218.716 
		201.317,241.265 233.371,218.29 233.245,218.203 265.278,195.24 265.16,195.161 297.113,172.258 	"/>
	<g>
		<g>
			<path fill="#13D337" d="M86.756,146.499c0,6.957,7.641,12.597,17.065,12.597c9.426,0,17.067-5.64,17.067-12.597v5.825
				c0,6.957-7.641,12.596-17.067,12.596c-9.424,0-17.065-5.64-17.065-12.596V146.499z"/>
			<ellipse fill="#25F251" cx="103.821" cy="146.499" rx="17.066" ry="12.597"/>
		</g>
		<g>
			<path fill="#13D337" d="M118.662,123.45c0,6.957,7.641,12.596,17.067,12.596c9.424,0,17.064-5.64,17.064-12.596v5.825
				c0,6.956-7.64,12.596-17.064,12.596c-9.427,0-17.067-5.641-17.067-12.596V123.45z"/>
			<ellipse fill="#25F251" cx="135.728" cy="123.45" rx="17.066" ry="12.597"/>
		</g>
		<g>
			<path fill="#13D337" d="M119.267,169.044c0,6.958,7.639,12.596,17.064,12.596c9.426,0,17.066-5.638,17.066-12.596v5.826
				c0,6.957-7.641,12.596-17.066,12.596c-9.425,0-17.064-5.639-17.064-12.596V169.044z"/>
			<ellipse fill="#25F251" cx="136.332" cy="169.044" rx="17.065" ry="12.597"/>
		</g>
		<g>
			<path fill="#13D337" d="M151.172,145.997c0,6.956,7.641,12.596,17.065,12.596c9.427,0,17.066-5.64,17.066-12.596v5.825
				c0,6.957-7.639,12.596-17.066,12.596c-9.425,0-17.065-5.64-17.065-12.596V145.997z"/>
			<ellipse fill="#25F251" cx="168.238" cy="145.997" rx="17.066" ry="12.596"/>
		</g>
		<g>
			<path fill="#13D337" d="M150.499,100.465c0,6.958,7.64,12.596,17.066,12.596c9.425,0,17.065-5.638,17.065-12.596v5.827
				c0,6.955-7.64,12.595-17.065,12.595c-9.426,0-17.066-5.64-17.066-12.595V100.465z"/>
			<ellipse fill="#25F251" cx="167.564" cy="100.465" rx="17.065" ry="12.597"/>
		</g>
		<g>
			<path fill="#0F8CD8" d="M182.406,77.418c0,6.958,7.639,12.595,17.064,12.595c9.427,0,17.065-5.637,17.065-12.595v5.825
				c0,6.957-7.638,12.596-17.065,12.596c-9.425,0-17.064-5.64-17.064-12.596V77.418L182.406,77.418z"/>
			<ellipse fill="#21A6F7" cx="199.47" cy="77.418" rx="17.064" ry="12.595"/>
		</g>
		<g>
			<path fill="#0F8CD8" d="M183.008,123.013c0,6.957,7.64,12.597,17.064,12.597c9.426,0,17.067-5.64,17.067-12.597v5.826
				c0,6.955-7.641,12.596-17.067,12.596c-9.425,0-17.064-5.641-17.064-12.596V123.013z"/>
			<ellipse fill="#21A6F7" cx="200.073" cy="123.012" rx="17.066" ry="12.597"/>
		</g>
		<g>
			<path fill="#13D337" d="M214.915,99.964c0,6.957,7.64,12.595,17.064,12.595c9.428,0,17.065-5.639,17.065-12.595v5.826
				c0,6.956-7.638,12.594-17.065,12.594c-9.425,0-17.064-5.639-17.064-12.594V99.964z"/>
			<path fill="#25F251" d="M249.045,99.964c0,6.957-7.638,12.595-17.065,12.595c-9.425,0-17.064-5.639-17.064-12.595
				s7.64-12.596,17.064-12.596C241.407,87.368,249.045,93.008,249.045,99.964z"/>
		</g>
	</g>
	<g>
		<g>
			<path fill="#13D337" d="M151.602,191.592c0,6.958,7.639,12.597,17.063,12.597c9.426,0,17.068-5.639,17.068-12.597v5.827
				c0,6.955-7.642,12.597-17.068,12.597c-9.425,0-17.063-5.642-17.063-12.597V191.592z"/>
			<ellipse fill="#25F251" cx="168.667" cy="191.593" rx="17.066" ry="12.597"/>
		</g>
		<g>
			<path fill="#0F8CD8" d="M183.508,168.544c0,6.958,7.639,12.595,17.064,12.595c9.426,0,17.067-5.638,17.067-12.595v5.827
				c0,6.954-7.641,12.594-17.067,12.594c-9.425,0-17.064-5.641-17.064-12.594V168.544z"/>
			<ellipse fill="#21A6F7" cx="200.573" cy="168.544" rx="17.066" ry="12.596"/>
		</g>
		<g>
			<path fill="#13D337" d="M184.111,214.139c0,6.958,7.64,12.597,17.066,12.597c9.425,0,17.066-5.64,17.066-12.597v5.827
				c0,6.956-7.641,12.597-17.066,12.597c-9.426,0-17.066-5.641-17.066-12.597V214.139z"/>
			<ellipse fill="#25F251" cx="201.177" cy="214.139" rx="17.065" ry="12.597"/>
		</g>
		<g>
			<path fill="#13D337" d="M216.019,191.091c0,6.957,7.639,12.597,17.063,12.597c9.426,0,17.065-5.64,17.065-12.597v5.826
				c0,6.955-7.639,12.596-17.065,12.596c-9.424,0-17.063-5.641-17.063-12.596V191.091z"/>
			<ellipse fill="#25F251" cx="233.083" cy="191.091" rx="17.064" ry="12.597"/>
		</g>
		<g>
			<path fill="#13D337" d="M215.345,145.561c0,6.958,7.639,12.596,17.064,12.596c9.426,0,17.066-5.639,17.066-12.596v5.826
				c0,6.956-7.641,12.597-17.066,12.597c-9.425,0-17.064-5.641-17.064-12.597V145.561z"/>
			<ellipse fill="#25F251" cx="232.409" cy="145.561" rx="17.065" ry="12.596"/>
		</g>
		<g>
			<path fill="#13D337" d="M247.25,122.512c0,6.958,7.639,12.596,17.064,12.596c9.425,0,17.067-5.639,17.067-12.596v5.826
				c0,6.955-7.642,12.595-17.067,12.595c-9.426,0-17.064-5.64-17.064-12.595V122.512z"/>
			<ellipse fill="#25F251" cx="264.316" cy="122.513" rx="17.066" ry="12.596"/>
		</g>
		<g>
			<path fill="#13D337" d="M247.854,168.107c0,6.957,7.64,12.597,17.066,12.597c9.426,0,17.065-5.64,17.065-12.597v5.826
				c0,6.957-7.64,12.596-17.065,12.596c-9.426,0-17.066-5.64-17.066-12.596V168.107z"/>
			<ellipse fill="#25F251" cx="264.92" cy="168.107" rx="17.065" ry="12.597"/>
		</g>
		<g>
			<path fill="#13D337" d="M279.76,145.059c0,6.957,7.641,12.596,17.065,12.596c9.426,0,17.068-5.639,17.068-12.596v5.826
				c0,6.956-7.642,12.597-17.068,12.597c-9.425,0-17.065-5.642-17.065-12.597V145.059z"/>
			<ellipse fill="#25F251" cx="296.827" cy="145.059" rx="17.067" ry="12.596"/>
		</g>
	</g>
	<polygon fill="#13D337" points="328.893,149.22 328.893,165.592 201.317,257.353 201.317,241.265 	"/>
	<polyline fill="#1FDD43" points="201.317,257.353 201.317,241.265 136.542,196.216 136.542,196.216 71.627,151.156 71.487,168.679 
		136.332,213.771 	"/>
</g>
<g>
	<polygon fill="#25DFE8" points="649.661,263.31 681.692,240.35 649.215,217.801 649.183,217.803 616.779,195.305 616.848,195.254 
		584.369,172.707 584.336,172.709 551.858,150.159 519.951,173.134 519.954,173.206 488.045,196.182 488.088,196.214 
		456.208,219.166 456.211,219.239 424.303,242.214 456.639,264.766 489.148,287.312 489.15,287.31 521.569,309.858 521.569,309.858 
		553.992,332.405 586.045,309.431 585.918,309.344 617.952,286.38 617.835,286.301 649.787,263.398 	"/>
	<g>
		<g>
			<path fill="#12D6D6" d="M439.43,237.64c0,6.957,7.642,12.597,17.066,12.597s17.066-5.641,17.066-12.597v5.825
				c0,6.956-7.642,12.595-17.066,12.595s-17.066-5.639-17.066-12.595V237.64z"/>
			<ellipse fill="#25F2F2" cx="456.496" cy="237.64" rx="17.065" ry="12.597"/>
		</g>
		<g>
			<path fill="#12D6D6" d="M471.337,214.59c0,6.958,7.64,12.597,17.065,12.597c9.425,0,17.064-5.64,17.064-12.597v5.826
				c0,6.956-7.64,12.596-17.064,12.596c-9.426,0-17.065-5.641-17.065-12.596V214.59z"/>
			<ellipse fill="#25F2F2" cx="488.401" cy="214.59" rx="17.065" ry="12.597"/>
		</g>
		<g>
			<path fill="#12D6D6" d="M471.94,260.186c0,6.958,7.64,12.597,17.064,12.597c9.426,0,17.067-5.639,17.067-12.597v5.826
				c0,6.957-7.642,12.596-17.067,12.596c-9.425,0-17.064-5.64-17.064-12.596V260.186z"/>
			<ellipse fill="#25F2F2" cx="489.007" cy="260.186" rx="17.065" ry="12.597"/>
		</g>
		<g>
			<path fill="#12D6D6" d="M503.848,237.137c0,6.957,7.64,12.596,17.064,12.596c9.427,0,17.065-5.64,17.065-12.596v5.825
				c0,6.957-7.639,12.595-17.065,12.595c-9.425,0-17.064-5.639-17.064-12.595V237.137z"/>
			<ellipse fill="#25F2F2" cx="520.912" cy="237.137" rx="17.065" ry="12.596"/>
		</g>
		<g>
			<path fill="#12D6D6" d="M503.173,191.605c0,6.958,7.64,12.597,17.065,12.597s17.066-5.639,17.066-12.597v5.827
				c0,6.956-7.641,12.596-17.066,12.596s-17.065-5.641-17.065-12.596V191.605z"/>
			<ellipse fill="#25F2F2" cx="520.238" cy="191.606" rx="17.066" ry="12.597"/>
		</g>
		<g>
			<path fill="#0F8CD8" d="M535.079,168.558c0,6.958,7.64,12.595,17.065,12.595s17.065-5.638,17.065-12.595v5.825
				c0,6.957-7.64,12.596-17.065,12.596s-17.065-5.64-17.065-12.596V168.558L535.079,168.558z"/>
			<ellipse fill="#21A6F7" cx="552.146" cy="168.559" rx="17.064" ry="12.595"/>
		</g>
		<g>
			<path fill="#0F8CD8" d="M535.683,214.154c0,6.958,7.64,12.597,17.065,12.597s17.067-5.639,17.067-12.597v5.826
				c0,6.956-7.642,12.596-17.067,12.596s-17.065-5.641-17.065-12.596V214.154z"/>
			<ellipse fill="#21A6F7" cx="552.748" cy="214.154" rx="17.067" ry="12.597"/>
		</g>
		<g>
			<path fill="#12D6D6" d="M567.589,191.105c0,6.956,7.641,12.596,17.065,12.596c9.427,0,17.065-5.64,17.065-12.596v5.826
				c0,6.956-7.639,12.595-17.065,12.595c-9.425,0-17.065-5.639-17.065-12.595V191.105z"/>
			<path fill="#25F2F2" d="M601.72,191.105c0,6.956-7.639,12.596-17.065,12.596c-9.425,0-17.066-5.64-17.066-12.596
				s7.641-12.596,17.066-12.596C594.081,178.509,601.72,184.148,601.72,191.105z"/>
		</g>
	</g>
	<g>
		<g>
			<path fill="#12D6D6" d="M504.276,282.733c0,6.958,7.64,12.597,17.065,12.597c9.425,0,17.067-5.64,17.067-12.597v5.826
				c0,6.956-7.643,12.598-17.067,12.598c-9.426,0-17.065-5.643-17.065-12.598V282.733z"/>
			<ellipse fill="#25F2F2" cx="521.343" cy="282.733" rx="17.065" ry="12.597"/>
		</g>
		<g>
			<path fill="#0F8CD8" d="M536.183,259.685c0,6.957,7.64,12.596,17.064,12.596s17.066-5.639,17.066-12.596v5.828
				c0,6.954-7.642,12.594-17.066,12.594s-17.064-5.64-17.064-12.594V259.685z"/>
			<ellipse fill="#21A6F7" cx="553.248" cy="259.685" rx="17.065" ry="12.596"/>
		</g>
		<g>
			<path fill="#12D6D6" d="M536.785,305.28c0,6.958,7.641,12.598,17.065,12.598c9.427,0,17.068-5.64,17.068-12.598v5.825
				c0,6.958-7.642,12.597-17.068,12.597c-9.425,0-17.065-5.64-17.065-12.597V305.28z"/>
			<ellipse fill="#25F2F2" cx="553.851" cy="305.281" rx="17.066" ry="12.597"/>
		</g>
		<g>
			<path fill="#12D6D6" d="M568.693,282.23c0,6.958,7.639,12.597,17.063,12.597c9.427,0,17.066-5.64,17.066-12.597v5.826
				c0,6.956-7.64,12.597-17.066,12.597c-9.425,0-17.063-5.641-17.063-12.597V282.23z"/>
			<ellipse fill="#25F2F2" cx="585.759" cy="282.231" rx="17.064" ry="12.597"/>
		</g>
		<g>
			<path fill="#12D6D6" d="M568.019,236.702c0,6.958,7.639,12.596,17.064,12.596c9.427,0,17.066-5.638,17.066-12.596v5.826
				c0,6.955-7.641,12.596-17.066,12.596s-17.064-5.641-17.064-12.596V236.702z"/>
			<ellipse fill="#25F2F2" cx="585.084" cy="236.701" rx="17.065" ry="12.596"/>
		</g>
		<g>
			<path fill="#12D6D6" d="M599.925,213.653c0,6.958,7.64,12.596,17.066,12.596c9.425,0,17.066-5.638,17.066-12.596v5.825
				c0,6.956-7.642,12.596-17.066,12.596c-9.427,0-17.066-5.641-17.066-12.596V213.653z"/>
			<ellipse fill="#25F2F2" cx="616.991" cy="213.653" rx="17.066" ry="12.596"/>
		</g>
		<g>
			<path fill="#12D6D6" d="M600.528,259.249c0,6.957,7.64,12.597,17.065,12.597s17.065-5.64,17.065-12.597v5.826
				c0,6.956-7.64,12.596-17.065,12.596s-17.065-5.64-17.065-12.596V259.249z"/>
			<ellipse fill="#25F2F2" cx="617.594" cy="259.249" rx="17.065" ry="12.597"/>
		</g>
		<g>
			<path fill="#12D6D6" d="M632.434,236.2c0,6.956,7.642,12.596,17.066,12.596c9.426,0,17.067-5.64,17.067-12.596v5.826
				c0,6.956-7.642,12.597-17.067,12.597c-9.425,0-17.066-5.642-17.066-12.597V236.2z"/>
			<ellipse fill="#25F2F2" cx="649.501" cy="236.2" rx="17.066" ry="12.596"/>
		</g>
	</g>
	<polygon fill="#12D6D6" points="681.566,240.359 681.566,256.732 553.992,348.493 553.992,332.405 	"/>
	<polyline fill="#1EE0E0" points="553.992,348.493 553.992,332.405 489.216,287.357 489.216,287.357 424.303,242.296 
		424.161,259.819 489.007,304.912 	"/>
</g>
<g>
	<polygon fill="#EA2424" points="599.558,573.537 631.589,550.577 599.112,528.027 599.08,528.029 566.677,505.531 566.746,505.482 
		534.267,482.935 534.234,482.937 501.757,460.387 469.849,483.361 469.853,483.434 437.941,506.408 437.985,506.44 
		406.105,529.392 406.109,529.467 374.201,552.441 406.534,574.991 439.045,597.539 439.047,597.537 471.466,620.084 
		471.466,620.084 503.89,642.632 535.941,619.658 535.815,619.57 567.85,596.608 567.732,596.529 599.685,573.625 	"/>
	<g>
		<g>
			<path fill="#D61212" d="M389.327,547.866c0,6.957,7.64,12.597,17.066,12.597c9.425,0,17.065-5.64,17.065-12.597v5.825
				c0,6.958-7.641,12.597-17.065,12.597c-9.427,0-17.066-5.639-17.066-12.597V547.866z"/>
			<ellipse fill="#F42222" cx="406.394" cy="547.866" rx="17.064" ry="12.597"/>
		</g>
		<g>
			<path fill="#D61212" d="M421.233,524.816c0,6.958,7.641,12.597,17.066,12.597c9.424,0,17.064-5.639,17.064-12.597v5.827
				c0,6.956-7.641,12.596-17.064,12.596c-9.426,0-17.066-5.64-17.066-12.596V524.816z"/>
			<ellipse fill="#F42222" cx="438.299" cy="524.817" rx="17.065" ry="12.596"/>
		</g>
		<g>
			<path fill="#D61212" d="M421.838,570.411c0,6.959,7.639,12.597,17.065,12.597c9.425,0,17.065-5.638,17.065-12.597v5.828
				c0,6.954-7.641,12.594-17.065,12.594c-9.427,0-17.065-5.64-17.065-12.594V570.411z"/>
			<ellipse fill="#F42222" cx="438.904" cy="570.411" rx="17.064" ry="12.597"/>
		</g>
		<g>
			<path fill="#D61212" d="M453.744,547.364c0,6.957,7.641,12.596,17.065,12.596c9.426,0,17.065-5.639,17.065-12.596v5.825
				c0,6.957-7.64,12.596-17.065,12.596c-9.425,0-17.065-5.639-17.065-12.596V547.364z"/>
			<ellipse fill="#F42222" cx="470.81" cy="547.363" rx="17.065" ry="12.597"/>
		</g>
		<g>
			<path fill="#D61212" d="M453.069,501.833c0,6.958,7.641,12.597,17.066,12.597s17.065-5.639,17.065-12.597v5.827
				c0,6.956-7.64,12.596-17.065,12.596s-17.066-5.64-17.066-12.596V501.833z"/>
			<ellipse fill="#F42222" cx="470.136" cy="501.833" rx="17.065" ry="12.597"/>
		</g>
		<g>
			<path fill="#0F8CD8" d="M484.978,478.786c0,6.958,7.638,12.596,17.064,12.596c9.426,0,17.064-5.638,17.064-12.596v5.824
				c0,6.956-7.639,12.596-17.064,12.596c-9.427,0-17.064-5.64-17.064-12.596V478.786z"/>
			<ellipse fill="#21A6F7" cx="502.042" cy="478.787" rx="17.063" ry="12.595"/>
		</g>
		<g>
			<path fill="#0F8CD8" d="M485.579,524.381c0,6.958,7.641,12.598,17.065,12.598c9.427,0,17.067-5.64,17.067-12.598v5.826
				c0,6.955-7.641,12.597-17.067,12.597c-9.425,0-17.065-5.642-17.065-12.597V524.381z"/>
			<ellipse fill="#21A6F7" cx="502.645" cy="524.382" rx="17.066" ry="12.597"/>
		</g>
		<g>
			<path fill="#D61212" d="M517.487,501.332c0,6.956,7.639,12.596,17.063,12.596c9.428,0,17.065-5.64,17.065-12.596v5.826
				c0,6.955-7.638,12.595-17.065,12.595c-9.425,0-17.063-5.64-17.063-12.595V501.332z"/>
			<path fill="#F42222" d="M551.616,501.332c0,6.956-7.638,12.596-17.065,12.596c-9.425,0-17.063-5.64-17.063-12.596
				s7.639-12.596,17.063-12.596C543.979,488.736,551.616,494.376,551.616,501.332z"/>
		</g>
	</g>
	<g>
		<g>
			<path fill="#D61212" d="M454.174,592.959c0,6.958,7.638,12.598,17.063,12.598s17.067-5.64,17.067-12.598v5.828
				c0,6.955-7.642,12.597-17.067,12.597s-17.063-5.642-17.063-12.597V592.959z"/>
			<ellipse fill="#F42222" cx="471.239" cy="592.959" rx="17.065" ry="12.598"/>
		</g>
		<g>
			<path fill="#0F8CD8" d="M486.08,569.912c0,6.958,7.639,12.596,17.064,12.596c9.425,0,17.065-5.638,17.065-12.596v5.826
				c0,6.954-7.641,12.596-17.065,12.596c-9.426,0-17.064-5.642-17.064-12.596V569.912z"/>
			<ellipse fill="#21A6F7" cx="503.146" cy="569.913" rx="17.064" ry="12.595"/>
		</g>
		<g>
			<path fill="#D61212" d="M486.682,615.507c0,6.957,7.641,12.597,17.065,12.597c9.428,0,17.068-5.64,17.068-12.597v5.825
				c0,6.957-7.641,12.597-17.068,12.597c-9.425,0-17.065-5.64-17.065-12.597V615.507z"/>
			<ellipse fill="#F42222" cx="503.747" cy="615.507" rx="17.067" ry="12.597"/>
		</g>
		<g>
			<path fill="#D61212" d="M518.591,592.458c0,6.957,7.638,12.597,17.064,12.597c9.425,0,17.064-5.64,17.064-12.597v5.826
				c0,6.956-7.64,12.595-17.064,12.595c-9.427,0-17.064-5.639-17.064-12.595V592.458z"/>
			<ellipse fill="#F42222" cx="535.655" cy="592.458" rx="17.063" ry="12.597"/>
		</g>
		<g>
			<path fill="#D61212" d="M517.915,546.93c0,6.956,7.64,12.593,17.064,12.593c9.427,0,17.068-5.637,17.068-12.593v5.824
				c0,6.956-7.642,12.598-17.068,12.598c-9.425,0-17.064-5.642-17.064-12.598V546.93L517.915,546.93z"/>
			<ellipse fill="#F42222" cx="534.98" cy="546.928" rx="17.067" ry="12.594"/>
		</g>
		<g>
			<path fill="#D61212" d="M549.822,523.879c0,6.958,7.639,12.598,17.065,12.598c9.426,0,17.066-5.64,17.066-12.598v5.825
				c0,6.956-7.641,12.598-17.066,12.598c-9.427,0-17.065-5.642-17.065-12.598V523.879z"/>
			<ellipse fill="#F42222" cx="566.888" cy="523.88" rx="17.065" ry="12.597"/>
		</g>
		<g>
			<path fill="#D61212" d="M550.425,569.475c0,6.957,7.641,12.597,17.065,12.597c9.426,0,17.066-5.64,17.066-12.597v5.828
				c0,6.955-7.641,12.595-17.066,12.595c-9.425,0-17.065-5.64-17.065-12.595V569.475z"/>
			<ellipse fill="#F42222" cx="567.49" cy="569.475" rx="17.066" ry="12.596"/>
		</g>
		<g>
			<path fill="#D61212" d="M582.33,546.427c0,6.955,7.642,12.595,17.066,12.595c9.427,0,17.067-5.64,17.067-12.595v5.825
				c0,6.954-7.641,12.596-17.067,12.596c-9.425,0-17.066-5.642-17.066-12.596V546.427z"/>
			<ellipse fill="#F42222" cx="599.397" cy="546.426" rx="17.066" ry="12.595"/>
		</g>
	</g>
	<polygon fill="#D61212" points="631.464,550.586 631.464,566.959 503.89,658.721 503.89,642.632 	"/>
	<polyline fill="#E01E1E" points="503.89,658.721 503.89,642.632 439.113,597.585 439.113,597.585 374.201,552.522 374.059,570.046 
		438.904,615.139 	"/>
</g>
<g>
	<g>
		<g>
			<polygon fill="#BCBCBC" points="163.816,461.474 131.347,437.224 131.313,437.228 95.761,462.164 129.689,487.148 			"/>
			<g>
				<g>
					<path fill="#999999" d="M112.074,458.237c0,7.482,8.216,13.547,18.351,13.547s18.352-6.065,18.352-13.547v6.266
						c0,7.481-8.217,13.545-18.352,13.545c-10.136,0-18.351-6.064-18.351-13.545V458.237z"/>
					<ellipse fill="#CCCCCC" cx="130.425" cy="458.238" rx="18.352" ry="13.546"/>
				</g>
			</g>
		</g>
		<polygon fill="#829E0D" points="163.816,461.474 129.689,487.148 95.761,462.164 95.761,495.028 129.812,518.279 163.816,490.222 
					"/>
		<polygon fill="#9B9B9B" points="129.812,518.279 163.816,490.222 163.816,461.474 129.689,487.148 		"/>
		<polygon fill="#AFAFAF" points="95.761,462.164 95.761,495.028 129.812,518.279 129.689,487.148 		"/>
	</g>
	<g>
		<g>
			<polygon fill="#545454" points="163.718,430.342 131.249,406.095 131.213,406.098 95.663,431.033 129.59,456.019 			"/>
			<g>
				<g>
					<path fill="#333333" d="M111.975,427.108c0,7.481,8.216,13.544,18.351,13.544s18.351-6.063,18.351-13.544v6.264
						c0,7.481-8.216,13.547-18.351,13.547s-18.351-6.065-18.351-13.547V427.108z"/>
					<ellipse fill="#666666" cx="130.327" cy="427.108" rx="18.351" ry="13.544"/>
				</g>
			</g>
		</g>
		<polygon fill="#333333" points="129.713,487.148 163.816,461.474 163.718,430.342 129.59,456.019 		"/>
		<polygon fill="#474747" points="95.663,431.033 95.761,462.164 129.713,487.148 129.59,456.019 		"/>
	</g>
	<g>
		<g>
			<polygon fill="#BCBCBC" points="163.681,417.166 131.211,392.918 131.175,392.92 95.624,417.856 129.554,442.842 			"/>
			<g>
				<g>
					<path fill="#999999" d="M111.939,413.931c0,7.483,8.214,13.546,18.349,13.546c10.136,0,18.353-6.063,18.353-13.546v6.266
						c0,7.481-8.217,13.545-18.353,13.545c-10.135,0-18.349-6.064-18.349-13.545V413.931z"/>
					<ellipse fill="#CCCCCC" cx="130.29" cy="413.931" rx="18.352" ry="13.545"/>
				</g>
			</g>
		</g>
		<polygon fill="#9B9B9B" points="129.675,473.972 163.78,448.298 163.681,417.166 129.554,442.842 		"/>
		<polygon fill="#AFAFAF" points="95.624,417.856 95.725,448.987 129.675,473.972 129.554,442.842 		"/>
	</g>
	<g>
		<g>
			<polygon fill="#545454" points="163.652,403.797 131.182,379.547 131.147,379.549 95.596,404.485 129.525,429.472 			"/>
			<g>
				<g>
					<path fill="#333333" d="M111.909,400.561c0,7.483,8.217,13.545,18.35,13.545c10.136,0,18.352-6.062,18.352-13.545v6.265
						c0,7.482-8.216,13.546-18.352,13.546c-10.134,0-18.35-6.064-18.35-13.546V400.561z"/>
					<ellipse fill="#666666" cx="130.26" cy="400.561" rx="18.352" ry="13.545"/>
				</g>
			</g>
		</g>
		<polygon fill="#333333" points="129.648,460.603 163.751,434.926 163.652,403.797 129.525,429.472 		"/>
		<polygon fill="#474747" points="95.596,404.485 95.695,435.617 129.648,460.603 129.525,429.472 		"/>
	</g>
	<g>
		<g>
			<polygon fill="#BCBCBC" points="163.61,390.567 131.141,366.318 131.105,366.321 95.554,391.258 129.482,416.244 			"/>
			<g>
				<g>
					<path fill="#999999" d="M111.867,387.332c0,7.483,8.216,13.545,18.35,13.545c10.136,0,18.352-6.062,18.352-13.545v6.265
						c0,7.481-8.216,13.545-18.352,13.545c-10.134,0-18.35-6.064-18.35-13.545V387.332L111.867,387.332z"/>
					<ellipse fill="#CCCCCC" cx="130.218" cy="387.332" rx="18.352" ry="13.545"/>
				</g>
			</g>
		</g>
		<polygon fill="#9B9B9B" points="129.606,447.373 163.709,421.698 163.61,390.567 129.482,416.244 		"/>
		<polygon fill="#AFAFAF" points="95.554,391.258 95.653,422.389 129.606,447.373 129.482,416.244 		"/>
	</g>
</g>
<g>
	<g>
		<g>
			<polygon fill="#BCBCBC" points="234.273,137.301 201.803,113.053 201.769,113.056 166.216,137.991 200.146,162.976 			"/>
			<g>
				<g>
					<path fill="#999999" d="M182.529,134.067c0,7.482,8.216,13.545,18.353,13.545c10.135,0,18.352-6.064,18.352-13.545v6.265
						c0,7.481-8.217,13.544-18.352,13.544c-10.137,0-18.353-6.064-18.353-13.544L182.529,134.067L182.529,134.067z"/>
					<ellipse fill="#CCCCCC" cx="200.882" cy="134.066" rx="18.352" ry="13.546"/>
				</g>
			</g>
		</g>
		<polygon fill="#829E0D" points="234.273,137.301 200.146,162.976 166.216,137.991 166.216,170.857 200.269,194.107 
			234.273,166.049 		"/>
		<polygon fill="#9B9B9B" points="200.269,194.107 234.273,166.049 234.273,137.301 200.146,162.976 		"/>
		<polygon fill="#AFAFAF" points="166.216,137.991 166.216,170.857 200.269,194.107 200.146,162.976 		"/>
	</g>
	<g>
		<g>
			<polygon fill="#545454" points="234.175,106.171 201.704,81.921 201.669,81.925 166.12,106.862 200.047,131.847 			"/>
			<g>
				<g>
					<path fill="#333333" d="M182.431,102.936c0,7.482,8.216,13.544,18.352,13.544c10.134,0,18.351-6.063,18.351-13.544v6.265
						c0,7.481-8.217,13.546-18.351,13.546c-10.136,0-18.352-6.065-18.352-13.546V102.936z"/>
					<ellipse fill="#666666" cx="200.783" cy="102.936" rx="18.351" ry="13.544"/>
				</g>
			</g>
		</g>
		<polygon fill="#333333" points="200.169,162.976 234.273,137.301 234.175,106.171 200.047,131.847 		"/>
		<polygon fill="#474747" points="166.12,106.862 166.216,137.991 200.169,162.976 200.047,131.847 		"/>
	</g>
	<g>
		<g>
			<polygon fill="#BCBCBC" points="234.137,92.994 201.667,68.745 201.632,68.748 166.081,93.685 200.011,118.67 			"/>
			<g>
				<g>
					<path fill="#999999" d="M182.395,89.759c0,7.483,8.215,13.546,18.351,13.546c10.136,0,18.351-6.063,18.351-13.546v6.266
						c0,7.48-8.215,13.544-18.351,13.544c-10.136,0-18.351-6.065-18.351-13.544V89.759z"/>
					<ellipse fill="#CCCCCC" cx="200.747" cy="89.759" rx="18.35" ry="13.546"/>
				</g>
			</g>
		</g>
		<polygon fill="#9B9B9B" points="200.131,149.8 234.237,124.125 234.137,92.994 200.011,118.67 		"/>
		<polygon fill="#AFAFAF" points="166.081,93.685 166.18,124.815 200.131,149.8 200.011,118.67 		"/>
	</g>
	<g>
		<g>
			<polygon fill="#545454" points="234.107,79.624 201.638,55.375 201.604,55.378 166.052,80.313 199.98,105.3 			"/>
			<g>
				<g>
					<path fill="#333333" d="M182.365,76.389c0,7.482,8.216,13.545,18.351,13.545c10.136,0,18.352-6.064,18.352-13.545v6.264
						c0,7.482-8.215,13.546-18.352,13.546c-10.135,0-18.351-6.065-18.351-13.546V76.389L182.365,76.389z"/>
					<ellipse fill="#666666" cx="200.716" cy="76.389" rx="18.352" ry="13.545"/>
				</g>
			</g>
		</g>
		<polygon fill="#333333" points="200.104,136.429 234.207,110.754 234.107,79.624 199.98,105.3 		"/>
		<polygon fill="#474747" points="166.052,80.313 166.152,111.444 200.104,136.429 199.98,105.3 		"/>
	</g>
	<g>
		<g>
			<polygon fill="#BCBCBC" points="234.066,66.395 201.596,42.147 201.562,42.15 166.011,67.085 199.939,92.071 			"/>
			<g>
				<g>
					<path fill="#999999" d="M182.323,63.161c0,7.483,8.217,13.544,18.352,13.544c10.136,0,18.352-6.062,18.352-13.544v6.264
						c0,7.482-8.216,13.546-18.352,13.546c-10.135,0-18.352-6.064-18.352-13.546V63.161L182.323,63.161z"/>
					<ellipse fill="#CCCCCC" cx="200.675" cy="63.161" rx="18.352" ry="13.544"/>
				</g>
			</g>
		</g>
		<polygon fill="#9B9B9B" points="200.062,123.2 234.166,97.527 234.066,66.395 199.939,92.071 		"/>
		<polygon fill="#AFAFAF" points="166.011,67.085 166.11,98.217 200.062,123.2 199.939,92.071 		"/>
	</g>
</g>
<g>
	<g>
		<g>
			<polygon fill="#BCBCBC" points="586.946,228.442 554.478,204.193 554.443,204.196 518.892,229.133 552.82,254.117 			"/>
			<g>
				<g>
					<path fill="#999999" d="M535.204,225.207c0,7.482,8.217,13.545,18.352,13.545c10.136,0,18.352-6.064,18.352-13.545v6.266
						c0,7.48-8.216,13.544-18.352,13.544c-10.135,0-18.352-6.065-18.352-13.544V225.207z"/>
					<ellipse fill="#CCCCCC" cx="553.556" cy="225.207" rx="18.352" ry="13.546"/>
				</g>
			</g>
		</g>
		<polygon fill="#829E0D" points="586.946,228.442 552.82,254.117 518.892,229.133 518.892,261.998 552.942,285.248 
			586.946,257.189 		"/>
		<polygon fill="#9B9B9B" points="552.942,285.248 586.946,257.189 586.946,228.442 552.82,254.117 		"/>
		<polygon fill="#AFAFAF" points="518.892,229.133 518.892,261.998 552.942,285.248 552.82,254.117 		"/>
	</g>
	<g>
		<g>
			<polygon fill="#545454" points="586.849,197.311 554.378,173.063 554.345,173.066 518.793,198.002 552.721,222.987 			"/>
			<g>
				<g>
					<path fill="#333333" d="M535.106,194.078c0,7.482,8.215,13.543,18.353,13.543c10.134,0,18.351-6.063,18.351-13.543v6.264
						c0,7.48-8.217,13.546-18.351,13.546c-10.138,0-18.353-6.065-18.353-13.546V194.078L535.106,194.078z"/>
					<ellipse fill="#666666" cx="553.459" cy="194.077" rx="18.351" ry="13.544"/>
				</g>
			</g>
		</g>
		<polygon fill="#333333" points="552.844,254.117 586.946,228.442 586.849,197.311 552.721,222.987 		"/>
		<polygon fill="#474747" points="518.793,198.002 518.892,229.133 552.844,254.117 552.721,222.987 		"/>
	</g>
	<g>
		<g>
			<polygon fill="#BCBCBC" points="586.812,184.134 554.341,159.885 554.308,159.889 518.756,184.825 552.685,209.81 			"/>
			<g>
				<g>
					<path fill="#999999" d="M535.069,180.899c0,7.483,8.214,13.546,18.351,13.546c10.136,0,18.352-6.064,18.352-13.546v6.266
						c0,7.48-8.216,13.544-18.352,13.544c-10.137,0-18.351-6.065-18.351-13.544V180.899L535.069,180.899z"/>
					<ellipse fill="#CCCCCC" cx="553.421" cy="180.899" rx="18.351" ry="13.546"/>
				</g>
			</g>
		</g>
		<polygon fill="#9B9B9B" points="552.805,240.94 586.913,215.267 586.812,184.134 552.685,209.81 		"/>
		<polygon fill="#AFAFAF" points="518.756,184.825 518.854,215.956 552.805,240.94 552.685,209.81 		"/>
	</g>
	<g>
		<g>
			<polygon fill="#545454" points="586.782,170.765 554.312,146.516 554.277,146.519 518.727,171.454 552.656,196.44 			"/>
			<g>
				<g>
					<path fill="#333333" d="M535.039,167.53c0,7.482,8.217,13.544,18.352,13.544c10.136,0,18.352-6.064,18.352-13.544v6.264
						c0,7.482-8.216,13.545-18.352,13.545c-10.135,0-18.352-6.065-18.352-13.545V167.53L535.039,167.53z"/>
					<ellipse fill="#666666" cx="553.391" cy="167.529" rx="18.352" ry="13.545"/>
				</g>
			</g>
		</g>
		<polygon fill="#333333" points="552.778,227.571 586.881,201.895 586.782,170.765 552.656,196.44 		"/>
		<polygon fill="#474747" points="518.727,171.454 518.827,202.585 552.778,227.571 552.656,196.44 		"/>
	</g>
	<g>
		<g>
			<polygon fill="#BCBCBC" points="586.741,157.536 554.271,133.287 554.236,133.291 518.685,158.228 552.615,183.212 			"/>
			<g>
				<g>
					<path fill="#999999" d="M534.997,154.301c0,7.483,8.217,13.545,18.352,13.545c10.137,0,18.353-6.063,18.353-13.545v6.264
						c0,7.482-8.216,13.546-18.353,13.546c-10.135,0-18.352-6.065-18.352-13.546V154.301z"/>
					<ellipse fill="#CCCCCC" cx="553.349" cy="154.301" rx="18.353" ry="13.545"/>
				</g>
			</g>
		</g>
		<polygon fill="#9B9B9B" points="552.737,214.342 586.841,188.667 586.741,157.536 552.615,183.212 		"/>
		<polygon fill="#AFAFAF" points="518.685,158.228 518.784,189.356 552.737,214.342 552.615,183.212 		"/>
	</g>
</g>
<g>
	<g>
		<g>
			<polygon fill="#BCBCBC" points="536.844,538.669 504.374,514.421 504.341,514.423 468.788,539.358 502.717,564.343 			"/>
			<g>
				<g>
					<path fill="#999999" d="M485.101,535.434c0,7.482,8.217,13.547,18.354,13.547c10.134,0,18.351-6.065,18.351-13.547v6.266
						c0,7.481-8.217,13.546-18.351,13.546c-10.137,0-18.354-6.065-18.354-13.546V535.434L485.101,535.434z"/>
					<ellipse fill="#CCCCCC" cx="503.454" cy="535.433" rx="18.351" ry="13.547"/>
				</g>
			</g>
		</g>
		<polygon fill="#829E0D" points="536.844,538.669 502.717,564.343 468.788,539.358 468.788,572.224 502.84,595.475 
			536.844,567.417 		"/>
		<polygon fill="#9B9B9B" points="502.84,595.475 536.844,567.417 536.844,538.669 502.717,564.343 		"/>
		<polygon fill="#AFAFAF" points="468.788,539.358 468.788,572.224 502.84,595.475 502.717,564.343 		"/>
	</g>
	<g>
		<g>
			<polygon fill="#545454" points="536.746,507.537 504.274,483.29 504.242,483.292 468.69,508.229 502.618,533.214 			"/>
			<g>
				<g>
					<path fill="#333333" d="M485.003,504.304c0,7.482,8.216,13.543,18.353,13.543c10.135,0,18.352-6.062,18.352-13.543v6.264
						c0,7.48-8.217,13.546-18.352,13.546c-10.137,0-18.353-6.065-18.353-13.546V504.304z"/>
					<ellipse fill="#666666" cx="503.354" cy="504.303" rx="18.352" ry="13.544"/>
				</g>
			</g>
		</g>
		<polygon fill="#333333" points="502.74,564.343 536.844,538.669 536.746,507.537 502.618,533.214 		"/>
		<polygon fill="#474747" points="468.69,508.229 468.788,539.358 502.74,564.343 502.618,533.214 		"/>
	</g>
	<g>
		<g>
			<polygon fill="#BCBCBC" points="536.708,494.361 504.24,470.112 504.204,470.116 468.652,495.052 502.581,520.036 			"/>
			<g>
				<g>
					<path fill="#999999" d="M484.967,491.127c0,7.482,8.214,13.545,18.351,13.545c10.135,0,18.351-6.063,18.351-13.545v6.264
						c0,7.481-8.216,13.545-18.351,13.545c-10.137,0-18.351-6.064-18.351-13.545V491.127z"/>
					<ellipse fill="#CCCCCC" cx="503.318" cy="491.127" rx="18.35" ry="13.545"/>
				</g>
			</g>
		</g>
		<polygon fill="#9B9B9B" points="502.702,551.167 536.808,525.493 536.708,494.361 502.581,520.036 		"/>
		<polygon fill="#AFAFAF" points="468.652,495.052 468.752,526.183 502.702,551.167 502.581,520.036 		"/>
	</g>
	<g>
		<g>
			<polygon fill="#545454" points="536.68,480.991 504.209,456.741 504.175,456.746 468.624,481.681 502.553,506.667 			"/>
			<g>
				<g>
					<path fill="#333333" d="M484.937,477.757c0,7.48,8.216,13.546,18.351,13.546c10.137,0,18.353-6.066,18.353-13.546v6.265
						c0,7.48-8.216,13.545-18.353,13.545c-10.135,0-18.351-6.065-18.351-13.545V477.757z"/>
					<ellipse fill="#666666" cx="503.287" cy="477.757" rx="18.353" ry="13.545"/>
				</g>
			</g>
		</g>
		<polygon fill="#333333" points="502.676,537.797 536.778,512.121 536.68,480.991 502.553,506.667 		"/>
		<polygon fill="#474747" points="468.624,481.681 468.724,512.812 502.676,537.797 502.553,506.667 		"/>
	</g>
	<g>
		<g>
			<polygon fill="#BCBCBC" points="536.638,467.763 504.168,443.514 504.133,443.518 468.581,468.454 502.512,493.438 			"/>
			<g>
				<g>
					<path fill="#999999" d="M484.895,464.528c0,7.483,8.217,13.546,18.352,13.546c10.136,0,18.352-6.063,18.352-13.546v6.265
						c0,7.481-8.216,13.545-18.352,13.545c-10.135,0-18.352-6.064-18.352-13.545V464.528z"/>
					<ellipse fill="#CCCCCC" cx="503.246" cy="464.529" rx="18.352" ry="13.545"/>
				</g>
			</g>
		</g>
		<polygon fill="#9B9B9B" points="502.634,524.568 536.737,498.895 536.638,467.763 502.512,493.438 		"/>
		<polygon fill="#AFAFAF" points="468.581,468.454 468.682,499.584 502.634,524.568 502.512,493.438 		"/>
	</g>
</g>
<linearGradient id="SVGID_6_" gradientUnits="userSpaceOnUse" x1="438.5625" y1="152.4375" x2="460.2718" y2="186.2707" gradientTransform="matrix(1.1372 -1.5918 -0.8137 -0.5813 212.2931 1426.9976)">
	<stop  offset="0.075" style="stop-color:#FFFFFF;stop-opacity:0"/>
	<stop  offset="0.17" style="stop-color:#F9F9F9;stop-opacity:0.1026"/>
	<stop  offset="0.2912" style="stop-color:#EAEAEA;stop-opacity:0.2337"/>
	<stop  offset="0.4267" style="stop-color:#CFCFCF;stop-opacity:0.3802"/>
	<stop  offset="0.5727" style="stop-color:#ABABAB;stop-opacity:0.5381"/>
	<stop  offset="0.7272" style="stop-color:#7C7C7C;stop-opacity:0.705"/>
	<stop  offset="0.8861" style="stop-color:#434343;stop-opacity:0.8768"/>
	<stop  offset="1" style="stop-color:#161616"/>
</linearGradient>
<polygon fill="url(#SVGID_6_)" points="668.627,594.029 542.919,686.242 503.89,658.721 631.464,566.959 "/>
<linearGradient id="SVGID_7_" gradientUnits="userSpaceOnUse" x1="359.9238" y1="500.875" x2="381.5773" y2="534.621" gradientTransform="matrix(1.1372 -1.5918 -0.8137 -0.5813 212.2931 1426.9976)">
	<stop  offset="0.075" style="stop-color:#FFFFFF;stop-opacity:0"/>
	<stop  offset="0.17" style="stop-color:#F9F9F9;stop-opacity:0.1026"/>
	<stop  offset="0.2912" style="stop-color:#EAEAEA;stop-opacity:0.2337"/>
	<stop  offset="0.4267" style="stop-color:#CFCFCF;stop-opacity:0.3802"/>
	<stop  offset="0.5727" style="stop-color:#ABABAB;stop-opacity:0.5381"/>
	<stop  offset="0.7272" style="stop-color:#7C7C7C;stop-opacity:0.705"/>
	<stop  offset="0.8861" style="stop-color:#434343;stop-opacity:0.8768"/>
	<stop  offset="1" style="stop-color:#161616"/>
</linearGradient>
<polygon fill="url(#SVGID_7_)" points="295.75,516.414 168.977,609.694 130.862,581.524 258.436,489.764 "/>
<linearGradient id="SVGID_8_" gradientUnits="userSpaceOnUse" x1="515.8867" y1="632.4326" x2="537.1957" y2="665.642" gradientTransform="matrix(1.1372 -1.5918 -0.8137 -0.5813 212.2931 1426.9976)">
	<stop  offset="0.075" style="stop-color:#FFFFFF;stop-opacity:0"/>
	<stop  offset="0.17" style="stop-color:#F9F9F9;stop-opacity:0.1026"/>
	<stop  offset="0.2912" style="stop-color:#EAEAEA;stop-opacity:0.2337"/>
	<stop  offset="0.4267" style="stop-color:#CFCFCF;stop-opacity:0.3802"/>
	<stop  offset="0.5727" style="stop-color:#ABABAB;stop-opacity:0.5381"/>
	<stop  offset="0.7272" style="stop-color:#7C7C7C;stop-opacity:0.705"/>
	<stop  offset="0.8861" style="stop-color:#434343;stop-opacity:0.8768"/>
	<stop  offset="1" style="stop-color:#161616"/>
</linearGradient>
<polygon fill="url(#SVGID_8_)" points="365.94,191.545 239.167,284.825 201.317,257.353 328.893,165.592 "/>
<linearGradient id="SVGID_9_" gradientUnits="userSpaceOnUse" x1="582.6104" y1="292.3755" x2="604.0485" y2="325.7862" gradientTransform="matrix(1.1372 -1.5918 -0.8137 -0.5813 212.2931 1426.9976)">
	<stop  offset="0.075" style="stop-color:#FFFFFF;stop-opacity:0"/>
	<stop  offset="0.17" style="stop-color:#F9F9F9;stop-opacity:0.1026"/>
	<stop  offset="0.2912" style="stop-color:#EAEAEA;stop-opacity:0.2337"/>
	<stop  offset="0.4267" style="stop-color:#CFCFCF;stop-opacity:0.3802"/>
	<stop  offset="0.5727" style="stop-color:#ABABAB;stop-opacity:0.5381"/>
	<stop  offset="0.7272" style="stop-color:#7C7C7C;stop-opacity:0.705"/>
	<stop  offset="0.8861" style="stop-color:#434343;stop-opacity:0.8768"/>
	<stop  offset="1" style="stop-color:#161616"/>
</linearGradient>
<polygon fill="url(#SVGID_9_)" points="718.423,283.165 591.648,376.443 553.992,348.493 681.566,256.732 "/>
<line fill="none" stroke="#00A907" stroke-width="6" stroke-miterlimit="10" stroke-dasharray="10" x1="200.716" y1="62.844" x2="132.207" y2="383.147"/>
<line fill="none" stroke="#00A907" stroke-width="6" stroke-miterlimit="10" stroke-dasharray="10" x1="200.716" y1="62.844" x2="552.146" y2="155.964"/>
<line fill="none" stroke="#BF3400" stroke-width="6" stroke-miterlimit="10" stroke-dasharray="10" x1="132.207" y1="383.147" x2="508.554" y2="465.104"/>
<line fill="none" stroke="#00A907" stroke-width="6" stroke-miterlimit="10" stroke-dasharray="10" x1="553.391" y1="153.984" x2="130.26" y2="387.016"/>
<line fill="none" stroke="#BF3400" stroke-width="6" stroke-miterlimit="10" stroke-dasharray="10" x1="553.391" y1="153.984" x2="509.102" y2="456.636"/>
<line fill="none" stroke="#BF3400" stroke-width="6" stroke-miterlimit="10" stroke-dasharray="10" x1="200.716" y1="62.844" x2="508.554" y2="465.104"/>
</svg>
