<?xml version="1.0" encoding="utf-8"?>
<!-- Generator: Adobe Illustrator 16.0.4, SVG Export Plug-In . SVG Version: 6.00 Build 0)  -->
<!DOCTYPE svg PUBLIC "-//W3C//DTD SVG 1.1//EN" "http://www.w3.org/Graphics/SVG/1.1/DTD/svg11.dtd">
<svg version="1.1" id="Layer_1" xmlns="http://www.w3.org/2000/svg" xmlns:xlink="http://www.w3.org/1999/xlink" x="0px" y="0px"
	 width="720px" height="720px" viewBox="0 0 720 720" enable-background="new 0 0 720 720" xml:space="preserve">
<g>
	<g display="none">
		<polygon display="inline" fill="#FFE947" points="380.499,531.596 325.587,492.466 325.53,492.471 268.487,534.823 
			323.753,575.521 		"/>
		<g display="inline">
			<g>
				<path fill="#C5A707" d="M295.059,528.43c0,12.188,13.384,22.063,29.892,22.063c16.51,0,29.893-9.876,29.893-22.063v10.204
					c0,12.186-13.383,22.063-29.893,22.063c-16.508,0-29.892-9.878-29.892-22.063V528.43z"/>
				<ellipse fill="#FDF151" cx="324.951" cy="528.43" rx="29.892" ry="22.063"/>
			</g>
		</g>
	</g>
	<polygon display="none" fill="#D8B732" points="380.499,531.596 323.753,575.521 268.487,534.823 268.487,588.357 323.952,626.229 
		379.341,580.525 	"/>
	<polygon fill="#BFBFBF" points="371.952,607.617 428.499,566.162 428.499,512.984 371.753,556.91 	"/>
	<polygon fill="#CECECE" points="316.487,516.212 316.487,569.746 371.952,607.617 371.753,556.91 	"/>
</g>
<g>
	<g display="none">
		<polygon display="inline" fill="#F9531F" points="435.688,442.136 378.801,402.638 378.744,402.642 321.859,363.146 
			265.965,403.386 265.972,403.517 210.08,443.761 266.716,483.257 267.024,483.255 323.662,522.751 379.803,482.507 
			379.58,482.354 		"/>
		<g display="inline">
			<path fill="#DB2F0E" d="M236.578,435.745c0,12.188,13.381,22.063,29.89,22.063c16.512,0,29.894-9.875,29.894-22.063v10.205
				c0,12.185-13.382,22.062-29.894,22.062c-16.509,0-29.89-9.878-29.89-22.062V435.745z"/>
			<path fill="#FF5A2C" d="M296.361,435.745c0,12.188-13.382,22.063-29.894,22.063c-16.509,0-29.89-9.875-29.89-22.063
				c0-12.184,13.381-22.062,29.89-22.062C282.979,413.683,296.361,423.562,296.361,435.745z"/>
		</g>
		<g display="inline">
			<path fill="#DB2F0E" d="M292.464,395.372c0,12.188,13.382,22.064,29.891,22.064c16.511,0,29.893-9.877,29.893-22.064v10.205
				c0,12.184-13.382,22.062-29.893,22.062c-16.509,0-29.891-9.879-29.891-22.062V395.372z"/>
			<ellipse fill="#FF5A2C" cx="322.356" cy="395.372" rx="29.892" ry="22.064"/>
		</g>
		<g display="inline">
			<path fill="#DB2F0E" d="M293.521,475.237c0,12.189,13.382,22.066,29.892,22.066s29.892-9.877,29.892-22.066v10.205
				c0,12.186-13.382,22.064-29.892,22.064s-29.892-9.879-29.892-22.064V475.237z"/>
			<ellipse fill="#FF5A2C" cx="323.413" cy="475.237" rx="29.892" ry="22.066"/>
		</g>
		<g display="inline">
			<g>
				<path fill="#DB2F0E" d="M349.409,434.866c0,12.188,13.38,22.065,29.89,22.065s29.893-9.878,29.893-22.065v10.205
					c0,12.185-13.383,22.062-29.893,22.062s-29.89-9.877-29.89-22.062V434.866z"/>
				<ellipse fill="#FF5A2C" cx="379.3" cy="434.866" rx="29.891" ry="22.065"/>
			</g>
		</g>
	</g>
	<polygon display="none" fill="#E84318" points="323.747,522.751 210.08,443.761 210.08,496.757 323.747,575.481 435.688,494.021 
		435.688,442.136 	"/>
	<polygon fill="#C9C9C9" points="483.688,423.524 483.688,475.409 371.746,556.87 371.746,556.155 371.746,504.14 	"/>
	<polygon fill="#E0E0E0" points="258.08,425.149 258.08,478.146 371.746,556.87 371.746,504.14 	"/>
</g>
<g>
	<g>
		<polyline fill="#F4F4F4" points="258.464,400.049 314.069,438.828 369.188,399.318 369.039,399.215 424.021,359.805 
			424.015,359.799 479.003,320.38 423.279,281.691 423.521,281.516 367.673,242.739 312.797,282.248 312.575,282.253 
			257.702,321.761 257.703,321.945 257.446,321.766 202.572,361.275 258.18,400.053 		"/>
		<g>
			<path fill="#C4C4C4" d="M228.817,353.406c0,11.967,13.141,21.664,29.348,21.664c16.211,0,29.348-9.697,29.348-21.664v10.02
				c0,11.961-13.137,21.662-29.348,21.662c-16.207,0-29.348-9.701-29.348-21.662V353.406z"/>
			<ellipse fill="#FCFCFC" cx="258.165" cy="353.406" rx="29.348" ry="21.664"/>
		</g>
		<g display="none">
			<path display="inline" fill="#0850B2" d="M236.726,410.793c0,11.965,13.139,21.662,29.347,21.662
				c16.207,0,29.349-9.697,29.349-21.662v10.018c0,11.963-13.142,21.66-29.349,21.66c-16.208,0-29.347-9.697-29.347-21.66V410.793z"
				/>
			<ellipse display="inline" fill="#4E8BF5" cx="266.073" cy="410.793" rx="29.348" ry="21.662"/>
		</g>
		<g display="none">
			<path display="inline" fill="#0850B2" d="M235.567,332.496c0,11.965,13.138,21.662,29.346,21.662s29.348-9.697,29.348-21.662
				v10.018c0,11.963-13.14,21.663-29.348,21.663s-29.346-9.7-29.346-21.663V332.496z"/>
			<ellipse display="inline" fill="#4E8BF5" cx="264.914" cy="332.496" rx="29.347" ry="21.662"/>
		</g>
		<g display="none">
			<path display="inline" fill="#0850B2" d="M290.437,292.857c0,11.966,13.137,21.664,29.346,21.664
				c16.208,0,29.348-9.698,29.348-21.664v10.019c0,11.964-13.14,21.663-29.348,21.663c-16.209,0-29.346-9.699-29.346-21.663V292.857
				z"/>
			<ellipse display="inline" fill="#4E8BF5" cx="319.783" cy="292.857" rx="29.347" ry="21.664"/>
		</g>
		<g>
			<path fill="#0850B2" d="M339.473,352.656c0,11.967,13.138,21.664,29.345,21.664c16.211,0,29.351-9.697,29.351-21.664v10.02
				c0,11.963-13.14,21.66-29.351,21.66c-16.207,0-29.345-9.697-29.345-21.66V352.656z"/>
		</g>
		<g display="none">
			<g display="inline">
				<path fill="#0850B2" d="M346.342,331.632c0,11.964,13.139,21.662,29.346,21.662c16.21,0,29.349-9.698,29.349-21.662v10.018
					c0,11.963-13.139,21.661-29.349,21.661c-16.207,0-29.346-9.698-29.346-21.661V331.632z"/>
				<ellipse fill="#4E8BF5" cx="375.689" cy="331.632" rx="29.347" ry="21.662"/>
			</g>
		</g>
	</g>
	<polygon fill="#EDEDED" points="314.315,438.828 202.803,361.373 202.803,390.639 314.006,463.613 479.05,371.312 479.05,320.246 	
		"/>
</g>
<g>
	<g>
		<polyline fill="#F4F4F4" points="536.406,359.61 481,321.061 480.879,320.979 425.029,282.201 370.154,321.71 369.932,321.716 
			315.059,361.224 315.06,361.407 314.803,361.229 259.929,400.738 315.537,439.516 315.818,439.314 315.821,439.512 
			371.672,478.291 426.545,438.781 		"/>
		<g>
			<path fill="#C4C4C4" d="M286.174,393.16c0,11.967,13.141,21.664,29.348,21.664c16.211,0,29.348-9.697,29.348-21.664v10.02
				c0,11.961-13.137,21.662-29.348,21.662c-16.207,0-29.348-9.701-29.348-21.662V393.16z"/>
			<ellipse fill="#FCFCFC" cx="315.522" cy="393.16" rx="29.348" ry="21.664"/>
		</g>
		<g>
			<path fill="#C4C4C4" d="M342.083,431.936c0,11.965,13.139,21.662,29.347,21.662c16.207,0,29.348-9.697,29.348-21.662v10.018
				c0,11.963-13.141,21.66-29.348,21.66c-16.208,0-29.347-9.697-29.347-21.66V431.936z"/>
			<ellipse fill="#FCFCFC" cx="371.43" cy="431.936" rx="29.347" ry="21.662"/>
		</g>
		<g display="none">
			<path display="inline" fill="#0850B2" d="M292.924,372.249c0,11.965,13.138,21.662,29.346,21.662s29.348-9.697,29.348-21.662
				v10.018c0,11.963-13.14,21.663-29.348,21.663s-29.346-9.7-29.346-21.663V372.249z"/>
			<ellipse display="inline" fill="#4E8BF5" cx="322.271" cy="372.249" rx="29.347" ry="21.662"/>
		</g>
		<g display="none">
			<path display="inline" fill="#0850B2" d="M347.793,332.61c0,11.966,13.137,21.664,29.345,21.664
				c16.209,0,29.348-9.698,29.348-21.664v10.019c0,11.964-13.139,21.663-29.348,21.663c-16.208,0-29.345-9.699-29.345-21.663V332.61
				z"/>
			<ellipse display="inline" fill="#4E8BF5" cx="377.14" cy="332.61" rx="29.346" ry="21.664"/>
		</g>
		<g>
			<g>
				<g>
					<path fill="#C4C4C4" d="M396.83,392.41c0,11.967,13.137,21.664,29.344,21.664c16.211,0,29.352-9.697,29.352-21.664v10.02
						c0,11.963-13.141,21.66-29.352,21.66c-16.207,0-29.344-9.697-29.344-21.66V392.41z"/>
				</g>
			</g>
		</g>
		<g>
			<g>
				<path fill="#C4C4C4" d="M451.699,352.774c0,11.964,13.139,21.662,29.346,21.662c16.209,0,29.348-9.698,29.348-21.662v10.018
					c0,11.963-13.139,21.661-29.348,21.661c-16.207,0-29.346-9.698-29.346-21.661V352.774z"/>
				<ellipse fill="#FCFCFC" cx="481.046" cy="352.774" rx="29.347" ry="21.662"/>
			</g>
		</g>
	</g>
	<polyline fill="#EDEDED" points="371.672,504.26 536.406,384.678 536.406,359.61 371.672,478.193 259.929,401.127 259.929,428.127 
			"/>
	<polygon fill="#D6D6D6" points="536.406,359.582 536.406,384.649 371.672,504.231 371.672,478.165 	"/>
	<polyline fill="#EDEDED" points="259.929,425.134 371.672,504.26 371.672,478.582 	"/>
</g>
<g>
	<g>
		<polygon fill="#F4F4F4" points="480.003,268.559 423.116,229.061 423.06,229.064 366.174,189.567 310.28,229.809 310.287,229.939 
			254.395,270.183 311.031,309.679 311.339,309.677 367.977,349.173 424.117,308.929 423.896,308.777 		"/>
		<g>
			<path fill="#C4C4C4" d="M280.893,262.168c0,12.188,13.381,22.063,29.89,22.063c16.512,0,29.894-9.875,29.894-22.063v10.204
				c0,12.185-13.382,22.064-29.894,22.064c-16.509,0-29.89-9.879-29.89-22.064V262.168z"/>
			<path fill="#FCFCFC" d="M340.676,262.168c0,12.188-13.382,22.063-29.894,22.063c-16.509,0-29.89-9.875-29.89-22.063
				c0-12.185,13.381-22.063,29.89-22.063C327.294,240.104,340.676,249.983,340.676,262.168z"/>
		</g>
		<g display="none">
			<path display="inline" fill="#DB2F0E" d="M288.779,240.406c0,12.188,13.382,22.064,29.891,22.064
				c16.511,0,29.893-9.877,29.893-22.064v10.205c0,12.184-13.382,22.062-29.893,22.062c-16.509,0-29.891-9.879-29.891-22.062
				V240.406z"/>
			<ellipse display="inline" fill="#FF5A2C" cx="318.671" cy="240.406" rx="29.892" ry="22.064"/>
		</g>
		<g>
			<path fill="#C4C4C4" d="M337.836,301.661c0,12.188,13.382,22.065,29.892,22.065s29.892-9.877,29.892-22.065v10.204
				c0,12.186-13.382,22.064-29.892,22.064s-29.892-9.879-29.892-22.064V301.661z"/>
			<ellipse fill="#FCFCFC" cx="367.728" cy="301.661" rx="29.892" ry="22.065"/>
		</g>
		<g>
			<g>
				<path fill="#C4C4C4" d="M393.724,261.289c0,12.188,13.381,22.065,29.891,22.065s29.892-9.877,29.892-22.065v10.204
					c0,12.185-13.382,22.062-29.892,22.062s-29.891-9.877-29.891-22.062V261.289z"/>
				<ellipse fill="#FCFCFC" cx="423.615" cy="261.289" rx="29.891" ry="22.065"/>
			</g>
		</g>
	</g>
	<polygon display="none" fill="#E84318" points="320.062,367.784 206.395,288.794 206.395,341.791 320.062,420.515 432.003,339.054 
		432.003,287.17 	"/>
	<polygon fill="#D6D6D6" points="480.003,268.559 480.003,320.443 368.062,401.903 368.062,401.188 368.062,349.173 	"/>
	<polygon fill="#EDEDED" points="254.395,270.183 254.395,323.179 368.062,401.903 368.062,349.173 	"/>
</g>
<g>
	<g>
		<polygon fill="#F4F4F4" points="424.067,175.551 369.155,136.421 369.099,136.426 309.13,176.556 367.321,219.476 		"/>
		<g>
			<g>
				<path fill="#C4C4C4" d="M338.627,166.385c0,12.188,13.384,22.063,29.892,22.063c16.51,0,29.893-9.876,29.893-22.063v10.204
					c0,12.186-13.383,22.063-29.893,22.063c-16.508,0-29.892-9.878-29.892-22.063V166.385z"/>
				<ellipse fill="#FCFCFC" cx="368.519" cy="166.385" rx="29.892" ry="22.063"/>
			</g>
		</g>
	</g>
	<polygon display="none" fill="#D8B732" points="376.067,194.162 319.321,238.087 264.056,197.39 264.056,250.924 319.521,288.794 
		374.909,243.092 	"/>
	<polygon fill="#D6D6D6" points="367.521,270.183 423.643,229.426 424.067,175.551 367.321,219.476 	"/>
	<polygon fill="#EDEDED" points="309.13,176.556 309.13,230.773 367.521,270.183 367.321,219.476 	"/>
</g>
<ellipse fill="#FCFCFC" cx="426.177" cy="392.409" rx="29.347" ry="21.664"/>
</svg>
