<?xml version="1.0" encoding="utf-8"?>
<!-- Generator: Adobe Illustrator 16.0.4, SVG Export Plug-In . SVG Version: 6.00 Build 0)  -->
<!DOCTYPE svg PUBLIC "-//W3C//DTD SVG 1.1//EN" "http://www.w3.org/Graphics/SVG/1.1/DTD/svg11.dtd">
<svg version="1.1" id="Layer_1" xmlns="http://www.w3.org/2000/svg" xmlns:xlink="http://www.w3.org/1999/xlink" x="0px" y="0px"
	 width="720px" height="720px" viewBox="0 0 720 720" enable-background="new 0 0 720 720" xml:space="preserve">
<linearGradient id="SVGID_1_" gradientUnits="userSpaceOnUse" x1="360.6445" y1="0.3955" x2="360.6445" y2="810.6674">
	<stop  offset="0" style="stop-color:#00A1DE"/>
	<stop  offset="1" style="stop-color:#002776"/>
</linearGradient>
<path fill="url(#SVGID_1_)" d="M566.57,718.847H154.72c-28.247,0-51.228-22.98-51.228-51.226V51.623
	c0-28.247,22.98-51.227,51.228-51.227H566.57c28.246,0,51.227,22.98,51.227,51.227v615.999
	C617.797,695.866,594.816,718.847,566.57,718.847z M154.72,23.296c-15.619,0-28.327,12.707-28.327,28.326v615.999
	c0,15.618,12.708,28.324,28.327,28.324H566.57c15.619,0,28.325-12.706,28.325-28.324V51.623c0-15.62-12.706-28.326-28.325-28.326
	H154.72z M510.197,345.155 M237.797,348.359c0-32.072,12.491-62.229,35.172-84.907c22.678-22.681,52.833-35.172,84.906-35.172
	c32.469,0,63.238,13.038,85.774,36.052h-14.778c-2.299,0-4.159,1.863-4.159,4.16s1.86,4.16,4.159,4.16h26.62
	c2.297,0,4.161-1.863,4.161-4.16v-26.621c0-2.3-1.864-4.16-4.161-4.16c-2.294,0-4.158,1.859-4.158,4.16v18.444
	c-24.238-25.733-57.896-40.354-93.458-40.354c-34.296,0-66.54,13.357-90.792,37.605c-24.249,24.253-37.606,56.496-37.606,90.793
	c0,22.57,5.939,44.766,17.175,64.192c0.77,1.333,2.167,2.078,3.605,2.078c0.706,0,1.421-0.181,2.076-0.56
	c1.988-1.149,2.671-3.692,1.52-5.684C243.349,390.225,237.797,369.466,237.797,348.359L237.797,348.359z M237.797,348.359
	 M469.092,284.153c-1.148-1.99-3.694-2.67-5.683-1.519c-1.991,1.151-2.668,3.696-1.519,5.685
	c10.51,18.167,16.062,38.927,16.062,60.041c0,32.076-12.489,62.228-35.169,84.909c-22.68,22.68-52.833,35.169-84.909,35.169
	c-32.444,0-63.231-13.044-85.765-36.052h14.773c2.297,0,4.16-1.858,4.16-4.159c0-2.298-1.863-4.159-4.16-4.159h-26.625
	c-2.296,0-4.16,1.861-4.16,4.159v26.624c0,2.297,1.863,4.16,4.16,4.16c2.3,0,4.16-1.863,4.16-4.16v-18.448
	c24.238,25.728,57.92,40.356,93.457,40.356c34.297,0,66.541-13.355,90.795-37.608c24.249-24.252,37.604-56.494,37.604-90.791
	C486.273,325.787,480.333,303.581,469.092,284.153L469.092,284.153z M469.092,284.153 M394.025,324.682 M420.943,307.513
	l-64.049,98.019h-0.08l-0.903,1.575l-2.04,1.47l-0.491,0.328l-3.354,1.384l-1.056,0.328h-2.863l-1.962-0.328l-1.871-0.728
	l-1.637-0.656l-0.901-0.901l-0.407-0.241l-37.34-34.562c-4.738-4.352-5.065-11.766-0.654-16.523
	c4.412-4.718,11.766-5.046,16.503-0.634l27.048,24.999l56.451-86.353c3.597-5.392,10.784-6.863,16.261-3.353
	C422.991,294.854,424.539,302.12,420.943,307.513L420.943,307.513z"/>
</svg>
