<?xml version="1.0" encoding="utf-8"?>
<!-- Generator: Adobe Illustrator 16.0.4, SVG Export Plug-In . SVG Version: 6.00 Build 0)  -->
<!DOCTYPE svg PUBLIC "-//W3C//DTD SVG 1.1//EN" "http://www.w3.org/Graphics/SVG/1.1/DTD/svg11.dtd">
<svg version="1.1" id="Layer_1" xmlns="http://www.w3.org/2000/svg" xmlns:xlink="http://www.w3.org/1999/xlink" x="0px" y="0px"
	 width="720px" height="720px" viewBox="0 0 720 720" enable-background="new 0 0 720 720" xml:space="preserve">
<g>
	<g>
		<g>
			<polygon fill="#BCBCBC" points="1109.533,433.846 1035.809,378.785 1035.73,378.791 955.006,435.412 1032.043,492.145 			"/>
			<g>
				<g>
					<path fill="#999999" d="M992.045,426.5c0,16.988,18.655,30.758,41.671,30.758s41.671-13.77,41.671-30.758v14.225
						c0,16.986-18.655,30.758-41.671,30.758s-41.671-13.771-41.671-30.758V426.5L992.045,426.5z"/>
					<ellipse fill="#CCCCCC" cx="1033.716" cy="426.5" rx="41.67" ry="30.758"/>
				</g>
			</g>
		</g>
		<polygon fill="#829E0D" points="1109.533,433.846 1032.043,492.145 955.006,435.412 955.006,510.039 1032.324,562.83 
			1109.533,499.121 		"/>
		<polygon fill="#9B9B9B" points="1032.324,562.83 1109.533,499.121 1109.533,433.846 1032.043,492.145 		"/>
		<polygon fill="#AFAFAF" points="955.006,435.412 955.006,510.039 1032.324,562.83 1032.043,492.145 		"/>
	</g>
	<g>
		<g>
			<polygon fill="#545454" points="1109.311,363.158 1035.583,308.099 1035.504,308.106 954.779,364.727 1031.82,421.459 			"/>
			<g>
				<g>
					<path fill="#333333" d="M991.821,355.814c0,16.991,18.655,30.756,41.668,30.756c23.015,0,41.67-13.766,41.67-30.756v14.223
						c0,16.988-18.655,30.758-41.67,30.758c-23.013,0-41.668-13.77-41.668-30.758V355.814z"/>
					<path fill="#666666" d="M1075.159,355.814c0,16.991-18.655,30.756-41.67,30.756c-23.013,0-41.668-13.766-41.668-30.756
						c0-16.987,18.655-30.755,41.668-30.755C1056.504,325.058,1075.159,338.827,1075.159,355.814z"/>
				</g>
			</g>
		</g>
		<polygon fill="#333333" points="1032.098,492.145 1109.533,433.846 1109.311,363.158 1031.82,421.459 		"/>
		<polygon fill="#474747" points="954.779,364.727 955.006,435.412 1032.098,492.145 1031.82,421.459 		"/>
	</g>
	<g>
		<g>
			<polygon fill="#BCBCBC" points="1109.226,333.24 1035.498,278.179 1035.42,278.186 954.695,334.807 1031.735,391.539 			"/>
			<g>
				<g>
					<path fill="#999999" d="M991.737,325.894c0,16.99,18.655,30.757,41.667,30.757c23.016,0,41.671-13.767,41.671-30.757v14.225
						c0,16.987-18.655,30.756-41.671,30.756c-23.012,0-41.667-13.77-41.667-30.756V325.894z"/>
					<path fill="#CCCCCC" d="M1075.075,325.894c0,16.99-18.655,30.757-41.671,30.757c-23.012,0-41.667-13.767-41.667-30.757
						c0-16.987,18.655-30.755,41.667-30.755C1056.42,295.139,1075.075,308.907,1075.075,325.894z"/>
				</g>
			</g>
		</g>
		<polygon fill="#9B9B9B" points="1032.014,462.227 1109.451,403.926 1109.226,333.24 1031.735,391.539 		"/>
		<polygon fill="#AFAFAF" points="954.695,334.807 954.922,405.492 1032.014,462.227 1031.735,391.539 		"/>
	</g>
	<g>
		<g>
			<polygon fill="#545454" points="1109.16,302.881 1035.434,247.821 1035.354,247.827 954.629,304.448 1031.672,361.18 			"/>
			<g>
				<g>
					<path fill="#333333" d="M991.672,295.535c0,16.99,18.656,30.757,41.669,30.757c23.015,0,41.67-13.767,41.67-30.757v14.225
						c0,16.986-18.655,30.756-41.67,30.756c-23.013,0-41.669-13.77-41.669-30.756V295.535z"/>
					<path fill="#666666" d="M1075.01,295.535c0,16.99-18.655,30.757-41.67,30.757c-23.013,0-41.67-13.767-41.67-30.757
						c0-16.986,18.657-30.755,41.67-30.755C1056.354,264.78,1075.01,278.549,1075.01,295.535z"/>
				</g>
			</g>
		</g>
		<polygon fill="#333333" points="1031.948,431.865 1109.385,373.566 1109.16,302.881 1031.672,361.18 		"/>
		<polygon fill="#474747" points="954.629,304.448 954.856,375.135 1031.948,431.865 1031.672,361.18 		"/>
	</g>
	<g>
		<g>
			<polygon fill="#BCBCBC" points="1109.065,272.845 1035.338,217.784 1035.259,217.791 954.534,274.411 1031.574,331.144 			"/>
			<g>
				<g>
					<path fill="#999999" d="M991.576,265.498c0,16.99,18.656,30.757,41.668,30.757c23.016,0,41.671-13.767,41.671-30.757v14.225
						c0,16.987-18.655,30.757-41.671,30.757c-23.012,0-41.668-13.771-41.668-30.757V265.498z"/>
					<path fill="#CCCCCC" d="M1074.915,265.498c0,16.99-18.655,30.757-41.671,30.757c-23.012,0-41.668-13.767-41.668-30.757
						c0-16.986,18.656-30.755,41.668-30.755C1056.259,234.743,1074.915,248.512,1074.915,265.498z"/>
				</g>
			</g>
		</g>
		<polygon fill="#9B9B9B" points="1031.854,401.828 1109.292,343.53 1109.065,272.845 1031.574,331.144 		"/>
		<polygon fill="#AFAFAF" points="954.534,274.411 954.76,345.097 1031.854,401.828 1031.574,331.144 		"/>
	</g>
</g>
<g>
	<g>
		<g>
			<polygon fill="#BCBCBC" points="1588.929,672.725 1515.204,617.664 1515.125,617.67 1434.4,674.291 1511.438,731.023 			"/>
			<g>
				<g>
					<path fill="#999999" d="M1471.439,665.379c0,16.989,18.657,30.757,41.672,30.757s41.671-13.768,41.671-30.757v14.225
						c0,16.986-18.656,30.757-41.671,30.757s-41.672-13.771-41.672-30.757V665.379z"/>
					<ellipse fill="#CCCCCC" cx="1513.11" cy="665.379" rx="41.671" ry="30.757"/>
				</g>
			</g>
		</g>
		<polygon fill="#829E0D" points="1588.929,672.725 1511.438,731.023 1434.4,674.291 1434.4,748.918 1511.72,801.71 
			1588.929,738.001 		"/>
		<polygon fill="#9B9B9B" points="1511.72,801.71 1588.929,738.001 1588.929,672.725 1511.438,731.023 		"/>
		<polygon fill="#AFAFAF" points="1434.4,674.291 1434.4,748.918 1511.72,801.71 1511.438,731.023 		"/>
	</g>
	<g>
		<g>
			<polygon fill="#545454" points="1588.706,602.039 1514.979,546.978 1514.899,546.985 1434.175,603.604 1511.216,660.337 			"/>
			<g>
				<g>
					<path fill="#333333" d="M1471.216,594.692c0,16.99,18.657,30.757,41.668,30.757c23.016,0,41.671-13.767,41.671-30.757v14.225
						c0,16.986-18.656,30.757-41.671,30.757c-23.012,0-41.668-13.771-41.668-30.757V594.692z"/>
					<path fill="#666666" d="M1554.556,594.692c0,16.99-18.656,30.757-41.671,30.757c-23.012,0-41.668-13.767-41.668-30.757
						c0-16.986,18.657-30.756,41.668-30.756C1535.899,563.937,1554.556,577.706,1554.556,594.692z"/>
				</g>
			</g>
		</g>
		<polygon fill="#333333" points="1511.494,731.023 1588.929,672.725 1588.706,602.039 1511.216,660.337 		"/>
		<polygon fill="#474747" points="1434.175,603.604 1434.4,674.291 1511.494,731.023 1511.216,660.337 		"/>
	</g>
	<g>
		<g>
			<polygon fill="#BCBCBC" points="1588.621,572.119 1514.895,517.058 1514.815,517.065 1434.09,573.687 1511.132,630.418 			"/>
			<g>
				<g>
					<path fill="#999999" d="M1471.132,564.772c0,16.99,18.656,30.757,41.667,30.757c23.016,0,41.671-13.767,41.671-30.757v14.226
						c0,16.985-18.655,30.756-41.671,30.756c-23.011,0-41.667-13.771-41.667-30.756V564.772z"/>
					<path fill="#CCCCCC" d="M1554.471,564.772c0,16.99-18.655,30.757-41.671,30.757c-23.011,0-41.667-13.767-41.667-30.757
						c0-16.986,18.656-30.754,41.667-30.754C1535.815,534.019,1554.471,547.787,1554.471,564.772z"/>
				</g>
			</g>
		</g>
		<polygon fill="#9B9B9B" points="1511.409,701.104 1588.847,642.806 1588.621,572.119 1511.132,630.418 		"/>
		<polygon fill="#AFAFAF" points="1434.09,573.687 1434.316,644.371 1511.409,701.104 1511.132,630.418 		"/>
	</g>
	<g>
		<g>
			<polygon fill="#545454" points="1588.556,541.76 1514.828,486.699 1514.75,486.706 1434.025,543.327 1511.065,600.06 			"/>
			<g>
				<g>
					<path fill="#333333" d="M1471.066,534.414c0,16.989,18.656,30.756,41.667,30.756c23.016,0,41.673-13.767,41.673-30.756v14.226
						c0,16.985-18.657,30.756-41.673,30.756c-23.012,0-41.667-13.771-41.667-30.756V534.414z"/>
					<path fill="#666666" d="M1554.406,534.414c0,16.989-18.657,30.756-41.673,30.756c-23.012,0-41.667-13.767-41.667-30.756
						c0-16.987,18.656-30.755,41.667-30.755C1535.749,503.659,1554.406,517.427,1554.406,534.414z"/>
				</g>
			</g>
		</g>
		<polygon fill="#333333" points="1511.343,670.744 1588.78,612.446 1588.556,541.76 1511.065,600.06 		"/>
		<polygon fill="#474747" points="1434.025,543.327 1434.251,614.013 1511.343,670.744 1511.065,600.06 		"/>
	</g>
	<g>
		<g>
			<polygon fill="#BCBCBC" points="1588.46,511.724 1514.733,456.663 1514.655,456.669 1433.93,513.29 1510.971,570.022 			"/>
			<g>
				<g>
					<path fill="#999999" d="M1470.972,504.377c0,16.99,18.655,30.757,41.667,30.757c23.016,0,41.67-13.767,41.67-30.757v14.226
						c0,16.986-18.654,30.756-41.67,30.756c-23.012,0-41.667-13.771-41.667-30.756V504.377L1470.972,504.377z"/>
					<path fill="#CCCCCC" d="M1554.31,504.377c0,16.99-18.654,30.757-41.67,30.757c-23.012,0-41.667-13.767-41.667-30.757
						c0-16.987,18.655-30.755,41.667-30.755C1535.654,473.623,1554.31,487.392,1554.31,504.377z"/>
				</g>
			</g>
		</g>
		<polygon fill="#9B9B9B" points="1511.248,640.709 1588.687,582.409 1588.46,511.724 1510.971,570.022 		"/>
		<polygon fill="#AFAFAF" points="1433.93,513.29 1434.156,583.978 1511.248,640.709 1510.971,570.022 		"/>
	</g>
</g>
<g>
	<g>
		<polygon fill="#BCBCBC" points="1401.016,765.42 1327.291,710.359 1327.212,710.367 1246.488,766.987 1323.525,823.719 		"/>
		<g>
			<g>
				<path fill="#999999" d="M1283.527,758.074c0,16.989,18.656,30.757,41.67,30.757s41.67-13.769,41.67-30.757V772.3
					c0,16.986-18.655,30.756-41.67,30.756c-23.016,0-41.67-13.77-41.67-30.756V758.074z"/>
				<ellipse fill="#CCCCCC" cx="1325.197" cy="758.074" rx="41.672" ry="30.757"/>
			</g>
		</g>
	</g>
	<polygon fill="#829E0D" points="1401.016,765.42 1323.525,823.719 1246.488,766.987 1246.488,841.613 1323.806,894.405 
		1401.016,830.696 	"/>
	<polygon fill="#9B9B9B" points="1323.806,894.405 1401.016,830.696 1401.016,765.42 1323.525,823.719 	"/>
	<polygon fill="#AFAFAF" points="1246.488,766.987 1246.488,841.613 1323.806,894.405 1323.525,823.719 	"/>
</g>
<g>
	<g>
		<polygon fill="#545454" points="1400.793,694.733 1327.064,639.674 1326.986,639.681 1246.262,696.301 1323.302,753.033 		"/>
		<g>
			<g>
				<path fill="#333333" d="M1283.304,687.39c0,16.988,18.655,30.755,41.668,30.755c23.015,0,41.671-13.767,41.671-30.755v14.225
					c0,16.985-18.656,30.757-41.671,30.757c-23.013,0-41.668-13.771-41.668-30.757V687.39z"/>
				<path fill="#666666" d="M1366.643,687.39c0,16.988-18.656,30.755-41.671,30.755c-23.013,0-41.668-13.767-41.668-30.755
					s18.655-30.757,41.668-30.757C1347.986,656.633,1366.643,670.401,1366.643,687.39z"/>
			</g>
		</g>
	</g>
	<polygon fill="#333333" points="1323.58,823.719 1401.016,765.42 1400.793,694.733 1323.302,753.033 	"/>
	<polygon fill="#474747" points="1246.262,696.301 1246.488,766.987 1323.58,823.719 1323.302,753.033 	"/>
</g>
<g>
	<g>
		<polygon fill="#545454" points="1416.83,1007.356 1343.104,952.296 1343.025,952.302 1262.3,1008.923 1339.341,1065.655 		"/>
		<g>
			<g>
				<path fill="#333333" d="M1299.342,1000.009c0,16.99,18.656,30.758,41.668,30.758c23.016,0,41.671-13.768,41.671-30.758v14.226
					c0,16.987-18.655,30.758-41.671,30.758c-23.012,0-41.668-13.771-41.668-30.758V1000.009z"/>
				<ellipse fill="#666666" cx="1341.011" cy="1000.01" rx="41.669" ry="30.757"/>
			</g>
		</g>
	</g>
	<polygon fill="#333333" points="1339.617,1136.341 1417.055,1078.042 1416.83,1007.356 1339.341,1065.655 	"/>
	<polygon fill="#474747" points="1262.3,1008.923 1262.525,1079.609 1339.617,1136.341 1339.341,1065.655 	"/>
</g>
<g>
	<g>
		<polygon fill="#BCBCBC" points="1400.547,604.419 1326.82,549.358 1326.74,549.364 1246.018,605.985 1323.057,662.719 		"/>
		<g>
			<g>
				<path fill="#999999" d="M1283.059,597.073c0,16.99,18.656,30.756,41.668,30.756c23.014,0,41.67-13.768,41.67-30.756v14.225
					c0,16.987-18.656,30.758-41.67,30.758c-23.013,0-41.668-13.771-41.668-30.758V597.073L1283.059,597.073z"/>
				<path fill="#CCCCCC" d="M1366.396,597.073c0,16.99-18.654,30.756-41.67,30.756c-23.012,0-41.666-13.768-41.666-30.756
					c0-16.987,18.655-30.756,41.666-30.756C1347.74,566.317,1366.396,580.086,1366.396,597.073z"/>
			</g>
		</g>
	</g>
	<polygon fill="#9B9B9B" points="1323.336,733.404 1400.773,675.106 1400.547,604.419 1323.057,662.719 	"/>
	<polygon fill="#AFAFAF" points="1246.018,605.985 1246.242,676.672 1323.336,733.404 1323.057,662.719 	"/>
</g>
<linearGradient id="SVGID_1_" gradientUnits="userSpaceOnUse" x1="321.8066" y1="-398.856" x2="370.1021" y2="-269.9217" gradientTransform="matrix(0.7059 -0.9881 -0.8137 -0.5813 363.7895 1214.9349)">
	<stop  offset="0.075" style="stop-color:#FFFFFF;stop-opacity:0"/>
	<stop  offset="0.6184" style="stop-color:#747474;stop-opacity:0.5874"/>
	<stop  offset="1" style="stop-color:#161616"/>
</linearGradient>
<polygon fill="url(#SVGID_1_)" points="1074.732,1050.537 840.432,1223.098 720,1144.266 952.436,969.252 "/>
<linearGradient id="SVGID_2_" gradientUnits="userSpaceOnUse" x1="684.9395" y1="-246.8916" x2="732.5886" y2="-119.683" gradientTransform="matrix(0.7059 -0.9881 -0.8137 -0.5813 363.7895 1214.9349)">
	<stop  offset="0.075" style="stop-color:#FFFFFF;stop-opacity:0"/>
	<stop  offset="0.6184" style="stop-color:#747474;stop-opacity:0.5874"/>
	<stop  offset="1" style="stop-color:#161616"/>
</linearGradient>
<polygon fill="url(#SVGID_2_)" points="1131.208,660.9 1050.703,720.619 931.324,643.826 1008.533,580.117 "/>
<linearGradient id="SVGID_3_" gradientUnits="userSpaceOnUse" x1="787.5625" y1="-281.9878" x2="835.2116" y2="-154.7792" gradientTransform="matrix(0.7059 -0.9881 -0.8137 -0.5813 363.7895 1214.9349)">
	<stop  offset="0.075" style="stop-color:#FFFFFF;stop-opacity:0"/>
	<stop  offset="0.6184" style="stop-color:#747474;stop-opacity:0.5874"/>
	<stop  offset="1" style="stop-color:#161616"/>
</linearGradient>
<polygon fill="url(#SVGID_3_)" points="1232.208,579.9 1151.703,639.619 1032.324,562.826 1109.533,499.117 "/>
<g>
	<g>
		<polygon fill="#CCCCCC" points="144.956,375.639 145.071,471.508 218.928,526.131 218.65,430.445 		"/>
	</g>
	<g>
		<polygon fill="#CCCCCC" points="144.765,279.953 144.991,375.639 225.017,435.135 224.74,339.449 		"/>
	</g>
	<g>
		<g>
			<polygon fill="#E8E8E8" points="450.721,64.06 376.992,9 376.912,9.007 299.534,67.552 373.229,122.36 			"/>
			<g>
				<g>
					<path fill="#D6D6D6" d="M333.229,56.715c0,16.989,18.655,30.757,41.667,30.757c23.014,0,41.672-13.768,41.672-30.757V70.94
						c0,16.986-18.658,30.757-41.672,30.757c-23.012,0-41.667-13.771-41.667-30.757V56.715z"/>
					<ellipse fill="#F4F4F4" cx="375.127" cy="56.715" rx="41.67" ry="30.757"/>
				</g>
			</g>
		</g>
	</g>
	<g>
		<g>
			<polygon fill="#E8E8E8" points="303.288,177.237 221.993,125.715 221.914,125.722 144.536,184.267 218.23,239.075 			"/>
			<g>
				<g>
					<path fill="#D6D6D6" d="M178.231,173.43c0,16.989,18.655,30.757,41.667,30.757c23.015,0,41.67-13.768,41.67-30.757v14.226
						c0,16.986-18.655,30.757-41.67,30.757c-23.012,0-41.667-13.771-41.667-30.757V173.43z"/>
					<ellipse fill="#F4F4F4" cx="219.9" cy="173.43" rx="41.67" ry="30.757"/>
				</g>
			</g>
		</g>
		<polygon fill="#CCCCCC" points="144.536,184.267 144.762,279.952 218.508,334.761 218.23,239.075 		"/>
	</g>
	
		<linearGradient id="SVGID_4_" gradientUnits="userSpaceOnUse" x1="365.4062" y1="439.0195" x2="344.9845" y2="494.9426" gradientTransform="matrix(-3.2304 -1.5918 2.3114 -0.5813 324.7985 1426.9976)">
		<stop  offset="0.075" style="stop-color:#FFFFFF;stop-opacity:0"/>
		<stop  offset="0.17" style="stop-color:#F9F9F9;stop-opacity:0.1026"/>
		<stop  offset="0.2912" style="stop-color:#EAEAEA;stop-opacity:0.2337"/>
		<stop  offset="0.4267" style="stop-color:#CFCFCF;stop-opacity:0.3802"/>
		<stop  offset="0.5727" style="stop-color:#ABABAB;stop-opacity:0.5381"/>
		<stop  offset="0.7272" style="stop-color:#7C7C7C;stop-opacity:0.705"/>
		<stop  offset="0.8861" style="stop-color:#434343;stop-opacity:0.8768"/>
		<stop  offset="1" style="stop-color:#161616"/>
	</linearGradient>
	<polygon fill="url(#SVGID_4_)" points="52.105,545.234 269.87,708.777 366.727,635.492 145.071,471.508 	"/>
	<g>
		<g>
			<polygon fill="#E8E8E8" points="373.225,122.377 299.497,67.318 299.417,67.325 222.04,125.87 295.741,183.157 			"/>
			<g>
				<g>
					<path fill="#D6D6D6" d="M255.734,115.033c0,16.989,18.655,30.757,41.668,30.757c23.014,0,41.669-13.768,41.669-30.757v14.226
						c0,16.986-18.655,30.757-41.669,30.757c-23.013,0-41.668-13.771-41.668-30.757V115.033z"/>
					<ellipse fill="#F4F4F4" cx="297.404" cy="115.033" rx="41.669" ry="30.757"/>
				</g>
			</g>
		</g>
	</g>
	<g>
		<g>
			<polygon fill="#CCCCCC" points="218.452,430.398 218.678,526.084 292.649,580.943 292.504,484.953 			"/>
		</g>
		<g>
			<polygon fill="#CCCCCC" points="218.625,321.818 218.791,434.275 292.536,489.084 292.32,376.627 			"/>
		</g>
		<g>
			<g>
				<polygon fill="#E8E8E8" points="524.441,118.872 450.713,63.812 450.633,63.819 371.125,120.493 446.945,177.388 				"/>
				<g>
					<g>
						<path fill="#D6D6D6" d="M406.951,111.527c0,16.989,18.654,30.757,41.668,30.757s41.67-13.768,41.67-30.757v14.226
							c0,16.986-18.656,30.757-41.67,30.757s-41.668-13.771-41.668-30.757V111.527z"/>
						<ellipse fill="#F4F4F4" cx="448.848" cy="111.527" rx="41.67" ry="30.757"/>
					</g>
				</g>
			</g>
		</g>
		<g>
			<g>
				<polygon fill="#E8E8E8" points="447.436,176.807 373.219,122.13 373.139,122.137 291.952,178.005 369.455,235.491 				"/>
				<g>
					<g>
						<path fill="#D6D6D6" d="M329.456,169.845c0,16.989,18.656,30.757,41.667,30.757c23.016,0,41.67-13.768,41.67-30.757v14.226
							c0,16.986-18.654,30.757-41.67,30.757c-23.011,0-41.667-13.771-41.667-30.757V169.845z"/>
						<ellipse fill="#F4F4F4" cx="371.125" cy="169.845" rx="41.67" ry="30.757"/>
					</g>
				</g>
			</g>
		</g>
		<g>
			<g>
				<polygon fill="#E8E8E8" points="372.516,234.774 299.827,176.61 295.636,180.534 218.258,239.08 291.952,293.888 				"/>
				<g>
					<g>
						<path fill="#D6D6D6" d="M251.953,228.242c0,16.989,18.655,30.757,41.667,30.757c23.015,0,41.669-13.768,41.669-30.757v14.226
							c0,16.986-18.655,30.757-41.669,30.757c-23.012,0-41.667-13.771-41.667-30.757V228.242z"/>
						<ellipse fill="#F4F4F4" cx="293.622" cy="228.242" rx="41.669" ry="30.757"/>
					</g>
				</g>
			</g>
			<polygon fill="#CCCCCC" points="218.258,239.08 218.484,334.765 292.229,389.574 291.952,293.888 			"/>
		</g>
	</g>
	<g>
		<g>
			<polygon fill="#DDDDDD" points="521.375,519.014 598.812,460.715 598.588,365.027 521.098,423.328 			"/>
		</g>
		<g>
			<polygon fill="#B72C2C" points="443.881,577.33 521.318,519.033 521.094,423.346 443.604,481.646 			"/>
		</g>
		<g>
			<polygon fill="#DDDDDD" points="366.377,635.727 443.814,577.428 443.59,481.742 366.1,540.041 			"/>
			<polygon fill="#CCCCCC" points="292.405,485.234 292.55,581.225 366.377,635.727 366.1,540.041 			"/>
		</g>
		<g>
			<polygon fill="#B72C2C" points="520.215,424.035 598.623,365.029 598.398,269.341 520.906,327.642 			"/>
		</g>
		<g>
			<polygon fill="#B72C2C" points="443.689,481.646 528.191,418.031 520.785,323.875 443.295,382.178 			"/>
		</g>
		<g>
			<polygon fill="#B72C2C" points="366.186,540.041 446.444,479.572 443.398,386.057 365.908,444.357 			"/>
			<polygon fill="#CCCCCC" points="292.214,389.549 292.44,485.234 366.186,540.041 365.908,444.357 			"/>
		</g>
		<g>
			<g>
				<polygon fill="#E8E8E8" points="598.17,173.655 524.441,118.596 524.361,118.603 446.984,177.148 520.678,231.956 				"/>
				<g>
					<g>
						<path fill="#D6D6D6" d="M480.678,166.311c0,16.989,18.656,30.757,41.668,30.757c23.014,0,41.672-13.768,41.672-30.757v14.226
							c0,16.986-18.658,30.757-41.672,30.757c-23.012,0-41.668-13.771-41.668-30.757V166.311z"/>
						<ellipse fill="#F4F4F4" cx="522.576" cy="166.311" rx="41.67" ry="30.757"/>
					</g>
				</g>
			</g>
			<polygon fill="#DDDDDD" points="520.955,327.642 598.395,269.343 598.17,173.655 520.678,231.956 			"/>
		</g>
		<g>
			<g>
				<polygon fill="#E8E8E8" points="520.955,231.747 446.945,176.914 446.867,176.92 369.488,235.466 443.184,290.274 				"/>
				<g>
					<g>
						<path fill="#D6D6D6" d="M403.184,224.628c0,16.989,18.656,30.757,41.668,30.757c23.014,0,41.67-13.768,41.67-30.757v14.226
							c0,16.986-18.656,30.757-41.67,30.757c-23.012,0-41.668-13.771-41.668-30.757V224.628z"/>
						<ellipse fill="#F4F4F4" cx="444.854" cy="224.628" rx="41.67" ry="30.757"/>
					</g>
				</g>
			</g>
			<polygon fill="#B72C2C" points="443.938,577.313 521.375,519.014 520.674,231.973 443.184,290.274 			"/>
		</g>
		<g>
			<g>
				<polygon fill="#E8E8E8" points="443.465,290.165 373.09,232.52 369.328,235.341 291.951,293.887 365.645,348.695 				"/>
				<g>
					<g>
						<path fill="#D6D6D6" d="M325.68,283.025c0,16.989,18.655,30.757,41.668,30.757c23.014,0,41.67-13.768,41.67-30.757v14.226
							c0,16.986-18.656,30.757-41.67,30.757c-23.013,0-41.668-13.771-41.668-30.757V283.025z"/>
						<ellipse fill="#F4F4F4" cx="367.35" cy="283.025" rx="41.67" ry="30.757"/>
					</g>
				</g>
			</g>
			<polygon fill="#DDDDDD" points="365.957,444.357 443.395,386.059 443.184,290.274 365.68,348.671 			"/>
			<polygon fill="#CCCCCC" points="144.536,184.267 145.071,471.508 366.727,635.492 365.68,348.671 			"/>
		</g>
	</g>
</g>
</svg>
