<?xml version="1.0" encoding="utf-8"?>
<!-- Generator: Adobe Illustrator 16.0.4, SVG Export Plug-In . SVG Version: 6.00 Build 0)  -->
<!DOCTYPE svg PUBLIC "-//W3C//DTD SVG 1.1//EN" "http://www.w3.org/Graphics/SVG/1.1/DTD/svg11.dtd">
<svg version="1.1" id="Layer_1" xmlns="http://www.w3.org/2000/svg" xmlns:xlink="http://www.w3.org/1999/xlink" x="0px" y="0px"
	 width="720px" height="720px" viewBox="0 0 720 720" enable-background="new 0 0 720 720" xml:space="preserve">
<path d="M390.508,392.562"/>
<linearGradient id="SVGID_1_" gradientUnits="userSpaceOnUse" x1="220.5088" y1="4.103" x2="220.5088" y2="718.0141">
	<stop  offset="0" style="stop-color:#00A1DE"/>
	<stop  offset="1" style="stop-color:#002776"/>
</linearGradient>
<path fill="url(#SVGID_1_)" d="M390.625,392.682l-51.821,51.821l-63.312-63.311l51.82-51.822c11.483-11.485,11.483-30.174,0-41.655
	c-11.483-11.483-30.165-11.483-41.655,0l-51.821,51.821L207.81,313.51c-6.903-6.901-18.089-6.901-24.994,0l-37.598,37.599
	c-6.903,6.903-6.903,18.092,0,24.994l5.61,5.613l-84.962,84.953c-3.948,3.957-5.797,9.551-4.981,15.08l13.095,88.463L5.295,638.901
	c-6.904,6.902-6.904,18.087,0,24.99l50.814,50.811c6.903,6.903,18.092,6.903,24.987,0l68.685-68.689l88.471,13.094
	c5.53,0.822,11.124-1.018,15.084-4.98l84.953-84.953l5.611,5.613c6.903,6.895,18.092,6.895,24.994,0l37.599-37.599
	c6.895-6.903,6.895-18.102,0-24.997l-26.033-26.024l51.829-51.83c11.483-11.482,11.483-30.172,0-41.654
	C420.797,381.2,402.116,381.2,390.625,392.682L390.625,392.682z"/>
<linearGradient id="SVGID_2_" gradientUnits="userSpaceOnUse" x1="514.1055" y1="0.1201" x2="514.1054" y2="719.0005">
	<stop  offset="0" style="stop-color:#00A1DE"/>
	<stop  offset="1" style="stop-color:#002776"/>
</linearGradient>
<path fill="url(#SVGID_2_)" d="M714.704,56.114L663.889,5.298c-6.902-6.903-18.091-6.903-24.994,0l-68.687,68.687l-88.462-13.094
	c-5.529-0.819-11.132,1.029-15.082,4.989l-84.954,84.954l-5.61-5.612c-6.903-6.901-18.092-6.901-24.995,0l-37.598,37.598
	c-6.903,6.895-6.903,18.083,0,24.989l198.681,198.681c6.903,6.903,18.092,6.903,24.995,0l37.598-37.599
	c6.895-6.902,6.895-18.091,0-24.986l-5.619-5.613l84.963-84.962c3.95-3.951,5.799-9.543,4.98-15.08l-13.095-88.464l68.694-68.687
	C721.607,74.205,721.607,63.009,714.704,56.114L714.704,56.114z"/>
<path d="M714.587,55.994"/>
</svg>
