<?xml version="1.0" encoding="utf-8"?>
<!-- Generator: Adobe Illustrator 16.0.4, SVG Export Plug-In . SVG Version: 6.00 Build 0)  -->
<!DOCTYPE svg PUBLIC "-//W3C//DTD SVG 1.1//EN" "http://www.w3.org/Graphics/SVG/1.1/DTD/svg11.dtd">
<svg version="1.1" id="Layer_1" xmlns="http://www.w3.org/2000/svg" xmlns:xlink="http://www.w3.org/1999/xlink" x="0px" y="0px"
	 width="720px" height="720px" viewBox="0 0 720 720" enable-background="new 0 0 720 720" xml:space="preserve">
<g>
	<g>
		<g>
			<polygon fill="#BCBCBC" points="518.508,305.271 444.783,250.211 444.705,250.218 363.98,306.838 441.018,363.571 			"/>
			<g>
				<g>
					<path fill="#999999" d="M401.02,297.926c0,16.989,18.655,30.757,41.67,30.757c23.016,0,41.671-13.768,41.671-30.757v14.225
						c0,16.986-18.655,30.757-41.671,30.757c-23.015,0-41.67-13.771-41.67-30.757V297.926z"/>
					<ellipse fill="#CCCCCC" cx="442.69" cy="297.926" rx="41.67" ry="30.757"/>
				</g>
			</g>
		</g>
		<polygon fill="#829E0D" points="518.508,305.271 441.018,363.571 363.98,306.838 363.98,381.466 441.299,434.257 518.508,370.547 
					"/>
		<polygon fill="#9B9B9B" points="441.299,434.257 518.508,370.547 518.508,305.271 441.018,363.571 		"/>
		<polygon fill="#AFAFAF" points="363.98,306.838 363.98,381.466 441.299,434.257 441.018,363.571 		"/>
	</g>
	<g>
		<g>
			<polygon fill="#545454" points="518.285,234.585 444.558,179.525 444.479,179.532 363.754,236.152 440.795,292.885 			"/>
			<g>
				<g>
					<path fill="#333333" d="M400.796,227.24c0,16.99,18.655,30.757,41.668,30.757c23.015,0,41.67-13.767,41.67-30.757v14.224
						c0,16.987-18.655,30.757-41.67,30.757c-23.013,0-41.668-13.77-41.668-30.757V227.24z"/>
					<path fill="#666666" d="M484.134,227.24c0,16.99-18.655,30.757-41.67,30.757c-23.013,0-41.668-13.767-41.668-30.757
						c0-16.987,18.655-30.755,41.668-30.755C465.479,196.484,484.134,210.253,484.134,227.24z"/>
				</g>
			</g>
		</g>
		<polygon fill="#333333" points="441.072,363.571 518.508,305.271 518.285,234.585 440.795,292.885 		"/>
		<polygon fill="#474747" points="363.754,236.152 363.98,306.838 441.072,363.571 440.795,292.885 		"/>
	</g>
	<g>
		<g>
			<polygon fill="#BCBCBC" points="518.2,204.666 444.473,149.605 444.395,149.612 363.67,206.233 440.71,262.965 			"/>
			<g>
				<g>
					<path fill="#999999" d="M400.712,197.32c0,16.99,18.655,30.757,41.667,30.757c23.016,0,41.671-13.767,41.671-30.757v14.225
						c0,16.987-18.655,30.756-41.671,30.756c-23.012,0-41.667-13.77-41.667-30.756V197.32z"/>
					<path fill="#CCCCCC" d="M484.05,197.32c0,16.99-18.655,30.757-41.671,30.757c-23.012,0-41.667-13.767-41.667-30.757
						c0-16.987,18.655-30.755,41.667-30.755C465.395,166.565,484.05,180.333,484.05,197.32z"/>
				</g>
			</g>
		</g>
		<polygon fill="#9B9B9B" points="440.988,333.652 518.426,275.352 518.2,204.666 440.71,262.965 		"/>
		<polygon fill="#AFAFAF" points="363.67,206.233 363.896,276.919 440.988,333.652 440.71,262.965 		"/>
	</g>
	<g>
		<g>
			<polygon fill="#545454" points="518.135,174.307 444.408,119.247 444.328,119.253 363.604,175.874 440.646,232.606 			"/>
			<g>
				<g>
					<path fill="#333333" d="M400.646,166.961c0,16.99,18.657,30.757,41.669,30.757c23.015,0,41.67-13.767,41.67-30.757v14.225
						c0,16.986-18.655,30.756-41.67,30.756c-23.012,0-41.669-13.77-41.669-30.756V166.961z"/>
					<path fill="#666666" d="M483.984,166.961c0,16.99-18.655,30.757-41.67,30.757c-23.012,0-41.669-13.767-41.669-30.757
						c0-16.986,18.657-30.755,41.669-30.755C465.329,136.206,483.984,149.975,483.984,166.961z"/>
				</g>
			</g>
		</g>
		<polygon fill="#333333" points="440.923,303.292 518.359,244.993 518.135,174.307 440.646,232.606 		"/>
		<polygon fill="#474747" points="363.604,175.874 363.831,246.56 440.923,303.292 440.646,232.606 		"/>
	</g>
	<g>
		<g>
			<polygon fill="#BCBCBC" points="518.04,144.271 444.312,89.21 444.233,89.217 363.509,145.837 440.549,202.57 			"/>
			<g>
				<g>
					<path fill="#999999" d="M400.551,136.924c0,16.99,18.656,30.757,41.668,30.757c23.015,0,41.671-13.767,41.671-30.757v14.225
						c0,16.987-18.656,30.757-41.671,30.757c-23.012,0-41.668-13.77-41.668-30.757V136.924z"/>
					<path fill="#CCCCCC" d="M483.89,136.924c0,16.99-18.656,30.757-41.671,30.757c-23.012,0-41.668-13.767-41.668-30.757
						c0-16.986,18.656-30.755,41.668-30.755C465.233,106.169,483.89,119.938,483.89,136.924z"/>
				</g>
			</g>
		</g>
		<polygon fill="#9B9B9B" points="440.828,273.255 518.267,214.956 518.04,144.271 440.549,202.57 		"/>
		<polygon fill="#AFAFAF" points="363.509,145.837 363.734,216.523 440.828,273.255 440.549,202.57 		"/>
	</g>
</g>
<g>
	<g>
		<g>
			<polygon fill="#BCBCBC" points="417.508,386.268 343.783,331.207 343.704,331.213 262.98,387.834 340.018,444.566 			"/>
			<g>
				<g>
					<path fill="#999999" d="M300.019,378.922c0,16.989,18.657,30.757,41.671,30.757c23.015,0,41.671-13.768,41.671-30.757v14.225
						c0,16.986-18.656,30.756-41.671,30.756c-23.014,0-41.671-13.77-41.671-30.756V378.922z"/>
					<ellipse fill="#CCCCCC" cx="341.689" cy="378.922" rx="41.671" ry="30.757"/>
				</g>
			</g>
		</g>
		<polygon fill="#829E0D" points="417.508,386.268 340.018,444.566 262.98,387.834 262.98,462.461 340.299,515.253 417.508,451.544 
					"/>
		<polygon fill="#9B9B9B" points="340.299,515.253 417.508,451.544 417.508,386.268 340.018,444.566 		"/>
		<polygon fill="#AFAFAF" points="262.98,387.834 262.98,462.461 340.299,515.253 340.018,444.566 		"/>
	</g>
	<g>
		<g>
			<polygon fill="#545454" points="417.285,315.582 343.558,260.521 343.479,260.528 262.754,317.148 339.795,373.88 			"/>
			<g>
				<g>
					<path fill="#333333" d="M299.795,308.235c0,16.99,18.657,30.757,41.668,30.757c23.015,0,41.671-13.767,41.671-30.757v14.225
						c0,16.987-18.656,30.757-41.671,30.757c-23.012,0-41.668-13.77-41.668-30.757V308.235z"/>
					<path fill="#666666" d="M383.135,308.235c0,16.99-18.656,30.757-41.671,30.757c-23.012,0-41.668-13.767-41.668-30.757
						c0-16.986,18.657-30.755,41.668-30.755C364.479,277.48,383.135,291.249,383.135,308.235z"/>
				</g>
			</g>
		</g>
		<polygon fill="#333333" points="340.073,444.566 417.508,386.268 417.285,315.582 339.795,373.88 		"/>
		<polygon fill="#474747" points="262.754,317.148 262.98,387.834 340.073,444.566 339.795,373.88 		"/>
	</g>
	<g>
		<g>
			<polygon fill="#BCBCBC" points="417.2,285.662 343.474,230.601 343.395,230.608 262.669,287.229 339.711,343.961 			"/>
			<g>
				<g>
					<path fill="#999999" d="M299.711,278.316c0,16.989,18.656,30.756,41.667,30.756c23.016,0,41.671-13.767,41.671-30.756v14.225
						c0,16.986-18.655,30.756-41.671,30.756c-23.011,0-41.667-13.77-41.667-30.756V278.316z"/>
					<path fill="#CCCCCC" d="M383.05,278.316c0,16.989-18.655,30.756-41.671,30.756c-23.011,0-41.667-13.767-41.667-30.756
						c0-16.987,18.656-30.755,41.667-30.755C364.395,247.561,383.05,261.33,383.05,278.316z"/>
				</g>
			</g>
		</g>
		<polygon fill="#9B9B9B" points="339.988,414.647 417.426,356.348 417.2,285.662 339.711,343.961 		"/>
		<polygon fill="#AFAFAF" points="262.669,287.229 262.896,357.914 339.988,414.647 339.711,343.961 		"/>
	</g>
	<g>
		<g>
			<polygon fill="#545454" points="417.135,255.303 343.407,200.242 343.329,200.249 262.604,256.87 339.645,313.602 			"/>
			<g>
				<g>
					<path fill="#333333" d="M299.646,247.957c0,16.989,18.656,30.756,41.667,30.756c23.015,0,41.672-13.767,41.672-30.756v14.225
						c0,16.986-18.657,30.756-41.672,30.756c-23.012,0-41.667-13.77-41.667-30.756V247.957z"/>
					<path fill="#666666" d="M382.985,247.957c0,16.989-18.657,30.756-41.672,30.756c-23.012,0-41.667-13.767-41.667-30.756
						c0-16.987,18.656-30.755,41.667-30.755C364.328,217.202,382.985,230.97,382.985,247.957z"/>
				</g>
			</g>
		</g>
		<polygon fill="#333333" points="339.922,384.287 417.359,325.989 417.135,255.303 339.645,313.602 		"/>
		<polygon fill="#474747" points="262.604,256.87 262.83,327.556 339.922,384.287 339.645,313.602 		"/>
	</g>
	<g>
		<g>
			<polygon fill="#BCBCBC" points="417.039,225.266 343.312,170.206 343.234,170.212 262.509,226.833 339.55,283.565 			"/>
			<g>
				<g>
					<path fill="#999999" d="M299.551,217.92c0,16.99,18.655,30.757,41.667,30.757c23.015,0,41.67-13.767,41.67-30.757v14.225
						c0,16.987-18.655,30.756-41.67,30.756c-23.012,0-41.667-13.77-41.667-30.756V217.92z"/>
					<path fill="#CCCCCC" d="M382.889,217.92c0,16.99-18.655,30.757-41.67,30.757c-23.012,0-41.667-13.767-41.667-30.757
						c0-16.987,18.655-30.755,41.667-30.755C364.233,187.166,382.889,200.934,382.889,217.92z"/>
				</g>
			</g>
		</g>
		<polygon fill="#9B9B9B" points="339.827,354.252 417.266,295.952 417.039,225.266 339.55,283.565 		"/>
		<polygon fill="#AFAFAF" points="262.509,226.833 262.735,297.52 339.827,354.252 339.55,283.565 		"/>
	</g>
</g>
<g>
	<g>
		<g>
			<polygon fill="#BCBCBC" points="313.886,468.835 240.161,413.774 240.082,413.782 159.358,470.402 236.396,527.134 			"/>
			<g>
				<g>
					<path fill="#999999" d="M196.397,461.489c0,16.989,18.656,30.757,41.67,30.757s41.671-13.768,41.671-30.757v14.226
						c0,16.986-18.656,30.756-41.671,30.756s-41.67-13.77-41.67-30.756V461.489z"/>
					<ellipse fill="#CCCCCC" cx="238.068" cy="461.489" rx="41.671" ry="30.757"/>
				</g>
			</g>
		</g>
		<polygon fill="#829E0D" points="313.886,468.835 236.396,527.134 159.358,470.402 159.358,545.028 236.676,597.82 
			313.886,534.111 		"/>
		<polygon fill="#9B9B9B" points="236.676,597.82 313.886,534.111 313.886,468.835 236.396,527.134 		"/>
		<polygon fill="#AFAFAF" points="159.358,470.402 159.358,545.028 236.676,597.82 236.396,527.134 		"/>
	</g>
	<g>
		<g>
			<polygon fill="#545454" points="313.663,398.148 239.935,343.089 239.856,343.096 159.132,399.716 236.172,456.448 			"/>
			<g>
				<g>
					<path fill="#333333" d="M196.174,390.804c0,16.989,18.655,30.756,41.668,30.756c23.014,0,41.67-13.767,41.67-30.756v14.225
						c0,16.986-18.656,30.757-41.67,30.757c-23.013,0-41.668-13.771-41.668-30.757V390.804z"/>
					<path fill="#666666" d="M279.512,390.804c0,16.989-18.656,30.756-41.67,30.756c-23.013,0-41.668-13.767-41.668-30.756
						c0-16.987,18.655-30.756,41.668-30.756C260.856,360.048,279.512,373.816,279.512,390.804z"/>
				</g>
			</g>
		</g>
		<polygon fill="#333333" points="236.45,527.134 313.886,468.835 313.663,398.148 236.172,456.448 		"/>
		<polygon fill="#474747" points="159.132,399.716 159.358,470.402 236.45,527.134 236.172,456.448 		"/>
	</g>
	<g>
		<g>
			<polygon fill="#BCBCBC" points="313.578,368.229 239.851,313.169 239.772,313.176 159.047,369.797 236.088,426.529 			"/>
			<g>
				<g>
					<path fill="#999999" d="M196.089,360.884c0,16.989,18.655,30.757,41.668,30.757c23.014,0,41.67-13.768,41.67-30.757v14.225
						c0,16.987-18.656,30.757-41.67,30.757c-23.013,0-41.668-13.77-41.668-30.757V360.884z"/>
					<ellipse fill="#CCCCCC" cx="237.759" cy="360.884" rx="41.669" ry="30.757"/>
				</g>
			</g>
		</g>
		<polygon fill="#9B9B9B" points="236.366,497.215 313.804,438.916 313.578,368.229 236.088,426.529 		"/>
		<polygon fill="#AFAFAF" points="159.047,369.797 159.273,440.482 236.366,497.215 236.088,426.529 		"/>
	</g>
	<g>
		<g>
			<polygon fill="#545454" points="313.512,337.871 239.786,282.81 239.707,282.817 158.982,339.438 236.023,396.17 			"/>
			<g>
				<g>
					<path fill="#333333" d="M196.024,330.524c0,16.989,18.656,30.757,41.668,30.757c23.015,0,41.671-13.768,41.671-30.757v14.225
						c0,16.987-18.656,30.758-41.671,30.758c-23.012,0-41.668-13.771-41.668-30.758V330.524z"/>
					<ellipse fill="#666666" cx="237.693" cy="330.524" rx="41.669" ry="30.757"/>
				</g>
			</g>
		</g>
		<polygon fill="#333333" points="236.3,466.855 313.737,408.557 313.512,337.871 236.023,396.17 		"/>
		<polygon fill="#474747" points="158.982,339.438 159.208,410.124 236.3,466.855 236.023,396.17 		"/>
	</g>
	<g>
		<g>
			<polygon fill="#BCBCBC" points="313.417,307.834 239.69,252.773 239.611,252.78 158.887,309.401 235.927,366.134 			"/>
			<g>
				<g>
					<path fill="#999999" d="M195.929,300.488c0,16.99,18.656,30.756,41.667,30.756c23.015,0,41.67-13.767,41.67-30.756v14.225
						c0,16.987-18.655,30.757-41.67,30.757c-23.012,0-41.667-13.77-41.667-30.757V300.488z"/>
					<path fill="#CCCCCC" d="M279.267,300.488c0,16.99-18.655,30.756-41.67,30.756c-23.012,0-41.667-13.767-41.667-30.756
						c0-16.987,18.656-30.755,41.667-30.755C260.611,269.733,279.267,283.501,279.267,300.488z"/>
				</g>
			</g>
		</g>
		<polygon fill="#9B9B9B" points="236.206,436.819 313.644,378.521 313.417,307.834 235.927,366.134 		"/>
		<polygon fill="#AFAFAF" points="158.887,309.401 159.113,380.087 236.206,436.819 235.927,366.134 		"/>
	</g>
</g>
<linearGradient id="SVGID_1_" gradientUnits="userSpaceOnUse" x1="432.4014" y1="399.1328" x2="480.1094" y2="271.7669" gradientTransform="matrix(0.7059 -0.9881 0.8137 0.5813 -276.6289 831.1152)">
	<stop  offset="0.075" style="stop-color:#FFFFFF;stop-opacity:0"/>
	<stop  offset="0.6184" style="stop-color:#747474;stop-opacity:0.5874"/>
	<stop  offset="1" style="stop-color:#161616"/>
</linearGradient>
<polygon fill="url(#SVGID_1_)" points="436.183,615.326 355.678,675.045 236.676,597.82 313.886,534.041 "/>
<linearGradient id="SVGID_2_" gradientUnits="userSpaceOnUse" x1="537.5762" y1="435.4648" x2="585.2253" y2="308.2563" gradientTransform="matrix(0.7059 -0.9881 0.8137 0.5813 -276.6289 831.1152)">
	<stop  offset="0.075" style="stop-color:#FFFFFF;stop-opacity:0"/>
	<stop  offset="0.6184" style="stop-color:#747474;stop-opacity:0.5874"/>
	<stop  offset="1" style="stop-color:#161616"/>
</linearGradient>
<polygon fill="url(#SVGID_2_)" points="540.183,532.326 459.678,592.045 340.299,515.253 417.508,451.544 "/>
<linearGradient id="SVGID_3_" gradientUnits="userSpaceOnUse" x1="640.2041" y1="470.5635" x2="687.8536" y2="343.354" gradientTransform="matrix(0.7059 -0.9881 0.8137 0.5813 -276.6289 831.1152)">
	<stop  offset="0.075" style="stop-color:#FFFFFF;stop-opacity:0"/>
	<stop  offset="0.6184" style="stop-color:#747474;stop-opacity:0.5874"/>
	<stop  offset="1" style="stop-color:#161616"/>
</linearGradient>
<polygon fill="url(#SVGID_3_)" points="641.183,451.326 560.678,511.045 441.299,434.253 518.508,370.544 "/>
</svg>
