<?xml version="1.0" encoding="utf-8"?>
<!-- Generator: Adobe Illustrator 16.0.4, SVG Export Plug-In . SVG Version: 6.00 Build 0)  -->
<!DOCTYPE svg PUBLIC "-//W3C//DTD SVG 1.1//EN" "http://www.w3.org/Graphics/SVG/1.1/DTD/svg11.dtd">
<svg version="1.1" id="Layer_1" xmlns="http://www.w3.org/2000/svg" xmlns:xlink="http://www.w3.org/1999/xlink" x="0px" y="0px"
	 width="720px" height="720px" viewBox="0 0 720 720" enable-background="new 0 0 720 720" xml:space="preserve">
<g display="none">
	<linearGradient id="SVGID_1_" gradientUnits="userSpaceOnUse" x1="360.0137" y1="148.2852" x2="360.0136" y2="579.0009">
		<stop  offset="0" style="stop-color:#00A1DE"/>
		<stop  offset="1" style="stop-color:#002776"/>
	</linearGradient>
	<path display="inline" fill="url(#SVGID_1_)" d="M184.274,392.36c0-9.588,0-19.176,0-28.766c0.895-5.588,1.681-11.196,2.704-16.761
		c5.551-30.218,18.6-56.299,43.375-75.284c22.878-17.532,48.695-25.955,77.504-19.966c11.913,2.477,23.506,7.1,34.789,11.837
		c13.401,5.626,26.125,5.83,39.508,0.018c10.408-4.52,21.191-8.382,32.105-11.49c38.898-11.082,82.883,3.632,107.041,35.346
		c0.959,1.259,1.838,2.577,2.84,3.983c-1.482,1.043-2.588,1.795-3.668,2.583c-30.42,22.197-46.186,51.58-42.117,89.67
		c3.918,36.688,24.176,61.914,57.398,77.149c0,0.299,0,0.6,0,0.898c-0.633,1.501-1.346,2.973-1.889,4.506
		c-12.184,34.329-30.807,64.781-55.914,91.096c-14.305,14.992-32.053,21.464-52.641,16.467c-8.791-2.134-17.197-5.978-25.641-9.386
		c-18.484-7.464-37.281-8.433-56.212-2.445c-13.342,4.22-26.427,9.256-39.627,13.927c-4.494,0-8.989,0-13.483,0
		c-15.877-3.67-27.893-13.269-38.266-25.222c-32.351-37.275-53.687-80.027-63.23-128.512
		C186.922,412.205,185.78,402.248,184.274,392.36z"/>
	<linearGradient id="SVGID_2_" gradientUnits="userSpaceOnUse" x1="402.4395" y1="144.2573" x2="402.4394" y2="575.599">
		<stop  offset="0" style="stop-color:#00A1DE"/>
		<stop  offset="1" style="stop-color:#002776"/>
	</linearGradient>
	<path display="inline" fill-rule="evenodd" clip-rule="evenodd" fill="url(#SVGID_2_)" d="M445.861,144.257
		c1.561,40.434-15.213,70.863-50.168,91.094c-9.852,5.703-20.74,8.379-32.223,8.607c-3.358,0.066-4.843-1.13-4.507-4.318
		c0.876-8.296,0.66-16.955,3.06-24.803c11.592-37.924,37.156-61.145,75.926-69.747c0.859-0.19,1.68-0.552,2.52-0.834
		C442.266,144.257,444.064,144.257,445.861,144.257z"/>
</g>
<linearGradient id="SVGID_3_" gradientUnits="userSpaceOnUse" x1="359.5" y1="179.3345" x2="359.5" y2="566.8364">
	<stop  offset="0" style="stop-color:#00A1DE"/>
	<stop  offset="1" style="stop-color:#002776"/>
</linearGradient>
<path display="none" fill="url(#SVGID_3_)" d="M166.346,234.198l157.872-21.499l0.069,152.28l-157.796,0.898L166.346,234.198z
	 M324.143,382.527l0.123,152.408L166.47,513.244L166.46,381.5L324.143,382.527z M343.28,209.887l209.327-30.552v183.708
	l-209.327,1.658V209.887z M552.654,383.957l-0.047,182.879L343.28,537.289l-0.293-153.674L552.654,383.957z"/>
<g id="_x33_GJD3N_1_">
	<g>
		<linearGradient id="SVGID_4_" gradientUnits="userSpaceOnUse" x1="360.8281" y1="143.9976" x2="360.8281" y2="577.7104">
			<stop  offset="0" style="stop-color:#00A1DE"/>
			<stop  offset="1" style="stop-color:#002776"/>
		</linearGradient>
		<path fill-rule="evenodd" clip-rule="evenodd" fill="url(#SVGID_4_)" d="M499.691,444.254c1.599,0.721,2.995,1.273,4.318,1.961
			c6.153,3.193,8.502,8.861,9.656,15.213c0.422,2.32,0.555,4.703,0.682,7.064c0.216,4.014,1.78,7.52,4.687,10.107
			c5.403,4.809,11.078,9.312,16.666,13.914c1.77,1.457,3.765,2.662,5.415,4.236c5.404,5.154,6.405,12.088,2.908,18.658
			c-3.701,6.951-9.611,11.506-16.414,15.025c-6.432,3.326-12.947,6.488-19.444,9.688c-10.816,5.33-20.106,12.697-28.596,21.176
			c-5.41,5.402-11.171,10.393-18.405,13.23c-15.406,6.045-29.58,3.252-42.571-6.447c-4.21-3.143-6.671-7.662-7.827-12.791
			c-0.3-1.324-0.893-1.891-2.185-2.203c-17.575-4.223-35.349-6.834-53.463-6.875c-5.383-0.014-10.771-0.436-16.143-0.25
			c-4.429,0.154-8.831,0.977-13.256,1.404c-1.506,0.146-1.728,1.117-2.021,2.266c-3.128,12.279-10.567,20.846-22.395,25.385
			c-8.563,3.287-17.211,2.664-25.692-0.445c-5.651-2.07-11.08-4.814-16.821-6.553c-9.594-2.908-19.366-5.225-29.05-7.84
			c-10.86-2.932-21.711-5.9-32.555-8.895c-3.383-0.934-6.8-1.814-10.081-3.043c-9.489-3.557-13.531-11.734-10.555-21.434
			c0.877-2.857,2.145-5.637,3.56-8.279c3.457-6.447,4.299-13.312,3.688-20.455c-0.531-6.223-1.233-12.432-1.634-18.662
			c-0.174-2.697-0.086-5.488,0.409-8.141c1.779-9.529,8.271-15.191,18.018-15.791c3.648-0.223,7.322-0.143,10.981-0.053
			c5.155,0.129,8.881-1.969,11.537-6.443c2.444-4.119,5.292-7.998,7.873-12.041c0.358-0.561,0.412-1.496,0.257-2.18
			c-1.557-6.842-0.881-13.432,2.265-19.695c3.798-7.562,7.779-15.031,11.573-22.596c5.257-10.482,9.496-21.365,12.168-32.802
			c2.332-9.974,6.817-18.819,13.221-26.775c8.78-10.907,17.603-21.782,26.13-32.885c2.629-3.422,4.621-7.424,6.369-11.395
			c0.839-1.905,0.639-4.368,0.556-6.565c-0.636-16.788-1.499-33.569-2.006-50.36c-0.333-11.039-0.86-22.138-0.114-33.13
			c1.206-17.786,8.056-33.079,22.869-43.979c10.151-7.469,21.771-10.483,34.171-10.58c15.61-0.122,29.979,4.06,42.351,13.806
			c14.654,11.546,23.675,26.72,26.598,45.085c1.492,9.385,1.543,19.004,2.17,28.522c0.689,10.458,1.281,20.921,1.952,31.379
			c0.054,0.836,0.265,1.719,0.63,2.471c4.529,9.353,9.22,18.629,13.63,28.037c4.919,10.492,11.611,19.747,19.053,28.54
			c5.28,6.24,10.93,12.243,15.556,18.945c7.806,11.313,12.29,24.264,16.479,37.254c3.177,9.846,5.526,19.904,6.878,30.168
			C505.349,420.469,505.116,432.562,499.691,444.254z M396.124,278.167c-1.82,1.001-3.451,2.367-5.31,2.837
			c-6.567,1.662-12.072,5.196-17.384,9.17c-6.609,4.947-14.002,8.115-22.132,9.499c-10.948,1.864-20.344-0.679-27.469-9.74
			c-2.126-2.704-4.507-5.209-6.797-7.783c-0.335-0.375-0.814-0.62-1.512-1.137c0,1.265-0.047,2.124,0.007,2.976
			c0.574,8.959-2.366,16.707-7.701,23.821c-3.393,4.524-6.469,9.317-9.335,14.197c-4.497,7.656-6.711,15.951-6.021,24.923
			c0.063,0.826-0.375,1.781-0.814,2.542c-3.33,5.777-6.999,11.375-10.034,17.301c-8.849,17.271-14.638,35.502-16.238,54.938
			c-0.31,3.754-0.421,7.525-0.645,11.689c-0.469-0.701-0.758-1.066-0.977-1.469c-6.639-12.262-7.294-25.117-3.093-38.15
			c2.324-7.211,5.647-14.094,8.422-21.164c1.793-4.572,3.409-9.213,5.105-13.821c-1.066,0.832-1.814,1.803-2.352,2.879
			c-3.494,6.989-6.95,13.997-10.401,21.007c-5.012,10.176-6.734,20.926-5.858,32.203c0.836,10.783,4.588,19.947,13.194,26.996
			c11.715,9.594,23.172,19.502,34.8,29.203c4.424,3.691,8.836,7.336,11.769,12.436c4.275,7.428,3.59,17.746-8.953,19.992
			c0.523,0.684,1.012,1.277,1.455,1.902c4.139,5.846,8.25,11.709,12.432,17.523c0.456,0.633,1.243,1.154,1.986,1.436
			c6.273,2.363,12.752,3.861,19.434,4.494c15.701,1.484,30.605-1.125,44.505-8.736c9.786-5.357,17.917-12.844,26.155-20.24
			c3.196-2.871,4.488-5.961,4.412-10.068c-0.199-10.904-0.351-21.811-0.319-32.717c0.009-3.111,0.229-6.379,1.186-9.303
			c2.249-6.885,9.018-10.197,17.315-9.008c2.534,0.365,5.073,0.689,7.637,1.035c0.155-0.604,0.312-1.01,0.359-1.428
			c1.778-15.588,2.682-31.176,0.565-46.82c-2.566-18.986-9.496-35.962-22.585-50.208c-0.765-0.83-1.318-2.06-1.504-3.182
			c-1.57-9.458-4.108-18.648-8.021-27.389c-4.86-10.858-10.012-21.586-15.046-32.367
			C396.275,278.253,396.082,278.122,396.124,278.167z M208.701,459.369c0,0.008,0,0.018,0,0.023c-2.01,0-4.027-0.109-6.029,0.02
			c-8.955,0.582-13.409,5.033-14.023,13.959c-0.088,1.283-0.109,2.588,0,3.869c0.509,6.006,1.088,12.008,1.618,18.012
			c0.759,8.6-0.16,16.873-4.356,24.637c-1.419,2.625-2.605,5.463-3.361,8.344c-1.495,5.695,0.808,10.203,6.109,12.762
			c0.837,0.402,1.7,0.787,2.589,1.047c11.075,3.227,22.047,6.891,33.262,9.529c17.533,4.123,35.027,8.146,51.511,15.721
			c5.517,2.535,11.539,3.623,17.667,2.572c17.364-2.975,28.442-19.672,24.609-36.932c-1.646-7.406-5.526-13.66-10.161-19.482
			c-6.528-8.201-13.109-16.346-18.265-25.533c-8.086-14.412-17.095-28.234-27.006-41.457c-1.798-2.398-3.802-4.713-6.034-6.703
			c-4.116-3.67-8.867-5.887-14.589-4.609c-4.387,0.98-7.147,4.088-9.419,7.678c-1.803,2.846-3.39,5.828-5.182,8.682
			c-3.273,5.213-8.035,7.83-14.2,7.863C211.86,459.377,210.281,459.369,208.701,459.369z M446.31,444.408
			c-4.547-0.543-9.635-1.566-14.739-1.646c-5.615-0.088-8.445,2.758-8.816,8.424c-0.262,3.98,0.199,8.01,0.379,12.014
			c0.856,19.074-0.792,37.943-4.42,56.674c-1.688,8.723-3.154,17.5-2.81,26.439c0.249,6.447,1.797,12.531,7.317,16.494
			c11.159,8.01,23.262,10.322,36.292,4.92c6.926-2.869,12.183-8.012,17.355-13.203c9.091-9.123,19.316-16.627,30.939-22.229
			c5.604-2.699,11.176-5.473,16.681-8.369c5.982-3.148,11.269-7.09,14.378-13.398c1.587-3.221,1.445-6.334-0.582-9.123
			c-1.316-1.811-3.166-3.273-4.92-4.721c-5.75-4.738-11.687-9.258-17.312-14.139c-3.798-3.295-6.48-7.52-7.356-12.574
			c-0.561-3.238-0.543-6.574-1.038-9.826c-1.041-6.826-4.594-10.818-10.385-11.881c-1.922,6.469-5.93,11.566-11.035,15.789
			c-7.125,5.893-15.065,9.645-24.67,8.648c-9.43-0.977-14.632-5.697-15.569-15.051C445.577,453.445,446.165,449.137,446.31,444.408z
			 M316.767,275.75c-0.015,0.041-0.03,0.081-0.046,0.121c3.332,4.219,6.645,8.453,9.999,12.653c4.86,6.083,11.225,9.031,18.984,8.73
			c8.938-0.347,16.971-3.472,24.114-8.725c6.647-4.888,13.047-10.074,21.188-12.466c2.528-0.743,4.03-2.819,4.396-5.614
			c0.364-2.768,0.947-5.507,1.394-8.266c0.829-5.134-1.632-9.04-6.624-10.482c-2.891-0.836-5.936-1.286-8.676-2.46
			c-6.506-2.789-12.974-5.708-19.271-8.936c-8.405-4.309-16.857-4.526-25.587-1.305c-10.579,3.905-17.76,12.089-25.1,20.015
			c-2.325,2.511-2.534,6.035-2.844,9.313c-0.066,0.695,0.841,2.123,1.31,2.127c3.867,0.037,6.823,1.981,9.661,4.23
			c3.433,2.722,7.199,4.774,11.572,5.367c11.803,1.601,23.029-0.674,33.619-5.817c6.54-3.176,12.262-7.686,17.552-12.698
			c2.575-2.441,5.121-2.945,8.573-1.327c-1.255,1.106-2.172,2.342-3.398,2.915c-4.08,1.909-7.467,4.711-10.994,7.442
			c-3.991,3.091-8.295,5.978-12.864,8.077c-7.869,3.614-16.39,5.252-24.985,6.002c-7.788,0.679-14.795-1.404-20.286-7.368
			C317.942,276.724,317.332,276.258,316.767,275.75z M367.575,240.887c-0.303-0.915-0.519-1.433-0.646-1.972
			c-1.224-5.148-1.085-10.151,2.021-14.666c3.151-4.58,8.455-5.667,13.269-2.881c5.029,2.91,7.772,9.109,6.784,15.176
			c-0.756,4.638-2.938,8.282-7.654,10.632c3.188,0.843,5.929,1.423,8.563,2.319c1.545,0.526,2.323,0.133,3.158-1.133
			c2.694-4.088,3.743-8.654,4.074-13.432c0.571-8.258-0.773-16.06-6.02-22.752c-3.731-4.761-8.623-7.694-14.795-7.5
			c-7.89,0.249-13.194,4.924-16.867,11.377c-3.943,6.927-3.605,13.975,0.878,20.684c0.298,0.447,0.802,0.809,1.285,1.071
			C363.451,238.795,365.31,239.722,367.575,240.887z M333.36,238.31c1.456-0.861,3.298-1.654,4.767-2.89
			c2.278-1.914,1.492-4.557,1.126-7.031c-1.011-6.807-3.54-12.855-8.927-17.389c-2.781-2.34-5.947-3.792-9.711-3.03
			c-5.409,1.094-8.621,4.808-9.706,9.82c-0.939,4.345-1.033,8.951-0.921,13.427c0.137,5.43,0.475,10.933,2.916,15.969
			c0.781,1.611,1.87,3.073,2.945,4.807c2.252-2.123,4.124-3.888,6.132-5.783c-0.425-0.337-0.711-0.554-0.984-0.783
			c-6.433-5.384-6.824-13.361-4.343-20.046c1.322-3.559,4.412-5.012,7.757-3.911c3.309,1.088,5.466,3.552,6.527,6.703
			C331.999,231.32,332.511,234.65,333.36,238.31z M437.979,346.371c2.895,1.852,5.781,3.715,8.686,5.552
			c17.195,10.875,23.358,26.987,21.987,46.588c-0.748,10.689-4.018,20.801-7.595,30.809c-0.271,0.762-1.237,1.498-2.048,1.809
			c-4.156,1.596-7.205,4.369-9.323,8.43c8.684-7.619,19.254-6.426,29.583-7.168c-5.239-0.846-10.479-1.691-15.738-2.541
			c1.685-4.99,3.389-10.072,5.115-15.145c3.994-11.732,4.577-23.65,1.333-35.596C465.437,362.385,453.305,352.774,437.979,346.371z
			 M397.111,210.357c-0.903-5.903-3.927-10.39-8.887-13.597c-2.498-1.615-5.979-1.905-8.176-0.621
			C388.061,198.217,393.125,203.617,397.111,210.357z M385.721,231.834c0.063-4.183-3.355-8.3-6.511-8.286
			c-0.698,0.003-1.393,0.657-2.089,1.01c0.438,0.66,0.748,1.724,1.337,1.911c2.621,0.834,3.977,2.551,4.564,5.167
			c0.146,0.653,1.045,1.136,1.598,1.698C385.085,232.701,385.55,232.067,385.721,231.834z M326.965,232.398
			c0.168,0.335,0.577,1.147,0.984,1.958c0.55-0.45,1.378-0.792,1.6-1.369c0.978-2.535-0.729-6.832-3.17-7.969
			c-0.633-0.295-1.528-0.029-2.303-0.02c0.256,0.731,0.309,1.677,0.808,2.154C326.235,228.44,327.375,229.724,326.965,232.398z
			 M337.513,210.829c-0.599-6.263-7.732-12.152-14.262-11.954C329.644,200.88,334.129,204.988,337.513,210.829z"/>
		<path fill-rule="evenodd" clip-rule="evenodd" fill="#FFFFFF" d="M437.979,346.371c15.325,6.403,27.457,16.014,32,32.738
			c3.244,11.945,2.661,23.863-1.333,35.596c-1.727,5.072-3.431,10.154-5.115,15.145c5.259,0.85,10.499,1.695,15.738,2.541
			c-10.329,0.742-20.899-0.451-29.583,7.168c2.118-4.061,5.167-6.834,9.323-8.43c0.811-0.311,1.776-1.047,2.048-1.809
			c3.577-10.008,6.847-20.119,7.595-30.809c1.371-19.602-4.792-35.713-21.987-46.588
			C443.761,350.086,440.874,348.223,437.979,346.371z"/>
		<path fill-rule="evenodd" clip-rule="evenodd" fill="#FFFFFF" d="M397.111,210.357c-3.986-6.74-9.051-12.14-17.062-14.217
			c2.197-1.284,5.678-0.994,8.176,0.621C393.185,199.967,396.208,204.454,397.111,210.357z"/>
		<path fill-rule="evenodd" clip-rule="evenodd" fill="#FFFFFF" d="M385.721,231.834c-0.171,0.233-0.636,0.867-1.101,1.5
			c-0.553-0.562-1.451-1.045-1.598-1.698c-0.588-2.616-1.943-4.333-4.564-5.167c-0.589-0.187-0.899-1.251-1.337-1.911
			c0.696-0.354,1.391-1.007,2.089-1.01C382.365,223.534,385.784,227.652,385.721,231.834z"/>
		<path fill-rule="evenodd" clip-rule="evenodd" fill="#FFFFFF" d="M326.965,232.398c0.41-2.674-0.73-3.958-2.08-5.245
			c-0.5-0.477-0.552-1.422-0.808-2.154c0.774-0.009,1.669-0.275,2.303,0.02c2.441,1.137,4.147,5.434,3.17,7.969
			c-0.222,0.576-1.05,0.918-1.6,1.369C327.542,233.545,327.133,232.733,326.965,232.398z"/>
		<path fill-rule="evenodd" clip-rule="evenodd" fill="#FFFFFF" d="M337.513,210.829c-3.384-5.841-7.87-9.948-14.262-11.954
			C329.781,198.676,336.914,204.565,337.513,210.829z"/>
		<linearGradient id="SVGID_5_" gradientUnits="userSpaceOnUse" x1="355.209" y1="147.0547" x2="355.209" y2="576.3881">
			<stop  offset="0" style="stop-color:#00A1DE"/>
			<stop  offset="1" style="stop-color:#002776"/>
		</linearGradient>
		<path fill-rule="evenodd" clip-rule="evenodd" fill="url(#SVGID_5_)" d="M351.161,242.994c2.085-2.041,6.969-1.484,8.035,0.652
			c0.203,0.408-0.137,1.317-0.52,1.714c-0.315,0.329-1.158,0.482-1.602,0.304C355.15,244.893,353.285,243.971,351.161,242.994z"/>
		<linearGradient id="SVGID_6_" gradientUnits="userSpaceOnUse" x1="333.7134" y1="146.1699" x2="333.7133" y2="576.0001">
			<stop  offset="0" style="stop-color:#00A1DE"/>
			<stop  offset="1" style="stop-color:#002776"/>
		</linearGradient>
		<path fill-rule="evenodd" clip-rule="evenodd" fill="url(#SVGID_6_)" d="M334.168,241.67c0.6,0.81,1.138,1.346,1.06,1.462
			c-0.617,0.91-1.354,1.74-2.053,2.595c-0.345-0.354-1.049-0.893-0.978-1.031C332.681,243.76,333.33,242.909,334.168,241.67z"/>
	</g>
</g>
</svg>
