<?xml version="1.0" encoding="utf-8"?>
<!-- Generator: Adobe Illustrator 16.0.4, SVG Export Plug-In . SVG Version: 6.00 Build 0)  -->
<!DOCTYPE svg PUBLIC "-//W3C//DTD SVG 1.1//EN" "http://www.w3.org/Graphics/SVG/1.1/DTD/svg11.dtd">
<svg version="1.1" id="Layer_1" xmlns="http://www.w3.org/2000/svg" xmlns:xlink="http://www.w3.org/1999/xlink" x="0px" y="0px"
	 width="720px" height="720px" viewBox="0 0 720 720" enable-background="new 0 0 720 720" xml:space="preserve">
<g>
	<g>
		<polygon fill="#21A0ED" points="451.051,389.045 514.267,343.733 450.172,299.231 450.107,299.236 386.161,254.835 
			386.296,254.739 322.201,210.24 322.138,210.244 258.043,165.743 195.072,211.083 195.081,211.228 132.107,256.57 
			132.192,256.631 69.279,301.927 69.285,302.072 6.314,347.413 70.126,391.914 134.284,436.409 134.288,436.406 198.095,480.905 
			198.44,480.901 262.251,525.401 325.505,480.061 325.256,479.89 388.473,434.574 388.245,434.417 451.301,389.22 		"/>
		<g>
			<g>
				<path fill="#0F8CD8" d="M36.168,338.383c0,13.731,15.077,24.861,33.677,24.861c18.602,0,33.679-11.131,33.679-24.861v11.497
					c0,13.731-15.078,24.859-33.679,24.859c-18.6,0-33.677-11.129-33.677-24.859V338.383z"/>
				<ellipse fill="#21A6F7" cx="69.846" cy="338.384" rx="33.679" ry="24.86"/>
			</g>
			<g>
				<path fill="#0F8CD8" d="M99.134,292.896c0,13.731,15.077,24.86,33.677,24.86c18.602,0,33.679-11.129,33.679-24.86v11.498
					c0,13.729-15.078,24.856-33.679,24.856c-18.6,0-33.677-11.129-33.677-24.856V292.896z"/>
				<ellipse fill="#21A6F7" cx="132.812" cy="292.897" rx="33.679" ry="24.86"/>
			</g>
			<g>
				<path fill="#0F8CD8" d="M100.326,382.878c0,13.732,15.076,24.86,33.677,24.86c18.602,0,33.679-11.128,33.679-24.86v11.498
					c0,13.728-15.077,24.858-33.679,24.858c-18.6,0-33.677-11.131-33.677-24.858V382.878z"/>
				<ellipse fill="#21A6F7" cx="134.004" cy="382.878" rx="33.678" ry="24.86"/>
			</g>
			<g>
				<path fill="#0F8CD8" d="M163.291,337.394c0,13.729,15.079,24.859,33.679,24.859c18.601,0,33.679-11.13,33.679-24.859v11.496
					c0,13.728-15.077,24.86-33.679,24.86c-18.601,0-33.679-11.133-33.679-24.86V337.394z"/>
				<ellipse fill="#21A6F7" cx="196.97" cy="337.394" rx="33.679" ry="24.859"/>
			</g>
			<g>
				<path fill="#0F8CD8" d="M161.963,247.539c0,13.734,15.077,24.86,33.677,24.86c18.602,0,33.679-11.127,33.679-24.86v11.499
					c0,13.726-15.077,24.857-33.679,24.857c-18.6,0-33.677-11.131-33.677-24.857V247.539z"/>
				<ellipse fill="#21A6F7" cx="195.64" cy="247.539" rx="33.679" ry="24.86"/>
			</g>
			<g>
				<path fill="#0F8CD8" d="M224.93,202.054c0,13.732,15.075,24.858,33.677,24.858c18.603,0,33.679-11.126,33.679-24.858v11.498
					c0,13.727-15.076,24.857-33.679,24.857c-18.602,0-33.677-11.13-33.677-24.857V202.054z"/>
				<path fill="#21A6F7" d="M292.285,202.054c0,13.732-15.076,24.858-33.679,24.858c-18.602,0-33.677-11.126-33.677-24.858
					c0-13.729,15.075-24.857,33.677-24.857S292.285,188.324,292.285,202.054z"/>
			</g>
			<g>
				<path fill="#0F8CD8" d="M226.119,292.035c0,13.733,15.076,24.86,33.677,24.86c18.601,0,33.68-11.127,33.68-24.86v11.498
					c0,13.728-15.078,24.858-33.68,24.858s-33.677-11.13-33.677-24.858V292.035z"/>
				<ellipse fill="#21A6F7" cx="259.796" cy="292.035" rx="33.677" ry="24.86"/>
			</g>
			<g>
				<path fill="#0F8CD8" d="M289.085,246.549c0,13.73,15.077,24.859,33.677,24.859c18.604,0,33.68-11.129,33.68-24.859v11.498
					c0,13.729-15.076,24.857-33.68,24.857c-18.6,0-33.677-11.128-33.677-24.857V246.549z"/>
				<ellipse fill="#21A6F7" cx="322.763" cy="246.549" rx="33.68" ry="24.86"/>
			</g>
		</g>
		<g>
			<g>
				<path fill="#0F8CD8" d="M164.139,427.375c0,13.729,15.076,24.86,33.676,24.86c18.601,0,33.68-11.131,33.68-24.86v11.496
					c0,13.729-15.079,24.86-33.68,24.86c-18.601,0-33.676-11.132-33.676-24.86V427.375z"/>
				<ellipse fill="#21A6F7" cx="197.818" cy="427.374" rx="33.679" ry="24.861"/>
			</g>
			<g>
				<path fill="#0F8CD8" d="M227.105,381.89c0,13.733,15.077,24.858,33.676,24.858c18.602,0,33.679-11.125,33.679-24.858v11.498
					c0,13.727-15.077,24.858-33.679,24.858c-18.599,0-33.676-11.132-33.676-24.858V381.89z"/>
				<ellipse fill="#21A6F7" cx="260.783" cy="381.889" rx="33.677" ry="24.859"/>
			</g>
			<g>
				<path fill="#0F8CD8" d="M228.295,471.871c0,13.73,15.078,24.859,33.678,24.859c18.601,0,33.68-11.129,33.68-24.859v11.498
					c0,13.728-15.077,24.86-33.68,24.86c-18.601,0-33.678-11.133-33.678-24.86V471.871z"/>
				<ellipse fill="#21A6F7" cx="261.973" cy="471.871" rx="33.679" ry="24.86"/>
			</g>
			<g>
				<path fill="#0F8CD8" d="M291.262,426.383c0,13.733,15.078,24.861,33.677,24.861c18.602,0,33.678-11.128,33.678-24.861v11.499
					c0,13.727-15.077,24.858-33.678,24.858c-18.599,0-33.677-11.132-33.677-24.858V426.383z"/>
				<path fill="#21A6F7" d="M358.617,426.383c0,13.733-15.077,24.861-33.678,24.861c-18.599,0-33.677-11.128-33.677-24.861
					c0-13.725,15.078-24.857,33.677-24.857C343.541,401.525,358.617,412.658,358.617,426.383z"/>
			</g>
			<g>
				<path fill="#0F8CD8" d="M289.931,336.531c0,13.733,15.078,24.859,33.678,24.859c18.602,0,33.679-11.126,33.679-24.859v11.499
					c0,13.729-15.079,24.858-33.679,24.858s-33.678-11.131-33.678-24.858V336.531z"/>
				<ellipse fill="#21A6F7" cx="323.61" cy="336.532" rx="33.679" ry="24.859"/>
			</g>
			<g>
				<path fill="#0F8CD8" d="M352.899,291.047c0,13.73,15.077,24.857,33.677,24.857s33.68-11.126,33.68-24.857v11.496
					c0,13.729-15.08,24.857-33.68,24.857c-18.601,0-33.677-11.13-33.677-24.857V291.047z"/>
				<ellipse fill="#21A6F7" cx="386.576" cy="291.047" rx="33.68" ry="24.857"/>
			</g>
			<g>
				<path fill="#0F8CD8" d="M354.09,381.027c0,13.731,15.078,24.86,33.678,24.86c18.603,0,33.679-11.129,33.679-24.86v11.498
					c0,13.729-15.078,24.858-33.679,24.858c-18.6,0-33.678-11.13-33.678-24.858V381.027z"/>
				<ellipse fill="#21A6F7" cx="387.768" cy="381.028" rx="33.679" ry="24.86"/>
			</g>
			<g>
				<path fill="#0F8CD8" d="M417.055,335.541c0,13.73,15.079,24.86,33.679,24.86c18.601,0,33.681-11.13,33.681-24.86v11.496
					c0,13.729-15.081,24.86-33.681,24.86s-33.679-11.133-33.679-24.86V335.541z"/>
				<ellipse fill="#21A6F7" cx="450.733" cy="335.542" rx="33.681" ry="24.859"/>
			</g>
		</g>
		<polygon fill="#0F8CD8" points="514.015,343.75 514.015,376.064 262.251,557.15 262.251,525.401 		"/>
		<polyline fill="#1B97E2" points="262.251,557.15 262.251,525.401 134.42,436.499 134.42,436.499 6.314,347.574 6.035,382.152 
			134.004,471.144 		"/>
	</g>
	<g>
		<polygon fill="#21A0ED" points="579.034,477.163 642.249,431.851 578.156,387.35 578.092,387.355 514.143,342.954 
			514.279,342.858 450.185,298.358 450.122,298.363 386.027,253.861 323.056,299.202 323.063,299.347 260.09,344.688 
			260.176,344.75 197.263,390.045 197.269,390.191 134.297,435.53 198.111,480.034 262.269,524.53 262.271,524.524 326.252,569.021 
			326.252,569.021 390.236,613.521 453.49,568.18 453.24,568.007 516.456,522.692 516.229,522.536 579.285,477.338 		"/>
		<g>
			<g>
				<path fill="#0F8CD8" d="M164.15,426.502c0,13.73,15.078,24.861,33.678,24.861c18.601,0,33.679-11.131,33.679-24.861V438
					c0,13.728-15.079,24.857-33.679,24.857c-18.6,0-33.678-11.13-33.678-24.857V426.502z"/>
				<ellipse fill="#21A6F7" cx="197.83" cy="426.502" rx="33.679" ry="24.861"/>
			</g>
			<g>
				<path fill="#0F8CD8" d="M227.117,381.016c0,13.733,15.077,24.859,33.677,24.859c18.602,0,33.68-11.126,33.68-24.859v11.496
					c0,13.728-15.08,24.856-33.68,24.856s-33.677-11.129-33.677-24.856V381.016z"/>
				<ellipse fill="#21A6F7" cx="260.796" cy="381.015" rx="33.679" ry="24.86"/>
			</g>
			<g>
				<path fill="#0F8CD8" d="M228.309,470.996c0,13.733,15.078,24.858,33.678,24.858c18.602,0,33.679-11.125,33.679-24.858v11.497
					c0,13.729-15.078,24.858-33.679,24.858c-18.6,0-33.678-11.129-33.678-24.858V470.996z"/>
				<ellipse fill="#21A6F7" cx="261.988" cy="470.995" rx="33.679" ry="24.859"/>
			</g>
			<g>
				<path fill="#0F8CD8" d="M291.275,425.512c0,13.729,15.078,24.857,33.678,24.857c18.602,0,33.679-11.128,33.679-24.857v11.497
					c0,13.728-15.078,24.858-33.679,24.858c-18.6,0-33.678-11.131-33.678-24.858V425.512z"/>
				<ellipse fill="#21A6F7" cx="324.953" cy="425.512" rx="33.679" ry="24.857"/>
			</g>
			<g>
				<path fill="#0F8CD8" d="M289.946,335.658c0,13.731,15.077,24.859,33.677,24.859c18.602,0,33.68-11.128,33.68-24.859v11.499
					c0,13.726-15.08,24.858-33.68,24.858c-18.6,0-33.677-11.132-33.677-24.858V335.658z"/>
				<ellipse fill="#21A6F7" cx="323.625" cy="335.658" rx="33.679" ry="24.86"/>
			</g>
			<g>
				<path fill="#0F8CD8" d="M352.913,290.172c0,13.731,15.074,24.859,33.675,24.859c18.604,0,33.68-11.128,33.68-24.859v11.497
					c0,13.73-15.076,24.858-33.68,24.858c-18.601,0-33.675-11.129-33.675-24.858V290.172z"/>
				<ellipse fill="#21A6F7" cx="386.59" cy="290.172" rx="33.678" ry="24.859"/>
			</g>
			<g>
				<path fill="#0F8CD8" d="M354.101,380.153c0,13.732,15.079,24.86,33.678,24.86c18.602,0,33.679-11.128,33.679-24.86v11.499
					c0,13.726-15.079,24.856-33.679,24.856s-33.678-11.131-33.678-24.856V380.153z"/>
				<ellipse fill="#21A6F7" cx="387.781" cy="380.154" rx="33.679" ry="24.86"/>
			</g>
			<g>
				<path fill="#0F8CD8" d="M417.068,334.667c0,13.731,15.078,24.86,33.678,24.86c18.605,0,33.681-11.129,33.681-24.86v11.498
					c0,13.729-15.075,24.857-33.681,24.857c-18.6,0-33.678-11.128-33.678-24.857V334.667z"/>
				<path fill="#21A6F7" d="M484.425,334.667c0,13.731-15.074,24.86-33.68,24.86c-18.601,0-33.678-11.129-33.678-24.86
					c0-13.728,15.077-24.858,33.678-24.858C469.351,309.809,484.425,320.939,484.425,334.667z"/>
			</g>
		</g>
		<g>
			<g>
				<path fill="#0F8CD8" d="M292.123,515.493c0,13.731,15.076,24.86,33.676,24.86c18.603,0,33.68-11.129,33.68-24.86v11.499
					c0,13.725-15.079,24.858-33.68,24.858c-18.6,0-33.676-11.134-33.676-24.858V515.493z"/>
				<ellipse fill="#21A6F7" cx="325.802" cy="515.494" rx="33.677" ry="24.86"/>
			</g>
			<g>
				<path fill="#0F8CD8" d="M355.089,470.009c0,13.73,15.079,24.856,33.677,24.856c18.604,0,33.679-11.126,33.679-24.856v11.498
					c0,13.726-15.077,24.857-33.679,24.857c-18.598,0-33.677-11.132-33.677-24.857V470.009z"/>
				<ellipse fill="#21A6F7" cx="388.767" cy="470.008" rx="33.678" ry="24.857"/>
			</g>
			<g>
				<path fill="#0F8CD8" d="M356.278,559.988c0,13.731,15.078,24.862,33.679,24.862c18.602,0,33.68-11.131,33.68-24.862v11.498
					c0,13.729-15.079,24.859-33.68,24.859s-33.679-11.13-33.679-24.859V559.988z"/>
				<path fill="#21A6F7" d="M423.637,559.988c0,13.731-15.079,24.862-33.68,24.862s-33.679-11.131-33.679-24.862
					c0-13.726,15.078-24.855,33.679-24.855S423.637,546.263,423.637,559.988z"/>
			</g>
			<g>
				<path fill="#0F8CD8" d="M419.247,514.503c0,13.731,15.077,24.86,33.677,24.86c18.602,0,33.678-11.129,33.678-24.86v11.499
					c0,13.726-15.076,24.857-33.678,24.857c-18.6,0-33.677-11.132-33.677-24.857V514.503z"/>
				<ellipse fill="#21A6F7" cx="452.924" cy="514.503" rx="33.677" ry="24.86"/>
			</g>
			<g>
				<path fill="#0F8CD8" d="M417.915,424.651c0,13.731,15.078,24.857,33.679,24.857s33.679-11.126,33.679-24.857v11.496
					c0,13.729-15.079,24.86-33.679,24.86c-18.601,0-33.679-11.132-33.679-24.86V424.651z"/>
				<ellipse fill="#21A6F7" cx="451.594" cy="424.65" rx="33.679" ry="24.858"/>
			</g>
			<g>
				<path fill="#0F8CD8" d="M480.883,379.165c0,13.731,15.076,24.859,33.678,24.859s33.679-11.128,33.679-24.859v11.498
					c0,13.726-15.079,24.855-33.679,24.855c-18.601,0-33.678-11.13-33.678-24.855V379.165z"/>
				<ellipse fill="#21A6F7" cx="514.562" cy="379.167" rx="33.679" ry="24.857"/>
			</g>
			<g>
				<path fill="#0F8CD8" d="M482.072,469.146c0,13.732,15.079,24.86,33.681,24.86c18.601,0,33.677-11.128,33.677-24.86v11.499
					c0,13.729-15.076,24.857-33.677,24.857c-18.602,0-33.681-11.128-33.681-24.857V469.146z"/>
				<path fill="#21A6F7" d="M549.429,469.146c0,13.732-15.077,24.86-33.677,24.86c-18.602,0-33.681-11.128-33.681-24.86
					c0-13.726,15.079-24.857,33.681-24.857C534.352,444.288,549.429,455.42,549.429,469.146z"/>
			</g>
			<g>
				<path fill="#0F8CD8" d="M545.039,423.66c0,13.729,15.077,24.858,33.678,24.858c18.602,0,33.68-11.129,33.68-24.858v11.497
					c0,13.728-15.078,24.86-33.68,24.86c-18.601,0-33.678-11.133-33.678-24.86V423.66z"/>
				<ellipse fill="#21A6F7" cx="578.718" cy="423.66" rx="33.679" ry="24.858"/>
			</g>
		</g>
		<polygon fill="#0F8CD8" points="642,431.869 642,464.183 390.236,645.269 390.236,613.521 		"/>
		<polyline fill="#1B97E2" points="390.236,645.269 390.236,613.521 262.403,524.619 262.403,524.619 134.297,435.693 
			134.018,470.271 261.989,559.261 		"/>
	</g>
</g>
<g>
	<g>
		<g>
			<polyline fill="#F9531F" points="516.506,344.187 323.297,211.168 323.234,211.173 258.792,166.428 195.475,212.016 
				195.481,212.165 132.165,257.752 196.325,302.494 196.673,302.493 389.696,436.468 456.262,388.028 			"/>
			<g>
				<path fill="#DB2F0E" d="M162.183,248.672c0,13.807,15.158,24.995,33.86,24.995c18.705,0,33.863-11.188,33.863-24.995v11.561
					c0,13.802-15.158,24.995-33.863,24.995c-18.701,0-33.86-11.192-33.86-24.995V248.672z"/>
				<path fill="#FF5A2C" d="M229.906,248.672c0,13.807-15.158,24.995-33.863,24.995c-18.701,0-33.86-11.188-33.86-24.995
					c0-13.802,15.157-24.993,33.86-24.993C214.748,223.679,229.906,234.871,229.906,248.672z"/>
			</g>
			<g>
				<path fill="#DB2F0E" d="M225.493,202.938c0,13.804,15.16,24.994,33.861,24.994c18.704,0,33.865-11.189,33.865-24.994v11.561
					c0,13.8-15.16,24.991-33.865,24.991c-18.701,0-33.861-11.191-33.861-24.991V202.938z"/>
				<ellipse fill="#FF5A2C" cx="259.356" cy="202.938" rx="33.863" ry="24.994"/>
			</g>
			<g>
				<path fill="#DB2F0E" d="M226.69,293.413c0,13.807,15.159,24.995,33.863,24.995c18.704,0,33.862-11.188,33.862-24.995v11.558
					c0,13.803-15.16,24.994-33.862,24.994c-18.703,0-33.863-11.191-33.863-24.994V293.413z"/>
				<ellipse fill="#FF5A2C" cx="260.553" cy="293.413" rx="33.862" ry="24.995"/>
			</g>
			<g>
				<g>
					<path fill="#DB2F0E" d="M290.002,247.677c0,13.806,15.157,24.995,33.86,24.995s33.862-11.189,33.862-24.995v11.559
						c0,13.802-15.158,24.994-33.862,24.994c-18.703,0-33.86-11.192-33.86-24.994V247.677z"/>
					<ellipse fill="#FF5A2C" cx="323.862" cy="247.677" rx="33.862" ry="24.995"/>
				</g>
			</g>
		</g>
		<polygon fill="#DB2F0E" points="516.506,344.224 516.506,425.656 389.696,518.859 389.696,495.393 389.696,436.468 		"/>
		<polygon fill="#E84318" points="132.165,257.752 132.165,343.157 389.696,518.859 389.696,436.468 		"/>
	</g>
	<g>
		<path fill="#DB2F0E" d="M296.332,340.967c0,13.806,15.158,24.995,33.86,24.995c18.705,0,33.864-11.188,33.864-24.995v11.561
			c0,13.802-15.159,24.994-33.864,24.994c-18.701,0-33.86-11.192-33.86-24.994V340.967z"/>
		<ellipse fill="#FF5A2C" cx="330.195" cy="340.967" rx="33.861" ry="24.995"/>
	</g>
	<g>
		<path fill="#DB2F0E" d="M359.643,295.233c0,13.805,15.159,24.994,33.862,24.994c18.704,0,33.862-11.188,33.862-24.994v11.561
			c0,13.8-15.158,24.991-33.862,24.991c-18.703,0-33.862-11.191-33.862-24.991V295.233z"/>
		<ellipse fill="#FF5A2C" cx="393.506" cy="295.234" rx="33.863" ry="24.993"/>
	</g>
	<g>
		<path fill="#DB2F0E" d="M360.84,385.705c0,13.809,15.158,24.998,33.861,24.998c18.704,0,33.862-11.189,33.862-24.998v11.559
			c0,13.807-15.158,24.995-33.862,24.995c-18.703,0-33.861-11.188-33.861-24.995V385.705z"/>
		<ellipse fill="#FF5A2C" cx="394.701" cy="385.707" rx="33.864" ry="24.997"/>
	</g>
	<g>
		<g>
			<path fill="#DB2F0E" d="M424.15,339.971c0,13.808,15.158,24.995,33.862,24.995c18.702,0,33.862-11.188,33.862-24.995v11.562
				c0,13.801-15.16,24.992-33.862,24.992c-18.704,0-33.862-11.192-33.862-24.992V339.971z"/>
			<ellipse fill="#FF5A2C" cx="458.013" cy="339.971" rx="33.862" ry="24.995"/>
		</g>
	</g>
</g>
<g>
	<g>
		<polygon fill="#AEF721" points="387.74,173.151 323.297,128.408 323.234,128.412 258.792,83.668 195.475,129.256 195.481,129.404 
			132.165,174.992 196.325,219.735 196.673,219.732 260.93,264.477 324.336,218.819 324.336,218.819 		"/>
		<g>
			<path fill="#93D80F" d="M162.183,165.912c0,13.807,15.158,24.996,33.86,24.996c18.705,0,33.863-11.189,33.863-24.996v11.562
				c0,13.802-15.158,24.993-33.863,24.993c-18.701,0-33.86-11.192-33.86-24.993V165.912z"/>
			<path fill="#B8FF2E" d="M229.906,165.912c0,13.807-15.158,24.996-33.863,24.996c-18.701,0-33.86-11.189-33.86-24.996
				c0-13.802,15.157-24.992,33.86-24.992C214.748,140.918,229.906,152.109,229.906,165.912z"/>
		</g>
		<g>
			<path fill="#93D80F" d="M225.493,120.177c0,13.805,15.16,24.993,33.861,24.993c18.704,0,33.865-11.188,33.865-24.993v11.561
				c0,13.801-15.16,24.992-33.865,24.992c-18.701,0-33.861-11.191-33.861-24.992V120.177z"/>
			<ellipse fill="#B8FF2E" cx="259.356" cy="120.177" rx="33.863" ry="24.994"/>
		</g>
		<g>
			<path fill="#93D80F" d="M226.69,210.651c0,13.808,15.159,24.998,33.863,24.998c18.704,0,33.862-11.19,33.862-24.998v11.56
				c0,13.805-15.16,24.996-33.862,24.996c-18.703,0-33.863-11.191-33.863-24.996V210.651z"/>
			<ellipse fill="#B8FF2E" cx="260.553" cy="210.651" rx="33.862" ry="24.998"/>
		</g>
		<g>
			<g>
				<path fill="#93D80F" d="M290.002,164.916c0,13.807,15.157,24.995,33.86,24.995s33.863-11.188,33.863-24.995v11.562
					c0,13.801-15.16,24.992-33.863,24.992c-18.703,0-33.86-11.191-33.86-24.992V164.916z"/>
				<ellipse fill="#B8FF2E" cx="323.862" cy="164.916" rx="33.862" ry="24.995"/>
			</g>
		</g>
	</g>
	<polygon fill="#E84318" points="260.93,264.477 132.165,174.992 132.165,235.029 260.93,324.212 387.74,231.93 387.74,173.151 	"/>
	<polygon fill="#93D80F" points="387.74,173.151 387.74,254.585 260.93,346.867 260.93,323.401 260.93,264.477 	"/>
	<polygon fill="#A0E51A" points="132.165,174.992 132.165,257.686 260.93,347.193 260.93,264.477 	"/>
</g>
<linearGradient id="SVGID_1_" gradientUnits="userSpaceOnUse" x1="441.6367" y1="197.6064" x2="484.9699" y2="265.1396" gradientTransform="matrix(1.1372 -1.5918 -0.8137 -0.5813 212.2931 1426.9976)">
	<stop  offset="0.075" style="stop-color:#FFFFFF;stop-opacity:0"/>
	<stop  offset="0.17" style="stop-color:#F9F9F9;stop-opacity:0.1026"/>
	<stop  offset="0.2912" style="stop-color:#EAEAEA;stop-opacity:0.2337"/>
	<stop  offset="0.4267" style="stop-color:#CFCFCF;stop-opacity:0.3802"/>
	<stop  offset="0.5727" style="stop-color:#ABABAB;stop-opacity:0.5381"/>
	<stop  offset="0.7272" style="stop-color:#7C7C7C;stop-opacity:0.705"/>
	<stop  offset="0.8861" style="stop-color:#434343;stop-opacity:0.8768"/>
	<stop  offset="1" style="stop-color:#161616"/>
</linearGradient>
<polygon fill="url(#SVGID_1_)" points="714.854,518.17 468.914,698.58 389.696,644.604 641.559,464.482 "/>
<g>
	<g>
		<polygon fill="#F4EE22" points="516.506,262.752 452.064,218.008 452,218.013 387.558,173.27 324.24,218.857 324.248,219.004 
			260.93,264.593 325.091,309.336 325.439,309.333 389.696,354.077 453.102,308.42 453.102,308.42 		"/>
		<g>
			<path fill="#D6D112" d="M290.948,255.513c0,13.807,15.157,24.996,33.86,24.996c18.706,0,33.865-11.188,33.865-24.996v11.561
				c0,13.802-15.158,24.994-33.865,24.994c-18.701,0-33.86-11.193-33.86-24.994V255.513z"/>
			<path fill="#FFF931" d="M358.673,255.513c0,13.807-15.158,24.996-33.866,24.996c-18.701,0-33.859-11.188-33.859-24.996
				c0-13.802,15.157-24.992,33.859-24.992C343.514,230.52,358.673,241.711,358.673,255.513z"/>
		</g>
		<g>
			<path fill="#D6D112" d="M354.259,209.778c0,13.806,15.158,24.994,33.86,24.994c18.705,0,33.863-11.188,33.863-24.994v11.561
				c0,13.8-15.158,24.993-33.863,24.993c-18.702,0-33.86-11.192-33.86-24.993V209.778z"/>
			<ellipse fill="#FFF931" cx="388.121" cy="209.779" rx="33.861" ry="24.994"/>
		</g>
		<g>
			<path fill="#D6D112" d="M355.456,300.253c0,13.808,15.158,24.997,33.862,24.997c18.702,0,33.861-11.189,33.861-24.997v11.559
				c0,13.806-15.159,24.997-33.861,24.997c-18.704,0-33.862-11.191-33.862-24.997V300.253z"/>
			<ellipse fill="#FFF931" cx="389.318" cy="300.252" rx="33.861" ry="24.998"/>
		</g>
		<g>
			<g>
				<path fill="#D6D112" d="M418.768,254.518c0,13.806,15.155,24.995,33.861,24.995c18.702,0,33.861-11.189,33.861-24.995v11.561
					c0,13.802-15.159,24.992-33.861,24.992c-18.706,0-33.861-11.19-33.861-24.992V254.518z"/>
				<ellipse fill="#FFF931" cx="452.63" cy="254.518" rx="33.862" ry="24.995"/>
			</g>
		</g>
	</g>
	<polygon fill="#E84318" points="389.696,354.077 260.93,264.593 260.93,324.631 389.696,413.812 516.506,321.53 516.506,262.752 	
		"/>
	<polygon fill="#D6D112" points="516.506,262.752 516.506,344.187 389.696,436.468 389.696,413.005 389.696,354.077 	"/>
	<polygon fill="#E2DD1B" points="260.93,264.593 260.93,347.286 389.696,436.468 389.696,354.077 	"/>
</g>
<text transform="matrix(0.7696 0.5297 -0.0201 0.9998 45.2354 399.7656)" fill="#FFFFFF" font-family="'AvenirNext-Bold'" font-size="23.0872">S E C U R I T Y </text>
<text transform="matrix(0.7696 0.5297 -0.0201 0.9998 167.1748 483.6943)" fill="#1B97E2" font-family="'AvenirNext-Bold'" font-size="23.0872">..</text>
<text transform="matrix(0.7696 0.5297 -0.0201 0.9998 177.8354 491.0322)" fill="#FFFFFF" font-family="'AvenirNext-Bold'" font-size="23.0872">M E C H A N I S M</text>
<text transform="matrix(0.7696 0.5297 -0.0201 0.9998 158.9429 233.4277)" fill="#333333" font-family="'AvenirNext-Bold'" font-size="23.0872">BLOCK</text>
<text transform="matrix(0.7696 0.5297 -0.0201 0.9998 167.1631 267.1675)" fill="#333333" font-family="'AvenirNext-Bold'" font-size="23.0872">TIME</text>
<text transform="matrix(0.7696 0.5297 -0.0201 0.9998 268.1309 307.3848)" fill="#333333" font-family="'AvenirNext-Bold'" font-size="23.0872">CONSENSUS</text>
<text transform="matrix(0.7696 0.5297 -0.0201 0.9998 268.3667 335.6279)" fill="#333333" font-family="'AvenirNext-Bold'" font-size="23.0872">ALGORITHM</text>
<text transform="matrix(0.7696 0.5297 -0.0201 0.9998 162.0493 331.7588)" fill="#FFFFFF" font-family="'AvenirNext-Bold'" font-size="23.0872">PERMISSIONS LAYER</text>
<g>
	<g>
		<g>
			<polyline fill="#7921F7" points="516.506,179.406 323.297,46.387 323.234,46.392 258.792,1.646 195.475,47.235 195.481,47.382 
				132.165,92.971 196.325,137.713 196.673,137.71 389.696,271.687 456.262,223.246 			"/>
			<g>
				<path fill="#620FD8" d="M162.183,83.89c0,13.806,15.158,24.995,33.86,24.995c18.705,0,33.863-11.189,33.863-24.995v11.561
					c0,13.802-15.158,24.995-33.863,24.995c-18.701,0-33.86-11.193-33.86-24.995V83.89z"/>
				<path fill="#842EFF" d="M229.906,83.89c0,13.806-15.158,24.995-33.863,24.995c-18.701,0-33.86-11.189-33.86-24.995
					c0-13.802,15.157-24.993,33.86-24.993C214.748,58.897,229.906,70.088,229.906,83.89z"/>
			</g>
			<g>
				<path fill="#620FD8" d="M225.493,38.157c0,13.804,15.16,24.993,33.861,24.993c18.704,0,33.865-11.189,33.865-24.993v11.561
					c0,13.799-15.16,24.991-33.865,24.991c-18.701,0-33.861-11.192-33.861-24.991V38.157z"/>
				<ellipse fill="#842EFF" cx="259.356" cy="38.156" rx="33.863" ry="24.994"/>
			</g>
			<g>
				<path fill="#620FD8" d="M226.69,128.631c0,13.806,15.159,24.995,33.863,24.995c18.704,0,33.862-11.188,33.862-24.995v11.558
					c0,13.803-15.16,24.995-33.862,24.995c-18.703,0-33.863-11.191-33.863-24.995V128.631z"/>
				<ellipse fill="#842EFF" cx="260.553" cy="128.631" rx="33.862" ry="24.995"/>
			</g>
			<g>
				<g>
					<path fill="#620FD8" d="M290.002,82.895c0,13.805,15.157,24.995,33.86,24.995s33.862-11.189,33.862-24.995v11.559
						c0,13.802-15.158,24.994-33.862,24.994c-18.703,0-33.86-11.191-33.86-24.994V82.895z"/>
					<ellipse fill="#842EFF" cx="323.862" cy="82.895" rx="33.862" ry="24.995"/>
				</g>
			</g>
		</g>
		<polygon fill="#620FD8" points="516.506,179.443 516.506,262.752 389.696,354.077 389.696,330.612 389.696,271.687 		"/>
		<polygon fill="#6E1AE5" points="132.165,92.971 132.165,178.375 389.696,354.077 389.696,271.687 		"/>
	</g>
	<g>
		<path fill="#620FD8" d="M291.036,172.214c0,13.807,15.158,24.995,33.861,24.995c18.704,0,33.863-11.188,33.863-24.995v11.561
			c0,13.802-15.159,24.995-33.863,24.995c-18.701,0-33.861-11.193-33.861-24.995V172.214z"/>
		<ellipse fill="#842EFF" cx="324.899" cy="172.214" rx="33.861" ry="24.995"/>
	</g>
	<g>
		<path fill="#620FD8" d="M354.347,126.479c0,13.804,15.159,24.994,33.862,24.994s33.862-11.189,33.862-24.994v11.561
			c0,13.8-15.159,24.991-33.862,24.991s-33.862-11.191-33.862-24.991V126.479z"/>
		<ellipse fill="#842EFF" cx="388.21" cy="126.48" rx="33.863" ry="24.993"/>
	</g>
	<g>
		<path fill="#620FD8" d="M355.544,216.953c0,13.808,15.159,24.997,33.86,24.997c18.705,0,33.863-11.189,33.863-24.997v11.559
			c0,13.804-15.158,24.994-33.863,24.994c-18.701,0-33.86-11.19-33.86-24.994V216.953z"/>
		<ellipse fill="#842EFF" cx="389.406" cy="216.953" rx="33.862" ry="24.996"/>
	</g>
	<g>
		<g>
			<path fill="#620FD8" d="M418.854,171.219c0,13.806,15.158,24.995,33.861,24.995s33.865-11.189,33.865-24.995v11.561
				c0,13.801-15.162,24.993-33.865,24.993s-33.861-11.192-33.861-24.993V171.219z"/>
			<path fill="#842EFF" d="M452.716,146.224c18.703,0,33.865,11.19,33.865,24.995c0,13.803-15.162,24.995-33.865,24.995
				c-18.7,0-33.862-11.191-33.862-24.995C418.854,157.414,434.016,146.224,452.716,146.224z"/>
		</g>
	</g>
</g>
<text transform="matrix(0.7696 0.5297 -0.0201 0.9998 141.0767 153.3584)" fill="#FFFFFF" font-family="'AvenirNext-Bold'" font-size="23.0872">ENTERPRISE INTEGRATION</text>
<g>
	<g>
		<polygon fill="#A3BF2E" points="641.194,94.341 590.47,56.456 590.414,56.461 534.873,95.417 587.879,134.451 		"/>
		<g>
			<g>
				<path fill="#789A0F" d="M560.357,89.286c0,11.69,12.837,21.161,28.669,21.161c15.837,0,28.673-9.471,28.673-21.161v9.789
					c0,11.686-12.836,21.159-28.673,21.159c-15.832,0-28.669-9.473-28.669-21.159V89.286z"/>
				<ellipse fill="#B6CC32" cx="589.028" cy="89.286" rx="28.671" ry="21.161"/>
			</g>
		</g>
	</g>
	<polygon fill="#829E0D" points="641.194,94.341 587.879,134.451 534.873,95.417 534.873,146.765 588.07,183.086 641.194,139.253 	
		"/>
	<polygon fill="#829E0D" points="588.07,183.086 641.194,139.253 641.194,94.341 587.879,134.451 	"/>
	<polygon fill="#8EB01D" points="534.873,95.417 534.873,146.765 588.07,183.086 587.879,134.451 	"/>
</g>
<g>
	<polygon fill="#AD1971" points="169.219,528.931 112.636,489.644 112.578,489.649 1.454,569.831 57.787,609.116 113.632,569.09 
		113.41,568.937 	"/>
	<g>
		<path fill="#850750" d="M27.809,561.858c0,12.123,13.31,21.946,29.732,21.946c16.421,0,29.732-9.823,29.732-21.946v10.15
			c0,12.119-13.311,21.943-29.732,21.943c-16.423,0-29.732-9.824-29.732-21.943V561.858z"/>
		<ellipse fill="#B81E76" cx="57.541" cy="561.859" rx="29.732" ry="21.946"/>
	</g>
	<g>
		<g>
			<path fill="#850750" d="M83.399,521.7c0,12.123,13.31,21.945,29.731,21.945c16.421,0,29.732-9.822,29.732-21.945v10.152
				c0,12.117-13.312,21.943-29.732,21.943c-16.421,0-29.731-9.826-29.731-21.943V521.7z"/>
			<ellipse fill="#B81E76" cx="113.13" cy="521.7" rx="29.732" ry="21.946"/>
		</g>
	</g>
	<polygon fill="#A73B79" points="57.872,609.116 1.454,569.831 1.454,622.544 57.872,661.567 169.219,580.542 169.219,528.931 	"/>
	<polygon fill="#91375D" points="169.219,528.931 169.219,580.542 57.872,661.567 57.872,660.854 57.872,609.116 	"/>
	<polygon fill="#A73B79" points="1.454,569.831 1.454,622.544 57.872,661.567 57.872,609.116 	"/>
</g>
<linearGradient id="SVGID_2_" gradientUnits="userSpaceOnUse" x1="270.2256" y1="482.375" x2="301.0893" y2="564.7716" gradientTransform="matrix(0.7059 -0.9881 -0.8137 -0.5813 363.7895 1214.9349)">
	<stop  offset="0.075" style="stop-color:#FFFFFF;stop-opacity:0"/>
	<stop  offset="0.6184" style="stop-color:#747474;stop-opacity:0.5874"/>
	<stop  offset="1" style="stop-color:#161616"/>
</linearGradient>
<polygon fill="url(#SVGID_2_)" points="243.021,633.336 136.434,712.401 57.872,661.567 169.488,579.98 "/>
<linearGradient id="SVGID_3_" gradientUnits="userSpaceOnUse" x1="818.5742" y1="340.8975" x2="849.764" y2="424.1647" gradientTransform="matrix(0.7059 -0.9881 -0.8137 -0.5813 363.7895 1214.9349)">
	<stop  offset="0.075" style="stop-color:#FFFFFF;stop-opacity:0"/>
	<stop  offset="0.16" style="stop-color:#F4F4F4;stop-opacity:0.0919"/>
	<stop  offset="0.3073" style="stop-color:#D8D8D8;stop-opacity:0.2511"/>
	<stop  offset="0.4994" style="stop-color:#AAAAAA;stop-opacity:0.4588"/>
	<stop  offset="0.7288" style="stop-color:#6A6A6A;stop-opacity:0.7068"/>
	<stop  offset="0.9873" style="stop-color:#1A1A1A;stop-opacity:0.9863"/>
	<stop  offset="1" style="stop-color:#161616"/>
</linearGradient>
<polygon fill="url(#SVGID_3_)" points="716.238,191.128 666.714,233.884 588.15,183.05 641.194,139.253 "/>
</svg>
