<?xml version="1.0" encoding="utf-8"?>
<!-- Generator: Adobe Illustrator 16.0.4, SVG Export Plug-In . SVG Version: 6.00 Build 0)  -->
<!DOCTYPE svg PUBLIC "-//W3C//DTD SVG 1.1//EN" "http://www.w3.org/Graphics/SVG/1.1/DTD/svg11.dtd">
<svg version="1.1" id="Layer_1" xmlns="http://www.w3.org/2000/svg" xmlns:xlink="http://www.w3.org/1999/xlink" x="0px" y="0px"
	 width="720px" height="720px" viewBox="0 0 720 720" enable-background="new 0 0 720 720" xml:space="preserve">
<g>
	<g>
		<polygon fill="#21A0ED" points="451.051,389.045 514.267,343.733 450.172,299.231 450.107,299.236 386.161,254.835 
			386.296,254.739 322.201,210.24 322.138,210.244 258.043,165.743 195.072,211.083 195.081,211.228 132.107,256.57 
			132.192,256.631 69.279,301.927 69.285,302.072 6.314,347.413 70.126,391.914 134.284,436.409 134.288,436.406 198.095,480.905 
			198.44,480.901 262.251,525.401 325.505,480.061 325.256,479.89 388.473,434.574 388.245,434.417 451.301,389.22 		"/>
		<g>
			<g>
				<path fill="#0F8CD8" d="M36.168,338.383c0,13.731,15.077,24.861,33.677,24.861c18.602,0,33.679-11.131,33.679-24.861v11.497
					c0,13.731-15.078,24.859-33.679,24.859c-18.6,0-33.677-11.129-33.677-24.859V338.383z"/>
				<ellipse fill="#21A6F7" cx="69.846" cy="338.384" rx="33.679" ry="24.86"/>
			</g>
			<g>
				<path fill="#0F8CD8" d="M99.134,292.896c0,13.731,15.077,24.86,33.677,24.86c18.602,0,33.679-11.129,33.679-24.86v11.498
					c0,13.729-15.078,24.856-33.679,24.856c-18.6,0-33.677-11.129-33.677-24.856V292.896z"/>
				<ellipse fill="#21A6F7" cx="132.812" cy="292.897" rx="33.679" ry="24.86"/>
			</g>
			<g>
				<path fill="#0F8CD8" d="M100.326,382.878c0,13.732,15.076,24.86,33.677,24.86c18.602,0,33.679-11.128,33.679-24.86v11.498
					c0,13.728-15.077,24.858-33.679,24.858c-18.6,0-33.677-11.131-33.677-24.858V382.878z"/>
				<ellipse fill="#21A6F7" cx="134.004" cy="382.878" rx="33.678" ry="24.86"/>
			</g>
			<g>
				<path fill="#0F8CD8" d="M163.291,337.394c0,13.729,15.079,24.859,33.679,24.859c18.601,0,33.679-11.13,33.679-24.859v11.496
					c0,13.728-15.077,24.86-33.679,24.86c-18.601,0-33.679-11.133-33.679-24.86V337.394z"/>
				<ellipse fill="#21A6F7" cx="196.97" cy="337.394" rx="33.679" ry="24.859"/>
			</g>
			<g>
				<path fill="#0F8CD8" d="M161.963,247.539c0,13.734,15.077,24.86,33.677,24.86c18.602,0,33.679-11.127,33.679-24.86v11.499
					c0,13.726-15.077,24.857-33.679,24.857c-18.6,0-33.677-11.131-33.677-24.857V247.539z"/>
				<ellipse fill="#21A6F7" cx="195.64" cy="247.539" rx="33.679" ry="24.86"/>
			</g>
			<g>
				<path fill="#0F8CD8" d="M224.93,202.054c0,13.732,15.075,24.858,33.677,24.858c18.603,0,33.679-11.126,33.679-24.858v11.498
					c0,13.727-15.076,24.857-33.679,24.857c-18.602,0-33.677-11.13-33.677-24.857V202.054z"/>
				<path fill="#21A6F7" d="M292.285,202.054c0,13.732-15.076,24.858-33.679,24.858c-18.602,0-33.677-11.126-33.677-24.858
					c0-13.729,15.075-24.857,33.677-24.857S292.285,188.324,292.285,202.054z"/>
			</g>
			<g>
				<path fill="#0F8CD8" d="M226.119,292.035c0,13.733,15.076,24.86,33.677,24.86c18.601,0,33.68-11.127,33.68-24.86v11.498
					c0,13.728-15.078,24.858-33.68,24.858s-33.677-11.13-33.677-24.858V292.035z"/>
				<ellipse fill="#21A6F7" cx="259.796" cy="292.035" rx="33.677" ry="24.86"/>
			</g>
			<g>
				<path fill="#0F8CD8" d="M289.085,246.549c0,13.73,15.077,24.859,33.677,24.859c18.604,0,33.68-11.129,33.68-24.859v11.498
					c0,13.729-15.076,24.857-33.68,24.857c-18.6,0-33.677-11.128-33.677-24.857V246.549z"/>
				<ellipse fill="#21A6F7" cx="322.763" cy="246.549" rx="33.68" ry="24.86"/>
			</g>
		</g>
		<g>
			<g>
				<path fill="#0F8CD8" d="M164.139,427.375c0,13.729,15.076,24.86,33.676,24.86c18.601,0,33.68-11.131,33.68-24.86v11.496
					c0,13.729-15.079,24.86-33.68,24.86c-18.601,0-33.676-11.132-33.676-24.86V427.375z"/>
				<ellipse fill="#21A6F7" cx="197.818" cy="427.374" rx="33.679" ry="24.861"/>
			</g>
			<g>
				<path fill="#0F8CD8" d="M227.105,381.89c0,13.733,15.077,24.858,33.676,24.858c18.602,0,33.679-11.125,33.679-24.858v11.498
					c0,13.727-15.077,24.858-33.679,24.858c-18.599,0-33.676-11.132-33.676-24.858V381.89z"/>
				<ellipse fill="#21A6F7" cx="260.783" cy="381.889" rx="33.677" ry="24.859"/>
			</g>
			<g>
				<path fill="#0F8CD8" d="M228.295,471.871c0,13.73,15.078,24.859,33.678,24.859c18.601,0,33.68-11.129,33.68-24.859v11.498
					c0,13.728-15.077,24.86-33.68,24.86c-18.601,0-33.678-11.133-33.678-24.86V471.871z"/>
				<ellipse fill="#21A6F7" cx="261.973" cy="471.871" rx="33.679" ry="24.86"/>
			</g>
			<g>
				<path fill="#0F8CD8" d="M291.262,426.383c0,13.733,15.078,24.861,33.677,24.861c18.602,0,33.678-11.128,33.678-24.861v11.499
					c0,13.727-15.077,24.858-33.678,24.858c-18.599,0-33.677-11.132-33.677-24.858V426.383z"/>
				<path fill="#21A6F7" d="M358.617,426.383c0,13.733-15.077,24.861-33.678,24.861c-18.599,0-33.677-11.128-33.677-24.861
					c0-13.725,15.078-24.857,33.677-24.857C343.541,401.525,358.617,412.658,358.617,426.383z"/>
			</g>
			<g>
				<path fill="#0F8CD8" d="M289.931,336.531c0,13.733,15.078,24.859,33.678,24.859c18.602,0,33.679-11.126,33.679-24.859v11.499
					c0,13.729-15.079,24.858-33.679,24.858s-33.678-11.131-33.678-24.858V336.531z"/>
				<ellipse fill="#21A6F7" cx="323.61" cy="336.532" rx="33.679" ry="24.859"/>
			</g>
			<g>
				<path fill="#0F8CD8" d="M352.899,291.047c0,13.73,15.077,24.857,33.677,24.857s33.68-11.126,33.68-24.857v11.496
					c0,13.729-15.08,24.857-33.68,24.857c-18.601,0-33.677-11.13-33.677-24.857V291.047z"/>
				<ellipse fill="#21A6F7" cx="386.576" cy="291.047" rx="33.68" ry="24.857"/>
			</g>
			<g>
				<path fill="#0F8CD8" d="M354.09,381.027c0,13.731,15.078,24.86,33.678,24.86c18.603,0,33.679-11.129,33.679-24.86v11.498
					c0,13.729-15.078,24.858-33.679,24.858c-18.6,0-33.678-11.13-33.678-24.858V381.027z"/>
				<ellipse fill="#21A6F7" cx="387.768" cy="381.028" rx="33.679" ry="24.86"/>
			</g>
			<g>
				<path fill="#0F8CD8" d="M417.055,335.541c0,13.73,15.079,24.86,33.679,24.86c18.601,0,33.681-11.13,33.681-24.86v11.496
					c0,13.729-15.081,24.86-33.681,24.86s-33.679-11.133-33.679-24.86V335.541z"/>
				<ellipse fill="#21A6F7" cx="450.733" cy="335.542" rx="33.681" ry="24.859"/>
			</g>
		</g>
		<polygon fill="#0F8CD8" points="514.015,343.75 514.015,376.064 262.251,557.15 262.251,525.401 		"/>
		<polyline fill="#1B97E2" points="262.251,557.15 262.251,525.401 134.42,436.499 134.42,436.499 6.314,347.574 6.035,382.152 
			134.004,471.144 		"/>
	</g>
	<g>
		<polygon fill="#21A0ED" points="579.034,477.163 642.249,431.851 578.156,387.35 578.092,387.355 514.143,342.954 
			514.279,342.858 450.185,298.358 450.122,298.363 386.027,253.861 323.056,299.202 323.063,299.347 260.09,344.688 
			260.176,344.75 197.263,390.045 197.269,390.191 134.297,435.53 198.111,480.034 262.269,524.53 262.271,524.524 326.252,569.021 
			326.252,569.021 390.236,613.521 453.49,568.18 453.24,568.007 516.456,522.692 516.229,522.536 579.285,477.338 		"/>
		<g>
			<g>
				<path fill="#0F8CD8" d="M164.15,426.502c0,13.73,15.078,24.861,33.678,24.861c18.601,0,33.679-11.131,33.679-24.861V438
					c0,13.728-15.079,24.857-33.679,24.857c-18.6,0-33.678-11.13-33.678-24.857V426.502z"/>
				<ellipse fill="#21A6F7" cx="197.83" cy="426.502" rx="33.679" ry="24.861"/>
			</g>
			<g>
				<path fill="#0F8CD8" d="M227.117,381.016c0,13.733,15.077,24.859,33.677,24.859c18.602,0,33.68-11.126,33.68-24.859v11.496
					c0,13.728-15.08,24.856-33.68,24.856s-33.677-11.129-33.677-24.856V381.016z"/>
				<ellipse fill="#21A6F7" cx="260.796" cy="381.015" rx="33.679" ry="24.86"/>
			</g>
			<g>
				<path fill="#0F8CD8" d="M228.309,470.996c0,13.733,15.078,24.858,33.678,24.858c18.602,0,33.679-11.125,33.679-24.858v11.497
					c0,13.729-15.078,24.858-33.679,24.858c-18.6,0-33.678-11.129-33.678-24.858V470.996z"/>
				<ellipse fill="#21A6F7" cx="261.988" cy="470.995" rx="33.679" ry="24.859"/>
			</g>
			<g>
				<path fill="#0F8CD8" d="M291.275,425.512c0,13.729,15.078,24.857,33.678,24.857c18.602,0,33.679-11.128,33.679-24.857v11.497
					c0,13.728-15.078,24.858-33.679,24.858c-18.6,0-33.678-11.131-33.678-24.858V425.512z"/>
				<ellipse fill="#21A6F7" cx="324.953" cy="425.512" rx="33.679" ry="24.857"/>
			</g>
			<g>
				<path fill="#0F8CD8" d="M289.946,335.658c0,13.731,15.077,24.859,33.677,24.859c18.602,0,33.68-11.128,33.68-24.859v11.499
					c0,13.726-15.08,24.858-33.68,24.858c-18.6,0-33.677-11.132-33.677-24.858V335.658z"/>
				<ellipse fill="#21A6F7" cx="323.625" cy="335.658" rx="33.679" ry="24.86"/>
			</g>
			<g>
				<path fill="#0F8CD8" d="M352.913,290.172c0,13.731,15.074,24.859,33.675,24.859c18.604,0,33.68-11.128,33.68-24.859v11.497
					c0,13.73-15.076,24.858-33.68,24.858c-18.601,0-33.675-11.129-33.675-24.858V290.172z"/>
				<ellipse fill="#21A6F7" cx="386.59" cy="290.172" rx="33.678" ry="24.859"/>
			</g>
			<g>
				<path fill="#0F8CD8" d="M354.101,380.153c0,13.732,15.079,24.86,33.678,24.86c18.602,0,33.679-11.128,33.679-24.86v11.499
					c0,13.726-15.079,24.856-33.679,24.856s-33.678-11.131-33.678-24.856V380.153z"/>
				<ellipse fill="#21A6F7" cx="387.781" cy="380.154" rx="33.679" ry="24.86"/>
			</g>
			<g>
				<path fill="#0F8CD8" d="M417.068,334.667c0,13.731,15.078,24.86,33.678,24.86c18.605,0,33.681-11.129,33.681-24.86v11.498
					c0,13.729-15.075,24.857-33.681,24.857c-18.6,0-33.678-11.128-33.678-24.857V334.667z"/>
				<path fill="#21A6F7" d="M484.425,334.667c0,13.731-15.074,24.86-33.68,24.86c-18.601,0-33.678-11.129-33.678-24.86
					c0-13.728,15.077-24.858,33.678-24.858C469.351,309.809,484.425,320.939,484.425,334.667z"/>
			</g>
		</g>
		<g>
			<g>
				<path fill="#0F8CD8" d="M292.123,515.493c0,13.731,15.076,24.86,33.676,24.86c18.603,0,33.68-11.129,33.68-24.86v11.499
					c0,13.725-15.079,24.858-33.68,24.858c-18.6,0-33.676-11.134-33.676-24.858V515.493z"/>
				<ellipse fill="#21A6F7" cx="325.802" cy="515.494" rx="33.677" ry="24.86"/>
			</g>
			<g>
				<path fill="#0F8CD8" d="M355.089,470.009c0,13.73,15.079,24.856,33.677,24.856c18.604,0,33.679-11.126,33.679-24.856v11.498
					c0,13.726-15.077,24.857-33.679,24.857c-18.598,0-33.677-11.132-33.677-24.857V470.009z"/>
				<ellipse fill="#21A6F7" cx="388.767" cy="470.008" rx="33.678" ry="24.857"/>
			</g>
			<g>
				<path fill="#0F8CD8" d="M356.278,559.988c0,13.731,15.078,24.862,33.679,24.862c18.602,0,33.68-11.131,33.68-24.862v11.498
					c0,13.729-15.079,24.859-33.68,24.859s-33.679-11.13-33.679-24.859V559.988z"/>
				<path fill="#21A6F7" d="M423.637,559.988c0,13.731-15.079,24.862-33.68,24.862s-33.679-11.131-33.679-24.862
					c0-13.726,15.078-24.855,33.679-24.855S423.637,546.263,423.637,559.988z"/>
			</g>
			<g>
				<path fill="#0F8CD8" d="M419.247,514.503c0,13.731,15.077,24.86,33.677,24.86c18.602,0,33.678-11.129,33.678-24.86v11.499
					c0,13.726-15.076,24.857-33.678,24.857c-18.6,0-33.677-11.132-33.677-24.857V514.503z"/>
				<ellipse fill="#21A6F7" cx="452.924" cy="514.503" rx="33.677" ry="24.86"/>
			</g>
			<g>
				<path fill="#0F8CD8" d="M417.915,424.651c0,13.731,15.078,24.857,33.679,24.857s33.679-11.126,33.679-24.857v11.496
					c0,13.729-15.079,24.86-33.679,24.86c-18.601,0-33.679-11.132-33.679-24.86V424.651z"/>
				<ellipse fill="#21A6F7" cx="451.594" cy="424.65" rx="33.679" ry="24.858"/>
			</g>
			<g>
				<path fill="#0F8CD8" d="M480.883,379.165c0,13.731,15.076,24.859,33.678,24.859s33.679-11.128,33.679-24.859v11.498
					c0,13.726-15.079,24.855-33.679,24.855c-18.601,0-33.678-11.13-33.678-24.855V379.165z"/>
				<ellipse fill="#21A6F7" cx="514.562" cy="379.167" rx="33.679" ry="24.857"/>
			</g>
			<g>
				<path fill="#0F8CD8" d="M482.072,469.146c0,13.732,15.079,24.86,33.681,24.86c18.601,0,33.677-11.128,33.677-24.86v11.499
					c0,13.729-15.076,24.857-33.677,24.857c-18.602,0-33.681-11.128-33.681-24.857V469.146z"/>
				<path fill="#21A6F7" d="M549.429,469.146c0,13.732-15.077,24.86-33.677,24.86c-18.602,0-33.681-11.128-33.681-24.86
					c0-13.726,15.079-24.857,33.681-24.857C534.352,444.288,549.429,455.42,549.429,469.146z"/>
			</g>
			<g>
				<path fill="#0F8CD8" d="M545.039,423.66c0,13.729,15.077,24.858,33.678,24.858c18.602,0,33.68-11.129,33.68-24.858v11.497
					c0,13.728-15.078,24.86-33.68,24.86c-18.601,0-33.678-11.133-33.678-24.86V423.66z"/>
				<ellipse fill="#21A6F7" cx="578.718" cy="423.66" rx="33.679" ry="24.858"/>
			</g>
		</g>
		<polygon fill="#0F8CD8" points="642,431.869 642,464.183 390.236,645.269 390.236,613.521 		"/>
		<polyline fill="#1B97E2" points="390.236,645.269 390.236,613.521 262.403,524.619 262.403,524.619 134.297,435.693 
			134.018,470.271 261.989,559.261 		"/>
	</g>
</g>
<g>
	<g>
		<g>
			<polyline fill="#F9531F" points="516.506,344.187 323.297,211.168 323.234,211.173 258.792,166.428 195.475,212.016 
				195.481,212.165 132.165,257.752 196.325,302.494 196.673,302.493 389.696,436.468 456.262,388.028 			"/>
			<g>
				<path fill="#DB2F0E" d="M162.183,248.672c0,13.807,15.158,24.995,33.86,24.995c18.705,0,33.863-11.188,33.863-24.995v11.561
					c0,13.802-15.158,24.995-33.863,24.995c-18.701,0-33.86-11.192-33.86-24.995V248.672z"/>
				<path fill="#FF5A2C" d="M229.906,248.672c0,13.807-15.158,24.995-33.863,24.995c-18.701,0-33.86-11.188-33.86-24.995
					c0-13.802,15.157-24.993,33.86-24.993C214.748,223.679,229.906,234.871,229.906,248.672z"/>
			</g>
			<g>
				<path fill="#DB2F0E" d="M225.493,202.938c0,13.804,15.16,24.994,33.861,24.994c18.704,0,33.865-11.189,33.865-24.994v11.561
					c0,13.8-15.16,24.991-33.865,24.991c-18.701,0-33.861-11.191-33.861-24.991V202.938z"/>
				<ellipse fill="#FF5A2C" cx="259.356" cy="202.938" rx="33.863" ry="24.994"/>
			</g>
			<g>
				<path fill="#DB2F0E" d="M226.69,293.413c0,13.807,15.159,24.995,33.863,24.995c18.704,0,33.862-11.188,33.862-24.995v11.558
					c0,13.803-15.16,24.994-33.862,24.994c-18.703,0-33.863-11.191-33.863-24.994V293.413z"/>
				<ellipse fill="#FF5A2C" cx="260.553" cy="293.413" rx="33.862" ry="24.995"/>
			</g>
			<g>
				<g>
					<path fill="#DB2F0E" d="M290.002,247.677c0,13.806,15.157,24.995,33.86,24.995s33.862-11.189,33.862-24.995v11.559
						c0,13.802-15.158,24.994-33.862,24.994c-18.703,0-33.86-11.192-33.86-24.994V247.677z"/>
					<ellipse fill="#FF5A2C" cx="323.862" cy="247.677" rx="33.862" ry="24.995"/>
				</g>
			</g>
		</g>
		<polygon fill="#DB2F0E" points="516.506,344.224 516.506,425.656 389.696,518.859 389.696,495.393 389.696,436.468 		"/>
		<polygon fill="#E84318" points="132.165,257.752 132.165,343.157 389.696,518.859 389.696,436.468 		"/>
	</g>
	<g>
		<path fill="#DB2F0E" d="M296.332,340.967c0,13.806,15.158,24.995,33.86,24.995c18.705,0,33.864-11.188,33.864-24.995v11.561
			c0,13.802-15.159,24.994-33.864,24.994c-18.701,0-33.86-11.192-33.86-24.994V340.967z"/>
		<ellipse fill="#FF5A2C" cx="330.195" cy="340.967" rx="33.861" ry="24.995"/>
	</g>
	<g>
		<path fill="#DB2F0E" d="M359.643,295.233c0,13.805,15.159,24.994,33.862,24.994c18.704,0,33.862-11.188,33.862-24.994v11.561
			c0,13.8-15.158,24.991-33.862,24.991c-18.703,0-33.862-11.191-33.862-24.991V295.233z"/>
		<ellipse fill="#FF5A2C" cx="393.506" cy="295.234" rx="33.863" ry="24.993"/>
	</g>
	<g>
		<path fill="#DB2F0E" d="M360.84,385.705c0,13.809,15.158,24.998,33.861,24.998c18.704,0,33.862-11.189,33.862-24.998v11.559
			c0,13.807-15.158,24.995-33.862,24.995c-18.703,0-33.861-11.188-33.861-24.995V385.705z"/>
		<ellipse fill="#FF5A2C" cx="394.701" cy="385.707" rx="33.864" ry="24.997"/>
	</g>
	<g>
		<g>
			<path fill="#DB2F0E" d="M424.15,339.971c0,13.808,15.158,24.995,33.862,24.995c18.702,0,33.862-11.188,33.862-24.995v11.562
				c0,13.801-15.16,24.992-33.862,24.992c-18.704,0-33.862-11.192-33.862-24.992V339.971z"/>
			<ellipse fill="#FF5A2C" cx="458.013" cy="339.971" rx="33.862" ry="24.995"/>
		</g>
	</g>
</g>
<g>
	<g>
		<polygon fill="#AEF721" points="387.74,173.151 323.297,128.408 323.234,128.412 258.792,83.668 195.475,129.256 195.481,129.404 
			132.165,174.992 196.325,219.735 196.673,219.732 260.93,264.477 324.336,218.819 324.336,218.819 		"/>
		<g>
			<path fill="#93D80F" d="M162.183,165.912c0,13.807,15.158,24.996,33.86,24.996c18.705,0,33.863-11.189,33.863-24.996v11.562
				c0,13.802-15.158,24.993-33.863,24.993c-18.701,0-33.86-11.192-33.86-24.993V165.912z"/>
			<path fill="#B8FF2E" d="M229.906,165.912c0,13.807-15.158,24.996-33.863,24.996c-18.701,0-33.86-11.189-33.86-24.996
				c0-13.802,15.157-24.992,33.86-24.992C214.748,140.918,229.906,152.109,229.906,165.912z"/>
		</g>
		<g>
			<path fill="#93D80F" d="M225.493,120.177c0,13.805,15.16,24.993,33.861,24.993c18.704,0,33.865-11.188,33.865-24.993v11.561
				c0,13.801-15.16,24.992-33.865,24.992c-18.701,0-33.861-11.191-33.861-24.992V120.177z"/>
			<ellipse fill="#B8FF2E" cx="259.356" cy="120.177" rx="33.863" ry="24.994"/>
		</g>
		<g>
			<path fill="#93D80F" d="M226.69,210.651c0,13.808,15.159,24.998,33.863,24.998c18.704,0,33.862-11.19,33.862-24.998v11.56
				c0,13.805-15.16,24.996-33.862,24.996c-18.703,0-33.863-11.191-33.863-24.996V210.651z"/>
			<ellipse fill="#B8FF2E" cx="260.553" cy="210.651" rx="33.862" ry="24.998"/>
		</g>
		<g>
			<g>
				<path fill="#93D80F" d="M290.002,164.916c0,13.807,15.157,24.995,33.86,24.995s33.863-11.188,33.863-24.995v11.562
					c0,13.801-15.16,24.992-33.863,24.992c-18.703,0-33.86-11.191-33.86-24.992V164.916z"/>
				<ellipse fill="#B8FF2E" cx="323.862" cy="164.916" rx="33.862" ry="24.995"/>
			</g>
		</g>
	</g>
	<polygon fill="#E84318" points="260.93,264.477 132.165,174.992 132.165,235.029 260.93,324.212 387.74,231.93 387.74,173.151 	"/>
	<polygon fill="#93D80F" points="387.74,173.151 387.74,254.585 260.93,346.867 260.93,323.401 260.93,264.477 	"/>
	<polygon fill="#A0E51A" points="132.165,174.992 132.165,257.686 260.93,347.193 260.93,264.477 	"/>
</g>
<linearGradient id="SVGID_1_" gradientUnits="userSpaceOnUse" x1="441.6367" y1="197.6064" x2="484.9699" y2="265.1396" gradientTransform="matrix(1.1372 -1.5918 -0.8137 -0.5813 212.2931 1426.9976)">
	<stop  offset="0.075" style="stop-color:#FFFFFF;stop-opacity:0"/>
	<stop  offset="0.17" style="stop-color:#F9F9F9;stop-opacity:0.1026"/>
	<stop  offset="0.2912" style="stop-color:#EAEAEA;stop-opacity:0.2337"/>
	<stop  offset="0.4267" style="stop-color:#CFCFCF;stop-opacity:0.3802"/>
	<stop  offset="0.5727" style="stop-color:#ABABAB;stop-opacity:0.5381"/>
	<stop  offset="0.7272" style="stop-color:#7C7C7C;stop-opacity:0.705"/>
	<stop  offset="0.8861" style="stop-color:#434343;stop-opacity:0.8768"/>
	<stop  offset="1" style="stop-color:#161616"/>
</linearGradient>
<polygon fill="url(#SVGID_1_)" points="714.854,518.17 468.914,698.58 389.696,644.604 641.559,464.482 "/>
<g>
	<g>
		<polygon fill="#F4EE22" points="516.506,262.752 452.064,218.008 452,218.013 387.558,173.27 324.24,218.857 324.248,219.004 
			260.93,264.593 325.091,309.336 325.439,309.333 389.696,354.077 453.102,308.42 453.102,308.42 		"/>
		<g>
			<path fill="#D6D112" d="M290.948,255.513c0,13.807,15.157,24.996,33.86,24.996c18.706,0,33.865-11.188,33.865-24.996v11.561
				c0,13.802-15.158,24.994-33.865,24.994c-18.701,0-33.86-11.193-33.86-24.994V255.513z"/>
			<path fill="#FFF931" d="M358.673,255.513c0,13.807-15.158,24.996-33.866,24.996c-18.701,0-33.859-11.188-33.859-24.996
				c0-13.802,15.157-24.992,33.859-24.992C343.514,230.52,358.673,241.711,358.673,255.513z"/>
		</g>
		<g>
			<path fill="#D6D112" d="M354.259,209.778c0,13.806,15.158,24.994,33.86,24.994c18.705,0,33.863-11.188,33.863-24.994v11.561
				c0,13.8-15.158,24.993-33.863,24.993c-18.702,0-33.86-11.192-33.86-24.993V209.778z"/>
			<ellipse fill="#FFF931" cx="388.121" cy="209.779" rx="33.861" ry="24.994"/>
		</g>
		<g>
			<path fill="#D6D112" d="M355.456,300.253c0,13.808,15.158,24.997,33.862,24.997c18.702,0,33.861-11.189,33.861-24.997v11.559
				c0,13.806-15.159,24.997-33.861,24.997c-18.704,0-33.862-11.191-33.862-24.997V300.253z"/>
			<ellipse fill="#FFF931" cx="389.318" cy="300.252" rx="33.861" ry="24.998"/>
		</g>
		<g>
			<g>
				<path fill="#D6D112" d="M418.768,254.518c0,13.806,15.155,24.995,33.861,24.995c18.702,0,33.861-11.189,33.861-24.995v11.561
					c0,13.802-15.159,24.992-33.861,24.992c-18.706,0-33.861-11.19-33.861-24.992V254.518z"/>
				<ellipse fill="#FFF931" cx="452.63" cy="254.518" rx="33.862" ry="24.995"/>
			</g>
		</g>
	</g>
	<polygon fill="#E84318" points="389.696,354.077 260.93,264.593 260.93,324.631 389.696,413.812 516.506,321.53 516.506,262.752 	
		"/>
	<polygon fill="#D6D112" points="516.506,262.752 516.506,344.187 389.696,436.468 389.696,413.005 389.696,354.077 	"/>
	<polygon fill="#E2DD1B" points="260.93,264.593 260.93,347.286 389.696,436.468 389.696,354.077 	"/>
</g>
<g enable-background="new    ">
	<path fill="#FFFFFF" d="M53.421,393.137c-0.252-0.609-0.585-1.187-1.001-1.73c-0.415-0.543-0.818-0.949-1.209-1.218
		c-0.201-0.139-0.407-0.257-0.615-0.353c-0.208-0.098-0.396-0.137-0.565-0.12s-0.311,0.091-0.428,0.221s-0.178,0.356-0.185,0.68
		c-0.006,0.277,0.035,0.539,0.119,0.784c0.085,0.246,0.212,0.497,0.381,0.754c0.168,0.257,0.37,0.524,0.605,0.803
		c0.234,0.278,0.499,0.582,0.792,0.908c0.422,0.479,0.863,0.988,1.32,1.528c0.458,0.542,0.872,1.127,1.244,1.758
		c0.372,0.63,0.676,1.304,0.914,2.021c0.238,0.718,0.349,1.483,0.332,2.3c-0.019,0.938-0.168,1.658-0.449,2.159
		c-0.28,0.502-0.65,0.82-1.109,0.957s-0.981,0.113-1.566-0.071c-0.584-0.185-1.185-0.488-1.801-0.912
		c-0.9-0.62-1.767-1.423-2.599-2.409c-0.833-0.986-1.521-2.049-2.062-3.187l2.042-1.261c0.298,0.704,0.696,1.395,1.193,2.072
		c0.497,0.678,0.994,1.187,1.491,1.529c0.226,0.155,0.445,0.275,0.66,0.36c0.214,0.086,0.403,0.113,0.565,0.085
		c0.163-0.028,0.294-0.125,0.393-0.291c0.1-0.165,0.153-0.409,0.159-0.733c0.006-0.307-0.048-0.609-0.162-0.906
		c-0.114-0.297-0.279-0.609-0.494-0.938c-0.216-0.327-0.486-0.677-0.808-1.047c-0.324-0.371-0.691-0.783-1.102-1.238
		c-0.4-0.446-0.789-0.917-1.169-1.413c-0.38-0.495-0.717-1.028-1.013-1.599c-0.295-0.568-0.529-1.174-0.702-1.816
		c-0.174-0.642-0.253-1.332-0.238-2.07c0.019-0.908,0.177-1.588,0.473-2.038c0.298-0.451,0.682-0.725,1.152-0.822
		c0.47-0.098,0.998-0.042,1.582,0.165c0.584,0.206,1.172,0.514,1.765,0.921c0.711,0.49,1.433,1.159,2.167,2.007
		c0.733,0.848,1.372,1.794,1.916,2.84L53.421,393.137z"/>
	<path fill="#FFFFFF" d="M61.475,410.943l0.329-16.343l8.458,5.821l-0.067,3.324l-5.526-3.804l-0.062,3.094l5.223,3.595
		l-0.063,3.162l-5.223-3.595l-0.068,3.393l5.846,4.023l-0.068,3.37L61.475,410.943z"/>
	<path fill="#FFFFFF" d="M85.716,427.336c-0.827-0.078-1.774-0.484-2.84-1.218c-0.972-0.669-1.864-1.494-2.679-2.476
		c-0.815-0.982-1.517-2.062-2.106-3.24c-0.588-1.177-1.044-2.415-1.366-3.713c-0.322-1.299-0.471-2.586-0.445-3.864
		c0.026-1.308,0.225-2.372,0.596-3.193s0.872-1.394,1.503-1.716c0.631-0.322,1.365-0.398,2.202-0.228
		c0.837,0.171,1.735,0.586,2.695,1.247c0.888,0.611,1.758,1.416,2.609,2.415c0.85,0.999,1.535,2.074,2.051,3.226l-2.115,1.26
		c-0.274-0.703-0.64-1.338-1.096-1.901c-0.458-0.564-0.929-1.014-1.414-1.348c-0.533-0.367-1.024-0.576-1.474-0.629
		c-0.449-0.052-0.838,0.036-1.167,0.262c-0.33,0.227-0.588,0.582-0.778,1.067c-0.19,0.486-0.292,1.09-0.306,1.813
		c-0.015,0.738,0.06,1.477,0.225,2.215c0.166,0.737,0.4,1.434,0.706,2.089c0.305,0.654,0.674,1.256,1.107,1.803
		c0.433,0.549,0.91,1.002,1.431,1.36c0.604,0.416,1.134,0.625,1.591,0.627s0.826-0.149,1.108-0.454l2.062,4.041
		C87.244,427.229,86.543,427.414,85.716,427.336z"/>
	<path fill="#FFFFFF" d="M103.859,436.594c-0.271,0.633-0.65,1.074-1.134,1.326c-0.486,0.25-1.067,0.307-1.743,0.169
		s-1.422-0.487-2.24-1.05c-0.829-0.57-1.571-1.246-2.229-2.025c-0.657-0.78-1.21-1.617-1.66-2.512
		c-0.451-0.896-0.792-1.832-1.024-2.812c-0.233-0.979-0.339-1.961-0.319-2.946l0.205-10.179l3.021,2.079l-0.198,9.855
		c-0.009,0.447,0.027,0.9,0.107,1.361c0.081,0.462,0.21,0.913,0.387,1.354c0.177,0.441,0.415,0.858,0.713,1.252
		c0.298,0.392,0.66,0.735,1.087,1.028c0.426,0.294,0.792,0.452,1.099,0.476c0.305,0.022,0.556-0.058,0.752-0.242
		c0.196-0.186,0.339-0.449,0.43-0.792c0.09-0.344,0.141-0.738,0.15-1.185l0.198-9.856l3.038,2.092l-0.205,10.18
		C104.275,435.152,104.13,435.961,103.859,436.594z"/>
	<path fill="#FFFFFF" d="M117.799,449.71l-2.601-8.366l-1.036-0.713l-0.13,6.486l-2.967-2.042l0.329-16.343l4.797,3.303
		c0.604,0.415,1.192,0.901,1.764,1.459c0.571,0.557,1.08,1.185,1.528,1.883c0.448,0.699,0.803,1.457,1.063,2.275
		c0.259,0.819,0.38,1.697,0.361,2.637c-0.022,1.107-0.272,1.88-0.75,2.315c-0.477,0.437-1.127,0.534-1.951,0.295l3.146,9.257
		L117.799,449.71z M117.903,438.291c0.008-0.385-0.049-0.739-0.169-1.063c-0.121-0.325-0.277-0.621-0.471-0.887
		s-0.413-0.506-0.655-0.72c-0.243-0.215-0.478-0.399-0.703-0.555l-1.625-1.118l-0.077,3.809l1.446,0.995
		c0.25,0.172,0.506,0.321,0.769,0.448c0.264,0.126,0.503,0.193,0.72,0.202c0.217,0.01,0.396-0.07,0.539-0.237
		C117.819,438.998,117.895,438.706,117.903,438.291z"/>
	<path fill="#FFFFFF" d="M127.286,456.24l0.329-16.343l3.056,2.104l-0.329,16.342L127.286,456.24z"/>
	<path fill="#FFFFFF" d="M142.597,453.626l-0.261,12.973l-3.039-2.092l0.261-12.972l-3.554-2.446l0.068-3.37l10.146,6.983
		l-0.068,3.37L142.597,453.626z"/>
	<path fill="#FFFFFF" d="M157.116,469.751l-0.139,6.925l-3.038-2.092l0.139-6.925l-4.537-12.67l3.678,2.531l2.562,7.895l2.804-4.201
		l3.553,2.445L157.116,469.751z"/>
</g>
<g enable-background="new    ">
	<path fill="#1B97E2" d="M171.676,484.732c-0.013,0.646-0.198,1.064-0.557,1.255c-0.357,0.19-0.779,0.118-1.265-0.216
		c-0.249-0.171-0.482-0.391-0.698-0.656c-0.217-0.267-0.406-0.557-0.568-0.871c-0.161-0.313-0.287-0.638-0.376-0.973
		c-0.09-0.334-0.131-0.663-0.125-0.986c0.006-0.308,0.06-0.568,0.16-0.779c0.1-0.212,0.235-0.364,0.405-0.458
		s0.365-0.126,0.587-0.099c0.221,0.027,0.457,0.127,0.706,0.298c0.486,0.335,0.899,0.838,1.239,1.509
		C171.525,483.428,171.688,484.086,171.676,484.732z"/>
	<path fill="#1B97E2" d="M177.006,488.401c-0.013,0.646-0.198,1.064-0.557,1.255c-0.357,0.189-0.779,0.118-1.265-0.216
		c-0.249-0.172-0.482-0.391-0.698-0.656c-0.217-0.267-0.406-0.557-0.568-0.87c-0.161-0.314-0.287-0.64-0.376-0.974
		c-0.09-0.335-0.131-0.663-0.125-0.987c0.006-0.308,0.06-0.566,0.16-0.778c0.1-0.212,0.235-0.364,0.405-0.458s0.366-0.127,0.587-0.1
		c0.221,0.028,0.457,0.127,0.706,0.299c0.486,0.334,0.899,0.837,1.239,1.508C176.855,487.096,177.019,487.755,177.006,488.401z"/>
</g>
<g enable-background="new    ">
	<path fill="#FFFFFF" d="M190.539,499.775l0.304-11.515l-0.053-0.036l-3.502,9.313l-2.132-1.468l-2.948-13.753l-0.053-0.036
		l-0.162,11.613l-2.86-1.97l0.329-16.343l4.323,2.977l2.654,12.45l0.071,0.049l2.95-8.593l4.394,3.023l-0.329,16.342
		L190.539,499.775z"/>
	<path fill="#FFFFFF" d="M200.542,506.661l0.329-16.343l8.458,5.822l-0.067,3.323l-5.526-3.804l-0.062,3.094l5.224,3.596
		l-0.063,3.162l-5.224-3.596l-0.068,3.393l5.846,4.023l-0.068,3.371L200.542,506.661z"/>
	<path fill="#FFFFFF" d="M224.784,523.054c-0.827-0.077-1.774-0.483-2.84-1.217c-0.972-0.669-1.864-1.495-2.679-2.477
		c-0.815-0.982-1.517-2.062-2.106-3.239c-0.589-1.178-1.044-2.416-1.366-3.714c-0.322-1.298-0.471-2.586-0.445-3.864
		c0.026-1.307,0.225-2.371,0.596-3.193c0.371-0.821,0.871-1.393,1.502-1.715c0.631-0.322,1.365-0.398,2.202-0.228
		c0.837,0.17,1.735,0.586,2.695,1.246c0.888,0.611,1.758,1.417,2.608,2.416c0.85,0.998,1.535,2.074,2.051,3.226l-2.115,1.259
		c-0.273-0.703-0.64-1.337-1.096-1.901c-0.458-0.564-0.929-1.014-1.414-1.348c-0.534-0.367-1.024-0.576-1.475-0.629
		c-0.449-0.051-0.838,0.036-1.167,0.262c-0.329,0.227-0.588,0.583-0.778,1.068c-0.19,0.485-0.292,1.09-0.306,1.812
		c-0.015,0.739,0.06,1.477,0.225,2.215c0.166,0.738,0.4,1.434,0.706,2.089c0.305,0.655,0.674,1.256,1.107,1.804
		c0.434,0.548,0.911,1.001,1.432,1.359c0.604,0.416,1.135,0.625,1.591,0.627c0.457,0.003,0.826-0.148,1.108-0.454l2.063,4.041
		C226.312,522.946,225.611,523.132,224.784,523.054z"/>
	<path fill="#FFFFFF" d="M240.52,534.177l0.137-6.832l-4.904-3.376l-0.137,6.832l-3.039-2.091l0.329-16.343l3.039,2.092
		l-0.125,6.186l4.904,3.376l0.125-6.187l3.038,2.092l-0.329,16.342L240.52,534.177z"/>
	<path fill="#FFFFFF" d="M258.803,546.761l-0.912-3.881l-4.869-3.351l-0.989,2.572l-3.305-2.275l5.606-12.709l2.949,2.029
		l4.896,19.938L258.803,546.761z M255.668,532.458l-1.712,4.508l3.162,2.177L255.668,532.458z"/>
	<path fill="#FFFFFF" d="M275.345,558.146l-4.849-14.173l-0.053-0.036l-0.144,10.736l-2.95-2.031l0.329-16.342l3.464,2.385
		l4.832,14.137l0.054,0.037l0.143-10.713l2.95,2.03l-0.329,16.343L275.345,558.146z"/>
	<path fill="#FFFFFF" d="M285.828,565.361l0.329-16.342l3.056,2.104l-0.329,16.342L285.828,565.361z"/>
	<path fill="#FFFFFF" d="M302.809,564.787c-0.252-0.61-0.585-1.188-1.001-1.73c-0.416-0.544-0.818-0.95-1.209-1.219
		c-0.201-0.139-0.407-0.257-0.614-0.353c-0.208-0.098-0.396-0.137-0.565-0.12c-0.168,0.017-0.311,0.09-0.428,0.221
		c-0.116,0.13-0.178,0.356-0.185,0.68c-0.006,0.277,0.035,0.539,0.12,0.784s0.212,0.497,0.381,0.754
		c0.168,0.257,0.371,0.524,0.605,0.803c0.234,0.278,0.499,0.581,0.792,0.908c0.422,0.479,0.863,0.987,1.32,1.528
		c0.458,0.542,0.872,1.127,1.244,1.758c0.372,0.63,0.676,1.305,0.914,2.021c0.239,0.718,0.349,1.483,0.332,2.299
		c-0.019,0.939-0.168,1.659-0.448,2.16c-0.28,0.502-0.65,0.82-1.109,0.957c-0.459,0.137-0.981,0.113-1.566-0.072
		c-0.584-0.184-1.185-0.487-1.801-0.911c-0.9-0.62-1.767-1.423-2.599-2.409c-0.833-0.986-1.521-2.049-2.062-3.186l2.043-1.262
		c0.298,0.704,0.695,1.395,1.192,2.072c0.498,0.678,0.994,1.188,1.492,1.529c0.225,0.155,0.445,0.275,0.66,0.36
		c0.214,0.086,0.403,0.114,0.565,0.085c0.163-0.028,0.293-0.125,0.394-0.291c0.1-0.165,0.152-0.409,0.159-0.732
		c0.006-0.308-0.047-0.61-0.162-0.907s-0.279-0.609-0.494-0.938c-0.216-0.327-0.485-0.677-0.808-1.047
		c-0.324-0.371-0.691-0.783-1.102-1.237c-0.399-0.447-0.789-0.918-1.169-1.414c-0.38-0.495-0.717-1.028-1.013-1.599
		c-0.294-0.568-0.528-1.174-0.701-1.816c-0.174-0.642-0.253-1.333-0.238-2.071c0.019-0.907,0.177-1.587,0.474-2.037
		c0.298-0.451,0.682-0.725,1.152-0.822s0.997-0.043,1.582,0.164c0.583,0.207,1.172,0.515,1.764,0.922
		c0.711,0.49,1.433,1.158,2.167,2.006c0.733,0.849,1.372,1.795,1.916,2.84L302.809,564.787z"/>
	<path fill="#FFFFFF" d="M322.27,590.443l0.304-11.515l-0.053-0.037l-3.503,9.313l-2.132-1.467l-2.948-13.754l-0.053-0.036
		l-0.162,11.612l-2.86-1.969l0.329-16.342l4.323,2.976l2.654,12.451l0.071,0.048l2.95-8.593l4.395,3.024l-0.329,16.342
		L322.27,590.443z"/>
</g>
<g enable-background="new    ">
	<path fill="#333333" d="M170.144,236.315c-0.018,0.893-0.169,1.549-0.454,1.97c-0.285,0.42-0.656,0.66-1.114,0.72
		c-0.457,0.06-0.975-0.028-1.552-0.262c-0.578-0.234-1.168-0.559-1.773-0.975l-5.011-3.449l0.329-16.342l5.011,3.449
		c0.486,0.334,0.982,0.742,1.488,1.223c0.507,0.481,0.965,1.023,1.373,1.624c0.408,0.601,0.737,1.26,0.987,1.978
		c0.25,0.718,0.367,1.493,0.35,2.324c-0.019,0.908-0.224,1.528-0.614,1.859c-0.391,0.332-0.897,0.416-1.518,0.254l-0.001,0.046
		c0.354,0.322,0.686,0.694,0.996,1.119c0.31,0.423,0.577,0.876,0.801,1.359c0.225,0.481,0.4,0.985,0.528,1.51
		C170.096,235.246,170.155,235.777,170.144,236.315z M167.113,233.855c0.014-0.677-0.172-1.281-0.558-1.812
		c-0.386-0.53-0.904-1.02-1.556-1.468l-1.688-1.162l-0.075,3.74l1.706,1.174c0.237,0.163,0.483,0.305,0.739,0.426
		c0.255,0.122,0.488,0.184,0.698,0.188s0.383-0.076,0.519-0.24C167.033,234.538,167.104,234.256,167.113,233.855z M166.834,227.088
		c0.011-0.554-0.144-1.071-0.464-1.549c-0.321-0.478-0.801-0.938-1.441-1.377l-1.492-1.027l-0.067,3.37l1.635,1.125
		c0.569,0.391,1.012,0.545,1.332,0.461C166.656,228.006,166.823,227.673,166.834,227.088z"/>
	<path fill="#333333" d="M172.055,242.452l0.329-16.342l3.056,2.103l-0.26,12.903l4.869,3.351l-0.069,3.439L172.055,242.452z"/>
	<path fill="#333333" d="M194.146,249.303c-0.026,1.293-0.222,2.355-0.587,3.188c-0.365,0.833-0.86,1.421-1.485,1.762
		c-0.625,0.342-1.363,0.431-2.212,0.268c-0.85-0.163-1.766-0.583-2.749-1.26s-1.888-1.51-2.715-2.5s-1.538-2.076-2.132-3.258
		c-0.595-1.181-1.053-2.425-1.375-3.731c-0.322-1.306-0.47-2.605-0.444-3.898c0.026-1.308,0.222-2.371,0.587-3.188
		c0.364-0.817,0.859-1.386,1.484-1.705c0.625-0.318,1.359-0.39,2.202-0.216c0.843,0.175,1.756,0.6,2.739,1.277
		s1.891,1.505,2.724,2.484c0.833,0.979,1.547,2.047,2.142,3.206s1.054,2.383,1.376,3.673
		C194.024,246.695,194.173,247.995,194.146,249.303z M190.895,247.065c0.014-0.708-0.062-1.431-0.226-2.168
		c-0.166-0.737-0.401-1.435-0.706-2.089c-0.305-0.655-0.677-1.262-1.117-1.822c-0.439-0.56-0.925-1.022-1.458-1.39
		c-0.533-0.367-1.021-0.574-1.464-0.622c-0.444-0.048-0.83,0.037-1.158,0.256c-0.328,0.219-0.585,0.576-0.769,1.074
		c-0.185,0.498-0.284,1.099-0.298,1.807c-0.015,0.738,0.061,1.481,0.226,2.227c0.165,0.746,0.399,1.449,0.705,2.112
		c0.304,0.662,0.674,1.271,1.107,1.827c0.433,0.556,0.917,1.017,1.449,1.383c0.533,0.367,1.021,0.574,1.464,0.622
		c0.443,0.048,0.829-0.041,1.159-0.268c0.328-0.227,0.588-0.589,0.779-1.091C190.777,248.423,190.88,247.804,190.895,247.065z"/>
	<path fill="#333333" d="M205.003,264.837c-0.827-0.078-1.774-0.484-2.84-1.217c-0.972-0.669-1.865-1.494-2.68-2.477
		c-0.815-0.982-1.517-2.062-2.105-3.239s-1.044-2.416-1.366-3.714c-0.323-1.298-0.471-2.586-0.445-3.864
		c0.026-1.308,0.226-2.372,0.596-3.193c0.371-0.821,0.871-1.394,1.502-1.715c0.631-0.322,1.365-0.398,2.203-0.228
		c0.836,0.17,1.735,0.586,2.695,1.246c0.888,0.611,1.757,1.417,2.608,2.416c0.851,0.999,1.535,2.075,2.052,3.226l-2.115,1.259
		c-0.274-0.703-0.64-1.337-1.096-1.901c-0.458-0.564-0.929-1.014-1.414-1.348c-0.534-0.367-1.024-0.576-1.474-0.629
		c-0.449-0.052-0.838,0.036-1.167,0.262c-0.329,0.227-0.588,0.583-0.778,1.067c-0.19,0.486-0.292,1.091-0.306,1.813
		c-0.015,0.739,0.06,1.478,0.225,2.215c0.166,0.738,0.4,1.434,0.706,2.089c0.305,0.654,0.674,1.256,1.107,1.804
		s0.911,1.001,1.432,1.359c0.604,0.416,1.134,0.625,1.591,0.627c0.457,0.002,0.826-0.148,1.107-0.455l2.063,4.041
		C206.53,264.729,205.83,264.915,205.003,264.837z"/>
	<path fill="#333333" d="M216.031,272.72l-4.522-10.741l-0.035-0.024l-0.151,7.524l-2.968-2.042l0.329-16.343l2.968,2.043
		l-0.134,6.647l0.053,0.037l4.629-3.554l3.803,2.617l-5.571,3.795l5.562,12.769L216.031,272.72z"/>
</g>
<g enable-background="new    ">
	<path fill="#333333" d="M174.104,258.793l-0.261,12.973l-3.038-2.091l0.261-12.972l-3.554-2.446l0.068-3.37l10.146,6.983
		l-0.068,3.37L174.104,258.793z"/>
	<path fill="#333333" d="M178.783,275.165l0.329-16.342l3.056,2.104l-0.329,16.342L178.783,275.165z"/>
	<path fill="#333333" d="M195.84,286.905l0.304-11.515l-0.053-0.036l-3.502,9.313l-2.131-1.467l-2.949-13.753l-0.053-0.037
		l-0.162,11.613l-2.861-1.969l0.329-16.342l4.323,2.976l2.654,12.451l0.07,0.049l2.951-8.593l4.394,3.024l-0.329,16.342
		L195.84,286.905z"/>
	<path fill="#333333" d="M201.401,290.732l0.329-16.342l8.458,5.821l-0.067,3.324l-5.525-3.803l-0.062,3.093l5.223,3.595
		l-0.063,3.163l-5.223-3.595l-0.068,3.393l5.846,4.023l-0.068,3.37L201.401,290.732z"/>
</g>
<g enable-background="new    ">
	<path fill="#333333" d="M278.442,314.189c-0.827-0.078-1.774-0.484-2.84-1.217c-0.972-0.669-1.864-1.495-2.679-2.477
		c-0.815-0.982-1.517-2.062-2.105-3.239c-0.589-1.178-1.045-2.416-1.367-3.714c-0.322-1.298-0.471-2.586-0.445-3.864
		c0.026-1.308,0.225-2.372,0.596-3.193c0.371-0.821,0.871-1.394,1.502-1.715c0.631-0.322,1.365-0.398,2.202-0.228
		s1.735,0.586,2.695,1.246c0.888,0.611,1.758,1.417,2.608,2.416c0.85,0.999,1.535,2.075,2.051,3.226l-2.115,1.259
		c-0.273-0.703-0.64-1.337-1.096-1.901c-0.458-0.564-0.929-1.014-1.414-1.348c-0.534-0.367-1.024-0.576-1.475-0.629
		c-0.449-0.052-0.838,0.036-1.167,0.262c-0.329,0.227-0.588,0.583-0.778,1.067c-0.19,0.486-0.292,1.091-0.306,1.813
		c-0.015,0.739,0.06,1.477,0.225,2.215c0.166,0.738,0.4,1.434,0.706,2.089c0.305,0.654,0.674,1.256,1.107,1.804
		c0.433,0.548,0.91,1,1.431,1.359c0.604,0.416,1.135,0.625,1.591,0.627c0.457,0.002,0.826-0.148,1.108-0.455l2.063,4.041
		C279.97,314.082,279.27,314.267,278.442,314.189z"/>
	<path fill="#333333" d="M294.859,317.427c-0.026,1.292-0.221,2.355-0.586,3.188c-0.365,0.833-0.859,1.421-1.485,1.763
		c-0.625,0.342-1.363,0.431-2.211,0.268c-0.85-0.163-1.767-0.583-2.75-1.26c-0.983-0.677-1.888-1.51-2.714-2.5
		c-0.827-0.99-1.538-2.077-2.132-3.258c-0.595-1.182-1.053-2.425-1.375-3.731c-0.322-1.306-0.471-2.605-0.445-3.898
		c0.026-1.308,0.222-2.37,0.587-3.188c0.365-0.817,0.86-1.386,1.484-1.704c0.625-0.319,1.359-0.391,2.202-0.216
		c0.843,0.175,1.756,0.6,2.739,1.277c0.983,0.676,1.891,1.504,2.725,2.483c0.833,0.979,1.546,2.048,2.142,3.206
		c0.596,1.159,1.054,2.384,1.376,3.674C294.738,314.819,294.886,316.119,294.859,317.427z M291.608,315.189
		c0.015-0.708-0.062-1.431-0.226-2.168c-0.165-0.737-0.401-1.435-0.706-2.089c-0.305-0.654-0.676-1.261-1.116-1.821
		c-0.439-0.56-0.925-1.022-1.458-1.39c-0.533-0.367-1.021-0.574-1.465-0.622c-0.443-0.048-0.829,0.038-1.158,0.256
		c-0.328,0.219-0.584,0.577-0.769,1.074c-0.185,0.497-0.284,1.1-0.298,1.807c-0.015,0.739,0.061,1.481,0.226,2.227
		c0.166,0.745,0.4,1.449,0.705,2.111c0.305,0.662,0.675,1.271,1.107,1.827c0.434,0.556,0.917,1.017,1.449,1.384
		c0.533,0.367,1.021,0.573,1.465,0.621s0.829-0.041,1.158-0.267c0.329-0.227,0.589-0.59,0.779-1.091
		C291.49,316.547,291.593,315.928,291.608,315.189z"/>
	<path fill="#333333" d="M304.697,332.553l-4.849-14.173l-0.053-0.037l-0.144,10.736l-2.95-2.03l0.329-16.342l3.465,2.385
		l4.832,14.137l0.054,0.037l0.143-10.713l2.95,2.03l-0.329,16.342L304.697,332.553z"/>
	<path fill="#333333" d="M317.626,329.188c-0.252-0.609-0.585-1.187-1.001-1.73c-0.416-0.543-0.818-0.95-1.209-1.219
		c-0.201-0.138-0.407-0.256-0.615-0.353c-0.208-0.096-0.396-0.136-0.565-0.119c-0.168,0.017-0.311,0.09-0.428,0.221
		c-0.116,0.13-0.178,0.356-0.185,0.68c-0.006,0.277,0.035,0.539,0.12,0.784c0.085,0.245,0.212,0.497,0.381,0.754
		c0.169,0.256,0.371,0.524,0.606,0.803c0.234,0.278,0.499,0.582,0.792,0.908c0.423,0.478,0.862,0.988,1.32,1.528
		c0.458,0.542,0.872,1.127,1.245,1.758c0.371,0.63,0.676,1.304,0.913,2.021c0.239,0.717,0.35,1.484,0.333,2.299
		c-0.019,0.939-0.169,1.659-0.449,2.16c-0.28,0.502-0.65,0.82-1.108,0.957c-0.46,0.136-0.981,0.113-1.567-0.071
		c-0.584-0.185-1.184-0.488-1.8-0.912c-0.9-0.62-1.767-1.423-2.599-2.409c-0.833-0.986-1.521-2.049-2.062-3.186l2.043-1.261
		c0.299,0.704,0.696,1.395,1.192,2.072c0.497,0.678,0.995,1.187,1.492,1.529c0.225,0.155,0.445,0.275,0.659,0.36
		c0.215,0.086,0.404,0.114,0.565,0.085c0.163-0.028,0.294-0.125,0.393-0.291c0.1-0.166,0.153-0.41,0.159-0.733
		c0.006-0.308-0.048-0.61-0.162-0.907c-0.114-0.296-0.279-0.609-0.494-0.937c-0.216-0.328-0.485-0.677-0.808-1.047
		c-0.324-0.371-0.69-0.783-1.102-1.238c-0.399-0.446-0.789-0.917-1.169-1.414c-0.38-0.496-0.717-1.028-1.012-1.598
		c-0.295-0.569-0.529-1.175-0.701-1.817c-0.174-0.642-0.253-1.332-0.239-2.071c0.019-0.908,0.177-1.587,0.474-2.038
		c0.297-0.451,0.681-0.725,1.151-0.822s0.998-0.042,1.583,0.164c0.583,0.207,1.172,0.515,1.764,0.922
		c0.711,0.49,1.433,1.158,2.167,2.006s1.372,1.794,1.916,2.84L317.626,329.188z"/>
	<path fill="#333333" d="M321.238,343.938l0.329-16.343l8.458,5.821l-0.067,3.324l-5.526-3.804l-0.062,3.093l5.224,3.595
		l-0.063,3.162l-5.224-3.595l-0.068,3.393l5.846,4.023l-0.068,3.37L321.238,343.938z"/>
	<path fill="#333333" d="M340.02,356.864l-4.85-14.173l-0.053-0.037l-0.145,10.736l-2.949-2.03l0.329-16.342l3.465,2.384
		l4.832,14.138l0.054,0.037l0.143-10.713l2.949,2.03l-0.329,16.342L340.02,356.864z"/>
	<path fill="#333333" d="M352.948,353.5c-0.252-0.61-0.585-1.187-1.001-1.73c-0.416-0.543-0.818-0.95-1.209-1.219
		c-0.201-0.138-0.407-0.256-0.615-0.353c-0.209-0.096-0.397-0.136-0.565-0.119c-0.168,0.017-0.312,0.09-0.428,0.22
		c-0.116,0.131-0.178,0.357-0.185,0.68c-0.006,0.277,0.035,0.539,0.12,0.784c0.084,0.246,0.212,0.498,0.381,0.754
		c0.169,0.256,0.371,0.524,0.606,0.803c0.234,0.278,0.498,0.581,0.792,0.908c0.422,0.478,0.862,0.988,1.32,1.528
		c0.457,0.542,0.871,1.126,1.244,1.758c0.372,0.63,0.676,1.304,0.914,2.021c0.238,0.718,0.349,1.484,0.332,2.301
		c-0.019,0.938-0.169,1.658-0.448,2.159c-0.28,0.502-0.65,0.82-1.109,0.957c-0.459,0.136-0.98,0.112-1.566-0.071
		c-0.584-0.185-1.185-0.488-1.801-0.912c-0.899-0.62-1.767-1.423-2.599-2.409s-1.52-2.049-2.062-3.186l2.043-1.262
		c0.298,0.705,0.696,1.396,1.192,2.073c0.497,0.678,0.994,1.187,1.491,1.529c0.226,0.154,0.446,0.275,0.66,0.36
		c0.214,0.086,0.403,0.113,0.565,0.085c0.163-0.028,0.294-0.126,0.393-0.291c0.1-0.165,0.153-0.41,0.159-0.733
		c0.006-0.308-0.048-0.61-0.162-0.907c-0.114-0.297-0.279-0.609-0.495-0.937c-0.215-0.328-0.485-0.677-0.807-1.047
		c-0.324-0.371-0.691-0.783-1.102-1.238c-0.4-0.446-0.79-0.917-1.169-1.414c-0.38-0.496-0.718-1.028-1.012-1.598
		c-0.295-0.569-0.529-1.175-0.702-1.817c-0.173-0.642-0.252-1.333-0.238-2.071c0.019-0.908,0.176-1.587,0.473-2.038
		c0.298-0.45,0.682-0.724,1.152-0.821s0.998-0.042,1.582,0.164c0.584,0.207,1.173,0.515,1.765,0.922
		c0.711,0.489,1.433,1.158,2.167,2.006c0.733,0.849,1.372,1.795,1.916,2.84L352.948,353.5z"/>
	<path fill="#333333" d="M366.91,371.85c-0.271,0.633-0.649,1.074-1.135,1.326c-0.486,0.25-1.065,0.307-1.742,0.17
		c-0.676-0.138-1.422-0.487-2.239-1.051c-0.83-0.57-1.572-1.245-2.229-2.025c-0.657-0.779-1.21-1.616-1.66-2.512
		c-0.451-0.895-0.792-1.832-1.024-2.811c-0.234-0.979-0.34-1.962-0.32-2.946l0.205-10.18l3.021,2.079l-0.198,9.856
		c-0.009,0.446,0.026,0.899,0.106,1.36c0.082,0.462,0.21,0.914,0.388,1.355s0.416,0.858,0.713,1.252
		c0.298,0.392,0.66,0.734,1.087,1.028c0.426,0.294,0.793,0.452,1.099,0.476s0.557-0.058,0.752-0.243
		c0.196-0.185,0.34-0.449,0.43-0.792c0.092-0.343,0.142-0.737,0.151-1.184l0.198-9.856l3.038,2.092l-0.205,10.179
		C367.326,370.409,367.18,371.217,366.91,371.85z"/>
	<path fill="#333333" d="M376.562,369.753c-0.252-0.61-0.585-1.187-1.001-1.73s-0.818-0.949-1.209-1.219
		c-0.201-0.139-0.406-0.257-0.614-0.353c-0.209-0.097-0.397-0.137-0.565-0.12c-0.169,0.018-0.312,0.091-0.428,0.221
		c-0.117,0.13-0.179,0.357-0.186,0.681c-0.005,0.276,0.035,0.538,0.12,0.783c0.085,0.246,0.212,0.497,0.381,0.754
		s0.371,0.524,0.605,0.804c0.234,0.277,0.499,0.581,0.793,0.907c0.422,0.479,0.862,0.988,1.319,1.529
		c0.459,0.541,0.873,1.127,1.244,1.757s0.677,1.304,0.914,2.021s0.348,1.484,0.332,2.3c-0.02,0.938-0.168,1.659-0.448,2.16
		c-0.281,0.502-0.65,0.82-1.109,0.957c-0.46,0.136-0.98,0.112-1.566-0.072c-0.584-0.184-1.185-0.487-1.801-0.912
		c-0.899-0.619-1.767-1.423-2.599-2.409c-0.833-0.986-1.521-2.048-2.062-3.186l2.043-1.262c0.298,0.704,0.696,1.396,1.192,2.072
		c0.497,0.679,0.994,1.188,1.491,1.529c0.226,0.155,0.445,0.276,0.659,0.361c0.216,0.085,0.404,0.113,0.566,0.085
		c0.162-0.029,0.293-0.126,0.393-0.292c0.1-0.165,0.152-0.409,0.159-0.732c0.006-0.308-0.048-0.61-0.162-0.907
		c-0.113-0.297-0.278-0.609-0.494-0.938c-0.216-0.327-0.486-0.677-0.808-1.047c-0.324-0.37-0.69-0.783-1.102-1.237
		c-0.399-0.446-0.788-0.917-1.17-1.413c-0.38-0.496-0.717-1.029-1.012-1.599s-0.529-1.175-0.702-1.816
		c-0.174-0.643-0.253-1.333-0.237-2.071c0.018-0.908,0.176-1.587,0.473-2.038c0.298-0.45,0.682-0.725,1.151-0.822
		c0.471-0.098,0.998-0.042,1.582,0.165s1.173,0.515,1.765,0.922c0.711,0.489,1.434,1.158,2.167,2.006s1.371,1.795,1.916,2.84
		L376.562,369.753z"/>
</g>
<g enable-background="new    ">
	<path fill="#333333" d="M278.192,342.391l-0.912-3.881l-4.869-3.351l-0.989,2.572l-3.304-2.274l5.605-12.71l2.949,2.029
		l4.896,19.938L278.192,342.391z M275.057,328.088l-1.712,4.508l3.162,2.176L275.057,328.088z"/>
	<path fill="#333333" d="M282.616,345.436l0.329-16.343l3.056,2.104l-0.26,12.903l4.869,3.351l-0.069,3.439L282.616,345.436z"/>
	<path fill="#333333" d="M300.445,357.731c-0.829-0.305-1.729-0.792-2.7-1.46c-1.006-0.693-1.93-1.539-2.768-2.537
		c-0.839-0.998-1.555-2.085-2.15-3.259s-1.054-2.406-1.376-3.696c-0.322-1.29-0.471-2.583-0.445-3.875
		c0.026-1.308,0.226-2.373,0.596-3.194c0.37-0.821,0.871-1.393,1.502-1.715c0.631-0.322,1.366-0.398,2.203-0.227
		c0.836,0.17,1.735,0.585,2.695,1.246c0.995,0.685,1.915,1.517,2.76,2.496c0.845,0.979,1.527,1.984,2.047,3.013l-1.977,1.518
		c-0.287-0.649-0.67-1.284-1.149-1.903c-0.48-0.619-1.029-1.141-1.644-1.564c-0.533-0.367-1.027-0.579-1.483-0.634
		c-0.455-0.056-0.853,0.029-1.193,0.255c-0.341,0.226-0.61,0.587-0.806,1.083c-0.197,0.497-0.302,1.114-0.317,1.853
		c-0.015,0.754,0.054,1.504,0.208,2.249c0.153,0.745,0.387,1.456,0.704,2.135c0.317,0.678,0.712,1.31,1.187,1.894
		s1.02,1.088,1.636,1.512c0.355,0.245,0.694,0.443,1.015,0.593c0.322,0.151,0.62,0.244,0.896,0.277l0.06-2.978l-2.398-1.651
		l0.064-3.185l5.188,3.57l-0.174,8.656C302,358.193,301.273,358.036,300.445,357.731z"/>
	<path fill="#333333" d="M318.371,361.691c-0.026,1.292-0.222,2.354-0.587,3.188c-0.364,0.834-0.859,1.421-1.485,1.763
		s-1.363,0.431-2.212,0.268s-1.765-0.583-2.749-1.26s-1.888-1.51-2.715-2.501c-0.827-0.989-1.538-2.076-2.132-3.257
		c-0.595-1.182-1.053-2.425-1.375-3.731c-0.322-1.306-0.47-2.605-0.444-3.898c0.026-1.308,0.222-2.37,0.587-3.188
		c0.364-0.817,0.859-1.386,1.484-1.704c0.625-0.319,1.359-0.391,2.202-0.216c0.843,0.174,1.756,0.6,2.739,1.276
		c0.983,0.676,1.891,1.504,2.724,2.483s1.547,2.048,2.143,3.206c0.595,1.159,1.054,2.384,1.375,3.674
		C318.249,359.083,318.397,360.383,318.371,361.691z M315.12,359.453c0.014-0.708-0.062-1.431-0.227-2.168
		c-0.166-0.738-0.401-1.435-0.706-2.089c-0.306-0.654-0.678-1.261-1.117-1.821c-0.439-0.56-0.925-1.022-1.458-1.39
		c-0.532-0.367-1.021-0.574-1.464-0.622c-0.444-0.048-0.829,0.038-1.158,0.256c-0.328,0.219-0.585,0.577-0.769,1.074
		c-0.185,0.497-0.284,1.1-0.298,1.807c-0.015,0.739,0.061,1.481,0.226,2.227c0.165,0.745,0.4,1.449,0.705,2.111
		c0.305,0.663,0.674,1.271,1.107,1.826c0.433,0.557,0.917,1.018,1.449,1.385c0.533,0.367,1.021,0.573,1.465,0.621
		c0.443,0.048,0.83-0.041,1.159-0.267c0.328-0.227,0.588-0.591,0.778-1.091C315.001,360.811,315.105,360.191,315.12,359.453z"/>
	<path fill="#333333" d="M326.947,375.948l-2.602-8.367l-1.035-0.712l-0.13,6.486l-2.968-2.043l0.329-16.342l4.798,3.302
		c0.604,0.416,1.191,0.902,1.764,1.459c0.571,0.558,1.08,1.185,1.528,1.884c0.448,0.698,0.803,1.457,1.063,2.275
		c0.259,0.818,0.38,1.697,0.361,2.636c-0.022,1.108-0.271,1.88-0.75,2.315c-0.477,0.437-1.127,0.535-1.95,0.295l3.146,9.257
		L326.947,375.948z M327.05,364.528c0.008-0.384-0.048-0.739-0.168-1.063c-0.12-0.325-0.278-0.62-0.471-0.886
		c-0.194-0.267-0.413-0.507-0.655-0.72c-0.243-0.215-0.479-0.4-0.704-0.555l-1.625-1.119l-0.076,3.808l1.446,0.996
		c0.25,0.172,0.506,0.321,0.769,0.447c0.264,0.127,0.503,0.193,0.721,0.203c0.217,0.009,0.396-0.07,0.539-0.237
		C326.966,365.236,327.042,364.944,327.05,364.528z"/>
	<path fill="#333333" d="M331.992,379.421l0.329-16.343l3.057,2.104l-0.329,16.343L331.992,379.421z"/>
	<path fill="#333333" d="M343.287,374.043l-0.261,12.972l-3.038-2.091l0.261-12.973l-3.555-2.445l0.068-3.37l10.146,6.982
		l-0.068,3.37L343.287,374.043z"/>
	<path fill="#333333" d="M355.907,395.881l0.137-6.832l-4.903-3.375l-0.137,6.832l-3.038-2.092l0.329-16.342l3.038,2.091
		l-0.125,6.187l4.903,3.375l0.125-6.186l3.039,2.091l-0.329,16.343L355.907,395.881z"/>
	<path fill="#333333" d="M372.947,407.609l0.304-11.516l-0.053-0.036l-3.503,9.313l-2.132-1.468l-2.948-13.753l-0.053-0.037
		l-0.162,11.613l-2.86-1.969l0.328-16.342l4.323,2.975l2.654,12.451l0.071,0.049l2.95-8.594l4.394,3.024l-0.328,16.343
		L372.947,407.609z"/>
</g>
<g enable-background="new    ">
	<path fill="#FFFFFF" d="M173.115,327.908c-0.019,0.954-0.172,1.664-0.457,2.131c-0.286,0.466-0.664,0.741-1.134,0.823
		c-0.469,0.082-1.009,0.008-1.617-0.224c-0.607-0.231-1.238-0.571-1.889-1.019l-1.511-1.04l-0.124,6.163l-3.038-2.091l0.329-16.343
		l4.62,3.18c0.687,0.474,1.328,1.004,1.923,1.593c0.594,0.589,1.11,1.232,1.546,1.93c0.437,0.698,0.776,1.455,1.017,2.268
		C173.022,326.094,173.134,326.97,173.115,327.908z M170.076,325.84c0.008-0.385-0.044-0.74-0.159-1.069
		c-0.113-0.327-0.27-0.63-0.468-0.907c-0.199-0.277-0.425-0.526-0.678-0.747c-0.254-0.222-0.518-0.427-0.79-0.614l-1.333-0.917
		l-0.078,3.855l1.28,0.881c0.284,0.195,0.557,0.353,0.819,0.47c0.261,0.118,0.498,0.171,0.708,0.16
		c0.211-0.011,0.377-0.103,0.5-0.276C170.003,326.503,170.068,326.225,170.076,325.84z"/>
	<path fill="#FFFFFF" d="M174.718,340.478l0.329-16.342l8.458,5.821l-0.067,3.324l-5.525-3.804l-0.062,3.094l5.223,3.595
		l-0.063,3.162l-5.223-3.595l-0.068,3.393l5.846,4.023l-0.068,3.371L174.718,340.478z"/>
	<path fill="#FFFFFF" d="M192.237,352.537l-2.602-8.367l-1.035-0.712l-0.13,6.486l-2.967-2.042l0.329-16.343l4.797,3.303
		c0.604,0.415,1.191,0.901,1.763,1.459c0.571,0.557,1.081,1.185,1.529,1.883c0.448,0.699,0.803,1.458,1.063,2.276
		c0.259,0.819,0.38,1.697,0.361,2.636c-0.022,1.108-0.272,1.88-0.75,2.316c-0.477,0.437-1.128,0.535-1.951,0.295l3.146,9.256
		L192.237,352.537z M192.341,341.117c0.008-0.384-0.049-0.739-0.169-1.063c-0.121-0.325-0.277-0.62-0.471-0.887
		c-0.194-0.266-0.413-0.506-0.655-0.72c-0.243-0.214-0.478-0.399-0.703-0.554l-1.625-1.119l-0.077,3.809l1.446,0.996
		c0.25,0.171,0.506,0.321,0.769,0.448c0.264,0.126,0.503,0.193,0.72,0.203c0.217,0.009,0.396-0.071,0.539-0.238
		C192.257,341.824,192.333,341.533,192.341,341.117z"/>
	<path fill="#FFFFFF" d="M208.69,363.86l0.304-11.515l-0.053-0.037l-3.503,9.314l-2.131-1.468l-2.949-13.753l-0.053-0.037
		l-0.162,11.613l-2.861-1.969l0.329-16.342l4.323,2.976l2.654,12.451l0.071,0.049l2.95-8.593l4.394,3.023l-0.329,16.343
		L208.69,363.86z"/>
	<path fill="#FFFFFF" d="M214.251,367.688l0.329-16.342l3.056,2.104l-0.329,16.342L214.251,367.688z"/>
	<path fill="#FFFFFF" d="M226.789,364.055c-0.252-0.609-0.585-1.187-1.001-1.73c-0.416-0.543-0.818-0.949-1.209-1.218
		c-0.201-0.139-0.407-0.257-0.615-0.353c-0.208-0.097-0.396-0.137-0.565-0.12s-0.311,0.09-0.428,0.221
		c-0.117,0.13-0.178,0.356-0.185,0.68c-0.006,0.277,0.035,0.539,0.119,0.784c0.085,0.246,0.212,0.497,0.381,0.754
		c0.168,0.256,0.37,0.523,0.605,0.803c0.234,0.278,0.499,0.582,0.792,0.908c0.422,0.479,0.863,0.988,1.32,1.528
		c0.458,0.542,0.872,1.127,1.244,1.758c0.372,0.63,0.676,1.304,0.914,2.021c0.238,0.718,0.349,1.483,0.332,2.3
		c-0.019,0.938-0.168,1.658-0.449,2.159c-0.28,0.502-0.65,0.82-1.109,0.957s-0.981,0.113-1.566-0.071
		c-0.584-0.185-1.185-0.488-1.801-0.912c-0.9-0.62-1.767-1.423-2.599-2.409c-0.833-0.986-1.521-2.049-2.062-3.187l2.042-1.261
		c0.298,0.704,0.696,1.395,1.193,2.072c0.497,0.678,0.994,1.187,1.491,1.529c0.226,0.155,0.445,0.275,0.66,0.36
		c0.214,0.086,0.403,0.113,0.565,0.085c0.163-0.028,0.294-0.125,0.393-0.291c0.1-0.165,0.153-0.409,0.159-0.733
		c0.006-0.307-0.048-0.609-0.162-0.906c-0.114-0.297-0.279-0.609-0.494-0.938c-0.216-0.327-0.486-0.677-0.808-1.047
		c-0.324-0.371-0.691-0.783-1.102-1.238c-0.4-0.446-0.789-0.917-1.169-1.413c-0.38-0.495-0.717-1.028-1.013-1.598
		c-0.295-0.569-0.529-1.175-0.702-1.817c-0.174-0.642-0.253-1.332-0.238-2.071c0.019-0.908,0.177-1.586,0.473-2.038
		c0.298-0.451,0.682-0.725,1.152-0.822c0.47-0.098,0.998-0.042,1.582,0.165c0.584,0.206,1.172,0.514,1.765,0.921
		c0.711,0.49,1.433,1.159,2.167,2.007c0.733,0.848,1.372,1.794,1.916,2.84L226.789,364.055z"/>
	<path fill="#FFFFFF" d="M237.29,371.283c-0.252-0.61-0.585-1.188-1.001-1.73c-0.416-0.544-0.818-0.949-1.209-1.219
		c-0.201-0.139-0.407-0.257-0.614-0.353c-0.208-0.097-0.397-0.137-0.565-0.12c-0.168,0.017-0.311,0.09-0.428,0.221
		c-0.117,0.13-0.178,0.357-0.185,0.68c-0.006,0.277,0.035,0.539,0.12,0.784c0.085,0.246,0.212,0.497,0.381,0.754
		c0.168,0.257,0.371,0.524,0.606,0.803c0.234,0.278,0.499,0.582,0.792,0.908c0.422,0.479,0.863,0.987,1.32,1.528
		c0.458,0.542,0.872,1.127,1.244,1.758c0.372,0.63,0.676,1.305,0.914,2.021c0.239,0.718,0.349,1.484,0.332,2.3
		c-0.019,0.938-0.168,1.658-0.448,2.16c-0.28,0.501-0.65,0.82-1.109,0.956c-0.459,0.137-0.98,0.113-1.566-0.071
		c-0.584-0.184-1.185-0.488-1.801-0.912c-0.9-0.619-1.767-1.423-2.599-2.409c-0.833-0.986-1.521-2.049-2.062-3.186l2.043-1.262
		c0.298,0.704,0.695,1.396,1.192,2.072c0.497,0.678,0.994,1.188,1.491,1.529c0.226,0.155,0.446,0.276,0.66,0.361
		s0.403,0.113,0.565,0.084c0.163-0.028,0.294-0.125,0.394-0.291c0.1-0.165,0.152-0.41,0.159-0.732
		c0.006-0.308-0.048-0.61-0.162-0.907c-0.114-0.297-0.279-0.609-0.494-0.937c-0.216-0.328-0.485-0.678-0.808-1.048
		c-0.324-0.371-0.691-0.783-1.102-1.237c-0.399-0.447-0.789-0.918-1.169-1.414c-0.38-0.495-0.717-1.027-1.013-1.598
		c-0.294-0.569-0.529-1.175-0.702-1.816c-0.174-0.643-0.253-1.333-0.238-2.072c0.019-0.907,0.177-1.586,0.473-2.037
		c0.298-0.45,0.682-0.725,1.152-0.822c0.47-0.098,0.997-0.043,1.582,0.165c0.584,0.206,1.172,0.514,1.765,0.922
		c0.711,0.489,1.433,1.158,2.167,2.006s1.372,1.794,1.916,2.84L237.29,371.283z"/>
	<path fill="#FFFFFF" d="M240.902,386.031l0.329-16.343l3.056,2.104l-0.329,16.343L240.902,386.031z"/>
	<path fill="#FFFFFF" d="M259.831,390.705c-0.026,1.293-0.221,2.355-0.586,3.188c-0.365,0.833-0.859,1.421-1.486,1.763
		c-0.625,0.342-1.362,0.431-2.211,0.268c-0.85-0.163-1.767-0.584-2.75-1.26c-0.983-0.677-1.888-1.511-2.714-2.501
		s-1.538-2.076-2.133-3.258c-0.594-1.181-1.053-2.425-1.375-3.731c-0.322-1.306-0.471-2.605-0.445-3.898
		c0.026-1.308,0.222-2.37,0.587-3.188s0.86-1.386,1.484-1.705c0.625-0.318,1.359-0.39,2.202-0.216
		c0.843,0.175,1.756,0.601,2.739,1.276c0.983,0.678,1.891,1.506,2.725,2.484c0.833,0.979,1.546,2.048,2.142,3.206
		c0.596,1.159,1.054,2.383,1.376,3.673C259.709,388.098,259.857,389.397,259.831,390.705z M256.579,388.467
		c0.015-0.707-0.062-1.431-0.226-2.168c-0.165-0.737-0.401-1.434-0.706-2.089c-0.305-0.654-0.676-1.262-1.116-1.821
		c-0.439-0.561-0.925-1.023-1.458-1.391c-0.533-0.365-1.021-0.573-1.465-0.621c-0.443-0.048-0.83,0.038-1.158,0.256
		c-0.328,0.219-0.584,0.576-0.769,1.074c-0.185,0.497-0.284,1.1-0.298,1.807c-0.015,0.739,0.061,1.481,0.226,2.227
		c0.166,0.746,0.4,1.45,0.705,2.112s0.674,1.271,1.107,1.827c0.434,0.555,0.917,1.017,1.449,1.383
		c0.533,0.367,1.021,0.574,1.465,0.622s0.829-0.041,1.158-0.268c0.329-0.226,0.589-0.589,0.779-1.09
		C256.461,389.825,256.564,389.206,256.579,388.467z"/>
	<path fill="#FFFFFF" d="M269.668,405.831l-4.849-14.173l-0.053-0.037l-0.144,10.736l-2.95-2.03l0.329-16.343l3.465,2.385
		l4.832,14.138l0.054,0.037l0.143-10.714l2.95,2.031l-0.329,16.342L269.668,405.831z"/>
	<path fill="#FFFFFF" d="M282.598,402.467c-0.252-0.609-0.585-1.187-1.001-1.73c-0.415-0.543-0.818-0.949-1.209-1.219
		c-0.201-0.138-0.407-0.256-0.615-0.352c-0.208-0.098-0.396-0.137-0.565-0.12s-0.311,0.09-0.428,0.22
		c-0.117,0.131-0.178,0.357-0.185,0.68c-0.006,0.277,0.035,0.54,0.119,0.785c0.085,0.246,0.212,0.497,0.381,0.754
		c0.168,0.256,0.37,0.523,0.605,0.803c0.234,0.278,0.499,0.581,0.792,0.908c0.422,0.479,0.862,0.988,1.32,1.528
		c0.458,0.542,0.872,1.127,1.244,1.758c0.372,0.63,0.676,1.304,0.913,2.021c0.239,0.719,0.349,1.484,0.333,2.3
		c-0.019,0.938-0.169,1.659-0.449,2.16s-0.65,0.82-1.109,0.957c-0.459,0.137-0.981,0.112-1.566-0.072
		c-0.584-0.184-1.185-0.487-1.801-0.911c-0.9-0.62-1.767-1.423-2.599-2.409c-0.833-0.986-1.521-2.049-2.062-3.187l2.043-1.262
		c0.298,0.705,0.696,1.396,1.193,2.073c0.497,0.678,0.994,1.187,1.491,1.529c0.225,0.155,0.445,0.275,0.66,0.36
		c0.214,0.086,0.403,0.113,0.565,0.085c0.163-0.028,0.294-0.126,0.393-0.291c0.1-0.165,0.153-0.409,0.159-0.733
		c0.006-0.307-0.048-0.609-0.162-0.906c-0.114-0.297-0.279-0.609-0.494-0.938c-0.216-0.328-0.486-0.677-0.808-1.047
		c-0.324-0.371-0.691-0.783-1.102-1.238c-0.4-0.446-0.789-0.917-1.17-1.413c-0.38-0.495-0.717-1.028-1.012-1.599
		c-0.295-0.568-0.529-1.174-0.702-1.816c-0.174-0.642-0.253-1.332-0.238-2.071c0.019-0.907,0.176-1.587,0.473-2.038
		c0.298-0.449,0.682-0.724,1.152-0.821c0.47-0.098,0.998-0.043,1.582,0.164c0.584,0.207,1.172,0.515,1.764,0.922
		c0.711,0.489,1.434,1.158,2.167,2.006c0.733,0.849,1.372,1.795,1.916,2.84L282.598,402.467z"/>
	<path fill="#FFFFFF" d="M290.651,420.273l0.329-16.343l3.056,2.104l-0.259,12.903l4.868,3.35l-0.069,3.439L290.651,420.273z"/>
	<path fill="#FFFFFF" d="M308.526,432.576l-0.912-3.882l-4.869-3.351l-0.989,2.572l-3.305-2.273l5.606-12.711l2.949,2.029
		l4.895,19.938L308.526,432.576z M305.391,418.272l-1.712,4.509l3.162,2.176L305.391,418.272z"/>
	<path fill="#FFFFFF" d="M318.135,432.169l-0.139,6.925l-3.038-2.092l0.139-6.925l-4.537-12.67l3.678,2.531l2.562,7.895l2.805-4.201
		l3.553,2.445L318.135,432.169z"/>
	<path fill="#FFFFFF" d="M323.77,443.068l0.329-16.343l8.458,5.821l-0.067,3.323l-5.526-3.803l-0.062,3.093l5.224,3.596
		l-0.063,3.162l-5.224-3.596l-0.068,3.394l5.847,4.023l-0.068,3.37L323.77,443.068z"/>
	<path fill="#FFFFFF" d="M341.29,455.127l-2.601-8.367l-1.035-0.713l-0.13,6.486l-2.968-2.042l0.329-16.343l4.798,3.302
		c0.604,0.416,1.191,0.902,1.763,1.46c0.571,0.557,1.08,1.185,1.529,1.883c0.448,0.699,0.803,1.457,1.062,2.275
		c0.259,0.818,0.379,1.697,0.361,2.637c-0.022,1.107-0.271,1.88-0.75,2.315c-0.476,0.437-1.127,0.534-1.951,0.295l3.146,9.257
		L341.29,455.127z M341.393,443.707c0.008-0.385-0.049-0.739-0.168-1.063c-0.121-0.325-0.278-0.621-0.472-0.887
		s-0.412-0.506-0.655-0.72c-0.243-0.215-0.478-0.399-0.704-0.555l-1.625-1.118l-0.077,3.809l1.447,0.995
		c0.249,0.172,0.505,0.321,0.768,0.447c0.264,0.127,0.503,0.193,0.721,0.203c0.217,0.01,0.396-0.07,0.539-0.237
		S341.384,444.123,341.393,443.707z"/>
</g>
<g>
	<g>
		<g>
			<polyline fill="#7921F7" points="516.506,179.406 323.297,46.387 323.234,46.392 258.792,1.646 195.475,47.235 195.481,47.382 
				132.165,92.971 196.325,137.713 196.673,137.71 389.696,271.687 456.262,223.246 			"/>
			<g>
				<path fill="#620FD8" d="M162.183,83.89c0,13.806,15.158,24.995,33.86,24.995c18.705,0,33.863-11.189,33.863-24.995v11.561
					c0,13.802-15.158,24.995-33.863,24.995c-18.701,0-33.86-11.193-33.86-24.995V83.89z"/>
				<path fill="#842EFF" d="M229.906,83.89c0,13.806-15.158,24.995-33.863,24.995c-18.701,0-33.86-11.189-33.86-24.995
					c0-13.802,15.157-24.993,33.86-24.993C214.748,58.897,229.906,70.088,229.906,83.89z"/>
			</g>
			<g>
				<path fill="#620FD8" d="M225.493,38.157c0,13.804,15.16,24.993,33.861,24.993c18.704,0,33.865-11.189,33.865-24.993v11.561
					c0,13.799-15.16,24.991-33.865,24.991c-18.701,0-33.861-11.192-33.861-24.991V38.157z"/>
				<ellipse fill="#842EFF" cx="259.356" cy="38.156" rx="33.863" ry="24.994"/>
			</g>
			<g>
				<path fill="#620FD8" d="M226.69,128.631c0,13.806,15.159,24.995,33.863,24.995c18.704,0,33.862-11.188,33.862-24.995v11.558
					c0,13.803-15.16,24.995-33.862,24.995c-18.703,0-33.863-11.191-33.863-24.995V128.631z"/>
				<ellipse fill="#842EFF" cx="260.553" cy="128.631" rx="33.862" ry="24.995"/>
			</g>
			<g>
				<g>
					<path fill="#620FD8" d="M290.002,82.895c0,13.805,15.157,24.995,33.86,24.995s33.862-11.189,33.862-24.995v11.559
						c0,13.802-15.158,24.994-33.862,24.994c-18.703,0-33.86-11.191-33.86-24.994V82.895z"/>
					<ellipse fill="#842EFF" cx="323.862" cy="82.895" rx="33.862" ry="24.995"/>
				</g>
			</g>
		</g>
		<polygon fill="#620FD8" points="516.506,179.443 516.506,262.752 389.696,354.077 389.696,330.612 389.696,271.687 		"/>
		<polygon fill="#6E1AE5" points="132.165,92.971 132.165,178.375 389.696,354.077 389.696,271.687 		"/>
	</g>
	<g>
		<path fill="#620FD8" d="M291.036,172.214c0,13.807,15.158,24.995,33.861,24.995c18.704,0,33.863-11.188,33.863-24.995v11.561
			c0,13.802-15.159,24.995-33.863,24.995c-18.701,0-33.861-11.193-33.861-24.995V172.214z"/>
		<ellipse fill="#842EFF" cx="324.899" cy="172.214" rx="33.861" ry="24.995"/>
	</g>
	<g>
		<path fill="#620FD8" d="M354.347,126.479c0,13.804,15.159,24.994,33.862,24.994s33.862-11.189,33.862-24.994v11.561
			c0,13.8-15.159,24.991-33.862,24.991s-33.862-11.191-33.862-24.991V126.479z"/>
		<ellipse fill="#842EFF" cx="388.21" cy="126.48" rx="33.863" ry="24.993"/>
	</g>
	<g>
		<path fill="#620FD8" d="M355.544,216.953c0,13.808,15.159,24.997,33.86,24.997c18.705,0,33.863-11.189,33.863-24.997v11.559
			c0,13.804-15.158,24.994-33.863,24.994c-18.701,0-33.86-11.19-33.86-24.994V216.953z"/>
		<ellipse fill="#842EFF" cx="389.406" cy="216.953" rx="33.862" ry="24.996"/>
	</g>
	<g>
		<g>
			<path fill="#620FD8" d="M418.854,171.219c0,13.806,15.158,24.995,33.861,24.995s33.865-11.189,33.865-24.995v11.561
				c0,13.801-15.162,24.993-33.865,24.993s-33.861-11.192-33.861-24.993V171.219z"/>
			<path fill="#842EFF" d="M452.716,146.224c18.703,0,33.865,11.19,33.865,24.995c0,13.803-15.162,24.995-33.865,24.995
				c-18.7,0-33.862-11.191-33.862-24.995C418.854,157.414,434.016,146.224,452.716,146.224z"/>
		</g>
	</g>
</g>
<g enable-background="new    ">
	<path fill="#FFFFFF" d="M142.374,154.251l0.329-16.342l8.458,5.821l-0.067,3.324l-5.526-3.803l-0.062,3.093l5.223,3.595
		l-0.064,3.162l-5.223-3.595l-0.068,3.393l5.846,4.024l-0.068,3.37L142.374,154.251z"/>
	<path fill="#FFFFFF" d="M161.155,167.178l-4.849-14.173l-0.053-0.036l-0.144,10.736l-2.95-2.03l0.329-16.342l3.465,2.385
		l4.832,14.137l0.054,0.037l0.143-10.713l2.95,2.03l-0.329,16.342L161.155,167.178z"/>
	<path fill="#FFFFFF" d="M172.84,162.068l-0.261,12.973l-3.039-2.091l0.261-12.972l-3.554-2.446l0.068-3.37l10.146,6.983
		l-0.068,3.37L172.84,162.068z"/>
	<path fill="#FFFFFF" d="M177.518,178.44l0.329-16.342l8.458,5.821l-0.067,3.324l-5.525-3.803l-0.062,3.093l5.223,3.595
		l-0.064,3.162l-5.223-3.595l-0.068,3.393l5.846,4.024l-0.068,3.37L177.518,178.44z"/>
	<path fill="#FFFFFF" d="M195.038,190.499l-2.602-8.367l-1.035-0.712l-0.13,6.486l-2.968-2.042l0.329-16.342l4.798,3.302
		c0.604,0.416,1.191,0.901,1.763,1.459c0.571,0.558,1.081,1.185,1.529,1.883c0.448,0.699,0.802,1.458,1.062,2.276
		c0.259,0.818,0.38,1.697,0.361,2.636c-0.022,1.107-0.272,1.88-0.75,2.315c-0.477,0.437-1.127,0.535-1.951,0.295l3.146,9.257
		L195.038,190.499z M195.141,179.079c0.007-0.385-0.049-0.739-0.169-1.063c-0.121-0.325-0.278-0.621-0.472-0.886
		c-0.194-0.266-0.412-0.506-0.655-0.72s-0.478-0.399-0.703-0.554l-1.625-1.119l-0.077,3.809l1.446,0.996
		c0.25,0.171,0.505,0.321,0.769,0.447c0.264,0.126,0.503,0.193,0.72,0.203s0.396-0.07,0.54-0.237
		C195.058,179.786,195.133,179.495,195.141,179.079z"/>
	<path fill="#FFFFFF" d="M209.852,189.229c-0.02,0.954-0.172,1.664-0.458,2.131c-0.286,0.466-0.663,0.74-1.133,0.822
		c-0.47,0.083-1.009,0.008-1.617-0.223c-0.607-0.231-1.238-0.571-1.888-1.019l-1.511-1.04l-0.124,6.163l-3.039-2.091l0.329-16.342
		l4.62,3.18c0.687,0.473,1.328,1.004,1.923,1.593c0.594,0.589,1.109,1.232,1.546,1.93c0.436,0.698,0.775,1.455,1.017,2.268
		C209.76,187.414,209.871,188.29,209.852,189.229z M206.813,187.16c0.008-0.385-0.044-0.741-0.159-1.069
		c-0.113-0.327-0.27-0.63-0.468-0.907c-0.198-0.276-0.424-0.526-0.678-0.747c-0.254-0.222-0.518-0.427-0.79-0.613l-1.333-0.918
		l-0.078,3.855l1.28,0.881c0.284,0.195,0.557,0.353,0.819,0.47c0.261,0.117,0.497,0.171,0.708,0.16
		c0.21-0.011,0.377-0.103,0.5-0.276C206.74,187.823,206.805,187.545,206.813,187.16z"/>
	<path fill="#FFFFFF" d="M218.189,206.434l-2.602-8.366l-1.036-0.713l-0.13,6.486l-2.967-2.042l0.329-16.342l4.797,3.302
		c0.604,0.416,1.192,0.902,1.764,1.46c0.571,0.557,1.08,1.184,1.528,1.883c0.449,0.698,0.803,1.457,1.062,2.275
		c0.259,0.818,0.38,1.697,0.361,2.636c-0.022,1.108-0.272,1.88-0.75,2.315c-0.477,0.437-1.127,0.535-1.951,0.296l3.146,9.256
		L218.189,206.434z M218.292,195.014c0.007-0.384-0.049-0.74-0.169-1.063c-0.121-0.325-0.277-0.621-0.471-0.887
		c-0.194-0.265-0.412-0.506-0.655-0.72c-0.243-0.214-0.478-0.398-0.703-0.554l-1.625-1.119l-0.077,3.809l1.446,0.996
		c0.25,0.172,0.506,0.321,0.769,0.447c0.263,0.127,0.502,0.193,0.72,0.203c0.217,0.009,0.396-0.07,0.539-0.237
		C218.209,195.721,218.284,195.43,218.292,195.014z"/>
	<path fill="#FFFFFF" d="M223.235,209.906l0.329-16.342l3.056,2.103l-0.329,16.342L223.235,209.906z"/>
	<path fill="#FFFFFF" d="M235.773,206.274c-0.251-0.61-0.585-1.187-1.001-1.73c-0.416-0.544-0.818-0.95-1.209-1.219
		c-0.201-0.139-0.406-0.257-0.614-0.353c-0.208-0.097-0.396-0.136-0.565-0.12c-0.168,0.017-0.311,0.09-0.428,0.22
		c-0.116,0.13-0.178,0.357-0.185,0.68c-0.005,0.277,0.036,0.539,0.12,0.784c0.084,0.246,0.212,0.497,0.381,0.754
		c0.168,0.257,0.37,0.524,0.605,0.803c0.234,0.278,0.499,0.581,0.793,0.908c0.422,0.479,0.862,0.988,1.319,1.528
		c0.458,0.542,0.872,1.127,1.245,1.758c0.372,0.63,0.676,1.304,0.913,2.021c0.239,0.718,0.349,1.484,0.333,2.3
		c-0.019,0.939-0.169,1.659-0.449,2.16s-0.65,0.82-1.109,0.957c-0.459,0.137-0.981,0.113-1.566-0.072
		c-0.584-0.184-1.185-0.488-1.801-0.912c-0.9-0.62-1.767-1.423-2.599-2.409c-0.833-0.986-1.521-2.049-2.062-3.186l2.043-1.262
		c0.298,0.705,0.695,1.395,1.192,2.073s0.994,1.188,1.491,1.529c0.225,0.155,0.445,0.276,0.66,0.36
		c0.214,0.086,0.402,0.114,0.565,0.085c0.163-0.028,0.293-0.125,0.393-0.291c0.099-0.165,0.153-0.409,0.159-0.732
		c0.006-0.308-0.048-0.61-0.162-0.907c-0.114-0.297-0.279-0.609-0.494-0.938c-0.216-0.328-0.485-0.677-0.808-1.047
		c-0.323-0.371-0.69-0.783-1.102-1.238c-0.399-0.447-0.789-0.917-1.169-1.414c-0.38-0.495-0.718-1.028-1.013-1.599
		c-0.294-0.568-0.529-1.174-0.701-1.816c-0.174-0.642-0.253-1.333-0.238-2.071c0.018-0.907,0.176-1.587,0.473-2.038
		c0.298-0.45,0.681-0.724,1.152-0.822c0.47-0.098,0.997-0.043,1.582,0.165c0.584,0.207,1.172,0.514,1.764,0.922
		c0.711,0.489,1.434,1.158,2.167,2.006c0.733,0.848,1.372,1.794,1.916,2.84L235.773,206.274z"/>
	<path fill="#FFFFFF" d="M239.385,221.022l0.329-16.342l8.458,5.821l-0.067,3.324l-5.526-3.803l-0.062,3.093l5.223,3.595
		l-0.064,3.162l-5.223-3.595l-0.068,3.393l5.846,4.023l-0.068,3.37L239.385,221.022z"/>
	<path fill="#FFFFFF" d="M254.612,231.503l0.329-16.342l3.056,2.104l-0.329,16.342L254.612,231.503z"/>
	<path fill="#FFFFFF" d="M268.258,240.895l-4.849-14.173l-0.053-0.036l-0.144,10.736l-2.95-2.03l0.329-16.342l3.464,2.385
		l4.832,14.137l0.054,0.037l0.143-10.713l2.95,2.03l-0.329,16.342L268.258,240.895z"/>
	<path fill="#FFFFFF" d="M279.943,235.786l-0.261,12.972l-3.038-2.091l0.261-12.973l-3.554-2.446l0.068-3.37l10.146,6.983
		l-0.068,3.37L279.943,235.786z"/>
	<path fill="#FFFFFF" d="M284.622,252.158l0.329-16.342l8.458,5.821l-0.067,3.324l-5.525-3.803l-0.062,3.093l5.223,3.595
		l-0.064,3.162l-5.223-3.595l-0.068,3.393l5.846,4.023l-0.068,3.37L284.622,252.158z"/>
	<path fill="#FFFFFF" d="M304.424,265.811c-0.829-0.305-1.729-0.792-2.7-1.46c-1.006-0.693-1.93-1.539-2.768-2.537
		c-0.839-0.999-1.556-2.085-2.15-3.259s-1.054-2.406-1.376-3.696c-0.322-1.291-0.471-2.583-0.445-3.875
		c0.026-1.308,0.226-2.373,0.596-3.194c0.37-0.821,0.871-1.393,1.502-1.716c0.631-0.321,1.366-0.397,2.203-0.227
		s1.735,0.585,2.695,1.247c0.995,0.685,1.915,1.517,2.76,2.496c0.845,0.979,1.527,1.983,2.047,3.012l-1.977,1.518
		c-0.287-0.65-0.671-1.284-1.15-1.903c-0.48-0.619-1.029-1.141-1.644-1.564c-0.534-0.367-1.027-0.578-1.483-0.634
		c-0.455-0.056-0.853,0.03-1.193,0.255c-0.342,0.226-0.61,0.586-0.806,1.083c-0.197,0.497-0.302,1.114-0.317,1.853
		c-0.015,0.754,0.054,1.504,0.208,2.25c0.153,0.745,0.388,1.456,0.704,2.135c0.317,0.678,0.713,1.309,1.187,1.893
		c0.475,0.584,1.02,1.088,1.636,1.512c0.355,0.245,0.694,0.443,1.015,0.593c0.321,0.151,0.62,0.243,0.895,0.277l0.06-2.978
		l-2.399-1.651l0.064-3.186l5.188,3.57l-0.174,8.656C305.979,266.272,305.252,266.116,304.424,265.811z"/>
	<path fill="#FFFFFF" d="M315.805,273.621l-2.601-8.367l-1.035-0.713l-0.13,6.486l-2.968-2.042l0.329-16.342l4.798,3.302
		c0.604,0.416,1.191,0.902,1.763,1.459c0.572,0.557,1.081,1.185,1.529,1.883c0.448,0.699,0.802,1.457,1.062,2.276
		c0.26,0.818,0.381,1.697,0.362,2.636c-0.022,1.107-0.272,1.88-0.75,2.315c-0.477,0.436-1.127,0.534-1.951,0.295l3.146,9.256
		L315.805,273.621z M315.909,262.201c0.007-0.385-0.05-0.739-0.169-1.063c-0.121-0.325-0.277-0.621-0.471-0.887
		c-0.194-0.266-0.413-0.506-0.656-0.72c-0.242-0.214-0.478-0.399-0.703-0.555l-1.625-1.118l-0.077,3.809l1.446,0.995
		c0.249,0.172,0.505,0.321,0.769,0.448c0.263,0.127,0.502,0.194,0.72,0.203c0.217,0.009,0.396-0.07,0.54-0.237
		C315.825,262.908,315.9,262.617,315.909,262.201z"/>
	<path fill="#FFFFFF" d="M329.379,282.963l-0.912-3.881l-4.868-3.351l-0.989,2.573l-3.304-2.275l5.605-12.71l2.949,2.03
		l4.895,19.938L329.379,282.963z M326.245,268.66l-1.712,4.508l3.162,2.177L326.245,268.66z"/>
	<path fill="#FFFFFF" d="M338.382,276.008l-0.261,12.972l-3.038-2.091l0.261-12.973l-3.555-2.446l0.068-3.37l10.146,6.983
		l-0.068,3.37L338.382,276.008z"/>
	<path fill="#FFFFFF" d="M343.061,292.379l0.329-16.342l3.056,2.104l-0.329,16.342L343.061,292.379z"/>
	<path fill="#FFFFFF" d="M361.989,297.053c-0.026,1.293-0.223,2.355-0.587,3.188c-0.365,0.833-0.86,1.421-1.486,1.763
		c-0.625,0.342-1.362,0.431-2.211,0.268c-0.851-0.164-1.767-0.583-2.75-1.26c-0.982-0.677-1.888-1.51-2.714-2.5
		c-0.827-0.99-1.539-2.077-2.133-3.258c-0.595-1.181-1.053-2.425-1.375-3.731c-0.321-1.306-0.47-2.605-0.444-3.898
		c0.026-1.308,0.223-2.371,0.587-3.188c0.365-0.817,0.859-1.385,1.485-1.705c0.624-0.319,1.359-0.39,2.202-0.216
		c0.843,0.174,1.756,0.6,2.739,1.277c0.983,0.677,1.892,1.505,2.725,2.484c0.833,0.979,1.547,2.047,2.142,3.206
		c0.596,1.159,1.054,2.383,1.377,3.673C361.866,294.445,362.016,295.745,361.989,297.053z M358.737,294.815
		c0.014-0.708-0.061-1.431-0.227-2.169c-0.166-0.737-0.401-1.434-0.706-2.088s-0.677-1.262-1.117-1.822
		c-0.438-0.56-0.924-1.022-1.458-1.39c-0.532-0.366-1.021-0.574-1.464-0.622c-0.444-0.047-0.83,0.038-1.159,0.256
		c-0.328,0.219-0.585,0.577-0.769,1.074c-0.184,0.497-0.284,1.1-0.298,1.808c-0.015,0.738,0.061,1.48,0.226,2.227
		c0.165,0.745,0.4,1.449,0.705,2.111s0.674,1.271,1.108,1.827c0.433,0.556,0.916,1.017,1.448,1.383
		c0.534,0.367,1.021,0.574,1.465,0.622c0.443,0.048,0.83-0.041,1.159-0.267c0.328-0.226,0.588-0.589,0.778-1.09
		C358.62,296.173,358.722,295.554,358.737,294.815z"/>
	<path fill="#FFFFFF" d="M371.826,312.178l-4.85-14.172l-0.053-0.036l-0.145,10.735l-2.949-2.03l0.328-16.342l3.465,2.385
		l4.832,14.137l0.054,0.037l0.143-10.713l2.95,2.03l-0.328,16.342L371.826,312.178z"/>
</g>
<g>
	<g>
		<polygon fill="#A3BF2E" points="641.194,94.341 590.47,56.456 590.414,56.461 534.873,95.417 587.879,134.451 		"/>
		<g>
			<g>
				<path fill="#789A0F" d="M560.357,89.286c0,11.69,12.837,21.161,28.669,21.161c15.837,0,28.673-9.471,28.673-21.161v9.789
					c0,11.686-12.836,21.159-28.673,21.159c-15.832,0-28.669-9.473-28.669-21.159V89.286z"/>
				<ellipse fill="#B6CC32" cx="589.028" cy="89.286" rx="28.671" ry="21.161"/>
			</g>
		</g>
	</g>
	<polygon fill="#829E0D" points="641.194,94.341 587.879,134.451 534.873,95.417 534.873,146.765 588.07,183.086 641.194,139.253 	
		"/>
	<polygon fill="#829E0D" points="588.07,183.086 641.194,139.253 641.194,94.341 587.879,134.451 	"/>
	<polygon fill="#8EB01D" points="534.873,95.417 534.873,146.765 588.07,183.086 587.879,134.451 	"/>
</g>
<g>
	<polygon fill="#AD1971" points="169.219,528.931 112.636,489.644 112.578,489.649 1.454,569.831 57.787,609.116 113.632,569.09 
		113.41,568.937 	"/>
	<g>
		<path fill="#850750" d="M27.809,561.858c0,12.123,13.31,21.946,29.732,21.946c16.421,0,29.732-9.823,29.732-21.946v10.15
			c0,12.119-13.311,21.943-29.732,21.943c-16.423,0-29.732-9.824-29.732-21.943V561.858z"/>
		<ellipse fill="#B81E76" cx="57.541" cy="561.859" rx="29.732" ry="21.946"/>
	</g>
	<g>
		<g>
			<path fill="#850750" d="M83.399,521.7c0,12.123,13.31,21.945,29.731,21.945c16.421,0,29.732-9.822,29.732-21.945v10.152
				c0,12.117-13.312,21.943-29.732,21.943c-16.421,0-29.731-9.826-29.731-21.943V521.7z"/>
			<ellipse fill="#B81E76" cx="113.13" cy="521.7" rx="29.732" ry="21.946"/>
		</g>
	</g>
	<polygon fill="#A73B79" points="57.872,609.116 1.454,569.831 1.454,622.544 57.872,661.567 169.219,580.542 169.219,528.931 	"/>
	<polygon fill="#91375D" points="169.219,528.931 169.219,580.542 57.872,661.567 57.872,660.854 57.872,609.116 	"/>
	<polygon fill="#A73B79" points="1.454,569.831 1.454,622.544 57.872,661.567 57.872,609.116 	"/>
</g>
<linearGradient id="SVGID_2_" gradientUnits="userSpaceOnUse" x1="270.2256" y1="482.375" x2="301.0893" y2="564.7716" gradientTransform="matrix(0.7059 -0.9881 -0.8137 -0.5813 363.7895 1214.9349)">
	<stop  offset="0.075" style="stop-color:#FFFFFF;stop-opacity:0"/>
	<stop  offset="0.6184" style="stop-color:#747474;stop-opacity:0.5874"/>
	<stop  offset="1" style="stop-color:#161616"/>
</linearGradient>
<polygon fill="url(#SVGID_2_)" points="243.021,633.336 136.434,712.401 57.872,661.567 169.488,579.98 "/>
<linearGradient id="SVGID_3_" gradientUnits="userSpaceOnUse" x1="818.5742" y1="340.8975" x2="849.764" y2="424.1647" gradientTransform="matrix(0.7059 -0.9881 -0.8137 -0.5813 363.7895 1214.9349)">
	<stop  offset="0.075" style="stop-color:#FFFFFF;stop-opacity:0"/>
	<stop  offset="0.16" style="stop-color:#F4F4F4;stop-opacity:0.0919"/>
	<stop  offset="0.3073" style="stop-color:#D8D8D8;stop-opacity:0.2511"/>
	<stop  offset="0.4994" style="stop-color:#AAAAAA;stop-opacity:0.4588"/>
	<stop  offset="0.7288" style="stop-color:#6A6A6A;stop-opacity:0.7068"/>
	<stop  offset="0.9873" style="stop-color:#1A1A1A;stop-opacity:0.9863"/>
	<stop  offset="1" style="stop-color:#161616"/>
</linearGradient>
<polygon fill="url(#SVGID_3_)" points="716.238,191.128 666.714,233.884 588.15,183.05 641.194,139.253 "/>
</svg>
