<?xml version="1.0" encoding="utf-8"?>
<!-- Generator: Adobe Illustrator 16.0.4, SVG Export Plug-In . SVG Version: 6.00 Build 0)  -->
<!DOCTYPE svg PUBLIC "-//W3C//DTD SVG 1.1//EN" "http://www.w3.org/Graphics/SVG/1.1/DTD/svg11.dtd">
<svg version="1.1" id="Layer_1" xmlns="http://www.w3.org/2000/svg" xmlns:xlink="http://www.w3.org/1999/xlink" x="0px" y="0px"
	 width="720px" height="720px" viewBox="0 0 720 720" enable-background="new 0 0 720 720" xml:space="preserve">
<g>
	<linearGradient id="SVGID_1_" gradientUnits="userSpaceOnUse" x1="358.7944" y1="688.29" x2="358.7944" y2="24.5093">
		<stop  offset="0" style="stop-color:#002776"/>
		<stop  offset="1" style="stop-color:#00A1DE"/>
	</linearGradient>
	<path fill="url(#SVGID_1_)" d="M716.387,304.755c-2.536-5.286-7.831-8.653-13.725-8.653h-44.68
		C629.489,141.775,494.107,24.509,331.649,24.509c-182.97,0-331.853,148.892-331.853,331.854
		c0,183.045,148.883,331.928,331.853,331.928c118.151,0,228.247-63.551,287.472-165.89c8.354-14.396,3.431-32.895-11.039-41.248
		c-14.396-8.354-32.895-3.432-41.174,11.039c-48.483,83.69-138.59,135.754-235.259,135.754
		c-149.703,0-271.509-121.806-271.509-271.583c0-149.703,121.806-271.509,271.509-271.509c128.967,0,237.049,90.496,264.572,211.174
		h-44.381c-5.893,0-11.188,3.441-13.65,8.728c-2.536,5.286-1.716,11.552,2.089,16.037l75.411,90.543
		c2.835,3.432,7.085,5.371,11.561,5.371s8.728-1.939,11.562-5.371l75.484-90.543C718.027,316.307,718.849,310.041,716.387,304.755
		L716.387,304.755z M716.387,304.755"/>
	<linearGradient id="SVGID_2_" gradientUnits="userSpaceOnUse" x1="391.54" y1="468.7695" x2="391.54" y2="99.9209">
		<stop  offset="0" style="stop-color:#002776"/>
		<stop  offset="1" style="stop-color:#00A1DE"/>
	</linearGradient>
	<path fill="url(#SVGID_2_)" d="M331.649,99.92c-16.633,0-30.134,13.501-30.134,30.209v183.044
		c-13.65,9.548-22.601,25.379-22.601,43.188c0,29.165,23.636,52.81,52.81,52.81c7.981,0,15.431-1.865,22.228-5.072L458.9,464.668
		c4.773,2.759,9.902,4.102,15.067,4.102c10.443,0,20.587-5.444,26.182-15.142c8.279-14.396,3.356-32.819-11.039-41.174
		l-105.098-60.642c-1.418-15.953-9.697-29.911-22.153-38.638V130.129C361.859,113.496,348.358,99.92,331.649,99.92L331.649,99.92z
		 M331.649,379.037c-12.447,0-22.61-10.144-22.61-22.675c0-12.447,10.163-22.583,22.61-22.583c12.531,0,22.666,10.136,22.666,22.583
		C354.315,368.894,344.181,379.037,331.649,379.037L331.649,379.037z M331.649,379.037"/>
</g>
</svg>
