<?xml version="1.0" encoding="utf-8"?>
<!-- Generator: Adobe Illustrator 16.0.4, SVG Export Plug-In . SVG Version: 6.00 Build 0)  -->
<!DOCTYPE svg PUBLIC "-//W3C//DTD SVG 1.1//EN" "http://www.w3.org/Graphics/SVG/1.1/DTD/svg11.dtd">
<svg version="1.1" id="Layer_1" xmlns="http://www.w3.org/2000/svg" xmlns:xlink="http://www.w3.org/1999/xlink" x="0px" y="0px"
	 width="724.102px" height="227.861px" viewBox="64.573 78.791 724.102 227.861"
	 enable-background="new 64.573 78.791 724.102 227.861" xml:space="preserve">
<g>
	<path fill="#FFFFFF" d="M102.696,207.491c-3.065,0-5.54-2.468-5.54-5.532v-29.158c0-12.004,8.2-25.96,18.661-31.818L140,127.48
		c2.684-1.5,6.047-0.543,7.522,2.124c1.501,2.666,0.554,6.046-2.119,7.53l-24.194,13.515c-6.911,3.871-12.985,14.217-12.985,22.151
		v29.158C108.224,205.023,105.75,207.491,102.696,207.491"/>
	<path fill="#FFFFFF" d="M168.485,268.844c-6.907,0-13.465-1.605-18.469-4.479L115.618,244.5c-5.894-3.402-9.238-8.439-9.181-13.811
		c0.066-5.381,3.532-10.325,9.509-13.588l33.972-18.544c6.938-3.789,13.025-14.048,13.025-21.95v-41.793
		c0-11.567,7.17-16.734,14.262-16.734c3.17,0,6.448,0.958,9.741,2.859l34.39,19.857c10.358,5.993,18.476,20.029,18.476,32v39.719
		c0,11.959-8.117,25.999-18.476,31.984l-34.39,19.864C181.947,267.238,175.376,268.844,168.485,268.844 M177.206,129.147
		c-2.776,0-3.189,3.542-3.189,5.667v41.793c0,11.995-8.264,25.925-18.796,31.669l-33.967,18.533
		c-2.735,1.502-3.742,3.057-3.749,4.021c-0.013,0.942,0.94,2.526,3.652,4.092l34.385,19.849c3.305,1.904,8.013,3.002,12.942,3.002
		c4.914,0,9.636-1.098,12.935-3.002l34.383-19.849c6.886-3.979,12.936-14.463,12.936-22.405v-39.719
		c0-7.953-6.05-18.425-12.936-22.4l-34.383-19.861C179.429,129.385,178.024,129.147,177.206,129.147"/>
	<path fill="#FFFFFF" d="M168.484,306.652c-6.907,0-13.462-1.584-18.468-4.469l-67.139-38.781
		c-10.379-5.982-18.412-20.049-18.303-32.036l0.71-74.355c0.116-11.893,8.13-26.087,18.235-32.308l66.618-41.025
		c5.111-3.153,11.841-4.887,18.959-4.887c6.647,0,12.992,1.541,17.85,4.362l67.145,38.746c10.359,5.972,18.476,20.028,18.476,31.982
		v77.536c0,11.959-8.117,26.015-18.476,31.983l-67.145,38.783C181.947,305.068,175.375,306.652,168.484,306.652 M169.096,89.86
		c-5.011,0-9.81,1.181-13.14,3.233L89.33,134.135c-6.842,4.21-12.91,14.944-12.987,22.971l-0.703,74.376
		c-0.076,7.924,5.891,18.361,12.768,22.347l67.134,38.752c3.305,1.905,8.013,3.01,12.941,3.01c4.914,0,9.637-1.104,12.936-3.01
		l67.139-38.752c6.886-3.983,12.934-14.45,12.934-22.41v-77.536c0-7.953-6.048-18.428-12.934-22.398L181.42,92.731
		C178.256,90.896,173.766,89.86,169.096,89.86"/>
	<path fill="#FFFFFF" d="M384.045,243.339c-0.142,0-0.271,0-0.419-0.019c-5.057-0.403-5.232-5.314-5.333-7.955
		c-0.091-2.744-0.142-7.312-0.142-13.609c0-11.727-7.351-16.108-13.515-17.698c-1.992-0.514-4.218-0.927-6.615-1.225
		c-1.133-0.142-2.087-0.239-2.905-0.305c-1.797,0.101-3.692,0.163-5.655,0.204c-2.057-0.064-3.788-0.939-4.821-2.59
		c-1.132-1.81-1.111-4.211,0.027-6.005c1.803-2.862,4.875-3.263,10.775-2.714c24.273-1.451,24.126-7.883,23.977-14.67
		c-0.004-0.71-0.025-1.415-0.025-2.114c0-6.75-8.025-14.425-15.073-14.425c-1.879,0-3.268-0.017-4.561-0.033
		c-2.623-0.026-4.866-0.055-10.3,0.071c-3.082,0.097-5.59-2.362-5.67-5.417c-0.057-3.054,2.371-5.586,5.426-5.654
		c5.643-0.121,7.942-0.09,10.665-0.067c1.258,0.014,2.603,0.031,4.439,0.031c13.192,0,26.153,12.621,26.153,25.494
		c0,0.625,0.005,1.252,0.02,1.877c0.207,9.948-2.25,17.345-12.458,21.719c5.765,4.129,11.183,11.271,11.183,23.521
		c0,9.328,0.116,12.905,0.194,14.26c0.238,0.787,0.309,1.637,0.181,2.514C389.161,241.23,386.75,243.339,384.045,243.339"/>
	<path fill="#FFFFFF" d="M327.803,243.189h-0.024c-3.061-0.013-5.52-2.492-5.509-5.551l0.433-82.343
		c0.014-3.057,2.492-5.514,5.542-5.514h0.022c3.054,0.014,5.516,2.511,5.503,5.566l-0.426,82.341
		C333.331,240.736,330.849,243.189,327.803,243.189"/>
	<path fill="#FFFFFF" d="M462.548,244.607c-22.531,0-37.102-11.522-37.102-29.374v-60.62c0-3.052,2.466-5.522,5.538-5.522
		c3.055,0,5.533,2.471,5.533,5.522v60.62c0,11.474,9.733,18.313,26.03,18.313c3.056,0,5.533,2.479,5.533,5.533
		S465.604,244.607,462.548,244.607"/>
	<path fill="#FFFFFF" d="M465.177,244.607h-8.193c-3.061,0-5.54-2.474-5.54-5.526c0-3.056,2.479-5.533,5.54-5.533h8.193
		c16.311,0,26.037-6.84,26.037-18.313v-60.62c0-3.052,2.479-5.522,5.531-5.522c3.067,0,5.541,2.471,5.541,5.522v60.62
		C502.286,233.085,487.722,244.607,465.177,244.607"/>
	<path fill="#FFFFFF" d="M581.511,242.677H546.72c-3.053,0-5.541-2.47-5.541-5.521v-19.338c0-6.345-0.167-20.137-0.334-33.482
		c-0.146-12.22-0.309-23.928-0.309-28.874c0-3.069,2.479-5.54,5.545-5.54c3.054,0,5.541,2.471,5.541,5.54
		c0,4.914,0.143,16.568,0.289,28.734c0.168,13.371,0.343,27.205,0.343,33.623v13.791h29.257c8.807,0,16.093-6.441,16.947-14.978
		c0.253-2.481-0.047-6.075-2.854-9.172c-4.166-4.613-12.844-7.059-25.09-7.059c-3.06,0-5.526-2.48-5.526-5.541
		c0-3.052,2.468-5.54,5.526-5.54c15.683,0,26.874,3.611,33.304,10.704c5.823,6.43,6.034,13.85,5.669,17.699
		C608.043,231.957,596.029,242.677,581.511,242.677"/>
	<path fill="#FFFFFF" d="M571.997,201.133c-3.053,0-5.539-2.466-5.539-5.521c0-3.057,2.486-5.541,5.539-5.541
		c15.931,0,22.713-5.458,22.713-18.264c0-3.273-2.736-12.306-11.562-12.306h-14.862c-3.06,0-5.539-2.47-5.539-5.541
		c0-3.055,2.479-5.529,5.539-5.529h14.862c15.439,0,22.634,13.946,22.634,23.376C605.782,185.197,599.921,201.133,571.997,201.133"
		/>
	<path fill="#FFFFFF" d="M653.927,244.577c-3.063,0-5.533-2.47-5.533-5.521v-84.416c0-3.054,2.47-5.527,5.533-5.527
		c3.06,0,5.535,2.474,5.535,5.527v84.416C659.462,242.107,656.985,244.577,653.927,244.577"/>
	<path fill="#FFFFFF" d="M703.938,244.111c-1.37,0-2.735-0.514-3.809-1.524c-2.221-2.101-2.316-5.61-0.209-7.829l79.199-83.546
		c2.104-2.223,5.606-2.318,7.826-0.222c2.219,2.113,2.317,5.61,0.213,7.833l-79.207,83.549
		C706.864,243.525,705.401,244.111,703.938,244.111"/>
	<path fill="#FFFFFF" d="M728.591,187.027c-1.479,0-2.963-0.58-4.053-1.764l-24.65-26.484c-2.084-2.234-1.965-5.735,0.275-7.819
		c2.223-2.082,5.734-1.958,7.822,0.279l24.651,26.483c2.092,2.236,1.965,5.752-0.271,7.817
		C731.298,186.544,729.944,187.027,728.591,187.027"/>
	<path fill="#FFFFFF" d="M783.142,244.111c-1.545,0-3.057-0.637-4.151-1.875l-22.871-25.829c-2.023-2.294-1.803-5.784,0.477-7.809
		c2.291-2.04,5.783-1.82,7.818,0.471l22.875,25.83c2.027,2.295,1.812,5.785-0.482,7.808
		C785.761,243.65,784.452,244.111,783.142,244.111"/>
</g>
</svg>
