<?xml version="1.0" encoding="utf-8"?>
<!-- Generator: Adobe Illustrator 16.0.4, SVG Export Plug-In . SVG Version: 6.00 Build 0)  -->
<!DOCTYPE svg PUBLIC "-//W3C//DTD SVG 1.1//EN" "http://www.w3.org/Graphics/SVG/1.1/DTD/svg11.dtd">
<svg version="1.1" id="Layer_1" xmlns="http://www.w3.org/2000/svg" xmlns:xlink="http://www.w3.org/1999/xlink" x="0px" y="0px"
	 width="720px" height="720px" viewBox="0 0 720 720" enable-background="new 0 0 720 720" xml:space="preserve">
<linearGradient id="SVGID_1_" gradientUnits="userSpaceOnUse" x1="364.2891" y1="-0.1221" x2="364.289" y2="720.1226">
	<stop  offset="0" style="stop-color:#00A1DE"/>
	<stop  offset="1" style="stop-color:#002776"/>
</linearGradient>
<path fill="url(#SVGID_1_)" d="M660.946,112.406c-122.897,0-217.052-35.11-296.672-112.528
	C284.665,77.295,190.52,112.406,67.632,112.406c0,201.619-41.72,490.428,296.642,607.716
	C702.656,602.834,660.946,314.024,660.946,112.406L660.946,112.406z"/>
<path fill="#FFFFFF" d="M440.924,336.404h-4.783v-22.38c0-41.388-32.846-75.964-73.899-76.703c-1.12-0.02-3.362-0.02-4.482,0
	c-41.056,0.739-73.899,35.315-73.899,76.703v22.38h-4.783c-7.367,0-13.38,7.604-13.38,16.995v112.239
	c0,9.38,6.013,17.055,13.38,17.055h161.848c7.367,0,13.379-7.675,13.379-17.055V353.399
	C454.303,344.008,448.291,336.404,440.924,336.404L440.924,336.404z M375.162,409.404v33.915c0,3.884-3.252,7.168-7.139,7.168
	h-16.047c-3.888,0-7.14-3.284-7.14-7.168v-33.915c-3.769-3.712-5.964-8.842-5.964-14.517c0-10.755,8.312-19.998,18.886-20.424
	c1.12-0.047,3.362-0.047,4.482,0c10.573,0.426,18.886,9.669,18.886,20.424C381.127,400.562,378.932,405.692,375.162,409.404
	L375.162,409.404z M404.626,336.404h-89.253v-22.38c0-24.652,20.036-45.041,44.626-45.041c24.589,0,44.627,20.389,44.627,45.041
	V336.404z M404.626,336.404"/>
</svg>
