<?xml version="1.0" encoding="utf-8"?>
<!-- Generator: Adobe Illustrator 16.0.4, SVG Export Plug-In . SVG Version: 6.00 Build 0)  -->
<!DOCTYPE svg PUBLIC "-//W3C//DTD SVG 1.1//EN" "http://www.w3.org/Graphics/SVG/1.1/DTD/svg11.dtd">
<svg version="1.1" id="Layer_1" xmlns="http://www.w3.org/2000/svg" xmlns:xlink="http://www.w3.org/1999/xlink" x="0px" y="0px"
	 width="720px" height="720px" viewBox="0 0 720 720" enable-background="new 0 0 720 720" xml:space="preserve">
<g>
	<g>
		<g>
			<polygon fill="#BCBCBC" points="1268.508,561.271 1194.783,506.211 1194.705,506.218 1113.98,562.838 1191.018,619.571 			"/>
			<g>
				<g>
					<path fill="#999999" d="M1151.02,553.926c0,16.989,18.655,30.758,41.671,30.758s41.671-13.769,41.671-30.758v14.226
						c0,16.985-18.655,30.757-41.671,30.757s-41.671-13.771-41.671-30.757V553.926z"/>
					<ellipse fill="#CCCCCC" cx="1192.689" cy="553.926" rx="41.671" ry="30.758"/>
				</g>
			</g>
		</g>
		<polygon fill="#829E0D" points="1268.508,561.271 1191.018,619.571 1113.98,562.838 1113.98,637.466 1191.299,690.257 
			1268.508,626.547 		"/>
		<polygon fill="#9B9B9B" points="1191.299,690.257 1268.508,626.547 1268.508,561.271 1191.018,619.571 		"/>
		<polygon fill="#AFAFAF" points="1113.98,562.838 1113.98,637.466 1191.299,690.257 1191.018,619.571 		"/>
	</g>
	<g>
		<g>
			<polygon fill="#545454" points="1268.285,490.586 1194.558,435.525 1194.479,435.531 1113.754,492.152 1190.795,548.885 			"/>
			<g>
				<g>
					<path fill="#333333" d="M1150.796,483.24c0,16.988,18.655,30.756,41.668,30.756c23.015,0,41.67-13.768,41.67-30.756v14.224
						c0,16.987-18.655,30.757-41.67,30.757c-23.013,0-41.668-13.77-41.668-30.757V483.24z"/>
					<path fill="#666666" d="M1234.134,483.24c0,16.988-18.655,30.756-41.67,30.756c-23.013,0-41.668-13.768-41.668-30.756
						c0-16.987,18.655-30.756,41.668-30.756C1215.479,452.484,1234.134,466.253,1234.134,483.24z"/>
				</g>
			</g>
		</g>
		<polygon fill="#333333" points="1191.072,619.571 1268.508,561.271 1268.285,490.586 1190.795,548.885 		"/>
		<polygon fill="#474747" points="1113.754,492.152 1113.98,562.838 1191.072,619.571 1190.795,548.885 		"/>
	</g>
	<g>
		<g>
			<polygon fill="#BCBCBC" points="1268.2,460.666 1194.473,405.605 1194.395,405.612 1113.67,462.232 1190.71,518.965 			"/>
			<g>
				<g>
					<path fill="#999999" d="M1150.712,453.32c0,16.989,18.655,30.757,41.667,30.757c23.016,0,41.671-13.768,41.671-30.757v14.225
						c0,16.986-18.655,30.756-41.671,30.756c-23.012,0-41.667-13.77-41.667-30.756V453.32z"/>
					<path fill="#CCCCCC" d="M1234.05,453.32c0,16.989-18.655,30.757-41.671,30.757c-23.012,0-41.667-13.768-41.667-30.757
						c0-16.986,18.655-30.756,41.667-30.756C1215.395,422.564,1234.05,436.334,1234.05,453.32z"/>
				</g>
			</g>
		</g>
		<polygon fill="#9B9B9B" points="1190.988,589.652 1268.426,531.352 1268.2,460.666 1190.71,518.965 		"/>
		<polygon fill="#AFAFAF" points="1113.67,462.232 1113.896,532.919 1190.988,589.652 1190.71,518.965 		"/>
	</g>
	<g>
		<g>
			<polygon fill="#545454" points="1268.135,430.307 1194.408,375.246 1194.328,375.254 1113.604,431.873 1190.646,488.605 			"/>
			<g>
				<g>
					<path fill="#333333" d="M1150.646,422.961c0,16.99,18.656,30.757,41.668,30.757c23.016,0,41.671-13.767,41.671-30.757v14.225
						c0,16.986-18.655,30.758-41.671,30.758c-23.012,0-41.668-13.771-41.668-30.758V422.961z"/>
					<path fill="#666666" d="M1233.984,422.961c0,16.99-18.655,30.757-41.67,30.757c-23.013,0-41.67-13.767-41.67-30.757
						c0-16.986,18.657-30.755,41.67-30.755C1215.329,392.206,1233.984,405.975,1233.984,422.961z"/>
				</g>
			</g>
		</g>
		<polygon fill="#333333" points="1190.923,559.293 1268.359,500.993 1268.135,430.307 1190.646,488.605 		"/>
		<polygon fill="#474747" points="1113.604,431.873 1113.831,502.561 1190.923,559.293 1190.646,488.605 		"/>
	</g>
	<g>
		<g>
			<polygon fill="#BCBCBC" points="1268.04,400.271 1194.312,345.21 1194.233,345.217 1113.509,401.838 1190.549,458.57 			"/>
			<g>
				<g>
					<path fill="#999999" d="M1150.551,392.924c0,16.99,18.656,30.758,41.668,30.758c23.016,0,41.671-13.768,41.671-30.758v14.226
						c0,16.987-18.655,30.758-41.671,30.758c-23.012,0-41.668-13.771-41.668-30.758V392.924z"/>
					<path fill="#CCCCCC" d="M1233.89,392.924c0,16.99-18.655,30.758-41.671,30.758c-23.012,0-41.668-13.768-41.668-30.758
						c0-16.986,18.656-30.755,41.668-30.755C1215.233,362.169,1233.89,375.938,1233.89,392.924z"/>
				</g>
			</g>
		</g>
		<polygon fill="#9B9B9B" points="1190.828,529.256 1268.267,470.956 1268.04,400.271 1190.549,458.57 		"/>
		<polygon fill="#AFAFAF" points="1113.509,401.838 1113.734,472.523 1190.828,529.256 1190.549,458.57 		"/>
	</g>
</g>
<g>
	<g>
		<g>
			<polygon fill="#BCBCBC" points="1167.508,642.268 1093.783,587.207 1093.704,587.213 1012.98,643.834 1090.018,700.566 			"/>
			<g>
				<g>
					<path fill="#999999" d="M1050.02,634.922c0,16.989,18.656,30.757,41.671,30.757s41.671-13.768,41.671-30.757v14.225
						c0,16.986-18.656,30.757-41.671,30.757s-41.671-13.771-41.671-30.757V634.922z"/>
					<ellipse fill="#CCCCCC" cx="1091.689" cy="634.922" rx="41.671" ry="30.757"/>
				</g>
			</g>
		</g>
		<polygon fill="#829E0D" points="1167.508,642.268 1090.018,700.566 1012.98,643.834 1012.98,718.461 1090.299,771.253 
			1167.508,707.544 		"/>
		<polygon fill="#9B9B9B" points="1090.299,771.253 1167.508,707.544 1167.508,642.268 1090.018,700.566 		"/>
		<polygon fill="#AFAFAF" points="1012.98,643.834 1012.98,718.461 1090.299,771.253 1090.018,700.566 		"/>
	</g>
	<g>
		<g>
			<polygon fill="#545454" points="1167.285,571.582 1093.558,516.521 1093.479,516.527 1012.754,573.148 1089.795,629.88 			"/>
			<g>
				<g>
					<path fill="#333333" d="M1049.795,564.235c0,16.988,18.657,30.757,41.669,30.757c23.015,0,41.671-13.769,41.671-30.757v14.225
						c0,16.987-18.656,30.757-41.671,30.757c-23.012,0-41.669-13.77-41.669-30.757V564.235z"/>
					<ellipse fill="#666666" cx="1091.465" cy="564.235" rx="41.67" ry="30.757"/>
				</g>
			</g>
		</g>
		<polygon fill="#333333" points="1090.072,700.566 1167.508,642.268 1167.285,571.582 1089.795,629.88 		"/>
		<polygon fill="#474747" points="1012.754,573.148 1012.98,643.834 1090.072,700.566 1089.795,629.88 		"/>
	</g>
	<g>
		<g>
			<polygon fill="#BCBCBC" points="1167.2,541.662 1093.474,486.602 1093.395,486.607 1012.67,543.229 1089.711,599.961 			"/>
			<g>
				<g>
					<path fill="#999999" d="M1049.711,534.316c0,16.988,18.656,30.756,41.668,30.756c23.016,0,41.671-13.768,41.671-30.756v14.225
						c0,16.986-18.655,30.756-41.671,30.756c-23.012,0-41.668-13.77-41.668-30.756V534.316z"/>
					<path fill="#CCCCCC" d="M1133.05,534.316c0,16.988-18.655,30.756-41.671,30.756c-23.012,0-41.668-13.768-41.668-30.756
						c0-16.986,18.656-30.757,41.668-30.757C1114.395,503.561,1133.05,517.33,1133.05,534.316z"/>
				</g>
			</g>
		</g>
		<polygon fill="#9B9B9B" points="1089.988,670.646 1167.426,612.348 1167.2,541.662 1089.711,599.961 		"/>
		<polygon fill="#AFAFAF" points="1012.67,543.229 1012.896,613.914 1089.988,670.646 1089.711,599.961 		"/>
	</g>
	<g>
		<g>
			<polygon fill="#545454" points="1167.135,511.303 1093.407,456.242 1093.329,456.249 1012.604,512.869 1089.645,569.602 			"/>
			<g>
				<g>
					<path fill="#333333" d="M1049.646,503.957c0,16.989,18.654,30.756,41.666,30.756c23.016,0,41.673-13.767,41.673-30.756v14.225
						c0,16.986-18.657,30.756-41.673,30.756c-23.012,0-41.666-13.77-41.666-30.756V503.957z"/>
					<path fill="#666666" d="M1132.985,503.957c0,16.989-18.657,30.756-41.673,30.756c-23.012,0-41.666-13.767-41.666-30.756
						c0-16.986,18.654-30.756,41.666-30.756C1114.328,473.201,1132.985,486.971,1132.985,503.957z"/>
				</g>
			</g>
		</g>
		<polygon fill="#333333" points="1089.922,640.287 1167.359,581.988 1167.135,511.303 1089.645,569.602 		"/>
		<polygon fill="#474747" points="1012.604,512.869 1012.83,583.556 1089.922,640.287 1089.645,569.602 		"/>
	</g>
	<g>
		<g>
			<polygon fill="#BCBCBC" points="1167.039,481.266 1093.312,426.205 1093.234,426.213 1012.509,482.833 1089.55,539.565 			"/>
			<g>
				<g>
					<path fill="#999999" d="M1049.551,473.92c0,16.99,18.656,30.758,41.668,30.758c23.016,0,41.67-13.768,41.67-30.758v14.225
						c0,16.987-18.654,30.758-41.67,30.758c-23.012,0-41.668-13.771-41.668-30.757V473.92z"/>
					<path fill="#CCCCCC" d="M1132.889,473.92c0,16.99-18.654,30.758-41.67,30.758c-23.012,0-41.668-13.768-41.668-30.758
						c0-16.986,18.656-30.754,41.668-30.754C1114.233,443.166,1132.889,456.934,1132.889,473.92z"/>
				</g>
			</g>
		</g>
		<polygon fill="#9B9B9B" points="1089.827,610.252 1167.266,551.952 1167.039,481.266 1089.55,539.565 		"/>
		<polygon fill="#AFAFAF" points="1012.509,482.833 1012.734,553.52 1089.827,610.252 1089.55,539.565 		"/>
	</g>
</g>
<g>
	<g>
		<g>
			<polygon fill="#BCBCBC" points="1063.886,724.835 990.161,669.774 990.082,669.782 909.357,726.402 986.396,783.134 			"/>
			<g>
				<g>
					<path fill="#999999" d="M946.396,717.489c0,16.989,18.655,30.757,41.671,30.757c23.015,0,41.671-13.768,41.671-30.757v14.226
						c0,16.986-18.656,30.756-41.671,30.756c-23.016,0-41.671-13.77-41.671-30.756V717.489z"/>
					<ellipse fill="#CCCCCC" cx="988.067" cy="717.489" rx="41.671" ry="30.757"/>
				</g>
			</g>
		</g>
		<polygon fill="#829E0D" points="1063.886,724.835 986.396,783.134 909.357,726.402 909.357,801.028 986.676,853.82 
			1063.886,790.111 		"/>
		<polygon fill="#9B9B9B" points="986.676,853.82 1063.886,790.111 1063.886,724.835 986.396,783.134 		"/>
		<polygon fill="#AFAFAF" points="909.357,726.402 909.357,801.028 986.676,853.82 986.396,783.134 		"/>
	</g>
	<g>
		<g>
			<polygon fill="#545454" points="1063.662,654.148 989.936,599.089 989.855,599.096 909.132,655.716 986.172,712.448 			"/>
			<g>
				<g>
					<path fill="#333333" d="M946.174,646.804c0,16.989,18.655,30.756,41.668,30.756c23.014,0,41.67-13.767,41.67-30.756v14.226
						c0,16.985-18.655,30.757-41.67,30.757c-23.013,0-41.668-13.771-41.668-30.757V646.804L946.174,646.804z"/>
					<path fill="#666666" d="M1029.512,646.804c0,16.989-18.656,30.756-41.67,30.756c-23.013,0-41.668-13.767-41.668-30.756
						c0-16.986,18.655-30.756,41.668-30.756C1010.855,616.048,1029.512,629.816,1029.512,646.804z"/>
				</g>
			</g>
		</g>
		<polygon fill="#333333" points="986.45,783.134 1063.886,724.835 1063.662,654.148 986.172,712.448 		"/>
		<polygon fill="#474747" points="909.132,655.716 909.357,726.402 986.45,783.134 986.172,712.448 		"/>
	</g>
	<g>
		<g>
			<polygon fill="#BCBCBC" points="1063.578,624.229 989.852,569.169 989.771,569.176 909.047,625.797 986.088,682.529 			"/>
			<g>
				<g>
					<path fill="#999999" d="M946.09,616.884c0,16.989,18.654,30.757,41.668,30.757c23.015,0,41.67-13.768,41.67-30.757v14.226
						c0,16.986-18.655,30.757-41.67,30.757c-23.014,0-41.668-13.771-41.668-30.757V616.884L946.09,616.884z"/>
					<ellipse fill="#CCCCCC" cx="987.759" cy="616.884" rx="41.669" ry="30.757"/>
				</g>
			</g>
		</g>
		<polygon fill="#9B9B9B" points="986.365,753.215 1063.805,694.916 1063.578,624.229 986.088,682.529 		"/>
		<polygon fill="#AFAFAF" points="909.047,625.797 909.273,696.482 986.365,753.215 986.088,682.529 		"/>
	</g>
	<g>
		<g>
			<polygon fill="#545454" points="1063.512,593.871 989.785,538.811 989.707,538.816 908.982,595.438 986.023,652.17 			"/>
			<g>
				<g>
					<path fill="#333333" d="M946.023,586.524c0,16.988,18.655,30.757,41.668,30.757c23.016,0,41.672-13.769,41.672-30.757v14.225
						c0,16.987-18.656,30.758-41.672,30.758c-23.013,0-41.668-13.771-41.668-30.758V586.524L946.023,586.524z"/>
					<ellipse fill="#666666" cx="987.693" cy="586.524" rx="41.67" ry="30.757"/>
				</g>
			</g>
		</g>
		<polygon fill="#333333" points="986.301,722.855 1063.737,664.557 1063.512,593.871 986.023,652.17 		"/>
		<polygon fill="#474747" points="908.982,595.438 909.208,666.124 986.301,722.855 986.023,652.17 		"/>
	</g>
	<g>
		<g>
			<polygon fill="#BCBCBC" points="1063.418,563.834 989.689,508.773 989.611,508.78 908.887,565.4 985.928,622.134 			"/>
			<g>
				<g>
					<path fill="#999999" d="M945.929,556.488c0,16.989,18.655,30.756,41.667,30.756c23.017,0,41.671-13.767,41.671-30.756v14.225
						c0,16.986-18.654,30.757-41.671,30.757c-23.012,0-41.667-13.771-41.667-30.757V556.488L945.929,556.488z"/>
					<path fill="#CCCCCC" d="M1029.267,556.488c0,16.989-18.654,30.756-41.671,30.756c-23.012,0-41.667-13.767-41.667-30.756
						c0-16.986,18.655-30.756,41.667-30.756C1010.611,525.732,1029.267,539.502,1029.267,556.488z"/>
				</g>
			</g>
		</g>
		<polygon fill="#9B9B9B" points="986.205,692.819 1063.645,634.521 1063.418,563.834 985.928,622.134 		"/>
		<polygon fill="#AFAFAF" points="908.887,565.4 909.113,636.087 986.205,692.819 985.928,622.134 		"/>
	</g>
</g>
<linearGradient id="SVGID_1_" gradientUnits="userSpaceOnUse" x1="675.6533" y1="-450.3208" x2="723.3021" y2="-323.1131" gradientTransform="matrix(0.7059 -0.9881 -0.8137 -0.5813 363.7895 1214.9349)">
	<stop  offset="0.075" style="stop-color:#FFFFFF;stop-opacity:0"/>
	<stop  offset="0.6184" style="stop-color:#747474;stop-opacity:0.5874"/>
	<stop  offset="1" style="stop-color:#161616"/>
</linearGradient>
<polygon fill="url(#SVGID_1_)" points="1290.183,788.326 1209.678,848.045 1090.299,771.253 1167.508,707.544 "/>
<linearGradient id="SVGID_2_" gradientUnits="userSpaceOnUse" x1="778.2754" y1="-485.4189" x2="825.9244" y2="-358.2103" gradientTransform="matrix(0.7059 -0.9881 -0.8137 -0.5813 363.7895 1214.9349)">
	<stop  offset="0.075" style="stop-color:#FFFFFF;stop-opacity:0"/>
	<stop  offset="0.6184" style="stop-color:#747474;stop-opacity:0.5874"/>
	<stop  offset="1" style="stop-color:#161616"/>
</linearGradient>
<polygon fill="url(#SVGID_2_)" points="1391.183,707.326 1310.678,767.045 1191.299,690.253 1268.508,626.544 "/>
<g>
	
		<linearGradient id="SVGID_3_" gradientUnits="userSpaceOnUse" x1="466.9199" y1="544.4219" x2="529.6687" y2="585.8648" gradientTransform="matrix(0.7059 -0.9881 -0.8137 -0.5813 363.7895 1214.9349)">
		<stop  offset="0.075" style="stop-color:#FFFFFF;stop-opacity:0"/>
		<stop  offset="0.6184" style="stop-color:#747474;stop-opacity:0.5874"/>
		<stop  offset="1" style="stop-color:#161616"/>
	</linearGradient>
	<polygon fill="url(#SVGID_3_)" points="378.787,424.403 179.338,461.935 130.676,379.141 330.332,379.757 	"/>
	<polygon fill="#93C1C9" points="302,361.852 302,388 160,388 160,361.852 173.617,273 288.712,273 	"/>
	
		<ellipse transform="matrix(0.2353 -0.9719 0.9719 0.2353 -170.1673 392.5144)" fill="#303099" cx="164.357" cy="304.398" rx="14.526" ry="15.012"/>
	
		<rect x="139.734" y="303.755" transform="matrix(-0.9719 -0.2354 0.2354 -0.9719 224.17 714.7492)" fill="#303099" width="30.025" height="80.478"/>
	
		<ellipse transform="matrix(-0.2387 -0.9711 0.9711 -0.2387 72.1617 663.2877)" fill="#2C2C89" cx="296.079" cy="303.358" rx="14.526" ry="15.012"/>
	
		<rect x="290.965" y="302.633" transform="matrix(-0.9711 0.2387 -0.2387 -0.9711 685.1185 604.1988)" fill="#2C2C89" width="30.025" height="81.896"/>
	<polygon fill="#B8F2FF" points="302.474,388 159.855,388 173.617,299 288.712,299 	"/>
	<rect x="174" y="273" fill="#A6D9E2" width="115" height="26"/>
	<g>
		<g>
			<path fill="#D8D448" d="M179.034,206.715c0,21.255,23.34,38.479,52.129,38.479c28.79,0,52.13-17.224,52.13-38.479v59.08
				c0,21.252-23.34,38.478-52.13,38.478s-52.129-17.226-52.129-38.478V206.715z"/>
			<path fill="#E5E14C" d="M283.293,206.715c0,21.255-23.34,38.479-52.13,38.479s-52.129-17.224-52.129-38.479
				c0-21.251,23.34-38.475,52.129-38.475C259.953,168.24,283.293,185.464,283.293,206.715z"/>
		</g>
	</g>
	<g>
		<g>
			<path fill="#C9C128" d="M205.307,202.448c0,10.195,11.195,18.456,25.003,18.456c13.812,0,25.004-8.261,25.004-18.456v8.536
				c0,10.193-11.192,18.456-25.004,18.456c-13.808,0-25.003-8.263-25.003-18.456V202.448z"/>
			<path fill="#EAEA4B" d="M255.314,202.448c0,10.195-11.192,18.456-25.004,18.456c-13.808,0-25.003-8.261-25.003-18.456
				c0-10.193,11.195-18.456,25.003-18.456C244.122,183.993,255.314,192.255,255.314,202.448z"/>
		</g>
	</g>
	<circle fill="#1A1A1A" cx="216.995" cy="261.83" r="5.221"/>
	<circle fill="#1A1A1A" cx="243.472" cy="261.381" r="5.22"/>
	<path fill="none" stroke="#000000" stroke-width="3" stroke-miterlimit="10" d="M215.885,278.719
		c8.658,8.259,22.354,7.93,30.62-0.736"/>
</g>
<g>
	
		<linearGradient id="SVGID_4_" gradientUnits="userSpaceOnUse" x1="587.415" y1="335.3076" x2="650.1647" y2="376.751" gradientTransform="matrix(0.7059 -0.9881 -0.8137 -0.5813 363.7895 1214.9349)">
		<stop  offset="0.075" style="stop-color:#FFFFFF;stop-opacity:0"/>
		<stop  offset="0.6184" style="stop-color:#747474;stop-opacity:0.5874"/>
		<stop  offset="1" style="stop-color:#161616"/>
	</linearGradient>
	<polygon fill="url(#SVGID_4_)" points="634,426.905 434.551,464.438 385.889,381.643 585.544,382.259 	"/>
	<polygon fill="#72BA94" points="558,364.354 558,391 415,391 415,364.354 428.829,276 543.925,276 	"/>
	
		<ellipse transform="matrix(0.2353 -0.9719 0.9719 0.2353 22.5662 642.4705)" fill="#303099" cx="419.563" cy="306.895" rx="14.527" ry="15.011"/>
	
		<rect x="394.945" y="306.27" transform="matrix(-0.9719 -0.2354 0.2354 -0.9719 726.8237 779.7849)" fill="#303099" width="30.024" height="80.477"/>
	
		<ellipse transform="matrix(-0.2387 -0.9711 0.9711 -0.2387 385.8536 914.2355)" fill="#2C2C89" cx="551.296" cy="305.868" rx="14.527" ry="15.013"/>
	
		<rect x="546.18" y="305.137" transform="matrix(-0.9711 0.2387 -0.2387 -0.9711 1188.7712 548.214)" fill="#2C2C89" width="30.024" height="81.896"/>
	<polygon fill="#8EEDBB" points="557.688,391 415.067,391 428.829,302 543.925,302 	"/>
	<rect x="429" y="276" fill="#7FD3A6" width="115" height="26"/>
	<g>
		<g>
			<path fill="#D8D448" d="M434.246,209.217c0,21.255,23.34,38.479,52.129,38.479c28.791,0,52.131-17.224,52.131-38.479v59.08
				c0,21.251-23.34,38.478-52.131,38.478c-28.789,0-52.129-17.227-52.129-38.478V209.217L434.246,209.217z"/>
			<path fill="#E5E14C" d="M538.506,209.217c0,21.255-23.34,38.479-52.131,38.479c-28.789,0-52.129-17.224-52.129-38.479
				c0-21.25,23.34-38.475,52.129-38.475C515.166,170.742,538.506,187.966,538.506,209.217z"/>
		</g>
	</g>
	<g>
		<g>
			<path fill="#C9C128" d="M460.52,204.951c0,10.195,11.194,18.456,25.002,18.456c13.813,0,25.005-8.261,25.005-18.456v8.535
				c0,10.193-11.19,18.456-25.005,18.456c-13.808,0-25.002-8.263-25.002-18.456V204.951z"/>
			<path fill="#EAEA4B" d="M510.525,204.951c0,10.195-11.19,18.456-25.004,18.456c-13.809,0-25.004-8.261-25.004-18.456
				c0-10.194,11.195-18.456,25.004-18.456C499.335,186.495,510.525,194.757,510.525,204.951z"/>
		</g>
	</g>
	<circle fill="#1A1A1A" cx="472.207" cy="264.332" r="5.221"/>
	<circle fill="#1A1A1A" cx="498.685" cy="263.883" r="5.22"/>
	<path fill="none" stroke="#000000" stroke-width="3" stroke-miterlimit="10" d="M471.097,281.221
		c8.659,8.259,22.354,7.93,30.62-0.735"/>
</g>
<g>
	
		<linearGradient id="SVGID_5_" gradientUnits="userSpaceOnUse" x1="442.6172" y1="361.9043" x2="505.3668" y2="403.3477" gradientTransform="matrix(0.7059 -0.9881 -0.8137 -0.5813 363.7895 1214.9349)">
		<stop  offset="0.075" style="stop-color:#FFFFFF;stop-opacity:0"/>
		<stop  offset="0.6184" style="stop-color:#747474;stop-opacity:0.5874"/>
		<stop  offset="1" style="stop-color:#161616"/>
	</linearGradient>
	<polygon fill="url(#SVGID_5_)" points="510.146,554.512 310.697,592.043 262.035,509.249 461.691,509.865 	"/>
	<polygon fill="#CC9A9A" points="434,491.959 434,518 291,518 291,491.959 304.976,403 420.072,403 	"/>
	
		<ellipse transform="matrix(0.2353 -0.9719 0.9719 0.2353 -196.1747 619.6697)" fill="#303099" cx="295.711" cy="434.503" rx="14.526" ry="15.012"/>
	
		<rect x="271.085" y="433.868" transform="matrix(-0.9719 -0.2354 0.2354 -0.9719 452.5447 1002.2403)" fill="#303099" width="30.025" height="80.477"/>
	
		<ellipse transform="matrix(-0.2387 -0.9711 0.9711 -0.2387 108.5215 952.0193)" fill="#2C2C89" cx="427.435" cy="433.471" rx="14.526" ry="15.013"/>
	
		<rect x="422.337" y="432.727" transform="matrix(-0.9711 0.2387 -0.2387 -0.9711 975.1238 829.2581)" fill="#2C2C89" width="30.024" height="81.896"/>
	<polygon fill="#FFBBBB" points="433.833,518 291.215,518 304.976,429 420.072,429 	"/>
	<rect x="305" y="403" fill="#E0A6A6" width="115" height="26"/>
	<g>
		<g>
			<path fill="#D8D448" d="M310.393,336.823c0,21.256,23.341,38.479,52.129,38.479c28.791,0,52.131-17.224,52.131-38.479v59.079
				c0,21.253-23.34,38.479-52.131,38.479c-28.789,0-52.129-17.227-52.129-38.479V336.823z"/>
			<path fill="#E5E14C" d="M414.652,336.823c0,21.256-23.34,38.479-52.131,38.479c-28.789,0-52.129-17.224-52.129-38.479
				c0-21.25,23.341-38.474,52.129-38.474C391.312,298.349,414.652,315.572,414.652,336.823z"/>
		</g>
	</g>
	<g>
		<g>
			<path fill="#C9C128" d="M336.665,332.557c0,10.195,11.196,18.456,25.004,18.456c13.812,0,25.004-8.261,25.004-18.456v8.536
				c0,10.193-11.19,18.456-25.004,18.456c-13.808,0-25.004-8.263-25.004-18.456V332.557z"/>
			<path fill="#EAEA4B" d="M386.673,332.557c0,10.195-11.19,18.456-25.004,18.456c-13.808,0-25.004-8.261-25.004-18.456
				c0-10.193,11.196-18.456,25.004-18.456C375.481,314.101,386.673,322.363,386.673,332.557z"/>
		</g>
	</g>
	<circle fill="#1A1A1A" cx="348.354" cy="393.938" r="5.221"/>
	<circle fill="#1A1A1A" cx="374.831" cy="394.489" r="5.22"/>
	<path fill="none" stroke="#000000" stroke-width="3" stroke-miterlimit="10" d="M347.244,408.826
		c8.658,8.26,22.354,7.931,30.619-0.734"/>
</g>
<line fill="none" stroke="#000000" stroke-width="2" stroke-miterlimit="10" x1="357.959" y1="387.18" x2="348.952" y2="381.562"/>
<line fill="none" stroke="#000000" stroke-width="2" stroke-miterlimit="10" x1="366.238" y1="387.211" x2="375.38" y2="381.91"/>
</svg>
