<?xml version="1.0" encoding="utf-8"?>
<!-- Generator: Adobe Illustrator 16.0.4, SVG Export Plug-In . SVG Version: 6.00 Build 0)  -->
<!DOCTYPE svg PUBLIC "-//W3C//DTD SVG 1.1//EN" "http://www.w3.org/Graphics/SVG/1.1/DTD/svg11.dtd">
<svg version="1.1" id="Layer_1" xmlns="http://www.w3.org/2000/svg" xmlns:xlink="http://www.w3.org/1999/xlink" x="0px" y="0px"
	 width="720px" height="720px" viewBox="0 0 720 720" enable-background="new 0 0 720 720" xml:space="preserve">
<g>
	<g>
		<g>
			<polygon fill="#BCBCBC" points="1268.508,561.271 1194.783,506.211 1194.705,506.218 1113.98,562.838 1191.018,619.571 			"/>
			<g>
				<g>
					<path fill="#999999" d="M1151.02,553.926c0,16.989,18.655,30.758,41.671,30.758s41.671-13.769,41.671-30.758v14.226
						c0,16.985-18.655,30.757-41.671,30.757s-41.671-13.771-41.671-30.757V553.926z"/>
					<ellipse fill="#CCCCCC" cx="1192.689" cy="553.926" rx="41.671" ry="30.758"/>
				</g>
			</g>
		</g>
		<polygon fill="#829E0D" points="1268.508,561.271 1191.018,619.571 1113.98,562.838 1113.98,637.466 1191.299,690.257 
			1268.508,626.547 		"/>
		<polygon fill="#9B9B9B" points="1191.299,690.257 1268.508,626.547 1268.508,561.271 1191.018,619.571 		"/>
		<polygon fill="#AFAFAF" points="1113.98,562.838 1113.98,637.466 1191.299,690.257 1191.018,619.571 		"/>
	</g>
	<g>
		<g>
			<polygon fill="#545454" points="1268.285,490.586 1194.558,435.525 1194.479,435.531 1113.754,492.152 1190.795,548.885 			"/>
			<g>
				<g>
					<path fill="#333333" d="M1150.796,483.24c0,16.988,18.655,30.756,41.668,30.756c23.015,0,41.67-13.768,41.67-30.756v14.224
						c0,16.987-18.655,30.757-41.67,30.757c-23.013,0-41.668-13.77-41.668-30.757V483.24z"/>
					<path fill="#666666" d="M1234.134,483.24c0,16.988-18.655,30.756-41.67,30.756c-23.013,0-41.668-13.768-41.668-30.756
						c0-16.987,18.655-30.756,41.668-30.756C1215.479,452.484,1234.134,466.253,1234.134,483.24z"/>
				</g>
			</g>
		</g>
		<polygon fill="#333333" points="1191.072,619.571 1268.508,561.271 1268.285,490.586 1190.795,548.885 		"/>
		<polygon fill="#474747" points="1113.754,492.152 1113.98,562.838 1191.072,619.571 1190.795,548.885 		"/>
	</g>
	<g>
		<g>
			<polygon fill="#BCBCBC" points="1268.2,460.666 1194.473,405.605 1194.395,405.612 1113.67,462.232 1190.71,518.965 			"/>
			<g>
				<g>
					<path fill="#999999" d="M1150.712,453.32c0,16.989,18.655,30.757,41.667,30.757c23.016,0,41.671-13.768,41.671-30.757v14.225
						c0,16.986-18.655,30.756-41.671,30.756c-23.012,0-41.667-13.77-41.667-30.756V453.32z"/>
					<path fill="#CCCCCC" d="M1234.05,453.32c0,16.989-18.655,30.757-41.671,30.757c-23.012,0-41.667-13.768-41.667-30.757
						c0-16.986,18.655-30.756,41.667-30.756C1215.395,422.564,1234.05,436.334,1234.05,453.32z"/>
				</g>
			</g>
		</g>
		<polygon fill="#9B9B9B" points="1190.988,589.652 1268.426,531.352 1268.2,460.666 1190.71,518.965 		"/>
		<polygon fill="#AFAFAF" points="1113.67,462.232 1113.896,532.919 1190.988,589.652 1190.71,518.965 		"/>
	</g>
	<g>
		<g>
			<polygon fill="#545454" points="1268.135,430.307 1194.408,375.246 1194.328,375.254 1113.604,431.873 1190.646,488.605 			"/>
			<g>
				<g>
					<path fill="#333333" d="M1150.646,422.961c0,16.99,18.656,30.757,41.668,30.757c23.016,0,41.671-13.767,41.671-30.757v14.225
						c0,16.986-18.655,30.758-41.671,30.758c-23.012,0-41.668-13.771-41.668-30.758V422.961z"/>
					<path fill="#666666" d="M1233.984,422.961c0,16.99-18.655,30.757-41.67,30.757c-23.013,0-41.67-13.767-41.67-30.757
						c0-16.986,18.657-30.755,41.67-30.755C1215.329,392.206,1233.984,405.975,1233.984,422.961z"/>
				</g>
			</g>
		</g>
		<polygon fill="#333333" points="1190.923,559.293 1268.359,500.993 1268.135,430.307 1190.646,488.605 		"/>
		<polygon fill="#474747" points="1113.604,431.873 1113.831,502.561 1190.923,559.293 1190.646,488.605 		"/>
	</g>
	<g>
		<g>
			<polygon fill="#BCBCBC" points="1268.04,400.271 1194.312,345.21 1194.233,345.217 1113.509,401.838 1190.549,458.57 			"/>
			<g>
				<g>
					<path fill="#999999" d="M1150.551,392.924c0,16.99,18.656,30.758,41.668,30.758c23.016,0,41.671-13.768,41.671-30.758v14.226
						c0,16.987-18.655,30.758-41.671,30.758c-23.012,0-41.668-13.771-41.668-30.758V392.924z"/>
					<path fill="#CCCCCC" d="M1233.89,392.924c0,16.99-18.655,30.758-41.671,30.758c-23.012,0-41.668-13.768-41.668-30.758
						c0-16.986,18.656-30.755,41.668-30.755C1215.233,362.169,1233.89,375.938,1233.89,392.924z"/>
				</g>
			</g>
		</g>
		<polygon fill="#9B9B9B" points="1190.828,529.256 1268.267,470.956 1268.04,400.271 1190.549,458.57 		"/>
		<polygon fill="#AFAFAF" points="1113.509,401.838 1113.734,472.523 1190.828,529.256 1190.549,458.57 		"/>
	</g>
</g>
<g>
	<g>
		<g>
			<polygon fill="#BCBCBC" points="1167.508,642.268 1093.783,587.207 1093.704,587.213 1012.98,643.834 1090.018,700.566 			"/>
			<g>
				<g>
					<path fill="#999999" d="M1050.02,634.922c0,16.989,18.656,30.757,41.671,30.757s41.671-13.768,41.671-30.757v14.225
						c0,16.986-18.656,30.757-41.671,30.757s-41.671-13.771-41.671-30.757V634.922z"/>
					<ellipse fill="#CCCCCC" cx="1091.689" cy="634.922" rx="41.671" ry="30.757"/>
				</g>
			</g>
		</g>
		<polygon fill="#829E0D" points="1167.508,642.268 1090.018,700.566 1012.98,643.834 1012.98,718.461 1090.299,771.253 
			1167.508,707.544 		"/>
		<polygon fill="#9B9B9B" points="1090.299,771.253 1167.508,707.544 1167.508,642.268 1090.018,700.566 		"/>
		<polygon fill="#AFAFAF" points="1012.98,643.834 1012.98,718.461 1090.299,771.253 1090.018,700.566 		"/>
	</g>
	<g>
		<g>
			<polygon fill="#545454" points="1167.285,571.582 1093.558,516.521 1093.479,516.527 1012.754,573.148 1089.795,629.88 			"/>
			<g>
				<g>
					<path fill="#333333" d="M1049.795,564.235c0,16.988,18.657,30.757,41.669,30.757c23.015,0,41.671-13.769,41.671-30.757v14.225
						c0,16.987-18.656,30.757-41.671,30.757c-23.012,0-41.669-13.77-41.669-30.757V564.235z"/>
					<ellipse fill="#666666" cx="1091.465" cy="564.235" rx="41.67" ry="30.757"/>
				</g>
			</g>
		</g>
		<polygon fill="#333333" points="1090.072,700.566 1167.508,642.268 1167.285,571.582 1089.795,629.88 		"/>
		<polygon fill="#474747" points="1012.754,573.148 1012.98,643.834 1090.072,700.566 1089.795,629.88 		"/>
	</g>
	<g>
		<g>
			<polygon fill="#BCBCBC" points="1167.2,541.662 1093.474,486.602 1093.395,486.607 1012.67,543.229 1089.711,599.961 			"/>
			<g>
				<g>
					<path fill="#999999" d="M1049.711,534.316c0,16.988,18.656,30.756,41.668,30.756c23.016,0,41.671-13.768,41.671-30.756v14.225
						c0,16.986-18.655,30.756-41.671,30.756c-23.012,0-41.668-13.77-41.668-30.756V534.316z"/>
					<path fill="#CCCCCC" d="M1133.05,534.316c0,16.988-18.655,30.756-41.671,30.756c-23.012,0-41.668-13.768-41.668-30.756
						c0-16.986,18.656-30.757,41.668-30.757C1114.395,503.561,1133.05,517.33,1133.05,534.316z"/>
				</g>
			</g>
		</g>
		<polygon fill="#9B9B9B" points="1089.988,670.646 1167.426,612.348 1167.2,541.662 1089.711,599.961 		"/>
		<polygon fill="#AFAFAF" points="1012.67,543.229 1012.896,613.914 1089.988,670.646 1089.711,599.961 		"/>
	</g>
	<g>
		<g>
			<polygon fill="#545454" points="1167.135,511.303 1093.407,456.242 1093.329,456.249 1012.604,512.869 1089.645,569.602 			"/>
			<g>
				<g>
					<path fill="#333333" d="M1049.646,503.957c0,16.989,18.654,30.756,41.666,30.756c23.016,0,41.673-13.767,41.673-30.756v14.225
						c0,16.986-18.657,30.756-41.673,30.756c-23.012,0-41.666-13.77-41.666-30.756V503.957z"/>
					<path fill="#666666" d="M1132.985,503.957c0,16.989-18.657,30.756-41.673,30.756c-23.012,0-41.666-13.767-41.666-30.756
						c0-16.986,18.654-30.756,41.666-30.756C1114.328,473.201,1132.985,486.971,1132.985,503.957z"/>
				</g>
			</g>
		</g>
		<polygon fill="#333333" points="1089.922,640.287 1167.359,581.988 1167.135,511.303 1089.645,569.602 		"/>
		<polygon fill="#474747" points="1012.604,512.869 1012.83,583.556 1089.922,640.287 1089.645,569.602 		"/>
	</g>
	<g>
		<g>
			<polygon fill="#BCBCBC" points="1167.039,481.266 1093.312,426.205 1093.234,426.213 1012.509,482.833 1089.55,539.565 			"/>
			<g>
				<g>
					<path fill="#999999" d="M1049.551,473.92c0,16.99,18.656,30.758,41.668,30.758c23.016,0,41.67-13.768,41.67-30.758v14.225
						c0,16.987-18.654,30.758-41.67,30.758c-23.012,0-41.668-13.771-41.668-30.757V473.92z"/>
					<path fill="#CCCCCC" d="M1132.889,473.92c0,16.99-18.654,30.758-41.67,30.758c-23.012,0-41.668-13.768-41.668-30.758
						c0-16.986,18.656-30.754,41.668-30.754C1114.233,443.166,1132.889,456.934,1132.889,473.92z"/>
				</g>
			</g>
		</g>
		<polygon fill="#9B9B9B" points="1089.827,610.252 1167.266,551.952 1167.039,481.266 1089.55,539.565 		"/>
		<polygon fill="#AFAFAF" points="1012.509,482.833 1012.734,553.52 1089.827,610.252 1089.55,539.565 		"/>
	</g>
</g>
<g>
	<g>
		<g>
			<polygon fill="#BCBCBC" points="1063.886,724.835 990.161,669.774 990.082,669.782 909.357,726.402 986.396,783.134 			"/>
			<g>
				<g>
					<path fill="#999999" d="M946.396,717.489c0,16.989,18.655,30.757,41.671,30.757c23.015,0,41.671-13.768,41.671-30.757v14.226
						c0,16.986-18.656,30.756-41.671,30.756c-23.016,0-41.671-13.77-41.671-30.756V717.489z"/>
					<ellipse fill="#CCCCCC" cx="988.067" cy="717.489" rx="41.671" ry="30.757"/>
				</g>
			</g>
		</g>
		<polygon fill="#829E0D" points="1063.886,724.835 986.396,783.134 909.357,726.402 909.357,801.028 986.676,853.82 
			1063.886,790.111 		"/>
		<polygon fill="#9B9B9B" points="986.676,853.82 1063.886,790.111 1063.886,724.835 986.396,783.134 		"/>
		<polygon fill="#AFAFAF" points="909.357,726.402 909.357,801.028 986.676,853.82 986.396,783.134 		"/>
	</g>
	<g>
		<g>
			<polygon fill="#545454" points="1063.662,654.148 989.936,599.089 989.855,599.096 909.132,655.716 986.172,712.448 			"/>
			<g>
				<g>
					<path fill="#333333" d="M946.174,646.804c0,16.989,18.655,30.756,41.668,30.756c23.014,0,41.67-13.767,41.67-30.756v14.226
						c0,16.985-18.655,30.757-41.67,30.757c-23.013,0-41.668-13.771-41.668-30.757V646.804L946.174,646.804z"/>
					<path fill="#666666" d="M1029.512,646.804c0,16.989-18.656,30.756-41.67,30.756c-23.013,0-41.668-13.767-41.668-30.756
						c0-16.986,18.655-30.756,41.668-30.756C1010.855,616.048,1029.512,629.816,1029.512,646.804z"/>
				</g>
			</g>
		</g>
		<polygon fill="#333333" points="986.45,783.134 1063.886,724.835 1063.662,654.148 986.172,712.448 		"/>
		<polygon fill="#474747" points="909.132,655.716 909.357,726.402 986.45,783.134 986.172,712.448 		"/>
	</g>
	<g>
		<g>
			<polygon fill="#BCBCBC" points="1063.578,624.229 989.852,569.169 989.771,569.176 909.047,625.797 986.088,682.529 			"/>
			<g>
				<g>
					<path fill="#999999" d="M946.09,616.884c0,16.989,18.654,30.757,41.668,30.757c23.015,0,41.67-13.768,41.67-30.757v14.226
						c0,16.986-18.655,30.757-41.67,30.757c-23.014,0-41.668-13.771-41.668-30.757V616.884L946.09,616.884z"/>
					<ellipse fill="#CCCCCC" cx="987.759" cy="616.884" rx="41.669" ry="30.757"/>
				</g>
			</g>
		</g>
		<polygon fill="#9B9B9B" points="986.365,753.215 1063.805,694.916 1063.578,624.229 986.088,682.529 		"/>
		<polygon fill="#AFAFAF" points="909.047,625.797 909.273,696.482 986.365,753.215 986.088,682.529 		"/>
	</g>
	<g>
		<g>
			<polygon fill="#545454" points="1063.512,593.871 989.785,538.811 989.707,538.816 908.982,595.438 986.023,652.17 			"/>
			<g>
				<g>
					<path fill="#333333" d="M946.023,586.524c0,16.988,18.655,30.757,41.668,30.757c23.016,0,41.672-13.769,41.672-30.757v14.225
						c0,16.987-18.656,30.758-41.672,30.758c-23.013,0-41.668-13.771-41.668-30.758V586.524L946.023,586.524z"/>
					<ellipse fill="#666666" cx="987.693" cy="586.524" rx="41.67" ry="30.757"/>
				</g>
			</g>
		</g>
		<polygon fill="#333333" points="986.301,722.855 1063.737,664.557 1063.512,593.871 986.023,652.17 		"/>
		<polygon fill="#474747" points="908.982,595.438 909.208,666.124 986.301,722.855 986.023,652.17 		"/>
	</g>
	<g>
		<g>
			<polygon fill="#BCBCBC" points="1063.418,563.834 989.689,508.773 989.611,508.78 908.887,565.4 985.928,622.134 			"/>
			<g>
				<g>
					<path fill="#999999" d="M945.929,556.488c0,16.989,18.655,30.756,41.667,30.756c23.017,0,41.671-13.767,41.671-30.756v14.225
						c0,16.986-18.654,30.757-41.671,30.757c-23.012,0-41.667-13.771-41.667-30.757V556.488L945.929,556.488z"/>
					<path fill="#CCCCCC" d="M1029.267,556.488c0,16.989-18.654,30.756-41.671,30.756c-23.012,0-41.667-13.767-41.667-30.756
						c0-16.986,18.655-30.756,41.667-30.756C1010.611,525.732,1029.267,539.502,1029.267,556.488z"/>
				</g>
			</g>
		</g>
		<polygon fill="#9B9B9B" points="986.205,692.819 1063.645,634.521 1063.418,563.834 985.928,622.134 		"/>
		<polygon fill="#AFAFAF" points="908.887,565.4 909.113,636.087 986.205,692.819 985.928,622.134 		"/>
	</g>
</g>
<linearGradient id="SVGID_1_" gradientUnits="userSpaceOnUse" x1="675.6533" y1="-450.3208" x2="723.3021" y2="-323.1131" gradientTransform="matrix(0.7059 -0.9881 -0.8137 -0.5813 363.7895 1214.9349)">
	<stop  offset="0.075" style="stop-color:#FFFFFF;stop-opacity:0"/>
	<stop  offset="0.6184" style="stop-color:#747474;stop-opacity:0.5874"/>
	<stop  offset="1" style="stop-color:#161616"/>
</linearGradient>
<polygon fill="url(#SVGID_1_)" points="1290.183,788.326 1209.678,848.045 1090.299,771.253 1167.508,707.544 "/>
<linearGradient id="SVGID_2_" gradientUnits="userSpaceOnUse" x1="778.2754" y1="-485.4189" x2="825.9244" y2="-358.2103" gradientTransform="matrix(0.7059 -0.9881 -0.8137 -0.5813 363.7895 1214.9349)">
	<stop  offset="0.075" style="stop-color:#FFFFFF;stop-opacity:0"/>
	<stop  offset="0.6184" style="stop-color:#747474;stop-opacity:0.5874"/>
	<stop  offset="1" style="stop-color:#161616"/>
</linearGradient>
<polygon fill="url(#SVGID_2_)" points="1391.183,707.326 1310.678,767.045 1191.299,690.253 1268.508,626.544 "/>
<linearGradient id="SVGID_3_" gradientUnits="userSpaceOnUse" x1="312.2031" y1="474.2676" x2="398.633" y2="531.3509" gradientTransform="matrix(0.7059 -0.9881 -0.8137 -0.5813 363.7895 1214.9349)">
	<stop  offset="0.075" style="stop-color:#FFFFFF;stop-opacity:0"/>
	<stop  offset="0.6184" style="stop-color:#747474;stop-opacity:0.5874"/>
	<stop  offset="1" style="stop-color:#161616"/>
</linearGradient>
<polygon fill="url(#SVGID_3_)" points="365.855,647.43 105.483,664.724 38.457,550.685 313.458,551.534 "/>
<linearGradient id="SVGID_4_" gradientUnits="userSpaceOnUse" x1="622.9453" y1="311.8193" x2="709.376" y2="368.9032" gradientTransform="matrix(0.7059 -0.9881 -0.8137 -0.5813 363.7895 1214.9349)">
	<stop  offset="0.075" style="stop-color:#FFFFFF;stop-opacity:0"/>
	<stop  offset="0.6184" style="stop-color:#747474;stop-opacity:0.5874"/>
	<stop  offset="1" style="stop-color:#161616"/>
</linearGradient>
<polygon fill="url(#SVGID_4_)" points="717.391,434.818 457.019,452.109 389.994,338.07 664.994,338.92 "/>
<path fill="none" stroke="#000000" stroke-width="8" stroke-miterlimit="10" stroke-dasharray="10" d="M176.62,518.965
	C19.108,202.938,374.057,125.57,516.046,306.964"/>
<g>
	<polygon fill="#647F00" points="627.024,313.828 627.024,350.528 430.059,350.528 430.059,313.828 449.107,192.131 
		607.639,192.131 	"/>
	
		<ellipse transform="matrix(0.2353 -0.9719 0.9719 0.2353 105.565 603.5165)" fill="#303099" cx="436.311" cy="234.673" rx="20.009" ry="20.677"/>
	
		<rect x="402.46" y="233.873" transform="matrix(-0.9719 -0.2354 0.2354 -0.9719 766.2966 670.062)" fill="#303099" width="41.356" height="110.851"/>
	
		<ellipse transform="matrix(-0.2386 -0.9711 0.9711 -0.2386 538.7241 888.9481)" fill="#2C2C89" cx="617.833" cy="233.292" rx="20.008" ry="20.676"/>
	
		<rect x="610.757" y="232.264" transform="matrix(-0.9711 0.2387 -0.2387 -0.9711 1313.52 418.2635)" fill="#2C2C89" width="41.354" height="112.803"/>
	<polygon fill="#81BC00" points="626.595,350.528 430.151,350.528 449.107,227.942 607.639,227.942 	"/>
	<rect x="449.343" y="192.131" fill="#729B00" width="158.399" height="35.811"/>
	<g>
		<g>
			<path fill="#D8D448" d="M456.567,100.145c0,29.277,32.148,53.001,71.802,53.001c39.657,0,71.805-23.724,71.805-53.001v81.377
				c0,29.271-32.147,52.998-71.805,52.998c-39.653,0-71.802-23.726-71.802-52.998V100.145z"/>
			<path fill="#E5E14C" d="M600.174,100.145c0,29.277-32.147,53.001-71.805,53.001c-39.653,0-71.802-23.724-71.802-53.001
				c0-29.269,32.148-52.994,71.802-52.994C568.026,47.151,600.174,70.874,600.174,100.145z"/>
		</g>
	</g>
	<g>
		<g>
			<path fill="#C9C128" d="M492.757,94.27c0,14.042,15.419,25.421,34.438,25.421c19.025,0,34.44-11.379,34.44-25.421v11.755
				c0,14.04-15.413,25.421-34.44,25.421c-19.019,0-34.438-11.381-34.438-25.421V94.27z"/>
			<path fill="#EAEA4B" d="M561.634,94.27c0,14.042-15.414,25.421-34.439,25.421c-19.021,0-34.439-11.379-34.439-25.421
				s15.419-25.421,34.439-25.421C546.22,68.848,561.634,80.228,561.634,94.27z"/>
		</g>
	</g>
	<circle fill="#1A1A1A" cx="508.854" cy="176.059" r="7.191"/>
	<circle fill="#1A1A1A" cx="545.326" cy="175.441" r="7.19"/>
	<path fill="none" stroke="#000000" stroke-width="3" stroke-miterlimit="10" d="M507.326,199.323
		c11.927,11.375,30.789,10.923,42.175-1.013"/>
</g>
<g>
	<g>
		<path fill="none" stroke="#000000" stroke-width="8" stroke-miterlimit="10" stroke-dasharray="10,10" d="M177.309,503.56
			c152.703,189.219,479.648,66.1,375.872-128.637"/>
		<g>
			<polygon points="575.109,377.439 555.988,380.148 544.663,395.792 538.135,350.528 			"/>
		</g>
	</g>
</g>
<g>
	<polygon fill="#006B84" points="274.415,526.523 274.415,562.538 78.826,562.538 78.826,526.523 97.583,404.141 256.113,404.141 	
		"/>
	
		<ellipse transform="matrix(0.2353 -0.9719 0.9719 0.2353 -369.9669 424.5073)" fill="#303099" cx="84.791" cy="447.368" rx="20.008" ry="20.676"/>
	
		<rect x="50.939" y="446.552" transform="matrix(-0.9719 -0.2354 0.2354 -0.9719 23.0537 1006.7062)" fill="#303099" width="41.356" height="110.85"/>
	
		<ellipse transform="matrix(-0.2387 -0.9711 0.9711 -0.2387 -103.2216 811.0262)" fill="#2C2C89" cx="266.301" cy="445.975" rx="20.008" ry="20.678"/>
	
		<rect x="259.228" y="444.956" transform="matrix(-0.9711 0.2386 -0.2386 -0.9711 671.3695 921.4324)" fill="#2C2C89" width="41.355" height="112.803"/>
	<polygon fill="#00A1DE" points="275.068,562.538 78.627,562.538 97.583,439.952 256.113,439.952 	"/>
	<rect x="98.11" y="404.141" fill="#007DA3" width="158.398" height="35.812"/>
	<g>
		<g>
			<path fill="#D8D448" d="M105.042,312.84c0,29.276,32.147,53,71.803,53s71.803-23.723,71.803-53v81.376
				c0,29.271-32.148,52.998-71.803,52.998s-71.803-23.727-71.803-52.998V312.84z"/>
			<path fill="#E5E14C" d="M248.648,312.84c0,29.276-32.148,53-71.803,53s-71.803-23.723-71.803-53
				c0-29.27,32.147-52.994,71.803-52.994S248.648,283.57,248.648,312.84z"/>
		</g>
	</g>
	<g>
		<g>
			<path fill="#C9C128" d="M141.231,306.964c0,14.042,15.42,25.421,34.439,25.421c19.024,0,34.442-11.378,34.442-25.421v11.757
				c0,14.04-15.418,25.421-34.442,25.421c-19.019,0-34.439-11.382-34.439-25.421V306.964z"/>
			<ellipse fill="#EAEA4B" cx="175.671" cy="306.964" rx="34.441" ry="25.421"/>
		</g>
	</g>
	<circle fill="#1A1A1A" cx="157.331" cy="388.755" r="7.191"/>
	<circle fill="#1A1A1A" cx="193.799" cy="388.138" r="7.19"/>
	<path fill="none" stroke="#000000" stroke-width="3" stroke-miterlimit="10" d="M155.801,412.018
		c11.926,11.375,30.791,10.923,42.175-1.014"/>
</g>
<g>
	
		<linearGradient id="SVGID_5_" gradientUnits="userSpaceOnUse" x1="1091.7861" y1="149.5957" x2="1154.5356" y2="191.0392" gradientTransform="matrix(0.7059 -0.9881 -0.8137 -0.5813 363.7895 1214.9349)">
		<stop  offset="0.075" style="stop-color:#FFFFFF;stop-opacity:0"/>
		<stop  offset="0.6184" style="stop-color:#747474;stop-opacity:0.5874"/>
		<stop  offset="1" style="stop-color:#161616"/>
	</linearGradient>
	<polygon fill="url(#SVGID_5_)" points="1141.146,36.512 941.697,74.043 893.035,-8.751 1092.691,-8.135 	"/>
	<polygon fill="#00A800" points="1065,-26.041 1065,0 922,0 922,-26.041 935.977,-115 1051.072,-115 	"/>
	
		<ellipse transform="matrix(0.2353 -0.9719 0.9719 0.2353 789.7913 836.8179)" fill="#303099" cx="926.689" cy="-83.5" rx="14.526" ry="15.012"/>
	
		<rect x="902.105" y="-84.095" transform="matrix(-0.9719 -0.2354 0.2354 -0.9719 1818.7852 129.4132)" fill="#303099" width="30.024" height="80.478"/>
	
		<ellipse transform="matrix(-0.2387 -0.9711 0.9711 -0.2387 1393.1887 923.183)" fill="#2C2C89" cx="1058.465" cy="-84.513" rx="14.526" ry="15.012"/>
	
		<rect x="1053.325" y="-85.288" transform="matrix(-0.9711 0.2387 -0.2387 -0.9711 2095.2102 -342.4027)" fill="#2C2C89" width="30.024" height="81.896"/>
	<polygon fill="#4ACC4A" points="1064.833,0 922.215,0 935.977,-89 1051.072,-89 	"/>
	<rect x="936" y="-115" fill="#43B543" width="115" height="26"/>
	<g>
		<g>
			<path fill="#D8D448" d="M941.393-181.177c0,21.256,23.341,38.479,52.129,38.479c28.791,0,52.132-17.224,52.132-38.479v59.08
				c0,21.252-23.341,38.479-52.131,38.479c-28.789,0-52.13-17.227-52.13-38.479V-181.177L941.393-181.177z"/>
			<path fill="#E5E14C" d="M1045.652-181.177c0,21.256-23.34,38.479-52.131,38.479c-28.789,0-52.13-17.224-52.13-38.479
				c0-21.25,23.341-38.474,52.13-38.474C1022.312-219.651,1045.652-202.428,1045.652-181.177z"/>
		</g>
	</g>
	<g>
		<g>
			<path fill="#C9C128" d="M967.665-185.443c0,10.195,11.196,18.456,25.004,18.456c13.812,0,25.004-8.261,25.004-18.456v8.536
				c0,10.193-11.19,18.456-25.004,18.456c-13.808,0-25.004-8.263-25.004-18.456V-185.443z"/>
			<path fill="#EAEA4B" d="M1017.673-185.443c0,10.195-11.19,18.456-25.004,18.456c-13.808,0-25.004-8.261-25.004-18.456
				c0-10.193,11.196-18.456,25.004-18.456C1006.48-203.899,1017.673-195.637,1017.673-185.443z"/>
		</g>
	</g>
	<circle fill="#1A1A1A" cx="979.354" cy="-124.062" r="5.221"/>
	<circle fill="#1A1A1A" cx="1005.831" cy="-123.511" r="5.22"/>
	<path fill="none" stroke="#000000" stroke-width="3" stroke-miterlimit="10" d="M978.244-109.174
		c8.658,8.26,22.354,7.931,30.619-0.734"/>
</g>
<line fill="none" stroke="#000000" stroke-width="2" stroke-miterlimit="10" x1="988.959" y1="-130.82" x2="979.951" y2="-136.437"/>
<line fill="none" stroke="#000000" stroke-width="2" stroke-miterlimit="10" x1="997.238" y1="-130.789" x2="1006.38" y2="-136.09"/>
<g>
	<g>
		<g>
			<g>
				<g>
					<path fill="#D8CF2A" d="M283.082-189.057c0,29.73,32.645,53.818,72.911,53.818c40.274,0,72.919-24.088,72.919-53.818v24.89
						c0,29.724-32.645,53.82-72.919,53.82c-40.268,0-72.911-24.097-72.911-53.82V-189.057z"/>
				</g>
				<g>
					<path fill="#E5E133" d="M428.912-189.057c0,29.73-32.645,53.818-72.919,53.818c-40.268,0-72.911-24.088-72.911-53.818
						c0-29.724,32.645-53.819,72.911-53.819C396.269-242.876,428.912-218.781,428.912-189.057z"/>
				</g>
			</g>
		</g>
	</g>
	<path fill="#F9F56E" d="M419.58-190.481c0,26.044-28.598,47.145-63.878,47.145c-35.274,0-63.871-21.101-63.871-47.145
		c0-26.038,28.597-47.146,63.871-47.146C390.982-237.627,419.58-216.519,419.58-190.481z"/>
	
		<text transform="matrix(0.9899 -0.3333 0.7443 0.6678 355.1177 -162.8618)" fill="#E5E133" font-family="'MyriadPro-Regular'" font-size="93.0489">$</text>
	
		<text transform="matrix(0.9899 -0.3333 0.7443 0.6678 355.1177 -162.8618)" fill="none" stroke="#E5E133" stroke-miterlimit="10" font-family="'MyriadPro-Regular'" font-size="93.0489">$</text>
</g>
<g>
	<g>
		<path fill="#FFF794" d="M293.479-94.739c-7.42,15.123-20.324,27.604-37.269,34.173c-35.789,13.872-76.048-3.896-89.92-39.685
			c-13.873-35.79,3.895-76.048,39.684-89.92c16.721-6.481,34.417-6.056,49.942-0.114l-10.303,21.439
			c-10.013-3.607-21.323-3.758-32.025,0.391c-23.559,9.132-35.255,35.633-26.123,59.192c9.132,23.559,35.633,35.255,59.192,26.123
			c11.183-4.335,19.693-12.583,24.571-22.571L293.479-94.739z"/>
		<polyline fill="#FFF794" points="269.217,-183.643 255.917,-190.285 242.653,-179.245 269.217,-183.643 		"/>
		<path fill="#E5E133" stroke="#E5E133" stroke-miterlimit="10" d="M306.779-88.097c-7.42,15.122-20.324,27.604-37.27,34.172
			c-35.789,13.873-76.048-3.895-89.92-39.684c-13.872-35.79,3.895-76.048,39.685-89.92c16.72-6.481,34.417-6.057,49.942-0.114
			l-10.304,21.439c-10.013-3.607-21.323-3.758-32.025,0.391c-23.559,9.132-35.255,35.633-26.123,59.192
			c9.132,23.559,35.633,35.255,59.192,26.123c11.183-4.335,19.692-12.583,24.57-22.571L306.779-88.097z"/>
	</g>
	<polyline fill="#FFF794" points="91.917,-43.16 79.442,-22 92,-22 	"/>
	
		<rect x="64.498" y="-78.499" transform="matrix(-0.8687 0.4953 -0.4953 -0.8687 202.5699 -182.6896)" fill="#FFF794" width="121.996" height="27.999"/>
	
		<rect x="77.497" y="-78.499" transform="matrix(-0.8687 0.4953 -0.4953 -0.8687 226.8627 -189.1294)" fill="#E5E133" width="121.998" height="27.999"/>
</g>
<g>
	<g>
		<path fill="#FFF794" d="M454.219-181.103c16.565,3.103,34.309,0.222,49.742-9.445c32.599-20.419,42.545-63.378,22.217-95.951
			s-63.232-42.427-95.832-22.008c-15.229,9.54-25.517,24-30.08,40.021l23.354,4.571c3.123-10.197,9.794-19.366,19.543-25.473
			c21.459-13.44,49.702-6.955,63.084,14.488c13.382,21.442,6.835,49.719-14.624,63.16c-10.188,6.381-21.901,8.271-32.829,6.204
			L454.219-181.103z"/>
		<polyline fill="#FFF794" points="397.599,-253.831 400.266,-268.486 417.071,-272.521 397.599,-253.831 		"/>
		<path fill="#E5E133" stroke="#E5E133" stroke-miterlimit="10" d="M451.552-166.447c16.564,3.104,34.31,0.221,49.741-9.446
			c32.6-20.419,42.547-63.378,22.219-95.951c-20.33-32.572-63.233-42.426-95.834-22.007c-15.229,9.539-25.516,23.998-30.079,40.021
			l23.354,4.571c3.124-10.198,9.795-19.367,19.543-25.474c21.459-13.441,49.702-6.954,63.084,14.488
			c13.382,21.442,6.834,49.72-14.625,63.161c-10.186,6.38-21.9,8.27-32.827,6.202L451.552-166.447z"/>
	</g>
	<polyline fill="#FFF794" points="616.527,-311.968 640.987,-309.34 633.396,-299.192 	"/>
	<polygon fill="#FFF794" points="528.861,-260.537 640.887,-309.414 629.737,-335.117 517.711,-286.237 	"/>
	<polygon fill="#E5E133" points="521.056,-250.102 633.081,-298.979 621.932,-324.683 509.904,-275.803 	"/>
</g>
<g>
	<polygon fill="#21A0ED" points="-475.593,1244.307 -443.56,1221.347 -476.038,1198.797 -476.07,1198.799 -508.474,1176.301 
		-508.405,1176.251 -540.884,1153.702 -540.916,1153.705 -573.394,1131.154 -605.302,1154.13 -605.299,1154.203 -637.209,1177.179 
		-637.165,1177.209 -669.045,1200.161 -669.042,1200.235 -700.951,1223.211 -668.615,1245.761 -636.106,1268.308 -636.104,1268.306 
		-603.684,1290.854 -603.684,1290.854 -571.261,1313.401 -539.208,1290.427 -539.335,1290.34 -507.301,1267.377 -507.418,1267.298 
		-475.465,1244.395 	"/>
	<g>
		<g>
			<path fill="#0F8CD8" d="M-685.823,1218.637c0,6.956,7.641,12.597,17.065,12.597c9.426,0,17.065-5.641,17.065-12.597v5.825
				c0,6.955-7.641,12.595-17.065,12.595s-17.065-5.64-17.065-12.595V1218.637z"/>
			<ellipse fill="#21A6F7" cx="-668.757" cy="1218.636" rx="17.066" ry="12.597"/>
		</g>
		<g>
			<path fill="#0F8CD8" d="M-653.917,1195.586c0,6.957,7.641,12.597,17.066,12.597c9.425,0,17.065-5.64,17.065-12.597v5.826
				c0,6.954-7.641,12.595-17.065,12.595c-9.425,0-17.066-5.641-17.066-12.595V1195.586z"/>
			<ellipse fill="#21A6F7" cx="-636.851" cy="1195.585" rx="17.065" ry="12.597"/>
		</g>
		<g>
			<path fill="#0F8CD8" d="M-653.312,1241.182c0,6.959,7.639,12.597,17.064,12.597c9.425,0,17.066-5.638,17.066-12.597v5.825
				c0,6.957-7.641,12.597-17.066,12.597c-9.426,0-17.064-5.64-17.064-12.597V1241.182L-653.312,1241.182z"/>
			<ellipse fill="#21A6F7" cx="-636.246" cy="1241.181" rx="17.065" ry="12.597"/>
		</g>
		<g>
			<path fill="#0F8CD8" d="M-621.406,1218.134c0,6.957,7.642,12.597,17.065,12.597c9.428,0,17.066-5.64,17.066-12.597v5.825
				c0,6.957-7.64,12.597-17.066,12.597c-9.424,0-17.065-5.64-17.065-12.597V1218.134z"/>
			<ellipse fill="#21A6F7" cx="-604.341" cy="1218.135" rx="17.066" ry="12.596"/>
		</g>
		<g>
			<path fill="#0F8CD8" d="M-622.08,1172.603c0,6.958,7.64,12.597,17.064,12.597s17.065-5.639,17.065-12.597v5.826
				c0,6.956-7.641,12.597-17.065,12.597s-17.064-5.641-17.064-12.597V1172.603z"/>
			<ellipse fill="#21A6F7" cx="-605.014" cy="1172.603" rx="17.065" ry="12.597"/>
		</g>
		<g>
			<path fill="#0F8CD8" d="M-590.173,1149.554c0,6.957,7.639,12.595,17.064,12.595c9.426,0,17.066-5.638,17.066-12.595v5.826
				c0,6.956-7.64,12.595-17.066,12.595c-9.425,0-17.064-5.639-17.064-12.595V1149.554z"/>
			<ellipse fill="#21A6F7" cx="-573.109" cy="1149.554" rx="17.066" ry="12.594"/>
		</g>
		<g>
			<path fill="#0F8CD8" d="M-589.571,1195.149c0,6.957,7.64,12.597,17.065,12.597c9.426,0,17.066-5.64,17.066-12.597v5.826
				c0,6.956-7.641,12.596-17.066,12.596c-9.425,0-17.065-5.641-17.065-12.596V1195.149z"/>
			<ellipse fill="#21A6F7" cx="-572.505" cy="1195.149" rx="17.066" ry="12.597"/>
		</g>
		<g>
			<path fill="#0F8CD8" d="M-557.664,1172.102c0,6.956,7.64,12.596,17.064,12.596c9.427,0,17.066-5.64,17.066-12.596v5.826
				c0,6.956-7.639,12.595-17.066,12.595c-9.425,0-17.064-5.639-17.064-12.595V1172.102z"/>
			<ellipse fill="#21A6F7" cx="-540.599" cy="1172.101" rx="17.064" ry="12.596"/>
		</g>
	</g>
	<g>
		<g>
			<path fill="#0F8CD8" d="M-620.977,1263.73c0,6.957,7.639,12.597,17.063,12.597c9.426,0,17.067-5.64,17.067-12.597v5.825
				c0,6.955-7.642,12.597-17.067,12.597c-9.425,0-17.063-5.642-17.063-12.597V1263.73z"/>
			<ellipse fill="#21A6F7" cx="-603.911" cy="1263.73" rx="17.066" ry="12.597"/>
		</g>
		<g>
			<path fill="#0F8CD8" d="M-589.07,1240.681c0,6.956,7.64,12.595,17.065,12.595c9.425,0,17.065-5.639,17.065-12.595v5.827
				c0,6.954-7.64,12.595-17.065,12.595c-9.425,0-17.065-5.641-17.065-12.595V1240.681z"/>
			<ellipse fill="#21A6F7" cx="-572.005" cy="1240.68" rx="17.065" ry="12.595"/>
		</g>
		<g>
			<path fill="#0F8CD8" d="M-588.468,1286.276c0,6.957,7.641,12.597,17.065,12.597c9.426,0,17.065-5.64,17.065-12.597v5.825
				c0,6.957-7.641,12.598-17.065,12.598s-17.065-5.641-17.065-12.598V1286.276z"/>
			<ellipse fill="#21A6F7" cx="-571.402" cy="1286.276" rx="17.065" ry="12.597"/>
		</g>
		<g>
			<path fill="#0F8CD8" d="M-556.561,1263.228c0,6.957,7.64,12.597,17.063,12.597c9.426,0,17.065-5.64,17.065-12.597v5.826
				c0,6.956-7.64,12.597-17.065,12.597c-9.424,0-17.063-5.641-17.063-12.597V1263.228z"/>
			<ellipse fill="#21A6F7" cx="-539.496" cy="1263.228" rx="17.065" ry="12.596"/>
		</g>
		<g>
			<path fill="#0F8CD8" d="M-557.235,1217.697c0,6.958,7.64,12.597,17.065,12.597c9.425,0,17.065-5.639,17.065-12.597v5.828
				c0,6.953-7.641,12.594-17.065,12.594c-9.425,0-17.065-5.641-17.065-12.594V1217.697z"/>
			<ellipse fill="#21A6F7" cx="-540.169" cy="1217.698" rx="17.065" ry="12.596"/>
		</g>
		<g>
			<path fill="#0F8CD8" d="M-525.328,1194.649c0,6.957,7.639,12.595,17.064,12.595c9.426,0,17.067-5.638,17.067-12.595v5.824
				c0,6.955-7.641,12.596-17.067,12.596c-9.426,0-17.064-5.641-17.064-12.596V1194.649z"/>
			<ellipse fill="#21A6F7" cx="-508.263" cy="1194.648" rx="17.066" ry="12.596"/>
		</g>
		<g>
			<path fill="#0F8CD8" d="M-524.726,1240.244c0,6.957,7.641,12.597,17.066,12.597c9.426,0,17.065-5.64,17.065-12.597v5.826
				c0,6.957-7.64,12.595-17.065,12.595c-9.425,0-17.066-5.638-17.066-12.595V1240.244z"/>
			<ellipse fill="#21A6F7" cx="-507.66" cy="1240.244" rx="17.065" ry="12.597"/>
		</g>
		<g>
			<path fill="#0F8CD8" d="M-492.818,1217.196c0,6.957,7.64,12.596,17.064,12.596c9.426,0,17.066-5.639,17.066-12.596v5.825
				c0,6.956-7.641,12.598-17.066,12.598c-9.425,0-17.064-5.642-17.064-12.598V1217.196z"/>
			<ellipse fill="#21A6F7" cx="-475.753" cy="1217.196" rx="17.065" ry="12.596"/>
		</g>
	</g>
	<polygon fill="#0F8CD8" points="-443.687,1221.355 -443.687,1237.729 -571.261,1329.489 -571.261,1313.401 	"/>
	<polyline fill="#1B97E2" points="-571.261,1329.489 -571.261,1313.401 -636.037,1268.354 -636.037,1268.354 -700.951,1223.293 
		-701.092,1240.814 -636.246,1285.907 	"/>
</g>
<g>
	<polygon fill="#25E84A" points="-405.136,920.135 -373.105,897.174 -405.582,874.624 -405.613,874.626 -438.018,852.129 
		-437.948,852.078 -470.427,829.53 -470.46,829.532 -502.938,806.983 -534.845,829.957 -534.843,830.031 -566.752,853.007 
		-566.708,853.038 -598.589,875.99 -598.584,876.063 -630.495,899.038 -598.159,921.59 -565.649,944.136 -565.646,944.134 
		-533.228,966.682 -533.228,966.682 -500.805,989.229 -468.751,966.254 -468.878,966.168 -436.845,943.205 -436.962,943.126 
		-405.01,920.223 	"/>
	<g>
		<g>
			<path fill="#13D337" d="M-615.366,894.464c0,6.957,7.641,12.597,17.065,12.597c9.426,0,17.067-5.64,17.067-12.597v5.825
				c0,6.956-7.641,12.596-17.067,12.596c-9.424,0-17.065-5.64-17.065-12.596V894.464z"/>
			<ellipse fill="#25F251" cx="-598.301" cy="894.464" rx="17.066" ry="12.597"/>
		</g>
		<g>
			<path fill="#13D337" d="M-583.461,871.415c0,6.956,7.641,12.597,17.067,12.597c9.424,0,17.064-5.641,17.064-12.597v5.825
				c0,6.955-7.64,12.596-17.064,12.596c-9.427,0-17.067-5.641-17.067-12.596V871.415z"/>
			<ellipse fill="#25F251" cx="-566.395" cy="871.415" rx="17.066" ry="12.597"/>
		</g>
		<g>
			<path fill="#13D337" d="M-582.855,917.01c0,6.957,7.639,12.596,17.064,12.596c9.426,0,17.066-5.639,17.066-12.596v5.825
				c0,6.956-7.641,12.596-17.066,12.596c-9.425,0-17.064-5.64-17.064-12.596V917.01z"/>
			<ellipse fill="#25F251" cx="-565.791" cy="917.009" rx="17.065" ry="12.597"/>
		</g>
		<g>
			<path fill="#13D337" d="M-550.95,893.962c0,6.956,7.641,12.596,17.065,12.596c9.427,0,17.066-5.64,17.066-12.596v5.825
				c0,6.956-7.639,12.596-17.066,12.596c-9.425,0-17.065-5.64-17.065-12.596V893.962z"/>
			<ellipse fill="#25F251" cx="-533.885" cy="893.962" rx="17.066" ry="12.596"/>
		</g>
		<g>
			<path fill="#13D337" d="M-551.624,848.43c0,6.959,7.64,12.597,17.066,12.597c9.425,0,17.065-5.638,17.065-12.597v5.828
				c0,6.955-7.64,12.595-17.065,12.595c-9.426,0-17.066-5.64-17.066-12.595V848.43z"/>
			<ellipse fill="#25F251" cx="-534.558" cy="848.43" rx="17.065" ry="12.597"/>
		</g>
		<g>
			<path fill="#0F8CD8" d="M-519.717,825.383c0,6.957,7.639,12.595,17.064,12.595c9.427,0,17.065-5.638,17.065-12.595v5.824
				c0,6.957-7.638,12.597-17.065,12.597c-9.425,0-17.064-5.64-17.064-12.597V825.383L-519.717,825.383z"/>
			<ellipse fill="#21A6F7" cx="-502.653" cy="825.383" rx="17.064" ry="12.595"/>
		</g>
		<g>
			<path fill="#0F8CD8" d="M-519.115,870.978c0,6.957,7.64,12.597,17.064,12.597c9.426,0,17.067-5.64,17.067-12.597v5.825
				c0,6.955-7.641,12.596-17.067,12.596c-9.425,0-17.064-5.641-17.064-12.596V870.978z"/>
			<ellipse fill="#21A6F7" cx="-502.049" cy="870.978" rx="17.066" ry="12.597"/>
		</g>
		<g>
			<path fill="#13D337" d="M-487.208,847.93c0,6.956,7.64,12.595,17.064,12.595c9.428,0,17.065-5.639,17.065-12.595v5.826
				c0,6.955-7.638,12.594-17.065,12.594c-9.425,0-17.064-5.639-17.064-12.594V847.93z"/>
			<path fill="#25F251" d="M-453.078,847.93c0,6.956-7.638,12.595-17.065,12.595c-9.425,0-17.064-5.639-17.064-12.595
				c0-6.957,7.64-12.597,17.064-12.597C-460.715,835.333-453.078,840.973-453.078,847.93z"/>
		</g>
	</g>
	<g>
		<g>
			<path fill="#13D337" d="M-550.521,939.557c0,6.959,7.639,12.598,17.063,12.598c9.426,0,17.068-5.639,17.068-12.598v5.827
				c0,6.955-7.642,12.597-17.068,12.597c-9.425,0-17.063-5.642-17.063-12.597V939.557z"/>
			<ellipse fill="#25F251" cx="-533.455" cy="939.558" rx="17.066" ry="12.597"/>
		</g>
		<g>
			<path fill="#0F8CD8" d="M-518.614,916.51c0,6.957,7.639,12.595,17.064,12.595c9.426,0,17.067-5.638,17.067-12.595v5.826
				c0,6.954-7.641,12.595-17.067,12.595c-9.425,0-17.064-5.641-17.064-12.595V916.51z"/>
			<ellipse fill="#21A6F7" cx="-501.549" cy="916.509" rx="17.066" ry="12.596"/>
		</g>
		<g>
			<path fill="#13D337" d="M-518.011,962.104c0,6.957,7.64,12.598,17.066,12.598c9.425,0,17.066-5.641,17.066-12.598v5.826
				c0,6.957-7.641,12.598-17.066,12.598c-9.426,0-17.066-5.641-17.066-12.598V962.104z"/>
			<ellipse fill="#25F251" cx="-500.945" cy="962.104" rx="17.065" ry="12.598"/>
		</g>
		<g>
			<path fill="#13D337" d="M-486.104,939.056c0,6.957,7.639,12.597,17.063,12.597c9.426,0,17.065-5.64,17.065-12.597v5.825
				c0,6.955-7.639,12.596-17.065,12.596c-9.424,0-17.063-5.641-17.063-12.596V939.056z"/>
			<ellipse fill="#25F251" cx="-469.04" cy="939.056" rx="17.064" ry="12.597"/>
		</g>
		<g>
			<path fill="#13D337" d="M-486.778,893.525c0,6.957,7.639,12.596,17.064,12.596c9.426,0,17.066-5.639,17.066-12.596v5.826
				c0,6.956-7.641,12.597-17.066,12.597c-9.425,0-17.064-5.641-17.064-12.597V893.525z"/>
			<ellipse fill="#25F251" cx="-469.713" cy="893.525" rx="17.065" ry="12.596"/>
		</g>
		<g>
			<path fill="#13D337" d="M-454.872,870.477c0,6.958,7.639,12.597,17.064,12.597c9.425,0,17.067-5.639,17.067-12.597v5.826
				c0,6.955-7.642,12.596-17.067,12.596c-9.426,0-17.064-5.641-17.064-12.596V870.477z"/>
			<ellipse fill="#25F251" cx="-437.807" cy="870.478" rx="17.066" ry="12.596"/>
		</g>
		<g>
			<path fill="#13D337" d="M-454.269,916.072c0,6.957,7.64,12.596,17.066,12.596c9.426,0,17.065-5.639,17.065-12.596v5.825
				c0,6.956-7.64,12.597-17.065,12.597c-9.426,0-17.066-5.641-17.066-12.597V916.072z"/>
			<ellipse fill="#25F251" cx="-437.203" cy="916.071" rx="17.065" ry="12.597"/>
		</g>
		<g>
			<path fill="#13D337" d="M-422.362,893.023c0,6.957,7.641,12.596,17.065,12.596c9.426,0,17.068-5.639,17.068-12.596v5.826
				c0,6.955-7.642,12.598-17.068,12.598c-9.425,0-17.065-5.643-17.065-12.598V893.023z"/>
			<ellipse fill="#25F251" cx="-405.296" cy="893.023" rx="17.067" ry="12.596"/>
		</g>
	</g>
	<polygon fill="#13D337" points="-373.23,897.185 -373.23,913.557 -500.805,1005.317 -500.805,989.229 	"/>
	<polyline fill="#1FDD43" points="-500.805,1005.317 -500.805,989.229 -565.581,944.182 -565.581,944.182 -630.495,899.121 
		-630.635,916.644 -565.791,961.736 	"/>
</g>
<g>
	<polygon fill="#25DFE8" points="-52.461,1011.274 -20.43,988.314 -52.908,965.766 -52.94,965.768 -85.343,943.27 -85.275,943.219 
		-117.753,920.672 -117.787,920.674 -150.264,898.124 -182.171,921.099 -182.168,921.171 -214.078,944.146 -214.035,944.179 
		-245.915,967.131 -245.912,967.203 -277.82,990.18 -245.484,1012.73 -212.974,1035.276 -212.972,1035.274 -180.553,1057.822 
		-180.553,1057.822 -148.13,1080.37 -116.078,1057.396 -116.205,1057.309 -84.17,1034.346 -84.288,1034.266 -52.335,1011.363 	"/>
	<g>
		<g>
			<path fill="#12D6D6" d="M-262.693,985.604c0,6.956,7.642,12.597,17.066,12.597s17.066-5.641,17.066-12.597v5.825
				c0,6.956-7.642,12.596-17.066,12.596s-17.066-5.64-17.066-12.596V985.604z"/>
			<ellipse fill="#25F2F2" cx="-245.626" cy="985.604" rx="17.065" ry="12.597"/>
		</g>
		<g>
			<path fill="#12D6D6" d="M-230.786,962.555c0,6.957,7.64,12.598,17.065,12.598c9.425,0,17.064-5.641,17.064-12.598v5.826
				c0,6.955-7.64,12.596-17.064,12.596c-9.426,0-17.065-5.641-17.065-12.596V962.555z"/>
			<ellipse fill="#25F2F2" cx="-213.721" cy="962.555" rx="17.065" ry="12.597"/>
		</g>
		<g>
			<path fill="#12D6D6" d="M-230.182,1008.15c0,6.959,7.64,12.598,17.064,12.598c9.426,0,17.067-5.639,17.067-12.598v5.826
				c0,6.957-7.642,12.596-17.067,12.596c-9.425,0-17.064-5.639-17.064-12.596V1008.15z"/>
			<ellipse fill="#25F2F2" cx="-213.116" cy="1008.151" rx="17.065" ry="12.597"/>
		</g>
		<g>
			<path fill="#12D6D6" d="M-198.275,985.102c0,6.957,7.64,12.597,17.064,12.597c9.427,0,17.065-5.64,17.065-12.597v5.826
				c0,6.956-7.639,12.595-17.065,12.595c-9.425,0-17.064-5.639-17.064-12.595V985.102z"/>
			<ellipse fill="#25F2F2" cx="-181.21" cy="985.102" rx="17.065" ry="12.596"/>
		</g>
		<g>
			<path fill="#12D6D6" d="M-198.95,939.57c0,6.959,7.64,12.598,17.065,12.598s17.066-5.639,17.066-12.598v5.827
				c0,6.956-7.641,12.597-17.066,12.597s-17.065-5.641-17.065-12.597V939.57z"/>
			<ellipse fill="#25F2F2" cx="-181.884" cy="939.571" rx="17.066" ry="12.597"/>
		</g>
		<g>
			<path fill="#0F8CD8" d="M-167.043,916.523c0,6.957,7.64,12.595,17.065,12.595s17.065-5.638,17.065-12.595v5.824
				c0,6.957-7.64,12.597-17.065,12.597s-17.065-5.64-17.065-12.597V916.523L-167.043,916.523z"/>
			<ellipse fill="#21A6F7" cx="-149.977" cy="916.523" rx="17.064" ry="12.595"/>
		</g>
		<g>
			<path fill="#0F8CD8" d="M-166.44,962.119c0,6.957,7.64,12.597,17.065,12.597s17.067-5.64,17.067-12.597v5.826
				c0,6.955-7.642,12.596-17.067,12.596s-17.065-5.641-17.065-12.596V962.119z"/>
			<ellipse fill="#21A6F7" cx="-149.375" cy="962.119" rx="17.067" ry="12.597"/>
		</g>
		<g>
			<path fill="#12D6D6" d="M-134.534,939.07c0,6.956,7.641,12.596,17.065,12.596c9.427,0,17.065-5.64,17.065-12.596v5.826
				c0,6.956-7.639,12.595-17.065,12.595c-9.425,0-17.065-5.639-17.065-12.595V939.07z"/>
			<path fill="#25F2F2" d="M-100.403,939.07c0,6.956-7.639,12.596-17.065,12.596c-9.425,0-17.066-5.64-17.066-12.596
				s7.641-12.596,17.066-12.596C-108.042,926.474-100.403,932.113-100.403,939.07z"/>
		</g>
	</g>
	<g>
		<g>
			<path fill="#12D6D6" d="M-197.846,1030.697c0,6.958,7.64,12.598,17.065,12.598c9.425,0,17.067-5.64,17.067-12.598v5.826
				c0,6.956-7.643,12.599-17.067,12.599c-9.426,0-17.065-5.643-17.065-12.599V1030.697z"/>
			<ellipse fill="#25F2F2" cx="-180.78" cy="1030.698" rx="17.065" ry="12.597"/>
		</g>
		<g>
			<path fill="#0F8CD8" d="M-165.94,1007.649c0,6.957,7.64,12.596,17.064,12.596s17.066-5.639,17.066-12.596v5.827
				c0,6.955-7.642,12.595-17.066,12.595s-17.064-5.64-17.064-12.595V1007.649z"/>
			<ellipse fill="#21A6F7" cx="-148.875" cy="1007.649" rx="17.065" ry="12.596"/>
		</g>
		<g>
			<path fill="#12D6D6" d="M-165.337,1053.245c0,6.958,7.641,12.598,17.065,12.598c9.427,0,17.068-5.64,17.068-12.598v5.825
				c0,6.957-7.642,12.598-17.068,12.598c-9.425,0-17.065-5.641-17.065-12.598V1053.245z"/>
			<ellipse fill="#25F2F2" cx="-148.272" cy="1053.246" rx="17.066" ry="12.597"/>
		</g>
		<g>
			<path fill="#12D6D6" d="M-133.429,1030.195c0,6.957,7.639,12.598,17.063,12.598c9.427,0,17.066-5.641,17.066-12.598v5.826
				c0,6.956-7.64,12.597-17.066,12.597c-9.425,0-17.063-5.641-17.063-12.597V1030.195z"/>
			<ellipse fill="#25F2F2" cx="-116.364" cy="1030.196" rx="17.064" ry="12.597"/>
		</g>
		<g>
			<path fill="#12D6D6" d="M-134.104,984.666c0,6.958,7.639,12.596,17.064,12.596c9.427,0,17.066-5.638,17.066-12.596v5.826
				c0,6.955-7.641,12.596-17.066,12.596s-17.064-5.641-17.064-12.596V984.666z"/>
			<ellipse fill="#25F2F2" cx="-117.039" cy="984.666" rx="17.065" ry="12.596"/>
		</g>
		<g>
			<path fill="#12D6D6" d="M-102.198,961.617c0,6.958,7.64,12.596,17.066,12.596c9.425,0,17.066-5.638,17.066-12.596v5.825
				c0,6.956-7.642,12.597-17.066,12.597c-9.427,0-17.066-5.641-17.066-12.597V961.617z"/>
			<ellipse fill="#25F2F2" cx="-85.131" cy="961.617" rx="17.066" ry="12.596"/>
		</g>
		<g>
			<path fill="#12D6D6" d="M-101.594,1007.214c0,6.957,7.64,12.597,17.065,12.597s17.065-5.64,17.065-12.597v5.825
				c0,6.957-7.64,12.596-17.065,12.596s-17.065-5.639-17.065-12.596V1007.214z"/>
			<ellipse fill="#25F2F2" cx="-84.529" cy="1007.213" rx="17.065" ry="12.597"/>
		</g>
		<g>
			<path fill="#12D6D6" d="M-69.689,984.165c0,6.956,7.642,12.596,17.066,12.596c9.426,0,17.067-5.64,17.067-12.596v5.825
				c0,6.956-7.642,12.598-17.067,12.598c-9.425,0-17.066-5.642-17.066-12.598V984.165z"/>
			<ellipse fill="#25F2F2" cx="-52.622" cy="984.165" rx="17.066" ry="12.596"/>
		</g>
	</g>
	<polygon fill="#12D6D6" points="-20.556,988.324 -20.556,1004.697 -148.13,1096.458 -148.13,1080.37 	"/>
	<polyline fill="#1EE0E0" points="-148.13,1096.458 -148.13,1080.37 -212.907,1035.322 -212.907,1035.322 -277.82,990.261 
		-277.961,1007.783 -213.116,1052.877 	"/>
</g>
<g>
	<polygon fill="#EA2424" points="-102.565,1321.502 -70.534,1298.542 -103.01,1275.992 -103.042,1275.994 -135.446,1253.496 
		-135.376,1253.447 -167.856,1230.899 -167.888,1230.901 -200.366,1208.352 -232.274,1231.326 -232.27,1231.398 -264.181,1254.373 
		-264.137,1254.405 -296.017,1277.356 -296.013,1277.432 -327.921,1300.406 -295.588,1322.956 -263.078,1345.504 -263.076,1345.502 
		-230.657,1368.049 -230.657,1368.049 -198.233,1390.597 -166.181,1367.623 -166.307,1367.535 -134.273,1344.573 -134.39,1344.494 
		-102.438,1321.59 	"/>
	<g>
		<g>
			<path fill="#D61212" d="M-312.795,1295.831c0,6.957,7.64,12.597,17.066,12.597c9.425,0,17.065-5.64,17.065-12.597v5.825
				c0,6.958-7.641,12.597-17.065,12.597c-9.427,0-17.066-5.639-17.066-12.597V1295.831z"/>
			<ellipse fill="#F42222" cx="-295.729" cy="1295.831" rx="17.064" ry="12.597"/>
		</g>
		<g>
			<path fill="#D61212" d="M-280.889,1272.781c0,6.958,7.641,12.597,17.066,12.597c9.424,0,17.064-5.639,17.064-12.597v5.827
				c0,6.956-7.641,12.596-17.064,12.596c-9.426,0-17.066-5.64-17.066-12.596V1272.781z"/>
			<ellipse fill="#F42222" cx="-263.824" cy="1272.782" rx="17.065" ry="12.596"/>
		</g>
		<g>
			<path fill="#D61212" d="M-280.285,1318.376c0,6.959,7.639,12.597,17.065,12.597c9.425,0,17.065-5.638,17.065-12.597v5.828
				c0,6.954-7.641,12.594-17.065,12.594c-9.427,0-17.065-5.64-17.065-12.594V1318.376z"/>
			<ellipse fill="#F42222" cx="-263.218" cy="1318.376" rx="17.064" ry="12.597"/>
		</g>
		<g>
			<path fill="#D61212" d="M-248.378,1295.329c0,6.957,7.641,12.596,17.065,12.596c9.426,0,17.065-5.639,17.065-12.596v5.825
				c0,6.957-7.64,12.596-17.065,12.596c-9.425,0-17.065-5.639-17.065-12.596V1295.329z"/>
			<ellipse fill="#F42222" cx="-231.313" cy="1295.328" rx="17.065" ry="12.597"/>
		</g>
		<g>
			<path fill="#D61212" d="M-249.053,1249.798c0,6.958,7.641,12.597,17.066,12.597s17.065-5.639,17.065-12.597v5.827
				c0,6.956-7.64,12.596-17.065,12.596s-17.066-5.64-17.066-12.596V1249.798z"/>
			<ellipse fill="#F42222" cx="-231.987" cy="1249.797" rx="17.065" ry="12.597"/>
		</g>
		<g>
			<path fill="#0F8CD8" d="M-217.145,1226.751c0,6.958,7.638,12.596,17.064,12.596c9.426,0,17.064-5.638,17.064-12.596v5.824
				c0,6.956-7.639,12.596-17.064,12.596c-9.427,0-17.064-5.64-17.064-12.596V1226.751z"/>
			<ellipse fill="#21A6F7" cx="-200.081" cy="1226.751" rx="17.063" ry="12.595"/>
		</g>
		<g>
			<path fill="#0F8CD8" d="M-216.543,1272.346c0,6.958,7.641,12.598,17.065,12.598c9.427,0,17.067-5.64,17.067-12.598v5.826
				c0,6.955-7.641,12.597-17.067,12.597c-9.425,0-17.065-5.642-17.065-12.597V1272.346z"/>
			<ellipse fill="#21A6F7" cx="-199.478" cy="1272.347" rx="17.066" ry="12.597"/>
		</g>
		<g>
			<path fill="#D61212" d="M-184.635,1249.297c0,6.956,7.639,12.596,17.063,12.596c9.428,0,17.065-5.64,17.065-12.596v5.826
				c0,6.955-7.638,12.595-17.065,12.595c-9.425,0-17.063-5.64-17.063-12.595V1249.297z"/>
			<path fill="#F42222" d="M-150.506,1249.297c0,6.956-7.638,12.596-17.065,12.596c-9.425,0-17.063-5.64-17.063-12.596
				s7.639-12.596,17.063-12.596C-158.144,1236.701-150.506,1242.341-150.506,1249.297z"/>
		</g>
	</g>
	<g>
		<g>
			<path fill="#D61212" d="M-247.949,1340.924c0,6.958,7.638,12.598,17.063,12.598s17.067-5.64,17.067-12.598v5.828
				c0,6.955-7.642,12.597-17.067,12.597s-17.063-5.642-17.063-12.597V1340.924z"/>
			<ellipse fill="#F42222" cx="-230.883" cy="1340.924" rx="17.065" ry="12.598"/>
		</g>
		<g>
			<path fill="#0F8CD8" d="M-216.042,1317.877c0,6.958,7.639,12.596,17.064,12.596c9.425,0,17.065-5.638,17.065-12.596v5.826
				c0,6.954-7.641,12.596-17.065,12.596c-9.426,0-17.064-5.642-17.064-12.596V1317.877z"/>
			<ellipse fill="#21A6F7" cx="-198.977" cy="1317.877" rx="17.064" ry="12.595"/>
		</g>
		<g>
			<path fill="#D61212" d="M-215.441,1363.472c0,6.957,7.641,12.597,17.065,12.597c9.428,0,17.068-5.64,17.068-12.597v5.825
				c0,6.957-7.641,12.597-17.068,12.597c-9.425,0-17.065-5.64-17.065-12.597V1363.472z"/>
			<ellipse fill="#F42222" cx="-198.375" cy="1363.472" rx="17.067" ry="12.597"/>
		</g>
		<g>
			<path fill="#D61212" d="M-183.532,1340.423c0,6.957,7.638,12.597,17.064,12.597c9.425,0,17.064-5.64,17.064-12.597v5.826
				c0,6.956-7.64,12.595-17.064,12.595c-9.427,0-17.064-5.639-17.064-12.595V1340.423z"/>
			<ellipse fill="#F42222" cx="-166.467" cy="1340.422" rx="17.063" ry="12.597"/>
		</g>
		<g>
			<path fill="#D61212" d="M-184.208,1294.895c0,6.956,7.64,12.593,17.064,12.593c9.427,0,17.068-5.637,17.068-12.593v5.824
				c0,6.956-7.642,12.598-17.068,12.598c-9.425,0-17.064-5.642-17.064-12.598V1294.895L-184.208,1294.895z"/>
			<ellipse fill="#F42222" cx="-167.142" cy="1294.893" rx="17.067" ry="12.594"/>
		</g>
		<g>
			<path fill="#D61212" d="M-152.3,1271.844c0,6.958,7.639,12.598,17.065,12.598c9.426,0,17.066-5.64,17.066-12.598v5.825
				c0,6.956-7.641,12.598-17.066,12.598c-9.427,0-17.065-5.642-17.065-12.598V1271.844z"/>
			<ellipse fill="#F42222" cx="-135.235" cy="1271.845" rx="17.065" ry="12.597"/>
		</g>
		<g>
			<path fill="#D61212" d="M-151.698,1317.439c0,6.957,7.641,12.597,17.065,12.597c9.426,0,17.066-5.64,17.066-12.597v5.828
				c0,6.955-7.641,12.595-17.066,12.595c-9.425,0-17.065-5.64-17.065-12.595V1317.439z"/>
			<ellipse fill="#F42222" cx="-134.632" cy="1317.44" rx="17.066" ry="12.596"/>
		</g>
		<g>
			<path fill="#D61212" d="M-119.792,1294.392c0,6.955,7.642,12.595,17.066,12.595c9.427,0,17.067-5.64,17.067-12.595v5.825
				c0,6.954-7.641,12.596-17.067,12.596c-9.425,0-17.066-5.642-17.066-12.596V1294.392z"/>
			<ellipse fill="#F42222" cx="-102.725" cy="1294.391" rx="17.066" ry="12.595"/>
		</g>
	</g>
	<polygon fill="#D61212" points="-70.659,1298.551 -70.659,1314.924 -198.233,1406.686 -198.233,1390.597 	"/>
	<polyline fill="#E01E1E" points="-198.233,1406.686 -198.233,1390.597 -263.009,1345.55 -263.009,1345.55 -327.921,1300.487 
		-328.064,1318.011 -263.218,1363.104 	"/>
</g>
<g>
	<g>
		<g>
			<polygon fill="#BCBCBC" points="-538.307,1209.438 -570.775,1185.188 -570.81,1185.192 -606.362,1210.129 -572.433,1235.113 			
				"/>
			<g>
				<g>
					<path fill="#999999" d="M-590.049,1206.202c0,7.482,8.216,13.547,18.351,13.547s18.352-6.065,18.352-13.547v6.266
						c0,7.481-8.217,13.545-18.352,13.545c-10.136,0-18.351-6.064-18.351-13.545V1206.202z"/>
					<ellipse fill="#CCCCCC" cx="-571.698" cy="1206.203" rx="18.352" ry="13.546"/>
				</g>
			</g>
		</g>
		<polygon fill="#829E0D" points="-538.307,1209.438 -572.433,1235.113 -606.362,1210.129 -606.362,1242.993 -572.311,1266.244 
			-538.307,1238.187 		"/>
		<polygon fill="#9B9B9B" points="-572.311,1266.244 -538.307,1238.187 -538.307,1209.438 -572.433,1235.113 		"/>
		<polygon fill="#AFAFAF" points="-606.362,1210.129 -606.362,1242.993 -572.311,1266.244 -572.433,1235.113 		"/>
	</g>
	<g>
		<g>
			<polygon fill="#545454" points="-538.405,1178.307 -570.874,1154.06 -570.91,1154.062 -606.46,1178.998 -572.533,1203.983 			"/>
			<g>
				<g>
					<path fill="#333333" d="M-590.147,1175.073c0,7.481,8.216,13.544,18.351,13.544s18.351-6.063,18.351-13.544v6.264
						c0,7.481-8.216,13.547-18.351,13.547s-18.351-6.065-18.351-13.547V1175.073z"/>
					<ellipse fill="#666666" cx="-571.796" cy="1175.073" rx="18.351" ry="13.544"/>
				</g>
			</g>
		</g>
		<polygon fill="#333333" points="-572.409,1235.113 -538.307,1209.438 -538.405,1178.307 -572.533,1203.983 		"/>
		<polygon fill="#474747" points="-606.46,1178.998 -606.362,1210.129 -572.409,1235.113 -572.533,1203.983 		"/>
	</g>
	<g>
		<g>
			<polygon fill="#BCBCBC" points="-538.441,1165.131 -570.912,1140.883 -570.947,1140.885 -606.499,1165.821 -572.569,1190.807 			
				"/>
			<g>
				<g>
					<path fill="#999999" d="M-590.183,1161.896c0,7.483,8.214,13.546,18.349,13.546c10.136,0,18.353-6.063,18.353-13.546v6.266
						c0,7.481-8.217,13.545-18.353,13.545c-10.135,0-18.349-6.064-18.349-13.545V1161.896z"/>
					<ellipse fill="#CCCCCC" cx="-571.833" cy="1161.896" rx="18.352" ry="13.545"/>
				</g>
			</g>
		</g>
		<polygon fill="#9B9B9B" points="-572.447,1221.937 -538.343,1196.263 -538.441,1165.131 -572.569,1190.807 		"/>
		<polygon fill="#AFAFAF" points="-606.499,1165.821 -606.398,1196.952 -572.447,1221.937 -572.569,1190.807 		"/>
	</g>
	<g>
		<g>
			<polygon fill="#545454" points="-538.471,1151.762 -570.94,1127.512 -570.975,1127.514 -606.526,1152.45 -572.598,1177.437 			
				"/>
			<g>
				<g>
					<path fill="#333333" d="M-590.213,1148.525c0,7.483,8.217,13.545,18.35,13.545c10.136,0,18.352-6.062,18.352-13.545v6.265
						c0,7.482-8.216,13.546-18.352,13.546c-10.134,0-18.35-6.064-18.35-13.546V1148.525z"/>
					<ellipse fill="#666666" cx="-571.862" cy="1148.525" rx="18.352" ry="13.545"/>
				</g>
			</g>
		</g>
		<polygon fill="#333333" points="-572.475,1208.567 -538.372,1182.891 -538.471,1151.762 -572.598,1177.437 		"/>
		<polygon fill="#474747" points="-606.526,1152.45 -606.427,1183.582 -572.475,1208.567 -572.598,1177.437 		"/>
	</g>
	<g>
		<g>
			<polygon fill="#BCBCBC" points="-538.512,1138.532 -570.982,1114.283 -571.018,1114.286 -606.569,1139.223 -572.641,1164.209 			
				"/>
			<g>
				<g>
					<path fill="#999999" d="M-590.256,1135.297c0,7.483,8.216,13.545,18.35,13.545c10.136,0,18.352-6.062,18.352-13.545v6.265
						c0,7.481-8.216,13.545-18.352,13.545c-10.134,0-18.35-6.064-18.35-13.545V1135.297L-590.256,1135.297z"/>
					<ellipse fill="#CCCCCC" cx="-571.905" cy="1135.297" rx="18.352" ry="13.545"/>
				</g>
			</g>
		</g>
		<polygon fill="#9B9B9B" points="-572.516,1195.338 -538.413,1169.663 -538.512,1138.532 -572.641,1164.209 		"/>
		<polygon fill="#AFAFAF" points="-606.569,1139.223 -606.47,1170.354 -572.516,1195.338 -572.641,1164.209 		"/>
	</g>
</g>
<g>
	<g>
		<g>
			<polygon fill="#BCBCBC" points="-467.85,885.266 -500.32,861.018 -500.354,861.021 -535.906,885.956 -501.976,910.941 			"/>
			<g>
				<g>
					<path fill="#999999" d="M-519.594,882.031c0,7.482,8.216,13.546,18.353,13.546c10.135,0,18.352-6.064,18.352-13.546v6.266
						c0,7.48-8.217,13.544-18.352,13.544c-10.137,0-18.353-6.063-18.353-13.544L-519.594,882.031L-519.594,882.031z"/>
					<ellipse fill="#CCCCCC" cx="-501.241" cy="882.031" rx="18.352" ry="13.546"/>
				</g>
			</g>
		</g>
		<polygon fill="#829E0D" points="-467.85,885.266 -501.976,910.941 -535.906,885.956 -535.906,918.822 -501.854,942.072 
			-467.85,914.014 		"/>
		<polygon fill="#9B9B9B" points="-501.854,942.072 -467.85,914.014 -467.85,885.266 -501.976,910.941 		"/>
		<polygon fill="#AFAFAF" points="-535.906,885.956 -535.906,918.822 -501.854,942.072 -501.976,910.941 		"/>
	</g>
	<g>
		<g>
			<polygon fill="#545454" points="-467.948,854.136 -500.419,829.887 -500.453,829.89 -536.003,854.826 -502.076,879.812 			"/>
			<g>
				<g>
					<path fill="#333333" d="M-519.692,850.9c0,7.482,8.216,13.544,18.352,13.544c10.134,0,18.351-6.063,18.351-13.544v6.265
						c0,7.481-8.217,13.546-18.351,13.546c-10.136,0-18.352-6.064-18.352-13.546V850.9z"/>
					<ellipse fill="#666666" cx="-501.34" cy="850.901" rx="18.351" ry="13.543"/>
				</g>
			</g>
		</g>
		<polygon fill="#333333" points="-501.953,910.941 -467.85,885.266 -467.948,854.136 -502.076,879.812 		"/>
		<polygon fill="#474747" points="-536.003,854.826 -535.906,885.956 -501.953,910.941 -502.076,879.812 		"/>
	</g>
	<g>
		<g>
			<polygon fill="#BCBCBC" points="-467.985,840.959 -500.456,816.709 -500.491,816.713 -536.042,841.65 -502.112,866.635 			"/>
			<g>
				<g>
					<path fill="#999999" d="M-519.728,837.724c0,7.483,8.215,13.546,18.351,13.546c10.136,0,18.351-6.063,18.351-13.546v6.266
						c0,7.48-8.215,13.544-18.351,13.544c-10.136,0-18.351-6.064-18.351-13.544V837.724z"/>
					<ellipse fill="#CCCCCC" cx="-501.376" cy="837.724" rx="18.35" ry="13.546"/>
				</g>
			</g>
		</g>
		<polygon fill="#9B9B9B" points="-501.992,897.766 -467.886,872.09 -467.985,840.959 -502.112,866.635 		"/>
		<polygon fill="#AFAFAF" points="-536.042,841.65 -535.942,872.78 -501.992,897.766 -502.112,866.635 		"/>
	</g>
	<g>
		<g>
			<polygon fill="#545454" points="-468.015,827.589 -500.484,803.34 -500.519,803.343 -536.07,828.278 -502.142,853.265 			"/>
			<g>
				<g>
					<path fill="#333333" d="M-519.757,824.354c0,7.482,8.216,13.545,18.351,13.545c10.136,0,18.352-6.064,18.352-13.545v6.264
						c0,7.482-8.215,13.547-18.352,13.547c-10.135,0-18.351-6.064-18.351-13.547V824.354L-519.757,824.354z"/>
					<ellipse fill="#666666" cx="-501.406" cy="824.354" rx="18.352" ry="13.545"/>
				</g>
			</g>
		</g>
		<polygon fill="#333333" points="-502.018,884.395 -467.916,858.719 -468.015,827.589 -502.142,853.265 		"/>
		<polygon fill="#474747" points="-536.07,828.278 -535.97,859.409 -502.018,884.395 -502.142,853.265 		"/>
	</g>
	<g>
		<g>
			<polygon fill="#BCBCBC" points="-468.056,814.359 -500.526,790.111 -500.561,790.115 -536.112,815.051 -502.184,840.036 			"/>
			<g>
				<g>
					<path fill="#999999" d="M-519.8,811.126c0,7.483,8.217,13.544,18.352,13.544c10.136,0,18.352-6.062,18.352-13.544v6.264
						c0,7.482-8.216,13.546-18.352,13.546c-10.135,0-18.352-6.064-18.352-13.546V811.126L-519.8,811.126z"/>
					<ellipse fill="#CCCCCC" cx="-501.448" cy="811.125" rx="18.352" ry="13.544"/>
				</g>
			</g>
		</g>
		<polygon fill="#9B9B9B" points="-502.06,871.165 -467.957,845.492 -468.056,814.359 -502.184,840.036 		"/>
		<polygon fill="#AFAFAF" points="-536.112,815.051 -536.013,846.182 -502.06,871.165 -502.184,840.036 		"/>
	</g>
</g>
<g>
	<g>
		<g>
			<polygon fill="#BCBCBC" points="-115.176,976.406 -147.645,952.158 -147.679,952.16 -183.231,977.098 -149.302,1002.082 			"/>
			<g>
				<g>
					<path fill="#999999" d="M-166.918,973.172c0,7.482,8.217,13.545,18.352,13.545c10.136,0,18.352-6.064,18.352-13.545v6.266
						c0,7.48-8.216,13.545-18.352,13.545c-10.135,0-18.352-6.065-18.352-13.545V973.172z"/>
					<ellipse fill="#CCCCCC" cx="-148.567" cy="973.171" rx="18.352" ry="13.545"/>
				</g>
			</g>
		</g>
		<polygon fill="#829E0D" points="-115.176,976.406 -149.302,1002.082 -183.231,977.098 -183.231,1009.963 -149.18,1033.213 
			-115.176,1005.154 		"/>
		<polygon fill="#9B9B9B" points="-149.18,1033.213 -115.176,1005.154 -115.176,976.406 -149.302,1002.082 		"/>
		<polygon fill="#AFAFAF" points="-183.231,977.098 -183.231,1009.963 -149.18,1033.213 -149.302,1002.082 		"/>
	</g>
	<g>
		<g>
			<polygon fill="#545454" points="-115.274,945.275 -147.745,921.028 -147.778,921.031 -183.33,945.967 -149.402,970.951 			"/>
			<g>
				<g>
					<path fill="#333333" d="M-167.016,942.043c0,7.481,8.215,13.543,18.353,13.543c10.134,0,18.351-6.062,18.351-13.543v6.264
						c0,7.48-8.217,13.546-18.351,13.546c-10.138,0-18.353-6.065-18.353-13.546V942.043L-167.016,942.043z"/>
					<ellipse fill="#666666" cx="-148.664" cy="942.042" rx="18.351" ry="13.544"/>
				</g>
			</g>
		</g>
		<polygon fill="#333333" points="-149.279,1002.082 -115.176,976.406 -115.274,945.275 -149.402,970.951 		"/>
		<polygon fill="#474747" points="-183.33,945.967 -183.231,977.098 -149.279,1002.082 -149.402,970.951 		"/>
	</g>
	<g>
		<g>
			<polygon fill="#BCBCBC" points="-115.311,932.1 -147.782,907.85 -147.815,907.854 -183.367,932.79 -149.438,957.774 			"/>
			<g>
				<g>
					<path fill="#999999" d="M-167.053,928.863c0,7.483,8.214,13.547,18.351,13.547c10.136,0,18.352-6.064,18.352-13.547v6.266
						c0,7.48-8.216,13.545-18.352,13.545c-10.137,0-18.351-6.064-18.351-13.545V928.863L-167.053,928.863z"/>
					<ellipse fill="#CCCCCC" cx="-148.702" cy="928.864" rx="18.351" ry="13.546"/>
				</g>
			</g>
		</g>
		<polygon fill="#9B9B9B" points="-149.318,988.905 -115.209,963.231 -115.311,932.1 -149.438,957.774 		"/>
		<polygon fill="#AFAFAF" points="-183.367,932.79 -183.268,963.921 -149.318,988.905 -149.438,957.774 		"/>
	</g>
	<g>
		<g>
			<polygon fill="#545454" points="-115.34,918.729 -147.81,894.48 -147.845,894.484 -183.396,919.419 -149.466,944.404 			"/>
			<g>
				<g>
					<path fill="#333333" d="M-167.083,915.494c0,7.482,8.217,13.545,18.352,13.545c10.136,0,18.352-6.064,18.352-13.545v6.265
						c0,7.481-8.216,13.546-18.352,13.546c-10.135,0-18.352-6.065-18.352-13.546V915.494L-167.083,915.494z"/>
					<ellipse fill="#666666" cx="-148.732" cy="915.494" rx="18.352" ry="13.545"/>
				</g>
			</g>
		</g>
		<polygon fill="#333333" points="-149.344,975.536 -115.242,949.859 -115.34,918.729 -149.466,944.404 		"/>
		<polygon fill="#474747" points="-183.396,919.419 -183.295,950.55 -149.344,975.536 -149.466,944.404 		"/>
	</g>
	<g>
		<g>
			<polygon fill="#BCBCBC" points="-115.381,905.5 -147.852,881.252 -147.886,881.256 -183.438,906.192 -149.507,931.177 			"/>
			<g>
				<g>
					<path fill="#999999" d="M-167.125,902.266c0,7.483,8.217,13.545,18.352,13.545c10.137,0,18.353-6.062,18.353-13.545v6.265
						c0,7.481-8.216,13.546-18.353,13.546c-10.135,0-18.352-6.064-18.352-13.546V902.266z"/>
					<ellipse fill="#CCCCCC" cx="-148.774" cy="902.266" rx="18.353" ry="13.545"/>
				</g>
			</g>
		</g>
		<polygon fill="#9B9B9B" points="-149.385,962.307 -115.282,936.632 -115.381,905.5 -149.507,931.177 		"/>
		<polygon fill="#AFAFAF" points="-183.438,906.192 -183.338,937.321 -149.385,962.307 -149.507,931.177 		"/>
	</g>
</g>
<g>
	<g>
		<g>
			<polygon fill="#BCBCBC" points="-165.279,1286.634 -197.749,1262.386 -197.782,1262.388 -233.334,1287.323 -199.406,1312.308 			
				"/>
			<g>
				<g>
					<path fill="#999999" d="M-217.022,1283.398c0,7.482,8.217,13.547,18.354,13.547c10.134,0,18.351-6.065,18.351-13.547v6.266
						c0,7.481-8.217,13.546-18.351,13.546c-10.137,0-18.354-6.065-18.354-13.546V1283.398L-217.022,1283.398z"/>
					<ellipse fill="#CCCCCC" cx="-198.668" cy="1283.398" rx="18.351" ry="13.547"/>
				</g>
			</g>
		</g>
		<polygon fill="#829E0D" points="-165.279,1286.634 -199.406,1312.308 -233.334,1287.323 -233.334,1320.188 -199.283,1343.439 
			-165.279,1315.382 		"/>
		<polygon fill="#9B9B9B" points="-199.283,1343.439 -165.279,1315.382 -165.279,1286.634 -199.406,1312.308 		"/>
		<polygon fill="#AFAFAF" points="-233.334,1287.323 -233.334,1320.188 -199.283,1343.439 -199.406,1312.308 		"/>
	</g>
	<g>
		<g>
			<polygon fill="#545454" points="-165.376,1255.502 -197.848,1231.255 -197.88,1231.257 -233.432,1256.194 -199.504,1281.179 			
				"/>
			<g>
				<g>
					<path fill="#333333" d="M-217.12,1252.269c0,7.482,8.216,13.543,18.353,13.543c10.135,0,18.352-6.062,18.352-13.543v6.264
						c0,7.48-8.217,13.546-18.352,13.546c-10.137,0-18.353-6.065-18.353-13.546V1252.269z"/>
					<ellipse fill="#666666" cx="-198.769" cy="1252.268" rx="18.352" ry="13.544"/>
				</g>
			</g>
		</g>
		<polygon fill="#333333" points="-199.382,1312.308 -165.279,1286.634 -165.376,1255.502 -199.504,1281.179 		"/>
		<polygon fill="#474747" points="-233.432,1256.194 -233.334,1287.323 -199.382,1312.308 -199.504,1281.179 		"/>
	</g>
	<g>
		<g>
			<polygon fill="#BCBCBC" points="-165.415,1242.326 -197.882,1218.077 -197.918,1218.081 -233.47,1243.017 -199.542,1268.001 			
				"/>
			<g>
				<g>
					<path fill="#999999" d="M-217.156,1239.092c0,7.482,8.214,13.545,18.351,13.545c10.135,0,18.351-6.063,18.351-13.545v6.264
						c0,7.481-8.216,13.545-18.351,13.545c-10.137,0-18.351-6.064-18.351-13.545V1239.092z"/>
					<ellipse fill="#CCCCCC" cx="-198.804" cy="1239.092" rx="18.35" ry="13.545"/>
				</g>
			</g>
		</g>
		<polygon fill="#9B9B9B" points="-199.42,1299.132 -165.315,1273.458 -165.415,1242.326 -199.542,1268.001 		"/>
		<polygon fill="#AFAFAF" points="-233.47,1243.017 -233.371,1274.147 -199.42,1299.132 -199.542,1268.001 		"/>
	</g>
	<g>
		<g>
			<polygon fill="#545454" points="-165.443,1228.956 -197.914,1204.706 -197.948,1204.711 -233.499,1229.646 -199.57,1254.632 			
				"/>
			<g>
				<g>
					<path fill="#333333" d="M-217.186,1225.722c0,7.48,8.216,13.546,18.351,13.546c10.137,0,18.353-6.066,18.353-13.546v6.265
						c0,7.48-8.216,13.545-18.353,13.545c-10.135,0-18.351-6.065-18.351-13.545V1225.722z"/>
					<ellipse fill="#666666" cx="-198.835" cy="1225.722" rx="18.353" ry="13.545"/>
				</g>
			</g>
		</g>
		<polygon fill="#333333" points="-199.447,1285.762 -165.344,1260.086 -165.443,1228.956 -199.57,1254.632 		"/>
		<polygon fill="#474747" points="-233.499,1229.646 -233.399,1260.777 -199.447,1285.762 -199.57,1254.632 		"/>
	</g>
	<g>
		<g>
			<polygon fill="#BCBCBC" points="-165.485,1215.728 -197.955,1191.479 -197.99,1191.482 -233.542,1216.419 -199.611,1241.403 			
				"/>
			<g>
				<g>
					<path fill="#999999" d="M-217.228,1212.493c0,7.483,8.217,13.546,18.352,13.546c10.136,0,18.352-6.063,18.352-13.546v6.265
						c0,7.481-8.216,13.545-18.352,13.545c-10.135,0-18.352-6.064-18.352-13.545V1212.493z"/>
					<ellipse fill="#CCCCCC" cx="-198.876" cy="1212.494" rx="18.352" ry="13.545"/>
				</g>
			</g>
		</g>
		<polygon fill="#9B9B9B" points="-199.489,1272.533 -165.385,1246.859 -165.485,1215.728 -199.611,1241.403 		"/>
		<polygon fill="#AFAFAF" points="-233.542,1216.419 -233.441,1247.549 -199.489,1272.533 -199.611,1241.403 		"/>
	</g>
</g>
<linearGradient id="SVGID_6_" gradientUnits="userSpaceOnUse" x1="-81.1753" y1="288.9463" x2="-59.4655" y2="322.7803" gradientTransform="matrix(1.1372 -1.5918 -0.8137 -0.5813 212.2931 1426.9976)">
	<stop  offset="0.075" style="stop-color:#FFFFFF;stop-opacity:0"/>
	<stop  offset="0.17" style="stop-color:#F9F9F9;stop-opacity:0.1026"/>
	<stop  offset="0.2912" style="stop-color:#EAEAEA;stop-opacity:0.2337"/>
	<stop  offset="0.4267" style="stop-color:#CFCFCF;stop-opacity:0.3802"/>
	<stop  offset="0.5727" style="stop-color:#ABABAB;stop-opacity:0.5381"/>
	<stop  offset="0.7272" style="stop-color:#7C7C7C;stop-opacity:0.705"/>
	<stop  offset="0.8861" style="stop-color:#434343;stop-opacity:0.8768"/>
	<stop  offset="1" style="stop-color:#161616"/>
</linearGradient>
<polygon fill="url(#SVGID_6_)" points="-33.496,1341.994 -159.204,1434.207 -198.233,1406.686 -70.659,1314.924 "/>
<linearGradient id="SVGID_7_" gradientUnits="userSpaceOnUse" x1="-159.814" y1="637.3828" x2="-138.161" y2="671.128" gradientTransform="matrix(1.1372 -1.5918 -0.8137 -0.5813 212.2931 1426.9976)">
	<stop  offset="0.075" style="stop-color:#FFFFFF;stop-opacity:0"/>
	<stop  offset="0.17" style="stop-color:#F9F9F9;stop-opacity:0.1026"/>
	<stop  offset="0.2912" style="stop-color:#EAEAEA;stop-opacity:0.2337"/>
	<stop  offset="0.4267" style="stop-color:#CFCFCF;stop-opacity:0.3802"/>
	<stop  offset="0.5727" style="stop-color:#ABABAB;stop-opacity:0.5381"/>
	<stop  offset="0.7272" style="stop-color:#7C7C7C;stop-opacity:0.705"/>
	<stop  offset="0.8861" style="stop-color:#434343;stop-opacity:0.8768"/>
	<stop  offset="1" style="stop-color:#161616"/>
</linearGradient>
<polygon fill="url(#SVGID_7_)" points="-406.373,1264.379 -533.146,1357.659 -571.261,1329.489 -443.687,1237.729 "/>
<linearGradient id="SVGID_8_" gradientUnits="userSpaceOnUse" x1="-3.8506" y1="768.9424" x2="17.4584" y2="802.1517" gradientTransform="matrix(1.1372 -1.5918 -0.8137 -0.5813 212.2931 1426.9976)">
	<stop  offset="0.075" style="stop-color:#FFFFFF;stop-opacity:0"/>
	<stop  offset="0.17" style="stop-color:#F9F9F9;stop-opacity:0.1026"/>
	<stop  offset="0.2912" style="stop-color:#EAEAEA;stop-opacity:0.2337"/>
	<stop  offset="0.4267" style="stop-color:#CFCFCF;stop-opacity:0.3802"/>
	<stop  offset="0.5727" style="stop-color:#ABABAB;stop-opacity:0.5381"/>
	<stop  offset="0.7272" style="stop-color:#7C7C7C;stop-opacity:0.705"/>
	<stop  offset="0.8861" style="stop-color:#434343;stop-opacity:0.8768"/>
	<stop  offset="1" style="stop-color:#161616"/>
</linearGradient>
<polygon fill="url(#SVGID_8_)" points="-336.182,939.51 -462.956,1032.789 -500.805,1005.317 -373.23,913.557 "/>
<linearGradient id="SVGID_9_" gradientUnits="userSpaceOnUse" x1="62.873" y1="428.8848" x2="84.3112" y2="462.2955" gradientTransform="matrix(1.1372 -1.5918 -0.8137 -0.5813 212.2931 1426.9976)">
	<stop  offset="0.075" style="stop-color:#FFFFFF;stop-opacity:0"/>
	<stop  offset="0.17" style="stop-color:#F9F9F9;stop-opacity:0.1026"/>
	<stop  offset="0.2912" style="stop-color:#EAEAEA;stop-opacity:0.2337"/>
	<stop  offset="0.4267" style="stop-color:#CFCFCF;stop-opacity:0.3802"/>
	<stop  offset="0.5727" style="stop-color:#ABABAB;stop-opacity:0.5381"/>
	<stop  offset="0.7272" style="stop-color:#7C7C7C;stop-opacity:0.705"/>
	<stop  offset="0.8861" style="stop-color:#434343;stop-opacity:0.8768"/>
	<stop  offset="1" style="stop-color:#161616"/>
</linearGradient>
<polygon fill="url(#SVGID_9_)" points="16.3,1031.129 -110.474,1124.408 -148.13,1096.458 -20.556,1004.697 "/>
<line fill="none" stroke="#00A907" stroke-width="6" stroke-miterlimit="10" stroke-dasharray="10" x1="-501.406" y1="810.809" x2="-569.916" y2="1131.112"/>
<line fill="none" stroke="#00A907" stroke-width="6" stroke-miterlimit="10" stroke-dasharray="10" x1="-501.406" y1="810.809" x2="-149.977" y2="903.929"/>
<line fill="none" stroke="#BF3400" stroke-width="6" stroke-miterlimit="10" stroke-dasharray="10" x1="-569.916" y1="1131.112" x2="-193.569" y2="1213.069"/>
<line fill="none" stroke="#00A907" stroke-width="6" stroke-miterlimit="10" stroke-dasharray="10" x1="-148.732" y1="901.949" x2="-571.862" y2="1134.98"/>
<line fill="none" stroke="#BF3400" stroke-width="6" stroke-miterlimit="10" stroke-dasharray="10" x1="-148.732" y1="901.949" x2="-193.021" y2="1204.601"/>
<line fill="none" stroke="#BF3400" stroke-width="6" stroke-miterlimit="10" stroke-dasharray="10" x1="-501.406" y1="810.809" x2="-193.569" y2="1213.069"/>
<g>
	<g>
		<g>
			<g>
				<g>
					<path fill="#D8CF2A" d="M452.58,555.68c0,16.383,17.988,29.655,40.175,29.655c22.193,0,40.18-13.272,40.18-29.655v13.714
						c0,16.38-17.986,29.657-40.18,29.657c-22.188,0-40.175-13.277-40.175-29.657V555.68z"/>
				</g>
				<g>
					<path fill="#E5E133" d="M532.935,555.68c0,16.383-17.986,29.655-40.18,29.655c-22.188,0-40.175-13.272-40.175-29.655
						c0-16.378,17.988-29.654,40.175-29.654C514.948,526.025,532.935,539.302,532.935,555.68z"/>
				</g>
			</g>
		</g>
	</g>
	<path fill="#F9F56E" d="M527.792,554.896c0,14.35-15.758,25.977-35.197,25.977c-19.437,0-35.193-11.627-35.193-25.977
		c0-14.349,15.757-25.979,35.193-25.979C512.034,528.917,527.792,540.548,527.792,554.896z"/>
	
		<text transform="matrix(0.9899 -0.3333 0.7443 0.6678 492.2734 570.1143)" fill="#E5E133" font-family="'MyriadPro-Regular'" font-size="51.2696">$</text>
	
		<text transform="matrix(0.9899 -0.3333 0.7443 0.6678 492.2734 570.1143)" stroke="#000000" stroke-miterlimit="10" font-family="'MyriadPro-Regular'" font-size="51.2696">$</text>
</g>
<g>
	<g>
		<g>
			<g>
				<g>
					<path fill="#D8CF2A" d="M226.124,210.709c0,16.382,17.987,29.655,40.174,29.655c22.192,0,40.18-13.273,40.18-29.655v13.714
						c0,16.378-17.987,29.656-40.18,29.656c-22.188,0-40.174-13.277-40.174-29.656V210.709z"/>
				</g>
				<g>
					<path fill="#E5E133" d="M306.478,210.709c0,16.382-17.987,29.655-40.18,29.655c-22.188,0-40.174-13.273-40.174-29.655
						c0-16.378,17.987-29.655,40.174-29.655C288.49,181.055,306.478,194.331,306.478,210.709z"/>
				</g>
			</g>
		</g>
	</g>
	<path fill="#F9F56E" d="M301.336,209.925c0,14.35-15.758,25.977-35.197,25.977c-19.437,0-35.195-11.626-35.195-25.977
		c0-14.348,15.758-25.979,35.195-25.979C285.578,183.946,301.336,195.578,301.336,209.925z"/>
	
		<text transform="matrix(0.9899 -0.3333 0.7443 0.6678 265.8164 225.1436)" fill="#E5E133" font-family="'MyriadPro-Regular'" font-size="51.2696">$</text>
	
		<text transform="matrix(0.9899 -0.3333 0.7443 0.6678 265.8164 225.1436)" stroke="#000000" stroke-miterlimit="10" font-family="'MyriadPro-Regular'" font-size="51.2696">$</text>
</g>
</svg>
