<?xml version="1.0" encoding="utf-8"?>
<!-- Generator: Adobe Illustrator 16.0.4, SVG Export Plug-In . SVG Version: 6.00 Build 0)  -->
<!DOCTYPE svg PUBLIC "-//W3C//DTD SVG 1.1//EN" "http://www.w3.org/Graphics/SVG/1.1/DTD/svg11.dtd">
<svg version="1.1" id="Layer_1" xmlns="http://www.w3.org/2000/svg" xmlns:xlink="http://www.w3.org/1999/xlink" x="0px" y="0px"
	 width="720px" height="720px" viewBox="0 0 720 720" enable-background="new 0 0 720 720" xml:space="preserve">
<g>
	<polygon fill="#1F3F49" points="367.038,321.208 319.287,283.636 367.701,246.74 367.751,246.744 416.055,209.93 415.953,209.849 
		464.368,172.954 464.417,172.957 512.829,136.059 560.398,173.652 560.391,173.774 607.959,211.367 607.895,211.418 
		655.419,248.975 655.412,249.096 702.98,286.689 654.777,323.587 606.314,360.479 606.312,360.477 558.112,397.373 
		557.852,397.369 509.651,434.268 461.871,396.673 462.06,396.53 414.307,358.959 414.48,358.826 366.847,321.353 	"/>
	<g>
		<g>
			<path fill="#162E35" d="M680.43,279.202c0,11.385-11.39,20.615-25.44,20.615s-25.44-9.23-25.44-20.615v9.531
				c0,11.385,11.39,20.612,25.44,20.612s25.44-9.227,25.44-20.612V279.202z"/>
			<ellipse fill="#234851" cx="654.989" cy="279.203" rx="25.44" ry="20.614"/>
		</g>
		<g>
			<path fill="#162E35" d="M632.866,241.488c0,11.385-11.39,20.613-25.44,20.613c-14.048,0-25.438-9.228-25.438-20.613v9.533
				c0,11.383,11.391,20.609,25.438,20.609c14.051,0,25.44-9.229,25.44-20.609V241.488z"/>
			<ellipse fill="#234851" cx="607.428" cy="241.488" rx="25.438" ry="20.612"/>
		</g>
		<g>
			<path fill="#162E35" d="M631.967,316.095c0,11.386-11.389,20.612-25.438,20.612c-14.053,0-25.442-9.227-25.442-20.612v9.532
				c0,11.385,11.39,20.612,25.442,20.612c14.05,0,25.438-9.227,25.438-20.612V316.095z"/>
			<ellipse fill="#234851" cx="606.525" cy="316.094" rx="25.44" ry="20.613"/>
		</g>
	</g>
	<g>
		<g>
			<path fill="#162E35" d="M583.763,352.988c0,11.385-11.388,20.613-25.439,20.613c-14.051,0-25.441-9.228-25.441-20.613v9.535
				c0,11.381,11.391,20.611,25.441,20.611c14.052,0,25.439-9.23,25.439-20.611V352.988z"/>
			<ellipse fill="#234851" cx="558.322" cy="352.988" rx="25.441" ry="20.613"/>
		</g>
	</g>
	<polyline fill="#1C3944" points="509.861,462.724 509.651,434.268 606.212,360.555 606.212,360.555 702.98,286.824 
		703.189,315.493 606.524,389.279 	"/>
</g>
<g>
	<polyline fill="#1F3F49" points="174.85,393.549 223.265,356.651 223.312,356.654 271.617,319.841 271.515,319.761 319.93,282.865 
		319.977,282.869 368.394,245.97 415.962,283.564 415.956,283.683 463.522,321.279 463.458,321.328 510.98,358.885 510.976,359.006 
		558.543,396.6 510.342,433.498 461.879,470.392 461.874,470.388 413.548,507.282 413.548,507.282 365.214,544.178 317.434,506.584 
			"/>
	<g>
		<g>
			<path fill="#162E35" d="M535.992,389.114c0,11.384-11.389,20.611-25.438,20.611c-14.052,0-25.442-9.228-25.442-20.611v9.531
				c0,11.384,11.391,20.611,25.442,20.611c14.05,0,25.438-9.228,25.438-20.611V389.114z"/>
			<ellipse fill="#234851" cx="510.553" cy="389.113" rx="25.439" ry="20.612"/>
		</g>
		<g>
			<path fill="#162E35" d="M487.53,426.005c0,11.388-11.39,20.613-25.44,20.613c-14.052,0-25.442-9.226-25.442-20.613v9.535
				c0,11.382,11.391,20.609,25.442,20.609c14.051,0,25.44-9.228,25.44-20.609V426.005z"/>
			<ellipse fill="#234851" cx="462.089" cy="426.006" rx="25.441" ry="20.612"/>
		</g>
	</g>
	<g>
		<g>
			<path fill="#162E35" d="M439.325,462.899c0,11.385-11.387,20.613-25.437,20.613c-14.053,0-25.442-9.229-25.442-20.613v9.532
				c0,11.382,11.39,20.613,25.442,20.613c14.05,0,25.437-9.231,25.437-20.613V462.899z"/>
			<ellipse fill="#234851" cx="413.887" cy="462.9" rx="25.438" ry="20.613"/>
		</g>
		<g>
			<path fill="#162E35" d="M390.865,499.792c0,11.386-11.388,20.614-25.439,20.614c-14.05,0-25.442-9.229-25.442-20.614v9.534
				c0,11.384,11.392,20.613,25.442,20.613c14.052,0,25.439-9.229,25.439-20.613V499.792z"/>
			<path fill="#234851" d="M339.984,499.792c0,11.386,11.392,20.614,25.442,20.614c14.052,0,25.439-9.229,25.439-20.614
				c0-11.38-11.388-20.607-25.439-20.607C351.375,479.185,339.984,488.411,339.984,499.792z"/>
		</g>
		<g>
			<path fill="#162E35" d="M343.3,462.078c0,11.385-11.388,20.613-25.437,20.613c-14.051,0-25.439-9.229-25.439-20.613v9.534
				c0,11.38,11.388,20.61,25.439,20.61c14.049,0,25.437-9.23,25.437-20.61V462.078z"/>
			<ellipse fill="#234851" cx="317.862" cy="462.079" rx="25.438" ry="20.613"/>
		</g>
		<g>
			<path fill="#162E35" d="M296.741,349.864c0,11.385-11.388,20.61-25.439,20.61c-14.049,0-25.439-9.226-25.439-20.61v9.532
				c0,11.382,11.389,20.61,25.439,20.61c14.052,0,25.439-9.229,25.439-20.61V349.864z"/>
			<ellipse fill="#234851" cx="271.302" cy="349.865" rx="25.439" ry="20.61"/>
		</g>
		<g>
			<path fill="#162E35" d="M295.845,424.471c0,11.387-11.389,20.612-25.441,20.612c-14.05,0-25.439-9.226-25.439-20.612v9.534
				c0,11.384,11.389,20.61,25.439,20.61c14.051,0,25.441-9.227,25.441-20.61V424.471z"/>
			<path fill="#234851" d="M244.964,424.471c0,11.387,11.389,20.612,25.439,20.612c14.051,0,25.441-9.226,25.441-20.612
				c0-11.38-11.389-20.61-25.441-20.61C256.354,403.86,244.964,413.091,244.964,424.471z"/>
		</g>
		<g>
			<path fill="#162E35" d="M248.279,386.758c0,11.384-11.388,20.611-25.437,20.611c-14.051,0-25.441-9.228-25.441-20.611v9.533
				c0,11.382,11.389,20.611,25.441,20.611c14.05,0,25.437-9.229,25.437-20.611V386.758z"/>
			<ellipse fill="#234851" cx="222.84" cy="386.757" rx="25.439" ry="20.612"/>
		</g>
	</g>
	<polygon fill="#13282D" points="175.039,393.563 175.039,420.355 365.214,570.501 365.214,544.178 	"/>
	<polyline fill="#1C3944" points="365.2,570.501 365.2,544.178 461.761,470.466 461.761,470.466 558.529,396.733 558.739,425.404 
		462.074,499.189 	"/>
</g>
<g>
	<g>
		<polygon fill="#002776" points="607.915,212.348 607.915,283.161 413.385,428.842 413.385,360.528 		"/>
	</g>
</g>
<g>
	<polygon fill="#A0E51A" points="607.915,143.729 607.915,212.293 510.65,286.507 510.65,217.924 	"/>
</g>
<linearGradient id="SVGID_1_" gradientUnits="userSpaceOnUse" x1="390.4512" y1="494.9453" x2="377.1147" y2="531.4658" gradientTransform="matrix(-3.2304 -1.5918 2.3114 -0.5813 324.7985 1426.9976)">
	<stop  offset="0.075" style="stop-color:#FFFFFF;stop-opacity:0"/>
	<stop  offset="0.17" style="stop-color:#F9F9F9;stop-opacity:0.1026"/>
	<stop  offset="0.2912" style="stop-color:#EAEAEA;stop-opacity:0.2337"/>
	<stop  offset="0.4267" style="stop-color:#CFCFCF;stop-opacity:0.3802"/>
	<stop  offset="0.5727" style="stop-color:#ABABAB;stop-opacity:0.5381"/>
	<stop  offset="0.7272" style="stop-color:#7C7C7C;stop-opacity:0.705"/>
	<stop  offset="0.8861" style="stop-color:#434343;stop-opacity:0.8768"/>
	<stop  offset="1" style="stop-color:#161616"/>
</linearGradient>
<polygon fill="url(#SVGID_1_)" points="119.468,465.594 305.243,615.179 365.084,570.425 175.039,420.355 "/>
<g>
	<polygon fill="#00A1DE" points="510.65,218.02 510.65,286.585 413.385,360.528 413.385,292.215 	"/>
</g>
<g>
	<g>
		<g>
			<polyline fill="#F9531F" points="317.594,147.388 463.538,37.096 463.588,37.1 512.265,0 560.093,37.8 560.087,37.921 
				607.915,75.722 559.45,112.819 559.188,112.817 413.385,223.901 363.101,183.737 			"/>
			<g>
				<path fill="#DB2F0E" d="M585.241,68.193c0,11.447-11.452,20.724-25.576,20.724c-14.13,0-25.581-9.277-25.581-20.724v9.585
					c0,11.444,11.451,20.724,25.581,20.724c14.124,0,25.576-9.28,25.576-20.724V68.193z"/>
				<ellipse fill="#FF5A2C" cx="559.664" cy="68.193" rx="25.577" ry="20.724"/>
			</g>
			<g>
				<path fill="#DB2F0E" d="M537.417,30.273c0,11.445-11.45,20.722-25.577,20.722c-14.128,0-25.578-9.277-25.578-20.722v9.585
					c0,11.442,11.45,20.721,25.578,20.721c14.127,0,25.577-9.279,25.577-20.721V30.273z"/>
				<ellipse fill="#FF5A2C" cx="511.839" cy="30.272" rx="25.577" ry="20.723"/>
			</g>
			<g>
				<path fill="#DB2F0E" d="M536.515,105.289c0,11.447-11.451,20.724-25.582,20.724c-14.127,0-25.578-9.277-25.578-20.724v9.583
					c0,11.444,11.451,20.724,25.578,20.724c14.131,0,25.582-9.28,25.582-20.724V105.289z"/>
				<path fill="#FF5A2C" d="M485.355,105.289c0,11.447,11.451,20.724,25.579,20.724c14.13,0,25.581-9.277,25.581-20.724
					c0-11.447-11.451-20.724-25.581-20.724C496.807,84.565,485.355,93.842,485.355,105.289z"/>
			</g>
			<g>
				<g>
					<path fill="#DB2F0E" d="M488.688,67.368c0,11.447-11.448,20.724-25.575,20.724c-14.129,0-25.578-9.277-25.578-20.724v9.583
						c0,11.444,11.449,20.724,25.578,20.724c14.127,0,25.575-9.28,25.575-20.724V67.368z"/>
					<path fill="#FF5A2C" d="M437.535,67.368c0,11.447,11.449,20.724,25.578,20.724c14.127,0,25.575-9.277,25.575-20.724
						c0-11.447-11.448-20.724-25.575-20.724C448.984,46.644,437.535,55.92,437.535,67.368z"/>
				</g>
			</g>
		</g>
		<polygon fill="#E84318" points="607.915,75.722 607.915,146.534 413.385,292.215 413.385,223.901 		"/>
	</g>
	<g>
		<path fill="#DB2F0E" d="M487.906,141.425c0,11.448-11.448,20.724-25.575,20.724c-14.129,0-25.581-9.276-25.581-20.724v9.586
			c0,11.443,11.452,20.724,25.581,20.724c14.127,0,25.575-9.281,25.575-20.724V141.425z"/>
		<ellipse fill="#FF5A2C" cx="462.329" cy="141.425" rx="25.577" ry="20.724"/>
	</g>
	<g>
		<path fill="#DB2F0E" d="M440.087,103.505c0,11.445-11.451,20.722-25.578,20.722c-14.13,0-25.582-9.277-25.582-20.722v9.585
			c0,11.441,11.452,20.721,25.582,20.721c14.127,0,25.578-9.279,25.578-20.721V103.505z"/>
		<ellipse fill="#FF5A2C" cx="414.506" cy="103.504" rx="25.58" ry="20.723"/>
	</g>
	<g>
		<path fill="#DB2F0E" d="M439.182,178.521c0,11.448-11.452,20.724-25.579,20.724c-14.126,0-25.579-9.276-25.579-20.724v9.583
			c0,11.446,11.453,20.724,25.579,20.724c14.127,0,25.579-9.278,25.579-20.724V178.521z"/>
		<ellipse fill="#FF5A2C" cx="413.603" cy="178.52" rx="25.579" ry="20.725"/>
	</g>
	<g>
		<g>
			<path fill="#DB2F0E" d="M391.357,140.599c0,11.447-11.449,20.724-25.577,20.724c-14.128,0-25.58-9.277-25.58-20.724v9.586
				c0,11.444,11.451,20.723,25.58,20.723c14.128,0,25.577-9.279,25.577-20.723V140.599z"/>
			<ellipse fill="#FF5A2C" cx="365.779" cy="140.599" rx="25.578" ry="20.724"/>
		</g>
	</g>
</g>
<g>
	<g>
		<polyline fill="#2F58BC" points="413.385,223.901 361.969,264.878 266.489,187.325 317.594,147.388 		"/>
		<g>
			<g>
				<path fill="#103799" d="M343.601,180.647c0,11.247-11.132,20.359-24.867,20.359c-13.732,0-24.865-9.112-24.865-20.359v9.417
					c0,11.244,11.133,20.358,24.865,20.358c13.736,0,24.867-9.114,24.867-20.358V180.647z"/>
				<ellipse fill="#335FCC" cx="318.734" cy="180.648" rx="24.867" ry="20.359"/>
			</g>
		</g>
	</g>
</g>
<g>
	<polygon fill="#671AAA" points="57.146,246.287 100.037,213.908 100.08,213.912 183.716,280.774 141.017,313.153 98.985,279.774 
		99.152,279.649 	"/>
	<g>
		<path fill="#490982" d="M163.838,274.073c-0.046,10.051-10.134,18.151-22.541,18.096c-12.403-0.058-22.42-8.249-22.375-18.299
			l-0.038,8.415c-0.046,10.049,9.971,18.239,22.375,18.297c12.406,0.056,22.496-8.044,22.541-18.094L163.838,274.073z"/>
		<path fill="#7120B7" d="M118.921,273.87c-0.045,10.051,9.972,18.241,22.375,18.299c12.407,0.057,22.495-8.043,22.541-18.095
			c0.045-10.049-9.97-18.241-22.377-18.298C129.058,255.721,118.968,263.821,118.921,273.87z"/>
	</g>
	<g>
		<g>
			<path fill="#490982" d="M122,240.588c-0.045,10.051-10.136,18.149-22.539,18.093c-12.406-0.056-22.424-8.248-22.377-18.299
				l-0.038,8.417c-0.046,10.047,9.972,18.241,22.378,18.297c12.404,0.056,22.493-8.047,22.539-18.091L122,240.588z"/>
			
				<ellipse transform="matrix(-0.0046 1 -1 -0.0046 340.4799 142.0364)" fill="#7120B7" cx="99.547" cy="240.479" rx="18.197" ry="22.459"/>
		</g>
	</g>
	<polygon fill="#66388E" points="57.146,246.287 56.952,289.079 140.754,356.643 140.757,356.051 140.951,313.153 	"/>
	<polygon fill="#793CA5" points="183.716,280.774 183.518,324.48 140.754,356.643 140.951,313.153 	"/>
</g>
<linearGradient id="SVGID_2_" gradientUnits="userSpaceOnUse" x1="555.9131" y1="545.417" x2="548.8764" y2="588.108" gradientTransform="matrix(-2.0051 -0.9881 2.3114 -0.5813 -105.5525 1214.9349)">
	<stop  offset="0.075" style="stop-color:#FFFFFF;stop-opacity:0"/>
	<stop  offset="0.6184" style="stop-color:#747474;stop-opacity:0.5874"/>
	<stop  offset="1" style="stop-color:#161616"/>
</linearGradient>
<polygon fill="url(#SVGID_2_)" points="1.265,333.364 81.775,398.92 141.12,356.771 56.809,289.124 "/>
<linearGradient id="SVGID_3_" gradientUnits="userSpaceOnUse" x1="290.7295" y1="513.6514" x2="284.9565" y2="548.6758" gradientTransform="matrix(-2.0051 -0.9881 2.3114 -0.5813 -105.5525 1214.9349)">
	<stop  offset="0.075" style="stop-color:#FFFFFF;stop-opacity:0"/>
	<stop  offset="0.16" style="stop-color:#F4F4F4;stop-opacity:0.0919"/>
	<stop  offset="0.3073" style="stop-color:#D8D8D8;stop-opacity:0.2511"/>
	<stop  offset="0.4994" style="stop-color:#AAAAAA;stop-opacity:0.4588"/>
	<stop  offset="0.7288" style="stop-color:#6A6A6A;stop-opacity:0.7068"/>
	<stop  offset="0.9873" style="stop-color:#1A1A1A;stop-opacity:0.9863"/>
	<stop  offset="1" style="stop-color:#161616"/>
</linearGradient>
<polygon fill="url(#SVGID_3_)" points="478.567,620.709 520.554,662.286 571.563,625.637 524.298,588.376 "/>
<text transform="matrix(0.6058 -0.4669 0.0123 0.9999 452.3213 500.2109)" fill="#FFFFFF" font-family="'AvenirNext-Bold'" font-size="21.6204">E T H E R E U M </text>
<text transform="matrix(0.6058 -0.4669 0.0123 0.9999 550.8438 424.2793)" fill="#1C3944" font-family="'AvenirNext-Bold'" font-size="21.6204">..</text>
<text transform="matrix(0.6058 -0.4669 0.0123 0.9999 558.7021 418.2207)" fill="#FFFFFF" font-family="'AvenirNext-Bold'" font-size="21.6204"> K E R N E L</text>
<text transform="matrix(0.6093 -0.4623 0.0047 1 447.5195 378.3086)" fill="#FFFFFF" font-family="'AvenirNext-Bold'" font-size="21.6212">R U B I X</text>
<text transform="matrix(0.6093 -0.4623 0.0047 1 509.2656 331.4609)" fill="#FFFFFF" font-family="'AvenirNext-Bold'" font-size="21.6212"> K E R N E L</text>
<text transform="matrix(0.6097 -0.4618 0.0039 1 520.7051 241.2598)" fill="#333333" font-family="'AvenirNext-Bold'" font-size="21.6211">DEVELOPER</text>
<text transform="matrix(0.6097 -0.4618 0.0039 1 530.9434 259.5278)" fill="#333333" font-family="'AvenirNext-Bold'" font-size="21.6211">TOOLKIT</text>
<text transform="matrix(0.612 -0.4588 -9.999997e-04 1 429.9385 321.583)" fill="#333333" font-family="'AvenirNext-Bold'" font-size="21.621">WEB3  API</text>
<text transform="matrix(0.6131 -0.4572 -0.0036 1 449.293 225.2129)" fill="#FFFFFF" font-family="'AvenirNext-Bold'" font-size="21.6211">D I S T R I B U T E D</text>
<text transform="matrix(0.6131 -0.4572 -0.0036 1 440.8691 257.3716)" fill="#FFFFFF" font-family="'AvenirNext-Bold'" font-size="21.6211">A P P L I C A T I O N S</text>
<g>
	<g>
		<polyline fill="#2F58BC" points="413.336,223.907 361.969,264.878 316.779,228.348 366.802,186.291 		"/>
		<g>
			<g>
				<path fill="#103799" d="M390.135,218.262c0,11.247-11.134,20.36-24.866,20.36c-13.733,0-24.866-9.113-24.866-20.36v9.417
					c0,11.245,11.133,20.358,24.866,20.358c13.732,0,24.866-9.113,24.866-20.358V218.262L390.135,218.262z"/>
				<ellipse fill="#335FCC" cx="365.269" cy="218.263" rx="24.866" ry="20.359"/>
			</g>
		</g>
	</g>
	<polygon fill="#0E369B" points="361.777,466.737 266.077,390.945 266.489,187.325 361.969,264.878 	"/>
	<polygon fill="#2342A5" points="413.336,223.907 413.308,428.379 361.777,466.737 361.969,264.878 	"/>
</g>
<text transform="matrix(0.0071 1.3781 -0.7886 0.6149 392.2754 269.606)" fill="#FFFFFF" font-family="'AvenirNext-Bold'" font-size="16.1851">C O N T R O L</text>
<text transform="matrix(0.0071 1.3781 -0.7886 0.6149 377.0176 292.8569)" fill="#FFFFFF" font-family="'AvenirNext-Bold'" font-size="16.1851"> C E N T E R</text>
<g>
	<g>
		<polyline fill="#BA3131" points="623.121,562.836 571.756,603.808 525.223,566.192 576.589,525.222 		"/>
		<g>
			<g>
				<path fill="#991111" d="M599.922,557.193c0,11.245-11.134,20.357-24.867,20.357s-24.866-9.112-24.866-20.357v9.415
					c0,11.244,11.134,20.358,24.866,20.358c13.734,0,24.867-9.114,24.867-20.358V557.193z"/>
				<ellipse fill="#CC3636" cx="575.055" cy="557.193" rx="24.866" ry="20.357"/>
			</g>
		</g>
	</g>
	<polygon fill="#991010" points="571.563,625.637 524.265,588.222 525.223,566.192 571.756,603.808 	"/>
	<polygon fill="#A32424" points="623.121,562.836 623.095,587.278 571.563,625.637 571.756,603.808 	"/>
</g>
</svg>
