<?xml version="1.0" encoding="utf-8"?>
<!-- Generator: Adobe Illustrator 16.0.4, SVG Export Plug-In . SVG Version: 6.00 Build 0)  -->
<!DOCTYPE svg PUBLIC "-//W3C//DTD SVG 1.1//EN" "http://www.w3.org/Graphics/SVG/1.1/DTD/svg11.dtd">
<svg version="1.1" id="Layer_1" xmlns="http://www.w3.org/2000/svg" xmlns:xlink="http://www.w3.org/1999/xlink" x="0px" y="0px"
	 width="720px" height="720px" viewBox="0 0 720 720" enable-background="new 0 0 720 720" xml:space="preserve">
<g>
	<polygon fill="#1F3F49" points="367.038,321.208 319.287,283.636 367.701,246.74 367.751,246.744 416.055,209.93 415.953,209.849 
		464.368,172.954 464.417,172.957 512.829,136.059 560.398,173.652 560.391,173.774 607.959,211.367 607.895,211.418 
		655.419,248.975 655.412,249.096 702.98,286.689 654.777,323.587 606.314,360.479 606.312,360.477 558.112,397.373 
		557.852,397.369 509.651,434.268 461.871,396.673 462.06,396.53 414.307,358.959 414.48,358.826 366.847,321.353 	"/>
	<g>
		<g>
			<path fill="#162E35" d="M680.43,279.202c0,11.385-11.39,20.615-25.44,20.615s-25.44-9.23-25.44-20.615v9.531
				c0,11.385,11.39,20.612,25.44,20.612s25.44-9.227,25.44-20.612V279.202z"/>
			<ellipse fill="#234851" cx="654.989" cy="279.203" rx="25.44" ry="20.614"/>
		</g>
		<g>
			<path fill="#162E35" d="M632.866,241.488c0,11.385-11.39,20.613-25.44,20.613c-14.048,0-25.438-9.228-25.438-20.613v9.533
				c0,11.383,11.391,20.609,25.438,20.609c14.051,0,25.44-9.229,25.44-20.609V241.488z"/>
			<ellipse fill="#234851" cx="607.428" cy="241.488" rx="25.438" ry="20.612"/>
		</g>
		<g>
			<path fill="#162E35" d="M631.967,316.095c0,11.386-11.389,20.612-25.438,20.612c-14.053,0-25.442-9.227-25.442-20.612v9.532
				c0,11.385,11.39,20.612,25.442,20.612c14.05,0,25.438-9.227,25.438-20.612V316.095z"/>
			<ellipse fill="#234851" cx="606.525" cy="316.094" rx="25.44" ry="20.613"/>
		</g>
	</g>
	<g>
		<g>
			<path fill="#162E35" d="M583.763,352.988c0,11.385-11.388,20.613-25.439,20.613c-14.051,0-25.441-9.228-25.441-20.613v9.535
				c0,11.381,11.391,20.611,25.441,20.611c14.052,0,25.439-9.23,25.439-20.611V352.988z"/>
			<ellipse fill="#234851" cx="558.322" cy="352.988" rx="25.441" ry="20.613"/>
		</g>
	</g>
	<polyline fill="#1C3944" points="509.861,462.724 509.651,434.268 606.212,360.555 606.212,360.555 702.98,286.824 
		703.189,315.493 606.524,389.279 	"/>
</g>
<g>
	<polyline fill="#1F3F49" points="174.85,393.549 223.265,356.651 223.312,356.654 271.617,319.841 271.515,319.761 319.93,282.865 
		319.977,282.869 368.394,245.97 415.962,283.564 415.956,283.683 463.522,321.279 463.458,321.328 510.98,358.885 510.976,359.006 
		558.543,396.6 510.342,433.498 461.879,470.392 461.874,470.388 413.548,507.282 413.548,507.282 365.214,544.178 317.434,506.584 
			"/>
	<g>
		<g>
			<path fill="#162E35" d="M535.992,389.114c0,11.384-11.389,20.611-25.438,20.611c-14.052,0-25.442-9.228-25.442-20.611v9.531
				c0,11.384,11.391,20.611,25.442,20.611c14.05,0,25.438-9.228,25.438-20.611V389.114z"/>
			<ellipse fill="#234851" cx="510.553" cy="389.113" rx="25.439" ry="20.612"/>
		</g>
		<g>
			<path fill="#162E35" d="M487.53,426.005c0,11.388-11.39,20.613-25.44,20.613c-14.052,0-25.442-9.226-25.442-20.613v9.535
				c0,11.382,11.391,20.609,25.442,20.609c14.051,0,25.44-9.228,25.44-20.609V426.005z"/>
			<ellipse fill="#234851" cx="462.089" cy="426.006" rx="25.441" ry="20.612"/>
		</g>
	</g>
	<g>
		<g>
			<path fill="#162E35" d="M439.325,462.899c0,11.385-11.387,20.613-25.437,20.613c-14.053,0-25.442-9.229-25.442-20.613v9.532
				c0,11.382,11.39,20.613,25.442,20.613c14.05,0,25.437-9.231,25.437-20.613V462.899z"/>
			<ellipse fill="#234851" cx="413.887" cy="462.9" rx="25.438" ry="20.613"/>
		</g>
		<g>
			<path fill="#162E35" d="M390.865,499.792c0,11.386-11.388,20.614-25.439,20.614c-14.05,0-25.442-9.229-25.442-20.614v9.534
				c0,11.384,11.392,20.613,25.442,20.613c14.052,0,25.439-9.229,25.439-20.613V499.792z"/>
			<path fill="#234851" d="M339.984,499.792c0,11.386,11.392,20.614,25.442,20.614c14.052,0,25.439-9.229,25.439-20.614
				c0-11.38-11.388-20.607-25.439-20.607C351.375,479.185,339.984,488.411,339.984,499.792z"/>
		</g>
		<g>
			<path fill="#162E35" d="M343.3,462.078c0,11.385-11.388,20.613-25.437,20.613c-14.051,0-25.439-9.229-25.439-20.613v9.534
				c0,11.38,11.388,20.61,25.439,20.61c14.049,0,25.437-9.23,25.437-20.61V462.078z"/>
			<ellipse fill="#234851" cx="317.862" cy="462.079" rx="25.438" ry="20.613"/>
		</g>
		<g>
			<path fill="#162E35" d="M296.741,349.864c0,11.385-11.388,20.61-25.439,20.61c-14.049,0-25.439-9.226-25.439-20.61v9.532
				c0,11.382,11.389,20.61,25.439,20.61c14.052,0,25.439-9.229,25.439-20.61V349.864z"/>
			<ellipse fill="#234851" cx="271.302" cy="349.865" rx="25.439" ry="20.61"/>
		</g>
		<g>
			<path fill="#162E35" d="M295.845,424.471c0,11.387-11.389,20.612-25.441,20.612c-14.05,0-25.439-9.226-25.439-20.612v9.534
				c0,11.384,11.389,20.61,25.439,20.61c14.051,0,25.441-9.227,25.441-20.61V424.471z"/>
			<path fill="#234851" d="M244.964,424.471c0,11.387,11.389,20.612,25.439,20.612c14.051,0,25.441-9.226,25.441-20.612
				c0-11.38-11.389-20.61-25.441-20.61C256.354,403.86,244.964,413.091,244.964,424.471z"/>
		</g>
		<g>
			<path fill="#162E35" d="M248.279,386.758c0,11.384-11.388,20.611-25.437,20.611c-14.051,0-25.441-9.228-25.441-20.611v9.533
				c0,11.382,11.389,20.611,25.441,20.611c14.05,0,25.437-9.229,25.437-20.611V386.758z"/>
			<ellipse fill="#234851" cx="222.84" cy="386.757" rx="25.439" ry="20.612"/>
		</g>
	</g>
	<polygon fill="#13282D" points="175.039,393.563 175.039,420.355 365.214,570.501 365.214,544.178 	"/>
	<polyline fill="#1C3944" points="365.2,570.501 365.2,544.178 461.761,470.466 461.761,470.466 558.529,396.733 558.739,425.404 
		462.074,499.189 	"/>
</g>
<g>
	<g>
		<polygon fill="#002776" points="607.915,212.348 607.915,283.161 413.385,428.842 413.385,360.528 		"/>
	</g>
</g>
<g>
	<polygon fill="#A0E51A" points="607.915,143.729 607.915,212.293 510.65,286.507 510.65,217.924 	"/>
</g>
<linearGradient id="SVGID_1_" gradientUnits="userSpaceOnUse" x1="390.4512" y1="494.9453" x2="377.1147" y2="531.4658" gradientTransform="matrix(-3.2304 -1.5918 2.3114 -0.5813 324.7985 1426.9976)">
	<stop  offset="0.075" style="stop-color:#FFFFFF;stop-opacity:0"/>
	<stop  offset="0.17" style="stop-color:#F9F9F9;stop-opacity:0.1026"/>
	<stop  offset="0.2912" style="stop-color:#EAEAEA;stop-opacity:0.2337"/>
	<stop  offset="0.4267" style="stop-color:#CFCFCF;stop-opacity:0.3802"/>
	<stop  offset="0.5727" style="stop-color:#ABABAB;stop-opacity:0.5381"/>
	<stop  offset="0.7272" style="stop-color:#7C7C7C;stop-opacity:0.705"/>
	<stop  offset="0.8861" style="stop-color:#434343;stop-opacity:0.8768"/>
	<stop  offset="1" style="stop-color:#161616"/>
</linearGradient>
<polygon fill="url(#SVGID_1_)" points="119.468,465.594 305.243,615.179 365.084,570.425 175.039,420.355 "/>
<g>
	<polygon fill="#00A1DE" points="510.65,218.02 510.65,286.585 413.385,360.528 413.385,292.215 	"/>
</g>
<g>
	<g>
		<g>
			<polyline fill="#F9531F" points="317.594,147.388 463.538,37.096 463.588,37.1 512.265,0 560.093,37.8 560.087,37.921 
				607.915,75.722 559.45,112.819 559.188,112.817 413.385,223.901 363.101,183.737 			"/>
			<g>
				<path fill="#DB2F0E" d="M585.241,68.193c0,11.447-11.452,20.724-25.576,20.724c-14.13,0-25.581-9.277-25.581-20.724v9.585
					c0,11.444,11.451,20.724,25.581,20.724c14.124,0,25.576-9.28,25.576-20.724V68.193z"/>
				<ellipse fill="#FF5A2C" cx="559.664" cy="68.193" rx="25.577" ry="20.724"/>
			</g>
			<g>
				<path fill="#DB2F0E" d="M537.417,30.273c0,11.445-11.45,20.722-25.577,20.722c-14.128,0-25.578-9.277-25.578-20.722v9.585
					c0,11.442,11.45,20.721,25.578,20.721c14.127,0,25.577-9.279,25.577-20.721V30.273z"/>
				<ellipse fill="#FF5A2C" cx="511.839" cy="30.272" rx="25.577" ry="20.723"/>
			</g>
			<g>
				<path fill="#DB2F0E" d="M536.515,105.289c0,11.447-11.451,20.724-25.582,20.724c-14.127,0-25.578-9.277-25.578-20.724v9.583
					c0,11.444,11.451,20.724,25.578,20.724c14.131,0,25.582-9.28,25.582-20.724V105.289z"/>
				<path fill="#FF5A2C" d="M485.355,105.289c0,11.447,11.451,20.724,25.579,20.724c14.13,0,25.581-9.277,25.581-20.724
					c0-11.447-11.451-20.724-25.581-20.724C496.807,84.565,485.355,93.842,485.355,105.289z"/>
			</g>
			<g>
				<g>
					<path fill="#DB2F0E" d="M488.688,67.368c0,11.447-11.448,20.724-25.575,20.724c-14.129,0-25.578-9.277-25.578-20.724v9.583
						c0,11.444,11.449,20.724,25.578,20.724c14.127,0,25.575-9.28,25.575-20.724V67.368z"/>
					<path fill="#FF5A2C" d="M437.535,67.368c0,11.447,11.449,20.724,25.578,20.724c14.127,0,25.575-9.277,25.575-20.724
						c0-11.447-11.448-20.724-25.575-20.724C448.984,46.644,437.535,55.92,437.535,67.368z"/>
				</g>
			</g>
		</g>
		<polygon fill="#E84318" points="607.915,75.722 607.915,146.534 413.385,292.215 413.385,223.901 		"/>
	</g>
	<g>
		<path fill="#DB2F0E" d="M487.906,141.425c0,11.448-11.448,20.724-25.575,20.724c-14.129,0-25.581-9.276-25.581-20.724v9.586
			c0,11.443,11.452,20.724,25.581,20.724c14.127,0,25.575-9.281,25.575-20.724V141.425z"/>
		<ellipse fill="#FF5A2C" cx="462.329" cy="141.425" rx="25.577" ry="20.724"/>
	</g>
	<g>
		<path fill="#DB2F0E" d="M440.087,103.505c0,11.445-11.451,20.722-25.578,20.722c-14.13,0-25.582-9.277-25.582-20.722v9.585
			c0,11.441,11.452,20.721,25.582,20.721c14.127,0,25.578-9.279,25.578-20.721V103.505z"/>
		<ellipse fill="#FF5A2C" cx="414.506" cy="103.504" rx="25.58" ry="20.723"/>
	</g>
	<g>
		<path fill="#DB2F0E" d="M439.182,178.521c0,11.448-11.452,20.724-25.579,20.724c-14.126,0-25.579-9.276-25.579-20.724v9.583
			c0,11.446,11.453,20.724,25.579,20.724c14.127,0,25.579-9.278,25.579-20.724V178.521z"/>
		<ellipse fill="#FF5A2C" cx="413.603" cy="178.52" rx="25.579" ry="20.725"/>
	</g>
	<g>
		<g>
			<path fill="#DB2F0E" d="M391.357,140.599c0,11.447-11.449,20.724-25.577,20.724c-14.128,0-25.58-9.277-25.58-20.724v9.586
				c0,11.444,11.451,20.723,25.58,20.723c14.128,0,25.577-9.279,25.577-20.723V140.599z"/>
			<ellipse fill="#FF5A2C" cx="365.779" cy="140.599" rx="25.578" ry="20.724"/>
		</g>
	</g>
</g>
<g>
	<g>
		<polyline fill="#2F58BC" points="413.385,223.901 361.969,264.878 266.489,187.325 317.594,147.388 		"/>
		<g>
			<g>
				<path fill="#103799" d="M343.601,180.647c0,11.247-11.132,20.359-24.867,20.359c-13.732,0-24.865-9.112-24.865-20.359v9.417
					c0,11.244,11.133,20.358,24.865,20.358c13.736,0,24.867-9.114,24.867-20.358V180.647z"/>
				<ellipse fill="#335FCC" cx="318.734" cy="180.648" rx="24.867" ry="20.359"/>
			</g>
		</g>
	</g>
</g>
<g>
	<polygon fill="#671AAA" points="57.146,246.287 100.037,213.908 100.08,213.912 183.716,280.774 141.017,313.153 98.985,279.774 
		99.152,279.649 	"/>
	<g>
		<path fill="#490982" d="M163.838,274.073c-0.046,10.051-10.134,18.151-22.541,18.096c-12.403-0.058-22.42-8.249-22.375-18.299
			l-0.038,8.415c-0.046,10.049,9.971,18.239,22.375,18.297c12.406,0.056,22.496-8.044,22.541-18.094L163.838,274.073z"/>
		<path fill="#7120B7" d="M118.921,273.87c-0.045,10.051,9.972,18.241,22.375,18.299c12.407,0.057,22.495-8.043,22.541-18.095
			c0.045-10.049-9.97-18.241-22.377-18.298C129.058,255.721,118.968,263.821,118.921,273.87z"/>
	</g>
	<g>
		<g>
			<path fill="#490982" d="M122,240.588c-0.045,10.051-10.136,18.149-22.539,18.093c-12.406-0.056-22.424-8.248-22.377-18.299
				l-0.038,8.417c-0.046,10.047,9.972,18.241,22.378,18.297c12.404,0.056,22.493-8.047,22.539-18.091L122,240.588z"/>
			
				<ellipse transform="matrix(-0.0046 1 -1 -0.0046 340.4799 142.0364)" fill="#7120B7" cx="99.547" cy="240.479" rx="18.197" ry="22.459"/>
		</g>
	</g>
	<polygon fill="#66388E" points="57.146,246.287 56.952,289.079 140.754,356.643 140.757,356.051 140.951,313.153 	"/>
	<polygon fill="#793CA5" points="183.716,280.774 183.518,324.48 140.754,356.643 140.951,313.153 	"/>
</g>
<linearGradient id="SVGID_2_" gradientUnits="userSpaceOnUse" x1="555.9131" y1="545.417" x2="548.8764" y2="588.108" gradientTransform="matrix(-2.0051 -0.9881 2.3114 -0.5813 -105.5525 1214.9349)">
	<stop  offset="0.075" style="stop-color:#FFFFFF;stop-opacity:0"/>
	<stop  offset="0.6184" style="stop-color:#747474;stop-opacity:0.5874"/>
	<stop  offset="1" style="stop-color:#161616"/>
</linearGradient>
<polygon fill="url(#SVGID_2_)" points="1.265,333.364 81.775,398.92 141.12,356.771 56.809,289.124 "/>
<linearGradient id="SVGID_3_" gradientUnits="userSpaceOnUse" x1="290.7295" y1="513.6514" x2="284.9565" y2="548.6758" gradientTransform="matrix(-2.0051 -0.9881 2.3114 -0.5813 -105.5525 1214.9349)">
	<stop  offset="0.075" style="stop-color:#FFFFFF;stop-opacity:0"/>
	<stop  offset="0.16" style="stop-color:#F4F4F4;stop-opacity:0.0919"/>
	<stop  offset="0.3073" style="stop-color:#D8D8D8;stop-opacity:0.2511"/>
	<stop  offset="0.4994" style="stop-color:#AAAAAA;stop-opacity:0.4588"/>
	<stop  offset="0.7288" style="stop-color:#6A6A6A;stop-opacity:0.7068"/>
	<stop  offset="0.9873" style="stop-color:#1A1A1A;stop-opacity:0.9863"/>
	<stop  offset="1" style="stop-color:#161616"/>
</linearGradient>
<polygon fill="url(#SVGID_3_)" points="478.567,620.709 520.554,662.286 571.563,625.637 524.298,588.376 "/>
<g enable-background="new    ">
	<path fill="#FFFFFF" d="M453.277,499.475l-0.188-15.307l6.235-4.806l0.038,3.113l-4.074,3.14l0.035,2.896l3.852-2.968l0.037,2.962
		l-3.852,2.969l0.039,3.178l4.309-3.32l0.039,3.156L453.277,499.475z"/>
	<path fill="#FFFFFF" d="M468.008,475.857l0.149,12.148l-2.24,1.727l-0.149-12.148l-2.618,2.018l-0.039-3.156l7.479-5.765
		l0.039,3.157L468.008,475.857z"/>
	<path fill="#FFFFFF" d="M480.613,478.406l-0.079-6.398l-3.614,2.785l0.078,6.4l-2.239,1.726l-0.188-15.307l2.24-1.726l0.071,5.793
		l3.614-2.785l-0.071-5.795l2.24-1.726l0.188,15.307L480.613,478.406z"/>
	<path fill="#FFFFFF" d="M488.04,472.683l-0.188-15.307l6.235-4.806l0.038,3.113l-4.074,3.141l0.036,2.896l3.852-2.969l0.036,2.962
		l-3.852,2.968l0.039,3.18l4.31-3.322l0.039,3.156L488.04,472.683z"/>
	<path fill="#FFFFFF" d="M504.229,460.205l-2.089-4.523l-0.763,0.589l0.074,6.075l-2.188,1.686l-0.188-15.307l3.536-2.725
		c0.445-0.344,0.881-0.603,1.306-0.777c0.426-0.176,0.81-0.213,1.149-0.111c0.341,0.102,0.615,0.37,0.823,0.807
		c0.208,0.436,0.317,1.094,0.328,1.973c0.013,1.037-0.146,2.04-0.479,3.009c-0.331,0.968-0.797,1.837-1.396,2.604l2.504,4.683
		L504.229,460.205z M504.007,449.662c-0.005-0.36-0.054-0.617-0.148-0.77s-0.216-0.234-0.362-0.244
		c-0.146-0.012-0.31,0.03-0.489,0.125c-0.182,0.096-0.354,0.209-0.521,0.338l-1.197,0.922l0.044,3.566l1.065-0.821
		c0.185-0.142,0.372-0.312,0.565-0.513c0.192-0.199,0.366-0.424,0.523-0.676c0.156-0.251,0.283-0.538,0.381-0.861
		C503.965,450.406,504.012,450.05,504.007,449.662z"/>
	<path fill="#FFFFFF" d="M511.223,454.814l-0.188-15.307l6.235-4.805l0.038,3.113l-4.074,3.14l0.035,2.896l3.852-2.968l0.037,2.961
		l-3.852,2.969l0.039,3.179l4.309-3.321l0.039,3.156L511.223,454.814z"/>
	<path fill="#FFFFFF" d="M529.985,437.07c-0.179,0.901-0.439,1.757-0.781,2.566c-0.343,0.811-0.759,1.557-1.249,2.239
		c-0.489,0.683-1.035,1.257-1.638,1.721c-0.611,0.472-1.163,0.744-1.656,0.818c-0.492,0.073-0.912-0.028-1.26-0.306
		c-0.347-0.279-0.617-0.725-0.811-1.341c-0.192-0.615-0.294-1.384-0.305-2.307l-0.117-9.534l2.226-1.716l0.113,9.231
		c0.006,0.418,0.044,0.789,0.113,1.113c0.07,0.324,0.175,0.582,0.314,0.773c0.139,0.191,0.32,0.287,0.545,0.289
		c0.226,0.001,0.494-0.12,0.809-0.361c0.314-0.243,0.582-0.536,0.803-0.881c0.221-0.346,0.398-0.719,0.535-1.122
		c0.136-0.402,0.232-0.815,0.288-1.237c0.057-0.422,0.083-0.842,0.078-1.26l-0.113-9.231l2.239-1.726l0.117,9.533
		C530.247,435.258,530.164,436.168,529.985,437.07z"/>
	<path fill="#FFFFFF" d="M543.798,429.709l-0.082-10.871l-0.039,0.031l-2.275,12.688l-1.572,1.211l-2.478-9.023l-0.04,0.03
		l0.186,10.791l-2.108,1.625l-0.188-15.307l3.188-2.456l2.232,8.188l0.053-0.04l1.897-11.372l3.239-2.496l0.188,15.307
		L543.798,429.709z"/>
</g>
<g enable-background="new    ">
	<path fill="#1C3944" d="M554.107,419.843c0.008,0.605-0.114,1.208-0.367,1.811s-0.558,1.041-0.916,1.317
		c-0.183,0.141-0.356,0.221-0.519,0.236c-0.164,0.018-0.308-0.021-0.432-0.115c-0.124-0.092-0.224-0.238-0.297-0.438
		c-0.072-0.197-0.11-0.448-0.114-0.751c-0.003-0.288,0.027-0.589,0.094-0.901c0.067-0.314,0.161-0.615,0.28-0.904
		c0.12-0.289,0.26-0.553,0.42-0.793s0.332-0.43,0.515-0.572c0.358-0.275,0.669-0.311,0.932-0.105S554.1,419.237,554.107,419.843z"/>
	<path fill="#1C3944" d="M558.037,416.814c0.008,0.605-0.114,1.209-0.367,1.811c-0.253,0.603-0.558,1.041-0.916,1.316
		c-0.184,0.143-0.356,0.221-0.52,0.237s-0.307-0.022-0.431-0.115c-0.125-0.093-0.225-0.237-0.297-0.437s-0.111-0.449-0.115-0.752
		c-0.003-0.288,0.028-0.59,0.095-0.902s0.16-0.615,0.28-0.903s0.26-0.552,0.419-0.793c0.161-0.239,0.332-0.431,0.516-0.571
		c0.358-0.276,0.669-0.312,0.932-0.106C557.896,415.803,558.029,416.209,558.037,416.814z"/>
</g>
<g enable-background="new    ">
	<path fill="#FFFFFF" d="M568.59,410.6l-3.531-4.393l-0.026,0.02l0.087,7.048l-2.188,1.687l-0.188-15.307l2.188-1.687l0.077,6.226
		l0.04-0.03l3.236-8.779l2.803-2.161l-3.908,10.127l4.333,4.998L568.59,410.6z"/>
	<path fill="#FFFFFF" d="M575.362,405.381l-0.188-15.307l6.234-4.806l0.038,3.113l-4.073,3.14l0.036,2.896l3.851-2.969l0.036,2.963
		l-3.851,2.968l0.039,3.179l4.309-3.321l0.039,3.156L575.362,405.381z"/>
	<path fill="#FFFFFF" d="M591.551,392.903l-2.088-4.523l-0.764,0.589l0.075,6.074l-2.188,1.687l-0.188-15.307l3.536-2.726
		c0.445-0.344,0.881-0.602,1.307-0.777s0.809-0.212,1.149-0.11c0.34,0.101,0.614,0.37,0.823,0.806
		c0.207,0.437,0.316,1.094,0.327,1.973c0.013,1.037-0.146,2.041-0.479,3.01c-0.331,0.968-0.796,1.836-1.396,2.604l2.504,4.684
		L591.551,392.903z M591.328,382.359c-0.004-0.359-0.054-0.617-0.148-0.77s-0.216-0.233-0.361-0.244
		c-0.146-0.012-0.311,0.031-0.49,0.126c-0.181,0.096-0.354,0.208-0.521,0.337l-1.198,0.923l0.044,3.566l1.066-0.821
		c0.184-0.143,0.372-0.312,0.565-0.514c0.192-0.198,0.366-0.424,0.522-0.676c0.157-0.25,0.283-0.537,0.382-0.861
		C591.287,383.104,591.333,382.748,591.328,382.359z"/>
	<path fill="#FFFFFF" d="M604.439,382.97l-3.855-7.134l-0.039,0.03l0.175,9.97l-2.174,1.676l-0.188-15.307l2.554-1.968l3.843,7.121
		l0.04-0.03l-0.176-9.947l2.174-1.676l0.188,15.307L604.439,382.97z"/>
	<path fill="#FFFFFF" d="M612.167,377.014l-0.188-15.307l6.235-4.805l0.038,3.113l-4.074,3.14l0.036,2.896l3.852-2.968l0.036,2.961
		l-3.852,2.969l0.039,3.179l4.31-3.321l0.039,3.156L612.167,377.014z"/>
	<path fill="#FFFFFF" d="M623.392,368.363l-0.188-15.307l2.254-1.736l0.148,12.084l3.589-2.766l0.04,3.222L623.392,368.363z"/>
</g>
<g enable-background="new    ">
	<path fill="#FFFFFF" d="M453.475,373.791l-2.055-4.539l-0.768,0.582l0.029,6.076l-2.2,1.669l-0.072-15.308l3.557-2.698
		c0.448-0.34,0.885-0.596,1.312-0.769c0.426-0.171,0.81-0.205,1.149-0.102s0.612,0.374,0.816,0.812
		c0.205,0.438,0.31,1.096,0.313,1.975c0.005,1.039-0.162,2.041-0.501,3.006c-0.34,0.967-0.811,1.832-1.416,2.594l2.468,4.702
		L453.475,373.791z M453.331,363.244c-0.001-0.359-0.049-0.615-0.144-0.769c-0.093-0.153-0.213-0.235-0.358-0.249
		c-0.146-0.012-0.31,0.029-0.491,0.124c-0.182,0.093-0.355,0.204-0.523,0.331l-1.205,0.914l0.017,3.567l1.072-0.813
		c0.186-0.141,0.375-0.309,0.569-0.508c0.194-0.197,0.37-0.421,0.529-0.672c0.157-0.25,0.286-0.535,0.388-0.859
		C453.284,363.99,453.333,363.635,453.331,363.244z"/>
	<path fill="#FFFFFF" d="M468.114,359.417c-0.186,0.9-0.452,1.754-0.801,2.562c-0.349,0.807-0.771,1.55-1.266,2.229
		c-0.494,0.68-1.046,1.25-1.652,1.709c-0.614,0.467-1.167,0.734-1.661,0.805c-0.493,0.071-0.912-0.034-1.258-0.314
		c-0.344-0.281-0.611-0.729-0.799-1.347c-0.188-0.616-0.284-1.388-0.288-2.31l-0.045-9.534l2.239-1.699l0.043,9.232
		c0.002,0.418,0.037,0.789,0.104,1.114c0.068,0.324,0.17,0.584,0.309,0.775c0.137,0.192,0.317,0.289,0.543,0.292
		c0.225,0.004,0.495-0.114,0.811-0.354c0.316-0.24,0.587-0.531,0.81-0.875c0.223-0.343,0.404-0.715,0.544-1.117
		c0.138-0.4,0.238-0.813,0.298-1.235c0.06-0.421,0.088-0.84,0.086-1.258l-0.043-9.232l2.253-1.71l0.045,9.535
		C468.39,357.605,468.3,358.518,468.114,359.417z"/>
	<path fill="#FFFFFF" d="M480.774,348.606c0.004,0.836-0.094,1.616-0.293,2.339s-0.465,1.383-0.797,1.982
		c-0.332,0.599-0.71,1.136-1.137,1.61c-0.425,0.476-0.86,0.882-1.309,1.222l-3.715,2.818l-0.072-15.308l3.715-2.818
		c0.36-0.273,0.729-0.491,1.108-0.656c0.377-0.163,0.721-0.214,1.029-0.152c0.31,0.062,0.561,0.272,0.758,0.63
		c0.194,0.358,0.294,0.926,0.298,1.704c0.004,0.851-0.133,1.66-0.412,2.429c-0.277,0.768-0.645,1.448-1.1,2.039v0.043
		c0.264-0.128,0.512-0.183,0.746-0.164c0.233,0.018,0.436,0.113,0.608,0.285c0.174,0.173,0.312,0.423,0.415,0.75
		C480.72,347.688,480.772,348.103,480.774,348.606z M478.188,344.125c-0.002-0.52-0.124-0.806-0.366-0.861
		c-0.243-0.054-0.602,0.099-1.076,0.458l-1.106,0.84l0.015,3.156l1.212-0.919c0.422-0.32,0.747-0.709,0.979-1.166
		C478.077,345.176,478.191,344.673,478.188,344.125z M478.521,349.97c-0.003-0.634-0.15-0.963-0.44-0.989
		c-0.291-0.023-0.679,0.146-1.161,0.513l-1.252,0.949l0.017,3.503l1.265-0.959c0.175-0.133,0.358-0.298,0.546-0.491
		c0.189-0.193,0.359-0.414,0.513-0.66c0.153-0.245,0.277-0.525,0.373-0.836C478.477,350.688,478.522,350.345,478.521,349.97z"/>
	<path fill="#FFFFFF" d="M485.578,349.433l-0.072-15.308l2.267-1.72l0.072,15.308L485.578,349.433z"/>
	<path fill="#FFFFFF" d="M498.528,339.606l-2.068-3.855l-1.937,6.895l-2.688,2.039l3.229-10.564l-3.038-4.943l2.713-2.059
		l1.763,3.438l1.689-6.057l2.622-1.989l-2.917,9.461l3.411,5.527L498.528,339.606z"/>
</g>
<g enable-background="new    ">
	<path fill="#FFFFFF" d="M519.211,323.915l-3.497-4.42l-0.026,0.02l0.033,7.049l-2.2,1.669l-0.072-15.308l2.2-1.669l0.029,6.227
		l0.039-0.03l3.304-8.755l2.819-2.139l-3.985,10.097l4.294,5.032L519.211,323.915z"/>
	<path fill="#FFFFFF" d="M526.022,318.747l-0.072-15.308l6.271-4.758l0.015,3.113l-4.097,3.108l0.014,2.897l3.872-2.938l0.014,2.962
		l-3.872,2.938l0.015,3.179l4.334-3.289l0.016,3.156L526.022,318.747z"/>
	<path fill="#FFFFFF" d="M542.305,306.393l-2.054-4.539l-0.768,0.583l0.029,6.075l-2.2,1.669l-0.072-15.308l3.557-2.699
		c0.448-0.34,0.885-0.596,1.312-0.768c0.427-0.171,0.81-0.206,1.15-0.102c0.339,0.104,0.612,0.374,0.817,0.812
		c0.203,0.438,0.309,1.097,0.312,1.976c0.005,1.038-0.163,2.04-0.501,3.006c-0.34,0.966-0.812,1.831-1.416,2.593l2.468,4.702
		L542.305,306.393z M542.162,295.847c-0.001-0.36-0.049-0.617-0.144-0.77c-0.094-0.153-0.214-0.236-0.359-0.249
		c-0.146-0.012-0.31,0.029-0.49,0.124c-0.182,0.093-0.356,0.204-0.524,0.332l-1.204,0.914l0.017,3.567l1.072-0.813
		c0.185-0.14,0.375-0.309,0.569-0.507c0.194-0.198,0.369-0.421,0.528-0.672c0.158-0.25,0.287-0.535,0.388-0.859
		C542.115,296.592,542.164,296.236,542.162,295.847z"/>
	<path fill="#FFFFFF" d="M555.268,296.557l-3.802-7.162l-0.04,0.03l0.101,9.971l-2.187,1.659l-0.072-15.308l2.568-1.949l3.788,7.151
		l0.04-0.03l-0.1-9.949l2.187-1.659l0.072,15.308L555.268,296.557z"/>
	<path fill="#FFFFFF" d="M563.04,290.66l-0.072-15.308l6.271-4.757l0.015,3.113l-4.097,3.108l0.014,2.897l3.872-2.938l0.014,2.962
		l-3.872,2.938l0.015,3.179l4.334-3.289l0.016,3.156L563.04,290.66z"/>
	<path fill="#FFFFFF" d="M574.33,282.094l-0.072-15.308l2.266-1.72l0.057,12.086l3.609-2.738l0.016,3.222L574.33,282.094z"/>
</g>
<g enable-background="new    ">
	<path fill="#333333" d="M530.351,226.234c0.006,1.341-0.142,2.611-0.441,3.815c-0.299,1.202-0.696,2.305-1.189,3.308
		c-0.495,1.003-1.053,1.889-1.676,2.657c-0.624,0.769-1.255,1.395-1.896,1.881l-3.48,2.636l-0.06-15.308l3.375-2.556
		c0.659-0.499,1.31-0.866,1.952-1.1c0.642-0.233,1.216-0.248,1.719-0.044c0.503,0.205,0.91,0.681,1.223,1.428
		C530.188,223.699,530.346,224.792,530.351,226.234z M528.004,228.011c-0.003-0.864-0.092-1.518-0.265-1.957
		c-0.174-0.439-0.404-0.72-0.691-0.843c-0.287-0.122-0.612-0.118-0.979,0.015c-0.364,0.131-0.74,0.344-1.127,0.637l-1.12,0.848
		l0.034,8.951l1.067-0.809c0.404-0.306,0.793-0.675,1.165-1.109c0.374-0.435,0.702-0.933,0.986-1.495s0.512-1.196,0.681-1.903
		C527.925,229.64,528.008,228.862,528.004,228.011z"/>
	<path fill="#333333" d="M531.87,232.803l-0.06-15.308l6.275-4.753l0.012,3.113l-4.101,3.105l0.012,2.897l3.876-2.936l0.012,2.962
		l-3.876,2.936l0.012,3.179l4.337-3.285l0.013,3.156L531.87,232.803z"/>
	<path fill="#333333" d="M544.499,223.238l-2.255,1.708l-3.592-12.632l2.53-1.917l2.204,9.216l0.053-0.041l2.106-12.48l2.492-1.888
		L544.499,223.238z"/>
	<path fill="#333333" d="M548.862,219.933l-0.06-15.308l6.275-4.753l0.012,3.113l-4.101,3.105l0.012,2.897l3.876-2.936l0.012,2.962
		l-3.876,2.936l0.012,3.179l4.337-3.285l0.013,3.156L548.862,219.933z"/>
	<path fill="#333333" d="M556.863,213.873l-0.06-15.308l2.268-1.718l0.047,12.086l3.612-2.736l0.013,3.222L556.863,213.873z"/>
	<path fill="#333333" d="M573.1,193.833c0.005,1.211-0.117,2.414-0.368,3.609s-0.602,2.32-1.052,3.376
		c-0.45,1.057-0.985,2.015-1.608,2.877c-0.622,0.862-1.298,1.569-2.027,2.122c-0.729,0.553-1.405,0.869-2.026,0.949
		c-0.62,0.079-1.158-0.065-1.614-0.437c-0.456-0.37-0.812-0.959-1.071-1.768c-0.259-0.809-0.391-1.819-0.396-3.03
		c-0.005-1.225,0.118-2.428,0.369-3.608c0.252-1.181,0.602-2.288,1.052-3.324c0.45-1.034,0.984-1.974,1.603-2.817
		c0.617-0.844,1.291-1.543,2.021-2.096c0.729-0.552,1.407-0.877,2.033-0.975c0.625-0.097,1.164,0.028,1.62,0.377
		c0.456,0.35,0.812,0.921,1.071,1.716S573.095,192.608,573.1,193.833z M570.688,195.66c-0.002-0.663-0.07-1.233-0.205-1.709
		c-0.133-0.477-0.317-0.833-0.552-1.067c-0.235-0.233-0.518-0.345-0.848-0.334c-0.331,0.013-0.693,0.168-1.089,0.467
		c-0.396,0.3-0.756,0.692-1.08,1.176c-0.324,0.485-0.604,1.021-0.84,1.612s-0.416,1.223-0.541,1.895
		c-0.126,0.673-0.187,1.342-0.185,2.005c0.003,0.691,0.072,1.28,0.206,1.763c0.134,0.484,0.318,0.847,0.553,1.088
		s0.515,0.359,0.841,0.351c0.326-0.009,0.687-0.163,1.082-0.463c0.396-0.299,0.756-0.691,1.08-1.175
		c0.324-0.484,0.604-1.025,0.84-1.624c0.235-0.598,0.418-1.238,0.547-1.922C570.628,197.04,570.69,196.352,570.688,195.66z"/>
	<path fill="#333333" d="M581.658,184.466c0.003,0.895-0.095,1.724-0.295,2.49c-0.2,0.767-0.471,1.466-0.812,2.101
		s-0.735,1.208-1.183,1.72c-0.448,0.513-0.913,0.952-1.396,1.318l-1.12,0.848l0.022,5.772l-2.255,1.708l-0.06-15.308l3.428-2.596
		c0.509-0.386,0.986-0.664,1.431-0.835c0.445-0.17,0.833-0.196,1.163-0.078c0.332,0.117,0.593,0.404,0.783,0.859
		C581.557,182.921,581.654,183.587,581.658,184.466z M579.404,186.196c-0.002-0.36-0.048-0.623-0.136-0.787
		c-0.089-0.164-0.208-0.254-0.358-0.271c-0.149-0.017-0.319,0.025-0.509,0.126c-0.188,0.099-0.385,0.226-0.586,0.378l-0.988,0.749
		l0.014,3.611l0.948-0.719c0.211-0.16,0.414-0.342,0.606-0.546c0.193-0.204,0.366-0.436,0.521-0.697
		c0.152-0.26,0.272-0.543,0.359-0.848C579.361,186.889,579.405,186.557,579.404,186.196z"/>
	<path fill="#333333" d="M583.057,194.033l-0.06-15.308l6.275-4.753l0.012,3.113l-4.101,3.105l0.012,2.897l3.876-2.936l0.012,2.962
		l-3.876,2.936l0.012,3.179l4.337-3.285l0.013,3.156L583.057,194.033z"/>
	<path fill="#333333" d="M596.055,184.188l-2.05-4.541l-0.769,0.582l0.023,6.075l-2.201,1.667l-0.06-15.308l3.559-2.696
		c0.448-0.34,0.886-0.595,1.312-0.767s0.811-0.205,1.15-0.101c0.339,0.104,0.611,0.376,0.816,0.813
		c0.204,0.438,0.308,1.097,0.311,1.976c0.005,1.038-0.163,2.04-0.503,3.005c-0.339,0.966-0.812,1.83-1.418,2.592l2.465,4.704
		L596.055,184.188z M595.921,173.642c-0.002-0.36-0.049-0.616-0.143-0.77c-0.094-0.153-0.214-0.235-0.36-0.248
		c-0.146-0.012-0.31,0.029-0.49,0.123c-0.182,0.094-0.355,0.204-0.523,0.331l-1.205,0.913l0.014,3.567l1.072-0.812
		c0.186-0.141,0.375-0.309,0.569-0.507c0.195-0.198,0.37-0.421,0.529-0.672c0.158-0.25,0.287-0.535,0.389-0.858
		C595.873,174.388,595.922,174.032,595.921,173.642z"/>
</g>
<g enable-background="new    ">
	<path fill="#333333" d="M535.853,243.622l0.048,12.151l-2.255,1.708l-0.048-12.151l-2.636,1.997l-0.012-3.156l7.527-5.701
		l0.012,3.156L535.853,243.622z"/>
	<path fill="#333333" d="M548.867,238.21c0.005,1.211-0.119,2.414-0.369,3.609c-0.251,1.195-0.602,2.32-1.052,3.376
		c-0.45,1.057-0.986,2.015-1.607,2.877c-0.622,0.862-1.299,1.569-2.028,2.122c-0.729,0.552-1.404,0.868-2.026,0.949
		c-0.62,0.079-1.159-0.065-1.614-0.437c-0.455-0.37-0.812-0.959-1.071-1.768c-0.259-0.809-0.39-1.819-0.395-3.03
		c-0.005-1.225,0.118-2.428,0.369-3.608c0.251-1.181,0.601-2.288,1.052-3.324c0.449-1.034,0.984-1.974,1.601-2.817
		c0.619-0.844,1.293-1.543,2.022-2.095c0.729-0.553,1.407-0.877,2.032-0.976c0.625-0.097,1.165,0.029,1.621,0.377
		c0.454,0.35,0.812,0.921,1.071,1.716C548.73,235.976,548.862,236.986,548.867,238.21z M546.455,240.038
		c-0.003-0.663-0.07-1.233-0.206-1.709c-0.133-0.477-0.317-0.833-0.551-1.067c-0.235-0.233-0.518-0.345-0.848-0.333
		c-0.331,0.013-0.694,0.167-1.09,0.467c-0.396,0.299-0.755,0.691-1.079,1.175c-0.324,0.485-0.604,1.022-0.84,1.612
		c-0.236,0.59-0.417,1.223-0.542,1.896c-0.125,0.673-0.187,1.341-0.184,2.004c0.003,0.691,0.071,1.28,0.205,1.763
		c0.135,0.484,0.318,0.847,0.554,1.088c0.233,0.242,0.515,0.359,0.84,0.351c0.326-0.009,0.688-0.163,1.083-0.462
		c0.396-0.3,0.755-0.692,1.078-1.175c0.326-0.484,0.604-1.025,0.842-1.624c0.235-0.598,0.418-1.238,0.547-1.922
		C546.395,241.417,546.458,240.729,546.455,240.038z"/>
	<path fill="#333333" d="M560.086,229.713c0.005,1.211-0.119,2.414-0.369,3.609c-0.251,1.195-0.602,2.32-1.052,3.376
		c-0.45,1.057-0.986,2.015-1.607,2.877c-0.623,0.862-1.299,1.569-2.028,2.122c-0.729,0.553-1.404,0.869-2.026,0.949
		c-0.621,0.079-1.159-0.065-1.614-0.437c-0.455-0.37-0.812-0.959-1.071-1.768c-0.259-0.809-0.391-1.819-0.396-3.03
		c-0.005-1.225,0.119-2.428,0.37-3.608c0.251-1.181,0.601-2.289,1.052-3.324c0.449-1.034,0.983-1.974,1.601-2.817
		c0.619-0.844,1.293-1.543,2.022-2.096c0.729-0.552,1.406-0.877,2.032-0.975c0.625-0.097,1.165,0.028,1.621,0.377
		c0.454,0.35,0.812,0.921,1.071,1.716C559.949,227.479,560.081,228.489,560.086,229.713z M557.674,231.541
		c-0.003-0.663-0.07-1.234-0.206-1.709c-0.134-0.477-0.317-0.833-0.552-1.068c-0.235-0.233-0.517-0.344-0.848-0.333
		c-0.331,0.013-0.693,0.168-1.089,0.467c-0.396,0.3-0.755,0.692-1.08,1.176c-0.324,0.484-0.604,1.021-0.84,1.612
		c-0.235,0.59-0.416,1.223-0.541,1.895c-0.125,0.673-0.187,1.341-0.184,2.004c0.003,0.691,0.07,1.28,0.205,1.764
		s0.318,0.847,0.554,1.088c0.233,0.242,0.514,0.358,0.839,0.351c0.327-0.009,0.688-0.163,1.084-0.463
		c0.396-0.299,0.755-0.691,1.078-1.175c0.325-0.484,0.604-1.025,0.841-1.624c0.235-0.598,0.418-1.238,0.548-1.922
		S557.677,232.232,557.674,231.541z"/>
	<path fill="#333333" d="M561.605,236.304l-0.06-15.308l2.268-1.718l0.047,12.086l3.612-2.736l0.013,3.222L561.605,236.304z"/>
	<path fill="#333333" d="M574.233,226.739l-3.493-4.423l-0.027,0.02l0.027,7.049l-2.201,1.667l-0.06-15.308l2.201-1.667l0.023,6.227
		l0.04-0.03l3.312-8.752l2.821-2.137l-3.993,10.094l4.29,5.034L574.233,226.739z"/>
	<path fill="#333333" d="M577.912,223.953l-0.06-15.308l2.268-1.718l0.06,15.308L577.912,223.953z"/>
	<path fill="#333333" d="M586.051,205.601l0.048,12.151l-2.255,1.708l-0.048-12.151l-2.636,1.997l-0.012-3.156l7.527-5.701
		l0.012,3.156L586.051,205.601z"/>
</g>
<g enable-background="new    ">
	<path fill="#333333" d="M440.828,313.419l-2.236,1.676l-1.842-8.967l-0.04,0.03l-1.862,11.745l-2.25,1.687l-2.644-13.314
		l2.435-1.825l1.472,9.073l0.039-0.029l1.678-11.434l2.355-1.765l1.67,8.923l0.04-0.03l1.519-11.314l2.355-1.766L440.828,313.419z"
		/>
	<path fill="#333333" d="M444.467,310.691l0.016-15.308l6.299-4.722l-0.003,3.113l-4.115,3.085l-0.003,2.897l3.891-2.917
		l-0.003,2.962l-3.891,2.917l-0.004,3.179l4.354-3.264l-0.003,3.156L444.467,310.691z"/>
	<path fill="#333333" d="M459.808,294.74c-0.001,0.836-0.104,1.615-0.307,2.337c-0.203,0.721-0.473,1.38-0.809,1.978
		c-0.336,0.597-0.717,1.132-1.146,1.604c-0.428,0.473-0.867,0.877-1.316,1.214l-3.731,2.798l0.016-15.308l3.731-2.798
		c0.361-0.271,0.732-0.487,1.111-0.649c0.379-0.161,0.723-0.21,1.031-0.147c0.309,0.064,0.559,0.276,0.753,0.635
		c0.192,0.359,0.29,0.927,0.289,1.705c-0.001,0.851-0.143,1.66-0.425,2.426c-0.283,0.766-0.654,1.445-1.114,2.034v0.043
		c0.265-0.126,0.515-0.18,0.748-0.16c0.233,0.02,0.437,0.116,0.607,0.29c0.172,0.173,0.309,0.424,0.409,0.751
		C459.758,293.82,459.808,294.236,459.808,294.74z M457.545,296.091c0.001-0.634-0.145-0.964-0.436-0.992
		c-0.29-0.026-0.679,0.142-1.163,0.505l-1.258,0.943l-0.004,3.503l1.271-0.953c0.177-0.132,0.359-0.295,0.55-0.488
		c0.188-0.192,0.361-0.412,0.517-0.657c0.154-0.245,0.28-0.524,0.377-0.834C457.495,296.808,457.545,296.466,457.545,296.091z
		 M457.247,290.244c0.001-0.52-0.121-0.806-0.362-0.863c-0.243-0.055-0.603,0.095-1.078,0.452l-1.112,0.833l-0.003,3.156
		l1.218-0.913c0.423-0.318,0.752-0.704,0.986-1.16C457.129,291.293,457.247,290.792,457.247,290.244z"/>
	<path fill="#333333" d="M468.052,288.567c-0.001,0.835-0.106,1.636-0.313,2.403c-0.209,0.768-0.48,1.474-0.816,2.122
		c-0.335,0.647-0.713,1.225-1.132,1.733s-0.845,0.925-1.277,1.249c-0.423,0.318-0.836,0.547-1.236,0.689
		c-0.402,0.143-0.768,0.176-1.098,0.099c-0.331-0.076-0.619-0.277-0.866-0.604c-0.245-0.326-0.431-0.803-0.553-1.432l2.064-2.434
		c0.087,0.438,0.269,0.746,0.541,0.923c0.273,0.177,0.622,0.107,1.045-0.211c0.159-0.119,0.32-0.275,0.483-0.47
		c0.163-0.194,0.309-0.415,0.437-0.663c0.129-0.247,0.234-0.524,0.318-0.833c0.084-0.308,0.127-0.642,0.127-1.002
		c0-0.389-0.055-0.671-0.165-0.848c-0.11-0.177-0.256-0.273-0.436-0.289c-0.181-0.016-0.386,0.03-0.615,0.137
		c-0.229,0.108-0.459,0.246-0.688,0.418l-0.595,0.446l0.003-2.638l0.648-0.486c0.211-0.159,0.415-0.336,0.608-0.533
		c0.193-0.195,0.368-0.42,0.522-0.674c0.154-0.253,0.278-0.531,0.371-0.832c0.094-0.302,0.14-0.642,0.141-1.019
		c0-0.551-0.118-0.882-0.356-0.994c-0.238-0.112-0.512-0.052-0.82,0.179c-0.318,0.238-0.593,0.6-0.826,1.084
		c-0.235,0.486-0.388,1.014-0.458,1.587l-2.064,0.768c0.115-0.734,0.288-1.429,0.518-2.083c0.23-0.655,0.502-1.262,0.814-1.821
		c0.314-0.559,0.657-1.061,1.027-1.504c0.37-0.444,0.749-0.811,1.138-1.102c0.415-0.311,0.818-0.526,1.211-0.648
		c0.393-0.121,0.743-0.117,1.051,0.013c0.309,0.129,0.557,0.394,0.747,0.793c0.188,0.399,0.283,0.966,0.282,1.703
		c-0.001,0.852-0.149,1.681-0.445,2.486c-0.297,0.807-0.673,1.483-1.133,2.029v0.064c0.264-0.097,0.507-0.117,0.728-0.06
		c0.22,0.058,0.409,0.183,0.567,0.373c0.159,0.19,0.281,0.443,0.369,0.759C468.008,287.762,468.052,288.136,468.052,288.567z"/>
	<path fill="#333333" d="M482.575,282.123l-0.726-2.459l-3.625,2.718l-0.69,3.52l-2.462,1.845l3.945-18.253l2.197-1.647
		l3.874,12.392L482.575,282.123z M480.072,272.786l-1.196,6.146l2.354-1.766L480.072,272.786z"/>
	<path fill="#333333" d="M492.986,263.731c-0.001,0.895-0.104,1.724-0.307,2.488c-0.204,0.765-0.478,1.463-0.822,2.096
		c-0.345,0.633-0.741,1.204-1.192,1.714c-0.449,0.51-0.917,0.948-1.402,1.312l-1.124,0.843l-0.006,5.772l-2.264,1.696l0.016-15.308
		l3.44-2.579c0.512-0.384,0.99-0.659,1.437-0.828c0.443-0.168,0.832-0.193,1.163-0.073c0.33,0.119,0.59,0.408,0.778,0.863
		C492.893,262.186,492.987,262.852,492.986,263.731z M490.724,265.45c0-0.36-0.043-0.624-0.132-0.788
		c-0.088-0.164-0.207-0.255-0.356-0.273c-0.149-0.017-0.319,0.024-0.509,0.123c-0.189,0.098-0.386,0.224-0.589,0.376l-0.992,0.744
		l-0.004,3.611l0.952-0.714c0.212-0.159,0.415-0.34,0.608-0.543c0.194-0.203,0.368-0.434,0.523-0.695
		c0.155-0.259,0.276-0.542,0.364-0.846C490.679,266.142,490.724,265.811,490.724,265.45z"/>
	<path fill="#333333" d="M494.338,273.304l0.016-15.308l2.276-1.706l-0.016,15.308L494.338,273.304z"/>
</g>
<g enable-background="new    ">
	<path fill="#FFFFFF" d="M459.688,209.786c-0.005,1.341-0.161,2.611-0.471,3.812c-0.309,1.2-0.713,2.299-1.214,3.298
		c-0.502,1-1.067,1.881-1.695,2.644c-0.629,0.764-1.267,1.386-1.911,1.867l-3.5,2.61l0.056-15.308l3.394-2.531
		c0.663-0.494,1.316-0.856,1.961-1.085c0.645-0.228,1.217-0.238,1.719-0.031c0.502,0.208,0.905,0.687,1.211,1.437
		S459.692,208.344,459.688,209.786z M457.328,211.545c0.003-0.864-0.081-1.518-0.251-1.958c-0.171-0.441-0.398-0.724-0.685-0.848
		c-0.286-0.124-0.612-0.122-0.979,0.008c-0.366,0.129-0.744,0.338-1.133,0.628l-1.127,0.84l-0.032,8.951l1.073-0.8
		c0.406-0.303,0.799-0.67,1.175-1.102c0.377-0.432,0.709-0.928,0.997-1.487c0.288-0.56,0.52-1.192,0.694-1.898
		C457.235,213.174,457.325,212.396,457.328,211.545z"/>
	<path fill="#FFFFFF" d="M464.471,213.895l0.056-15.308l2.279-1.7l-0.056,15.308L464.471,213.895z"/>
	<path fill="#FFFFFF" d="M476.998,193.254c-0.192-0.258-0.445-0.39-0.759-0.394c-0.312-0.003-0.615,0.103-0.907,0.321
		c-0.149,0.112-0.302,0.247-0.457,0.406c-0.154,0.158-0.294,0.345-0.418,0.559c-0.125,0.215-0.229,0.451-0.313,0.708
		c-0.086,0.257-0.127,0.537-0.129,0.84c-0.001,0.26,0.032,0.451,0.098,0.575c0.065,0.123,0.162,0.202,0.29,0.236
		c0.127,0.035,0.279,0.04,0.456,0.015c0.176-0.023,0.374-0.059,0.596-0.109c0.316-0.064,0.646-0.12,0.992-0.169
		c0.344-0.047,0.655-0.003,0.938,0.131c0.281,0.135,0.515,0.389,0.697,0.762c0.184,0.374,0.275,0.942,0.272,1.706
		c-0.003,0.88-0.105,1.715-0.308,2.503c-0.2,0.79-0.47,1.52-0.807,2.188c-0.338,0.668-0.724,1.265-1.157,1.79
		c-0.434,0.524-0.88,0.958-1.34,1.301c-0.672,0.501-1.32,0.794-1.946,0.88c-0.626,0.086-1.146-0.069-1.559-0.466l1.493-3.572
		c0.229,0.291,0.529,0.451,0.904,0.48s0.747-0.094,1.118-0.371c0.168-0.125,0.331-0.276,0.492-0.453
		c0.158-0.176,0.298-0.374,0.418-0.593c0.119-0.217,0.216-0.462,0.287-0.731c0.07-0.268,0.107-0.555,0.108-0.857
		c0.001-0.288-0.043-0.5-0.13-0.636c-0.088-0.135-0.213-0.225-0.376-0.27c-0.162-0.044-0.366-0.043-0.607,0
		c-0.244,0.045-0.52,0.103-0.828,0.175c-0.299,0.065-0.593,0.097-0.879,0.095c-0.287-0.001-0.542-0.088-0.766-0.259
		c-0.225-0.171-0.404-0.446-0.539-0.827c-0.136-0.38-0.201-0.917-0.198-1.61c0.003-0.85,0.11-1.657,0.325-2.42
		c0.214-0.764,0.495-1.469,0.84-2.114c0.347-0.646,0.736-1.221,1.17-1.725c0.434-0.502,0.871-0.919,1.312-1.249
		c0.53-0.396,1.072-0.64,1.623-0.735c0.551-0.095,1.033,0.013,1.446,0.323L476.998,193.254z"/>
	<path fill="#FFFFFF" d="M486.891,185.058l-0.044,12.151l-2.268,1.691l0.044-12.151l-2.65,1.977l0.012-3.156l7.568-5.644
		l-0.012,3.156L486.891,185.058z"/>
	<path fill="#FFFFFF" d="M498.552,188.48l-2.016-4.556l-0.772,0.576l-0.022,6.075l-2.214,1.651l0.056-15.308l3.579-2.669
		c0.451-0.336,0.89-0.589,1.318-0.757c0.428-0.168,0.812-0.198,1.149-0.092c0.339,0.107,0.609,0.381,0.811,0.82
		c0.201,0.439,0.301,1.099,0.298,1.978c-0.004,1.038-0.18,2.039-0.527,3.002c-0.347,0.963-0.826,1.824-1.437,2.581l2.428,4.722
		L498.552,188.48z M498.497,177.934c0.001-0.36-0.045-0.616-0.137-0.771c-0.093-0.154-0.212-0.238-0.357-0.251
		c-0.146-0.013-0.31,0.026-0.492,0.12c-0.182,0.091-0.357,0.201-0.526,0.327l-1.212,0.904l-0.013,3.567l1.079-0.804
		c0.187-0.139,0.377-0.306,0.573-0.503c0.194-0.196,0.373-0.418,0.533-0.667c0.16-0.25,0.292-0.533,0.395-0.855
		C498.443,178.679,498.495,178.323,498.497,177.934z"/>
	<path fill="#FFFFFF" d="M505.629,183.202l0.056-15.308l2.28-1.7l-0.056,15.308L505.629,183.202z"/>
	<path fill="#FFFFFF" d="M520.493,167.677c-0.003,0.836-0.108,1.615-0.313,2.336c-0.205,0.721-0.477,1.379-0.812,1.976
		c-0.338,0.597-0.721,1.13-1.15,1.601c-0.429,0.471-0.869,0.874-1.32,1.21l-3.737,2.788l0.056-15.308l3.737-2.788
		c0.363-0.271,0.734-0.485,1.112-0.646c0.381-0.161,0.725-0.208,1.032-0.145c0.309,0.065,0.559,0.277,0.751,0.637
		c0.193,0.36,0.288,0.928,0.285,1.706c-0.003,0.851-0.146,1.659-0.432,2.425c-0.284,0.765-0.658,1.443-1.117,2.03v0.043
		c0.265-0.125,0.513-0.179,0.747-0.158c0.233,0.02,0.436,0.117,0.606,0.29c0.172,0.174,0.307,0.426,0.407,0.753
		C520.444,166.756,520.495,167.173,520.493,167.677z M518.227,169.021c0.002-0.634-0.142-0.965-0.432-0.994
		c-0.291-0.026-0.681,0.141-1.166,0.503l-1.26,0.939l-0.013,3.503l1.272-0.948c0.177-0.132,0.361-0.294,0.552-0.487
		c0.189-0.192,0.362-0.411,0.519-0.656c0.153-0.244,0.281-0.522,0.379-0.833C518.176,169.738,518.226,169.396,518.227,169.021z
		 M517.944,163.173c0.001-0.52-0.118-0.807-0.36-0.864c-0.242-0.056-0.603,0.093-1.08,0.449l-1.113,0.83l-0.012,3.156l1.22-0.909
		c0.425-0.316,0.755-0.703,0.989-1.157C517.823,164.223,517.942,163.721,517.944,163.173z"/>
	<path fill="#FFFFFF" d="M532.968,159.57c-0.191,0.899-0.467,1.75-0.822,2.555c-0.354,0.803-0.782,1.543-1.283,2.219
		c-0.5,0.675-1.056,1.24-1.665,1.694c-0.619,0.461-1.175,0.725-1.668,0.792c-0.495,0.066-0.913-0.042-1.256-0.326
		c-0.343-0.284-0.605-0.734-0.789-1.353c-0.182-0.619-0.271-1.389-0.268-2.311l0.034-9.535l2.253-1.68l-0.033,9.232
		c-0.002,0.418,0.03,0.79,0.095,1.114c0.065,0.325,0.165,0.586,0.302,0.778c0.136,0.194,0.316,0.292,0.541,0.297
		c0.226,0.005,0.496-0.111,0.813-0.348c0.319-0.238,0.592-0.526,0.816-0.868c0.227-0.341,0.41-0.711,0.553-1.112
		c0.144-0.4,0.246-0.812,0.309-1.233c0.063-0.42,0.096-0.839,0.098-1.257l0.033-9.232l2.267-1.691l-0.034,9.535
		C533.259,157.761,533.16,158.672,532.968,159.57z"/>
	<path fill="#FFFFFF" d="M542.127,143.867l-0.044,12.151l-2.268,1.69l0.044-12.151l-2.65,1.977l0.012-3.156l7.568-5.644
		l-0.012,3.156L542.127,143.867z"/>
	<path fill="#FFFFFF" d="M548.764,151.036l0.056-15.308l6.31-4.706l-0.012,3.113l-4.122,3.074l-0.01,2.897l3.897-2.906l-0.011,2.962
		l-3.897,2.906l-0.012,3.179l4.361-3.252l-0.012,3.156L548.764,151.036z"/>
	<path fill="#FFFFFF" d="M568.915,128.333c-0.005,1.341-0.162,2.611-0.471,3.812c-0.309,1.2-0.713,2.3-1.215,3.299
		c-0.501,0.999-1.066,1.881-1.695,2.644c-0.628,0.764-1.266,1.386-1.911,1.867l-3.499,2.609l0.056-15.308l3.394-2.531
		c0.662-0.494,1.315-0.856,1.961-1.085c0.644-0.228,1.217-0.239,1.718-0.031c0.503,0.208,0.906,0.687,1.211,1.437
		C568.77,125.797,568.92,126.892,568.915,128.333z M566.556,130.092c0.003-0.864-0.081-1.517-0.252-1.958
		c-0.17-0.441-0.397-0.724-0.684-0.849c-0.286-0.124-0.613-0.122-0.979,0.008s-0.743,0.338-1.133,0.629l-1.126,0.84l-0.032,8.951
		l1.073-0.8c0.406-0.303,0.799-0.67,1.175-1.102s0.709-0.928,0.997-1.488c0.288-0.56,0.52-1.192,0.693-1.897
		C566.463,131.722,566.553,130.943,566.556,130.092z"/>
</g>
<g enable-background="new    ">
	<path fill="#FFFFFF" d="M449.035,251.282l-0.72-2.461l-3.631,2.708l-0.701,3.52l-2.465,1.838l3.991-18.244l2.201-1.641
		l3.842,12.401L449.035,251.282z M446.557,241.938l-1.212,6.144l2.359-1.76L446.557,241.938z"/>
	<path fill="#FFFFFF" d="M462.566,230.625c-0.003,0.895-0.107,1.723-0.312,2.487c-0.206,0.765-0.481,1.462-0.827,2.094
		c-0.347,0.633-0.745,1.203-1.196,1.711c-0.452,0.509-0.92,0.945-1.406,1.308l-1.126,0.84l-0.021,5.772l-2.268,1.691l0.055-15.308
		l3.447-2.571c0.512-0.382,0.991-0.656,1.437-0.824c0.446-0.167,0.835-0.19,1.164-0.069c0.33,0.12,0.589,0.409,0.777,0.865
		C462.478,229.079,462.569,229.746,462.566,230.625z M460.3,232.337c0.001-0.36-0.042-0.624-0.13-0.788
		c-0.087-0.165-0.205-0.257-0.355-0.274c-0.149-0.018-0.319,0.023-0.51,0.122c-0.189,0.098-0.387,0.223-0.589,0.375l-0.994,0.741
		l-0.013,3.611l0.954-0.711c0.212-0.158,0.415-0.339,0.609-0.542c0.194-0.202,0.37-0.433,0.524-0.692
		c0.156-0.259,0.278-0.541,0.366-0.845C460.253,233.029,460.298,232.698,460.3,232.337z"/>
	<path fill="#FFFFFF" d="M474.364,221.827c-0.003,0.895-0.107,1.724-0.312,2.488c-0.206,0.764-0.482,1.462-0.827,2.094
		c-0.347,0.632-0.745,1.202-1.196,1.711c-0.452,0.509-0.92,0.945-1.406,1.308l-1.127,0.84l-0.021,5.772l-2.267,1.691l0.055-15.308
		l3.447-2.57c0.512-0.382,0.991-0.657,1.437-0.825c0.446-0.167,0.835-0.19,1.164-0.069c0.33,0.12,0.589,0.409,0.776,0.865
		C474.274,220.281,474.367,220.948,474.364,221.827z M472.098,223.54c0.001-0.36-0.042-0.624-0.13-0.788
		c-0.087-0.165-0.205-0.256-0.355-0.274c-0.149-0.018-0.319,0.023-0.51,0.122c-0.19,0.098-0.387,0.223-0.589,0.374l-0.995,0.741
		l-0.013,3.611l0.955-0.711c0.212-0.158,0.415-0.339,0.609-0.542s0.37-0.434,0.524-0.693c0.155-0.259,0.278-0.541,0.366-0.845
		C472.051,224.232,472.096,223.9,472.098,223.54z"/>
	<path fill="#FFFFFF" d="M479.006,228.932l0.055-15.308l2.279-1.7l-0.043,12.086l3.633-2.709l-0.012,3.222L479.006,228.932z"/>
	<path fill="#FFFFFF" d="M488.975,221.498l0.055-15.308l2.279-1.7l-0.055,15.308L488.975,221.498z"/>
	<path fill="#FFFFFF" d="M503.225,210.602c-0.611,0.909-1.314,1.66-2.11,2.253c-0.725,0.541-1.393,0.844-2.007,0.914
		c-0.611,0.068-1.142-0.085-1.59-0.463c-0.449-0.377-0.799-0.968-1.052-1.771c-0.252-0.804-0.377-1.803-0.373-3
		c0.005-1.225,0.14-2.433,0.403-3.621c0.265-1.189,0.628-2.305,1.09-3.347c0.462-1.041,1.002-1.98,1.623-2.816
		c0.62-0.836,1.288-1.521,2.003-2.055c0.663-0.495,1.313-0.789,1.954-0.885c0.639-0.096,1.156,0.075,1.551,0.514l-1.547,3.655
		c-0.21-0.317-0.487-0.463-0.831-0.437c-0.344,0.027-0.697,0.175-1.06,0.445c-0.397,0.296-0.763,0.688-1.095,1.172
		c-0.332,0.485-0.618,1.026-0.858,1.622c-0.24,0.596-0.428,1.228-0.562,1.896c-0.135,0.668-0.203,1.341-0.206,2.018
		c-0.002,0.692,0.062,1.277,0.192,1.755c0.13,0.478,0.312,0.835,0.545,1.07c0.231,0.237,0.512,0.349,0.838,0.334
		c0.326-0.012,0.684-0.164,1.072-0.454c0.451-0.336,0.844-0.774,1.181-1.312s0.608-1.114,0.813-1.727l1.569,1.245
		C504.351,208.695,503.836,209.693,503.225,210.602z"/>
	<path fill="#FFFFFF" d="M515.168,201.965l-0.719-2.461l-3.632,2.708l-0.7,3.52l-2.466,1.838l3.992-18.244l2.2-1.641l3.843,12.401
		L515.168,201.965z M512.689,192.622l-1.212,6.144l2.36-1.759L512.689,192.622z"/>
	<path fill="#FFFFFF" d="M525.286,182.301l-0.044,12.151l-2.267,1.691l0.044-12.151l-2.651,1.977l0.011-3.156l7.569-5.644
		l-0.011,3.156L525.286,182.301z"/>
	<path fill="#FFFFFF" d="M531.924,189.47l0.055-15.308l2.279-1.7l-0.055,15.308L531.924,189.47z"/>
	<path fill="#FFFFFF" d="M549.262,168.842c-0.004,1.211-0.135,2.413-0.396,3.606c-0.26,1.193-0.618,2.315-1.076,3.368
		s-1.001,2.008-1.63,2.865s-1.311,1.56-2.044,2.106c-0.733,0.547-1.411,0.857-2.033,0.934c-0.621,0.075-1.157-0.074-1.61-0.448
		s-0.806-0.966-1.058-1.777c-0.253-0.811-0.377-1.822-0.373-3.033c0.005-1.225,0.137-2.427,0.397-3.605
		c0.259-1.179,0.617-2.284,1.075-3.315s0.998-1.966,1.623-2.806c0.624-0.84,1.304-1.533,2.037-2.08
		c0.733-0.547,1.413-0.867,2.04-0.96c0.625-0.092,1.164,0.037,1.617,0.389s0.806,0.927,1.059,1.724
		C549.144,166.606,549.267,167.618,549.262,168.842z M546.837,170.651c0.003-0.663-0.062-1.234-0.192-1.711
		s-0.312-0.834-0.544-1.071c-0.233-0.235-0.515-0.349-0.846-0.34c-0.33,0.01-0.695,0.163-1.093,0.459
		c-0.397,0.297-0.761,0.686-1.088,1.167c-0.328,0.482-0.611,1.017-0.852,1.605c-0.24,0.589-0.426,1.22-0.556,1.892
		c-0.13,0.671-0.196,1.339-0.199,2.002c-0.002,0.692,0.062,1.281,0.192,1.765c0.13,0.485,0.312,0.85,0.545,1.092
		c0.232,0.244,0.512,0.363,0.838,0.357c0.325-0.006,0.688-0.157,1.086-0.454c0.397-0.296,0.76-0.686,1.088-1.167
		c0.328-0.482,0.612-1.021,0.853-1.617c0.239-0.596,0.427-1.235,0.562-1.918C546.766,172.03,546.835,171.343,546.837,170.651z"/>
	<path fill="#FFFFFF" d="M560.013,168.524l-3.742-7.193l-0.04,0.03l0.018,9.971l-2.201,1.641l0.055-15.308l2.585-1.928l3.729,7.182
		l0.04-0.03l-0.017-9.95l2.2-1.641l-0.055,15.308L560.013,168.524z"/>
	<path fill="#FFFFFF" d="M572.832,147.666c-0.194-0.258-0.446-0.39-0.76-0.394c-0.312-0.003-0.615,0.103-0.907,0.321
		c-0.15,0.112-0.302,0.247-0.457,0.406c-0.154,0.158-0.294,0.345-0.418,0.559c-0.124,0.215-0.229,0.451-0.312,0.708
		c-0.086,0.257-0.128,0.537-0.129,0.84c-0.001,0.26,0.03,0.451,0.096,0.575c0.067,0.123,0.163,0.202,0.291,0.236
		c0.127,0.035,0.279,0.04,0.456,0.015c0.176-0.023,0.375-0.059,0.595-0.109c0.318-0.064,0.648-0.12,0.993-0.169
		c0.343-0.047,0.655-0.003,0.938,0.131c0.282,0.135,0.514,0.389,0.697,0.762c0.184,0.374,0.275,0.942,0.272,1.706
		c-0.003,0.88-0.105,1.715-0.307,2.503c-0.201,0.79-0.472,1.52-0.809,2.188s-0.723,1.265-1.155,1.79
		c-0.435,0.524-0.882,0.958-1.341,1.301c-0.672,0.501-1.32,0.794-1.946,0.88c-0.626,0.086-1.146-0.069-1.558-0.466l1.493-3.572
		c0.228,0.291,0.528,0.451,0.903,0.48c0.374,0.029,0.748-0.094,1.119-0.371c0.167-0.125,0.331-0.276,0.49-0.453
		c0.159-0.176,0.3-0.374,0.419-0.593c0.119-0.217,0.215-0.462,0.287-0.731c0.071-0.268,0.108-0.555,0.109-0.857
		c0.001-0.288-0.043-0.5-0.132-0.636c-0.087-0.135-0.212-0.225-0.374-0.27c-0.164-0.044-0.366-0.043-0.609,0.001
		c-0.242,0.044-0.519,0.102-0.827,0.175c-0.3,0.065-0.593,0.097-0.879,0.095c-0.286-0.001-0.542-0.088-0.766-0.259
		c-0.225-0.171-0.403-0.446-0.54-0.827c-0.135-0.38-0.201-0.917-0.198-1.61c0.003-0.85,0.111-1.657,0.326-2.42
		c0.214-0.764,0.494-1.469,0.841-2.114c0.346-0.646,0.735-1.221,1.169-1.725c0.434-0.502,0.872-0.919,1.313-1.249
		c0.53-0.396,1.071-0.64,1.622-0.735c0.552-0.095,1.033,0.013,1.447,0.323L572.832,147.666z"/>
</g>
<g>
	<g>
		<polyline fill="#2F58BC" points="413.336,223.907 361.969,264.878 316.779,228.348 366.802,186.291 		"/>
		<g>
			<g>
				<path fill="#103799" d="M390.135,218.262c0,11.247-11.134,20.36-24.866,20.36c-13.733,0-24.866-9.113-24.866-20.36v9.417
					c0,11.245,11.133,20.358,24.866,20.358c13.732,0,24.866-9.113,24.866-20.358V218.262L390.135,218.262z"/>
				<ellipse fill="#335FCC" cx="365.269" cy="218.263" rx="24.866" ry="20.359"/>
			</g>
		</g>
	</g>
	<polygon fill="#0E369B" points="361.777,466.737 266.077,390.945 266.489,187.325 361.969,264.878 	"/>
	<polygon fill="#2342A5" points="413.336,223.907 413.308,428.379 361.777,466.737 361.969,264.878 	"/>
</g>
<g enable-background="new    ">
	<path fill="#FFFFFF" d="M392.501,282.418c-0.273-0.816-0.413-1.895-0.42-3.232c-0.006-1.22,0.103-2.436,0.327-3.649
		c0.225-1.212,0.546-2.362,0.963-3.449c0.416-1.086,0.918-2.075,1.503-2.963c0.585-0.89,1.23-1.608,1.938-2.16
		c0.723-0.564,1.379-0.856,1.969-0.875c0.589-0.019,1.092,0.198,1.509,0.649c0.416,0.451,0.738,1.11,0.965,1.979
		s0.343,1.905,0.349,3.109c0.006,1.115-0.102,2.3-0.32,3.554c-0.221,1.254-0.545,2.385-0.977,3.393l-1.493-1.433
		c0.278-0.576,0.484-1.208,0.618-1.893c0.132-0.686,0.197-1.333,0.194-1.944c-0.003-0.669-0.076-1.228-0.22-1.676
		c-0.144-0.448-0.34-0.776-0.589-0.985c-0.248-0.209-0.541-0.295-0.879-0.255c-0.337,0.038-0.705,0.214-1.104,0.525
		c-0.409,0.319-0.783,0.722-1.122,1.211c-0.339,0.488-0.629,1.024-0.869,1.606c-0.241,0.583-0.428,1.203-0.562,1.86
		c-0.134,0.656-0.198,1.312-0.194,1.966c0.004,0.758,0.092,1.354,0.266,1.786c0.173,0.432,0.396,0.713,0.67,0.843l-1.416,3.769
		C393.144,283.814,392.774,283.236,392.501,282.418z"/>
	<path fill="#FFFFFF" d="M397.034,305.243c-0.715,0.558-1.369,0.851-1.963,0.88c-0.594,0.029-1.104-0.173-1.528-0.61
		c-0.425-0.438-0.756-1.095-0.99-1.971c-0.235-0.877-0.356-1.932-0.362-3.167c-0.007-1.234,0.103-2.465,0.327-3.693
		c0.224-1.227,0.545-2.388,0.962-3.482c0.417-1.095,0.921-2.089,1.51-2.98c0.59-0.893,1.241-1.617,1.956-2.174
		c0.723-0.563,1.377-0.858,1.962-0.881c0.585-0.023,1.084,0.188,1.497,0.636c0.412,0.447,0.731,1.109,0.958,1.984
		c0.227,0.876,0.343,1.931,0.35,3.165c0.006,1.234-0.099,2.465-0.314,3.694c-0.216,1.228-0.525,2.384-0.93,3.469
		c-0.405,1.084-0.897,2.069-1.479,2.955C398.409,303.955,397.757,304.68,397.034,305.243z M397.013,301.161
		c0.392-0.305,0.757-0.702,1.096-1.19c0.34-0.488,0.629-1.024,0.87-1.607c0.239-0.583,0.429-1.209,0.566-1.875
		c0.138-0.667,0.205-1.335,0.201-2.004c-0.003-0.669-0.077-1.224-0.22-1.665c-0.144-0.441-0.338-0.767-0.582-0.98
		c-0.245-0.212-0.537-0.294-0.879-0.243c-0.342,0.049-0.708,0.227-1.099,0.531c-0.409,0.319-0.785,0.725-1.129,1.216
		c-0.343,0.491-0.638,1.031-0.882,1.618c-0.245,0.586-0.437,1.21-0.573,1.869c-0.138,0.659-0.205,1.324-0.201,1.993
		c0.003,0.669,0.077,1.225,0.22,1.665c0.143,0.441,0.339,0.766,0.588,0.975c0.249,0.209,0.547,0.291,0.892,0.245
		C396.227,301.663,396.604,301.48,397.013,301.161z"/>
	<path fill="#FFFFFF" d="M392.57,326.929l5.877-10.965v-0.067l-5.909,4.698l-0.02-3.703l9.037-7.046l0.022,4.35l-5.864,10.933v0.066
		l5.896-4.687l0.02,3.703l-9.037,7.046L392.57,326.929z"/>
	<path fill="#FFFFFF" d="M399.844,340.719l-7.173,5.593l-0.02-3.814l7.173-5.593l-0.023-4.461l1.863-1.453l0.066,12.736
		l-1.864,1.453L399.844,340.719z"/>
	<path fill="#FFFFFF" d="M392.772,366.008l3.568-6.226l-0.007-1.3l-3.586,2.797l-0.02-3.726l9.036-7.046l0.031,6.022
		c0.004,0.759-0.037,1.533-0.123,2.324c-0.085,0.79-0.232,1.555-0.442,2.293s-0.488,1.414-0.836,2.028
		c-0.347,0.614-0.78,1.124-1.299,1.529c-0.612,0.477-1.129,0.588-1.549,0.333c-0.421-0.255-0.722-0.825-0.906-1.712l-3.846,7.143
		L392.772,366.008z M399.038,360.965c0.213-0.166,0.384-0.379,0.516-0.639c0.131-0.26,0.232-0.542,0.304-0.845
		c0.07-0.303,0.118-0.618,0.142-0.943c0.024-0.327,0.035-0.632,0.034-0.916l-0.011-2.039l-2.106,1.643l0.01,1.815
		c0.002,0.313,0.018,0.623,0.05,0.929c0.031,0.306,0.086,0.563,0.164,0.772s0.189,0.344,0.335,0.402
		C398.62,361.204,398.808,361.145,399.038,360.965z"/>
	<path fill="#FFFFFF" d="M397.475,390.825c-0.715,0.558-1.368,0.851-1.963,0.88c-0.593,0.029-1.104-0.172-1.528-0.609
		c-0.424-0.439-0.755-1.096-0.99-1.971c-0.235-0.877-0.355-1.932-0.362-3.166c-0.006-1.234,0.103-2.465,0.327-3.693
		c0.225-1.227,0.546-2.389,0.962-3.482c0.417-1.094,0.921-2.088,1.51-2.98c0.59-0.893,1.242-1.616,1.957-2.174
		c0.723-0.563,1.377-0.857,1.962-0.881s1.083,0.188,1.496,0.637c0.412,0.447,0.732,1.108,0.959,1.984
		c0.226,0.876,0.343,1.93,0.349,3.164c0.007,1.234-0.099,2.466-0.313,3.695c-0.216,1.227-0.526,2.383-0.931,3.467
		c-0.405,1.085-0.897,2.069-1.478,2.955C398.85,389.537,398.198,390.262,397.475,390.825z M397.454,386.743
		c0.391-0.305,0.756-0.702,1.095-1.19c0.34-0.487,0.63-1.023,0.87-1.606s0.43-1.209,0.567-1.876
		c0.137-0.666,0.204-1.335,0.201-2.004c-0.004-0.669-0.077-1.225-0.221-1.664c-0.143-0.441-0.337-0.768-0.581-0.98
		c-0.245-0.213-0.538-0.294-0.88-0.243c-0.341,0.05-0.707,0.227-1.099,0.531c-0.409,0.319-0.785,0.726-1.128,1.216
		c-0.344,0.491-0.638,1.031-0.883,1.617c-0.244,0.586-0.436,1.211-0.573,1.869c-0.137,0.659-0.204,1.324-0.201,1.993
		c0.004,0.669,0.077,1.225,0.22,1.665c0.144,0.441,0.34,0.766,0.588,0.975c0.249,0.21,0.547,0.291,0.893,0.244
		C396.668,387.244,397.045,387.062,397.454,386.743z"/>
	<path fill="#FFFFFF" d="M392.96,402.475l9.036-7.045l0.021,3.836l-7.136,5.564l0.031,6.111l-1.901,1.482L392.96,402.475z"/>
</g>
<g enable-background="new    ">
	<path fill="#FFFFFF" d="M377.272,311.246c-0.273-0.816-0.414-1.895-0.421-3.232c-0.006-1.22,0.103-2.435,0.328-3.649
		c0.224-1.212,0.545-2.362,0.962-3.448s0.918-2.075,1.503-2.964c0.585-0.89,1.23-1.608,1.938-2.16
		c0.723-0.563,1.38-0.856,1.969-0.875s1.092,0.198,1.509,0.649c0.417,0.451,0.738,1.111,0.965,1.979s0.344,1.905,0.35,3.109
		c0.006,1.115-0.102,2.3-0.321,3.553c-0.221,1.254-0.545,2.385-0.976,3.393l-1.494-1.433c0.278-0.576,0.485-1.207,0.618-1.893
		c0.133-0.686,0.198-1.334,0.195-1.944c-0.004-0.669-0.077-1.228-0.221-1.676c-0.144-0.448-0.339-0.777-0.588-0.985
		c-0.249-0.209-0.541-0.294-0.879-0.255c-0.337,0.038-0.706,0.214-1.105,0.525c-0.409,0.319-0.783,0.722-1.122,1.211
		c-0.339,0.488-0.629,1.023-0.869,1.606c-0.241,0.584-0.428,1.203-0.562,1.86c-0.133,0.656-0.198,1.312-0.194,1.966
		c0.004,0.758,0.092,1.354,0.266,1.786c0.173,0.432,0.396,0.712,0.67,0.843l-1.416,3.769
		C377.914,312.641,377.545,312.063,377.272,311.246z"/>
	<path fill="#FFFFFF" d="M377.163,321.162l9.036-7.046l0.055,10.616l-1.838,1.433l-0.036-6.936l-1.709,1.333l0.033,6.557
		l-1.749,1.364l-0.033-6.557l-1.876,1.462l0.038,7.337l-1.864,1.453L377.163,321.162z"/>
	<path fill="#FFFFFF" d="M377.313,350.314l5.877-10.965v-0.067l-5.91,4.698l-0.019-3.703l9.036-7.046l0.022,4.35l-5.864,10.933
		l0.001,0.066l5.896-4.687l0.019,3.703l-9.036,7.046L377.313,350.314z"/>
	<path fill="#FFFFFF" d="M384.586,364.104l-7.173,5.594l-0.02-3.814l7.173-5.593l-0.023-4.461l1.864-1.453l0.065,12.736
		l-1.863,1.453L384.586,364.104z"/>
	<path fill="#FFFFFF" d="M377.471,380.938l9.037-7.045l0.055,10.617l-1.839,1.433l-0.035-6.937l-1.71,1.334l0.034,6.557
		l-1.749,1.364l-0.034-6.558l-1.876,1.463l0.038,7.338l-1.864,1.453L377.471,380.938z"/>
	<path fill="#FFFFFF" d="M377.613,408.506l3.568-6.225l-0.007-1.3l-3.586,2.796l-0.02-3.725l9.037-7.045l0.03,6.021
		c0.004,0.758-0.036,1.532-0.122,2.324c-0.086,0.79-0.233,1.555-0.443,2.293s-0.488,1.414-0.835,2.029
		c-0.348,0.613-0.78,1.123-1.3,1.527c-0.612,0.479-1.129,0.59-1.549,0.334c-0.42-0.254-0.722-0.825-0.905-1.713l-3.847,7.143
		L377.613,408.506z M383.879,403.463c0.213-0.165,0.385-0.378,0.517-0.638c0.13-0.26,0.231-0.542,0.303-0.845
		c0.07-0.303,0.118-0.617,0.143-0.943c0.023-0.326,0.035-0.631,0.033-0.915l-0.01-2.039l-2.106,1.642l0.009,1.816
		c0.002,0.312,0.019,0.623,0.05,0.929c0.032,0.306,0.087,0.562,0.164,0.772c0.078,0.208,0.19,0.343,0.336,0.402
		C383.462,403.703,383.649,403.643,383.879,403.463z"/>
</g>
<g>
	<g>
		<polyline fill="#BA3131" points="623.121,562.836 571.756,603.808 525.223,566.192 576.589,525.222 		"/>
		<g>
			<g>
				<path fill="#991111" d="M599.922,557.193c0,11.245-11.134,20.357-24.867,20.357s-24.866-9.112-24.866-20.357v9.415
					c0,11.244,11.134,20.358,24.866,20.358c13.734,0,24.867-9.114,24.867-20.358V557.193z"/>
				<ellipse fill="#CC3636" cx="575.055" cy="557.193" rx="24.866" ry="20.357"/>
			</g>
		</g>
	</g>
	<polygon fill="#991010" points="571.563,625.637 524.265,588.222 525.223,566.192 571.756,603.808 	"/>
	<polygon fill="#A32424" points="623.121,562.836 623.095,587.278 571.563,625.637 571.756,603.808 	"/>
</g>
</svg>
